<?xml version="1.0" encoding="UTF-8" standalone="no"?>
<!-- Created with Inkscape (http://www.inkscape.org/) -->

<svg
   xmlns:dc="http://purl.org/dc/elements/1.1/"
   xmlns:cc="http://creativecommons.org/ns#"
   xmlns:rdf="http://www.w3.org/1999/02/22-rdf-syntax-ns#"
   xmlns:svg="http://www.w3.org/2000/svg"
   xmlns="http://www.w3.org/2000/svg"
   xmlns:sodipodi="http://sodipodi.sourceforge.net/DTD/sodipodi-0.dtd"
   xmlns:inkscape="http://www.inkscape.org/namespaces/inkscape"
   width="55.030285mm"
   height="76.225357mm"
   viewBox="0 0 55.030285 76.225357"
   version="1.1"
   id="svg8"
   inkscape:version="0.92.4 (f8dce91, 2019-08-02)"
   sodipodi:docname="bajov.svg">
  <defs
     id="defs2" />
  <sodipodi:namedview
     id="base"
     pagecolor="#ffffff"
     bordercolor="#666666"
     borderopacity="1.0"
     inkscape:pageopacity="0.0"
     inkscape:pageshadow="2"
     inkscape:zoom="1.4"
     inkscape:cx="-32.919303"
     inkscape:cy="138.92493"
     inkscape:document-units="mm"
     inkscape:current-layer="layer2"
     showgrid="false"
     showguides="true"
     inkscape:guide-bbox="true"
     fit-margin-top="0"
     fit-margin-left="0"
     fit-margin-right="0"
     fit-margin-bottom="0"
     inkscape:window-width="1366"
     inkscape:window-height="712"
     inkscape:window-x="0"
     inkscape:window-y="28"
     inkscape:window-maximized="1"
     inkscape:snap-others="false"
     inkscape:object-nodes="false"
     inkscape:snap-nodes="true"
     inkscape:object-paths="true">
    <sodipodi:guide
       position="27.528761,31.136901"
       orientation="1,0"
       id="guide838"
       inkscape:locked="false" />
  </sodipodi:namedview>
  <metadata
     id="metadata5">
    <rdf:RDF>
      <cc:Work
         rdf:about="">
        <dc:format>image/svg+xml</dc:format>
        <dc:type
           rdf:resource="http://purl.org/dc/dcmitype/StillImage" />
        <dc:title />
      </cc:Work>
    </rdf:RDF>
  </metadata>
  <g
     inkscape:groupmode="layer"
     id="layer2"
     inkscape:label="Layer 2"
     transform="translate(-0.45509012,-0.41451935)">
    <path
       style="fill:#004a29;fill-opacity:1;stroke:none;stroke-width:1.00514138px;stroke-linecap:butt;stroke-linejoin:miter;stroke-opacity:1"
       d="M 103.57227 130.95312 L 103.57227 131.10742 L 73.572266 144.10547 L 71.847656 148.23828 L 71.720703 148.26758 L 28.285156 194.70312 L 19.697266 248.79297 L 18.6875 289.10547 L 69.166016 289.10547 L 69.285156 289.52344 L 103.92773 289.52344 L 138.21484 289.52344 L 138.33398 289.10547 L 189.79102 289.10547 L 188.78125 248.79297 L 180.19531 194.70312 L 136.75781 148.26758 L 135.54492 147.97852 L 133.92773 144.10547 L 103.92773 131.10742 L 103.92773 130.95312 L 103.75 131.0293 L 103.57227 130.95312 z "
       transform="matrix(0.26458333,0,0,0.26458333,0.45509012,0.41451935)"
       id="path873" />
    <path
       style="fill:#7a7a7a;fill-opacity:1;stroke:none;stroke-width:0.27653494px;stroke-linecap:butt;stroke-linejoin:miter;stroke-opacity:1"
       d="m 27.952635,0.56202392 c -3.947231,0.0952807 -7.344047,1.92550928 -8.546764,3.05470208 -1.933928,1.8157092 -0.644922,3.0263078 -0.644922,3.0263078 0,0 -3.352545,0.7562798 -4.512903,1.5128236 -1.160358,0.7565444 -2.449462,8.7757606 -2.449462,11.0453966 0,2.269633 4.067968,6.561072 4.067968,6.561072 -0.186972,-15.52994 5.602242,-13.974832 5.602242,-14.731377 0,-0.756545 4.898934,-2.421141 5.156791,-0.756742 0.06092,0.393204 0.570159,0.665671 1.32705,0.8723 0.756894,-0.206629 1.266648,-0.479096 1.327568,-0.8723 0.257858,-1.664399 5.156793,1.97e-4 5.156793,0.756742 0,0.756544 5.789213,-0.798564 5.602242,14.731377 -3e-6,0 4.06745,-4.291438 4.06745,-6.561072 0,-2.269632 -1.289105,-10.2888522 -2.449462,-11.0453966 -1.160357,-0.7565438 -4.512903,-1.5128236 -4.512903,-1.5128236 0,0 1.289524,-1.2105986 -0.644406,-3.0263078 C 35.297201,2.4875332 31.899866,0.65730462 27.952635,0.56202392 Z"
       id="path832"
       inkscape:connector-curvature="0" />
    <rect
       style="opacity:1;fill:#00331c;fill-opacity:1;stroke:none;stroke-width:0.26499999;stroke-miterlimit:4;stroke-dasharray:none;stroke-opacity:1"
       id="rect840"
       width="11.22532"
       height="6.6817379"
       x="13.284027"
       y="53.521061" />
    <rect
       y="53.521061"
       x="31.32472"
       height="6.6817379"
       width="11.22532"
       id="rect842"
       style="opacity:1;fill:#00331c;fill-opacity:1;stroke:none;stroke-width:0.26499999;stroke-miterlimit:4;stroke-dasharray:none;stroke-opacity:1" />
    <path
       style="fill:#c9c9c9;fill-opacity:1;stroke:none;stroke-width:0.2685082px;stroke-linecap:butt;stroke-linejoin:miter;stroke-opacity:1"
       d="m 27.812658,25.591277 v 0.103353 l -12.937481,7.699789 c 0,0 2.100629,13.712147 1.412484,16.919379 -0.688145,3.207234 1.927131,9.888802 1.927131,9.888802 0,0 0.982279,3.21025 5.676363,4.752312 0.806324,-0.753005 3.852418,-1.009454 4.000509,-7.46143 0,0 0.09219,7.861498 3.96875,7.603171 2.881279,-0.192003 5.723612,-4.894053 5.723612,-4.894053 0,0 2.615277,-6.681568 1.92713,-9.888802 -0.688144,-3.207232 1.412486,-16.919379 1.412486,-16.919379 L 27.986159,25.69463 v -0.103353 l -0.08675,0.05168 z"
       id="path845"
       inkscape:connector-curvature="0"
       sodipodi:nodetypes="cccscccscsccccc" />
    <path
       style="fill:#fdc18b;fill-opacity:1;stroke:none;stroke-width:0.28037196px;stroke-linecap:butt;stroke-linejoin:miter;stroke-opacity:1"
       d="m 28.583605,6.9869276 c -0.343966,-2.361e-4 -0.538985,0.016732 -0.538985,0.016732 0,0 -0.221282,-0.019042 -0.608748,-0.016239 -2.626307,0.018997 -12.877988,1.0552483 -13.525273,15.9400614 0.04291,2.015683 0.166314,5.312855 0.528133,7.692978 0.01132,-0.01147 0.02281,-0.02247 0.03411,-0.03395 2.693981,12.781218 13.571781,13.726108 13.571781,13.726108 0,0 8.648986,-0.750832 12.432832,-9.974349 0,0 0,-4.91e-4 0,-4.91e-4 -0.01038,-0.420192 0.08985,-0.870173 0.326596,-1.353273 0.210915,-0.430384 0.392509,-0.86729 0.553455,-1.30652 0.09254,-0.354556 0.179938,-0.716856 0.258898,-1.091475 0.0242,0.02461 0.04881,0.04841 0.07338,0.07234 0.690475,-2.410278 0.74417,-4.803799 0.628901,-6.58379 -0.0365,0.01748 -0.07211,0.03612 -0.107487,0.05512 -0.0048,-0.57539 -0.02306,-1.131666 -0.05426,-1.669199 -0.10889,-0.786916 -0.219107,-1.264201 -0.219107,-1.264201 0,0 0.116038,-0.01 0.120404,-0.01033 C 40.706742,7.8300365 30.991377,6.9885812 28.583605,6.9869276 Z"
       id="path880"
       inkscape:connector-curvature="0" />
    <circle
       style="opacity:1;fill:#000000;fill-opacity:1;stroke:none;stroke-width:0.11388516;stroke-miterlimit:4;stroke-dasharray:none;stroke-opacity:1"
       id="path831"
       cx="22.470486"
       cy="25.656115"
       r="0.96322888" />
    <path
       id="path870"
       style="opacity:1;fill:#f68740;fill-opacity:1;stroke:none;stroke-width:0.666448;stroke-miterlimit:4;stroke-dasharray:none;stroke-opacity:1"
       d="m 29.201862,22.202709 c 0.348112,0 0.627993,0.286006 0.627993,0.641192 v 8.014652 h 0.958312 c 0.623075,0 1.124547,0.5121 1.124547,1.147832 v 0.240609 c 0,0.635732 -0.501472,1.147392 -1.124547,1.147392 h -0.958312 v 0.01096 c 0,0.355185 -0.279881,0.640751 -0.627993,0.640751 h -0.09665 v 8.19e-4 H 28.04467 v -0.641574 -0.09949 -10.15166 -0.310295 -0.638562 h 0.60308 c 0.0086,-3.5e-4 0.01666,-0.0026 0.02535,-0.0026 z m -2.314383,0 c -0.348112,0 -0.627993,0.286006 -0.627993,0.641192 v 8.014652 h -0.958313 c -0.623074,0 -1.124546,0.5121 -1.124546,1.147832 v 0.240609 c 0,0.635732 0.501472,1.147392 1.124546,1.147392 h 0.958313 v 0.01096 c 0,0.355185 0.279881,0.640751 0.627993,0.640751 h 0.09666 v 8.19e-4 h 1.060545 v -0.641574 -0.09949 -10.15166 -0.310295 -0.638562 h -0.60308 c -0.0086,-3.5e-4 -0.01666,-0.0026 -0.02535,-0.0026 z"
       inkscape:connector-curvature="0" />
    <circle
       r="0.96322888"
       cy="25.656115"
       cx="33.162239"
       id="circle875"
       style="opacity:1;fill:#000000;fill-opacity:1;stroke:none;stroke-width:0.11388516;stroke-miterlimit:4;stroke-dasharray:none;stroke-opacity:1" />
    <path
       style="fill:none;stroke:#ef9f6b;stroke-width:0.30137473px;stroke-linecap:butt;stroke-linejoin:miter;stroke-opacity:1"
       d="m 25.441664,40.231498 h 5.166424"
       id="path840"
       inkscape:connector-curvature="0" />
    <path
       style="fill:#fdc18b;fill-opacity:1;stroke:none;stroke-width:0.26458332px;stroke-linecap:butt;stroke-linejoin:miter;stroke-opacity:1"
       d="m 15.160286,21.983258 c 0,0 -3.006782,2.138156 -2.739513,3.340869 0.26727,1.202713 0.400905,6.280833 1.002261,6.748555 0.601357,0.467723 2.539061,-0.200451 2.539061,-0.200451 z"
       id="path860"
       inkscape:connector-curvature="0" />
    <path
       inkscape:connector-curvature="0"
       id="path862"
       d="m 40.798026,21.983258 c 0,0 3.006782,2.138156 2.739513,3.340869 -0.26727,1.202713 -0.400905,6.280833 -1.002261,6.748555 -0.601357,0.467723 -2.539061,-0.200451 -2.539061,-0.200451 z"
       style="fill:#fdc18b;fill-opacity:1;stroke:none;stroke-width:0.26458332px;stroke-linecap:butt;stroke-linejoin:miter;stroke-opacity:1" />
    <path
       style="fill:#c9c9c9;stroke:none;stroke-width:0.26458332px;stroke-linecap:butt;stroke-linejoin:miter;stroke-opacity:1;fill-opacity:1"
       d="m 27.983851,34.968002 c 0,0 -10.219199,1.238361 -9.708057,5.910847 0.511141,4.672486 3.440456,4.672486 3.440456,4.672486 0,0 -0.374507,-4.916575 6.267601,-6.236608 0.0635,-3.307291 0,-4.346725 0,-4.346725 z"
       id="path851"
       inkscape:connector-curvature="0" />
    <path
       inkscape:connector-curvature="0"
       id="path853"
       d="m 27.810468,34.968002 c 0,0 10.219199,1.238361 9.708057,5.910847 -0.511141,4.672486 -3.440456,4.672486 -3.440456,4.672486 0,0 0.374507,-4.916575 -6.267601,-6.236608 -0.0635,-3.307291 0,-4.346725 0,-4.346725 z"
       style="fill:#c9c9c9;fill-opacity:1;stroke:none;stroke-width:0.26458332px;stroke-linecap:butt;stroke-linejoin:miter;stroke-opacity:1" />
  </g>
</svg>
