<?xml version="1.0" encoding="UTF-8" standalone="no"?>
<!-- Created with Inkscape (http://www.inkscape.org/) -->

<svg
   xmlns:dc="http://purl.org/dc/elements/1.1/"
   xmlns:cc="http://creativecommons.org/ns#"
   xmlns:rdf="http://www.w3.org/1999/02/22-rdf-syntax-ns#"
   xmlns:svg="http://www.w3.org/2000/svg"
   xmlns="http://www.w3.org/2000/svg"
   xmlns:sodipodi="http://sodipodi.sourceforge.net/DTD/sodipodi-0.dtd"
   xmlns:inkscape="http://www.inkscape.org/namespaces/inkscape"
   width="39.43232mm"
   height="24.136709mm"
   viewBox="0 0 39.432319 24.13671"
   version="1.1"
   id="svg6668"
   inkscape:version="0.92.4 (f8dce91, 2019-08-02)"
   sodipodi:docname="bear.svg">
  <defs
     id="defs6662" />
  <sodipodi:namedview
     id="base"
     pagecolor="#ffffff"
     bordercolor="#666666"
     borderopacity="1.0"
     inkscape:pageopacity="0.0"
     inkscape:pageshadow="2"
     inkscape:zoom="2.8"
     inkscape:cx="142.49391"
     inkscape:cy="6.3050159"
     inkscape:document-units="mm"
     inkscape:current-layer="layer1"
     showgrid="false"
     fit-margin-top="0"
     fit-margin-left="0"
     fit-margin-right="0"
     fit-margin-bottom="0"
     inkscape:window-width="1366"
     inkscape:window-height="712"
     inkscape:window-x="0"
     inkscape:window-y="28"
     inkscape:window-maximized="1" />
  <metadata
     id="metadata6665">
    <rdf:RDF>
      <cc:Work
         rdf:about="">
        <dc:format>image/svg+xml</dc:format>
        <dc:type
           rdf:resource="http://purl.org/dc/dcmitype/StillImage" />
        <dc:title></dc:title>
      </cc:Work>
    </rdf:RDF>
  </metadata>
  <g
     inkscape:label="Layer 1"
     inkscape:groupmode="layer"
     id="layer1"
     transform="translate(-14.985649,-10.755533)">
    <path
       id="path14"
       style="fill:#552419;fill-opacity:1;fill-rule:nonzero;stroke:none;stroke-width:0.03527778"
       d="m 43.949529,21.495504 -0.32548,1.680985 -0.16263,1.681339 -0.43409,1.24742 0.10887,1.790348 0.37899,2.38619 0.1633,1.410404 0.43406,0.488598 1.03035,0.48754 0.43381,0.434268 v 0.596548 l -1.30182,0.216959 -1.73538,-0.05468 -1.24739,-0.32526 -0.27146,-0.867833 -0.59644,-0.216959 -0.10816,-0.596548 -0.3259,-0.162631 -0.1082,-0.542219 c 0,0 -0.0544,-0.542925 -0.10858,-0.70485 -0.054,-0.163335 -0.92216,-2.657827 -0.92216,-2.657827 l 1.19337,-4.122563 2.16945,-3.091743 1.73549,0.922516"
       inkscape:connector-curvature="0" />
    <path
       id="path16"
       style="fill:#3d1d18;fill-opacity:1;fill-rule:nonzero;stroke:none;stroke-width:0.03527778"
       d="m 40.735929,27.66488 -0.73173,1.505301 -0.28966,1.103138 c -0.20627,-0.597958 -0.86332,-2.486025 -0.86332,-2.486025 l 1.19337,-4.122563 2.11113,-3.008841 c 0.0659,-0.0028 0.13162,-0.0056 0.19735,-0.0088 l 1.59646,0.848433 -0.32548,1.680985 -0.16263,1.681339 -0.43409,1.24742 0.10887,1.790348 0.20853,1.309865 c -0.25743,-0.470255 -0.49351,-0.889355 -0.49351,-0.889355 l -0.85435,-1.09855 -1.26094,0.447323"
       inkscape:connector-curvature="0" />
    <path
       id="path18"
       style="fill:#3d1d18;fill-opacity:1;fill-rule:nonzero;stroke:none;stroke-width:0.03527778"
       d="m 50.078479,14.877745 0.0815,-0.650523 -0.1898,-0.488244 -0.43427,-0.325615 -0.40675,-0.02681 -0.75882,0.325261 1.65452,1.139118 0.0536,0.02681"
       inkscape:connector-curvature="0" />
    <path
       id="path20"
       style="fill:#3d1d18;fill-opacity:1;fill-rule:nonzero;stroke:none;stroke-width:0.03527778"
       d="m 25.670949,25.508703 -0.81372,2.332566 -0.86815,1.573036 -0.70446,1.356076 0.10802,0.921809 1.03092,0.651229 0.75914,0.487892 0.27122,0.596545 -0.75904,0.271288 h -0.92216 -1.13894 l -1.46488,-0.488246 -0.43409,-1.627362 0.75974,-3.200048 2.06111,-3.579635 2.11529,0.70485"
       inkscape:connector-curvature="0" />
    <path
       id="path22"
       style="fill:#662b1f;fill-opacity:1;fill-rule:nonzero;stroke:none;stroke-width:0.03527778"
       d="m 54.363669,19.488549 -0.43392,-0.162984 -1.57304,-1.464378 -0.75917,-1.844324 -1.35573,-1.30175 -1.62736,-1.247775 -1.95323,-0.379235 -1.57275,0.162984 -2.1693,-0.5969 -3.52545,-1.89865 -1.4647,0.05433 -4.61038,1.030465 -4.06781,0.271285 -5.47811,-0.433916 -1.57346,0.216958 -3.52555,2.820458 -3.57988,4.013552 -0.10818,4.664781 0.21635,4.122209 1.24808,2.386541 0.65087,3.2004 0.86745,1.410052 0.92219,0.37959 h 2.49509 c 0.10887,-0.216607 1.41112,-0.05468 1.41112,-0.05468 l 0.59584,-0.107597 -0.32519,-1.085146 -1.35587,-0.379587 -0.3259,-0.868188 0.0544,-1.138767 2.11554,-4.82741 1.03035,-0.271285 1.68162,0.271285 1.35601,-0.759532 2.11529,0.27164 2.33232,0.32526 2.00713,-1.138766 v 1.518708 l 0.27076,2.712157 0.37966,0.70485 -0.1626,0.433564 0.21703,0.325612 0.37966,0.162984 0.1626,0.542221 0.21731,0.651227 -0.16288,0.433565 0.21678,0.488243 0.27146,1.247069 1.62705,0.216958 1.84383,0.109008 1.24781,-0.379941 v -0.704496 l -0.65112,-0.488598 -0.86706,-0.32526 -0.43409,-0.75918 0.32522,-1.952976 0.92216,-4.393849 1.78982,-2.7118 0.70471,-1.085144 1.79007,0.162983 0.54229,1.139119 1.30238,-0.162632 1.84365,-0.650875 1.0305,-0.867478 1.35643,-0.05468 1.89795,0.108657 0.48859,-0.05397 0.27094,-0.379942 0.70485,-0.216958 0.81386,-0.867834 -0.0543,-0.542221"
       inkscape:connector-curvature="0" />
    <path
       id="path24"
       style="fill:#552419;fill-opacity:1;fill-rule:nonzero;stroke:none;stroke-width:0.03527778"
       d="m 14.985649,23.393446 0.10818,-4.664781 3.57988,-4.013552 3.52555,-2.820458 1.57346,-0.216958 5.47811,0.433916 4.06781,-0.271285 4.61038,-1.030465 1.4647,-0.05433 3.52545,1.89865 2.1693,0.5969 1.57275,-0.162984 1.95323,0.379235 1.62736,1.247775 1.13313,1.088319 -0.10266,0.756005 -1.13948,0.487891 -0.54221,0.434269 -0.43357,-0.379942 0.32491,-1.138767 v -0.705201 l -1.51871,-0.217313 -1.24756,0.325966 -1.78964,-0.5969 -2.22388,-0.488243 -1.19313,-0.813859 -0.86801,0.217313 -0.75904,0.542571 -0.59764,-0.705554 -0.59616,-0.867481 -1.62704,-0.650875 -1.51832,0.542218 c 0,0 -2.60364,0.488246 -2.76642,0.488246 -0.16245,0 -4.55647,0.596546 -4.55647,0.596546 l -1.62705,1.952977 -1.35625,-0.216959 -2.44066,-0.759528 -1.68148,-0.325615 -2.11487,1.410406 -1.46459,2.332567 -0.3259,2.440162 -0.0537,1.952625 0.75929,2.006954 0.0537,1.789994 -0.70485,1.735666 -0.27147,1.356077 0.54293,2.223913 0.32522,1.138767 0.32523,1.030816 -0.0992,0.861484 -0.11782,-0.04798 -0.86745,-1.410052 -0.65087,-3.2004 -1.24808,-2.386541 -0.21635,-4.122209"
       inkscape:connector-curvature="0" />
    <path
       id="path26"
       style="fill:#6d321d;fill-opacity:1;fill-rule:nonzero;stroke:none;stroke-width:0.03527778"
       d="m 17.920169,15.560015 0.75354,-0.844902 3.52555,-2.820458 1.57346,-0.216958 5.47811,0.433916 4.06781,-0.271285 4.61038,-1.030465 1.4647,-0.05433 3.52545,1.89865 2.1693,0.5969 1.57275,-0.162984 1.95323,0.379235 1.62736,1.247775 0.99378,0.954617 -0.45191,-0.0321 -1.19309,-1.193448 -1.13877,-0.759529 -1.24806,-0.216606 h -2.82 l -1.41016,-0.162983 -0.86815,-0.650524 -2.87489,-1.30175 -1.41012,-0.108653 -3.57989,0.759177 -2.0067,0.32526 -4.28526,0.05468 -3.1998,-0.216958 -2.44066,0.216958 -1.51889,0.976135 -2.33274,1.898299 -0.53633,0.302328"
       inkscape:connector-curvature="0" />
    <path
       id="path28"
       style="fill:#552419;fill-opacity:1;fill-rule:nonzero;stroke:none;stroke-width:0.03527778"
       d="m 41.224599,22.864632 v -1.260826 l 0.0403,-1.708857 v -1.057627 l 0.93567,-0.406752 1.74901,0.772935 1.01741,0.97649 0.97606,-0.772938 1.26076,-0.813504 1.09918,-0.651229 -0.52934,0.854429 0.56956,1.220259 1.05763,-0.2032 1.01706,-0.406755 1.01706,-1.057627 0.57502,-1.330677 0.34678,0.842434 0.19862,0.184853 -1.32362,2.377723 -0.7045,1.033641 -0.2854,-0.01659 -1.35643,0.05468 -1.0305,0.867479 -1.84365,0.650875 -1.30239,0.162631 -0.54229,-1.139119 -1.79006,-0.162983 -0.70471,1.085144 -0.56681,0.859013 0.11963,-0.953911"
       inkscape:connector-curvature="0" />
    <path
       id="path30"
       style="fill:#3d1d18;fill-opacity:1;fill-rule:nonzero;stroke:none;stroke-width:0.03527778"
       d="m 51.380229,17.020515 0.0275,0.189797 -0.16299,0.08114 0.0811,0.298098 0.0543,0.135818 -0.13546,0.05433 -0.65053,-0.461081 0.21661,-0.108302 0.56938,-0.189796"
       inkscape:connector-curvature="0" />
    <path
       id="path32"
       style="fill:#6d321d;fill-opacity:1;fill-rule:nonzero;stroke:none;stroke-width:0.03527778"
       d="m 49.098109,21.486682 0.43779,-0.913342 0.65123,-0.487891 0.92252,-0.813859 0.65016,-1.030816 0.3937,-0.873829 0.2032,0.494242 1.57304,1.464378 0.43392,0.162984 0.0543,0.542221 -0.81386,0.867834 -0.70485,0.216958 -0.27093,0.379942 -0.4886,0.05397 -1.89794,-0.108657 -1.14371,0.04586"
       inkscape:connector-curvature="0" />
    <path
       id="path34"
       style="fill:#552419;fill-opacity:1;fill-rule:nonzero;stroke:none;stroke-width:0.03527778"
       d="m 49.644559,15.583299 c 0,-0.08184 -0.10795,-0.569736 -0.10795,-0.569736 l -0.70556,-0.596548 -0.56938,0.05398 -0.51565,0.406755 -0.0811,0.759529 0.16287,0.433916 0.4886,-0.05433 0.70485,-0.271285 0.62336,-0.162279"
       inkscape:connector-curvature="0" />
    <path
       id="path36"
       style="fill:#3d1d18;fill-opacity:1;fill-rule:nonzero;stroke:none;stroke-width:0.03527778"
       d="m 48.306119,16.018274 -0.47837,0.05292 -0.16287,-0.433917 0.0811,-0.759529 0.51565,-0.406754 0.56938,-0.05397 0.70556,0.596548 c 0,0 0.10795,0.487891 0.10795,0.569735 l -0.11853,0.03069 -0.26106,-0.546452 -0.4064,-0.4064 h -0.51541 l -0.21706,0.433917 0.13557,0.732014 0.0444,0.191204"
       inkscape:connector-curvature="0" />
    <path
       id="path38"
       style="fill:#552419;fill-opacity:1;fill-rule:nonzero;stroke:none;stroke-width:0.03527778"
       d="m 53.793929,19.542524 0.18345,-0.199319 0.38629,0.145344 0.0543,0.542221 -0.32632,0.348543 -0.13476,-0.240241 0.0272,-0.297744 -0.21731,-0.05503 0.0272,-0.243771"
       inkscape:connector-curvature="0" />
    <path
       id="path40"
       style="fill:#552419;fill-opacity:1;fill-rule:nonzero;stroke:none;stroke-width:0.03527778"
       d="m 51.570019,20.68129 0.86819,0.244124 0.80327,0.08467 -0.34219,0.105481 -0.0134,0.01871 -0.36583,-0.07302 -0.32597,-0.05433 -0.43427,-0.08149 -0.46073,-0.05397 -0.4071,0.02681 -0.16228,-0.108302 0.16228,-0.189794 0.67804,0.08114"
       inkscape:connector-curvature="0" />
    <path
       id="path42"
       style="fill:#552419;fill-opacity:1;fill-rule:nonzero;stroke:none;stroke-width:0.03527778"
       d="m 27.623639,25.671331 -1.35601,0.759532 -1.68162,-0.271285 -1.03035,0.271285 -1.34635,3.071283 -0.14495,-0.454377 -0.0411,-1.952273 0.12154,-1.789993 0.57023,-2.481439 -0.16302,-2.155826 0.40693,-0.244475 0.81375,0.732368 3.13228,1.260826 2.68467,0.529167 2.3187,-0.366183 1.38356,-0.935919 1.83004,-1.50495 0.56981,0.203552 -0.081,0.894998 0.56913,1.50495 0.93567,0.854426 1.302,0.813507 0.73202,1.464381 0.32494,1.735667 -0.5147,2.454627 -0.32523,1.952976 0.43409,0.75918 0.86706,0.32526 0.65112,0.488598 v 0.704496 l -1.24781,0.379941 -1.84383,-0.109008 -1.62704,-0.216958 -0.27146,-1.247069 -0.21679,-0.488243 0.16288,-0.433565 -0.21731,-0.651227 -0.1626,-0.542221 -0.37965,-0.162984 -0.21703,-0.325612 0.16259,-0.433564 -0.37966,-0.70485 -0.27075,-2.712157 v -1.518708 l -2.00713,1.138766 -2.33232,-0.32526 -2.11529,-0.27164"
       inkscape:connector-curvature="0" />
    <path
       id="path44"
       style="fill:#552419;fill-opacity:1;fill-rule:nonzero;stroke:none;stroke-width:0.03527778"
       d="m 21.127979,34.17363 0.2577,0.718608 h -0.25012 l -0.17018,-0.474485 -0.48796,-0.407107 c 0.0813,-0.202848 0.65056,0.162984 0.65056,0.162984"
       inkscape:connector-curvature="0" />
    <path
       id="path46"
       style="fill:#552419;fill-opacity:1;fill-rule:nonzero;stroke:none;stroke-width:0.03527778"
       d="m 22.430509,33.970078 0.32522,0.529166 -0.0223,0.331259 c -0.0608,-0.0067 -0.16164,-0.01693 -0.28183,-0.02646 l -0.062,-0.46743 -0.48866,-0.406752 -0.36545,-0.122063 c 0.0402,-0.162983 0.89504,0.16228 0.89504,0.16228"
       inkscape:connector-curvature="0" />
    <path
       id="path48"
       style="fill:#3d1d18;fill-opacity:1;fill-rule:nonzero;stroke:none;stroke-width:0.03527778"
       d="m 24.220149,25.142871 0.32565,-1.057981 1.17958,0.203554 3.05125,0.285044 1.95241,0.202848 2.31856,-0.365831 1.42378,-0.569384 0.52863,1.17969 -0.20327,1.017058 0.0405,2.196394 0.40693,1.708502 0.73202,1.261181 -0.24392,1.22061 -0.24832,0.42404 -0.10403,-0.234243 0.16288,-0.433565 -0.21731,-0.651227 -0.1626,-0.542221 -0.37966,-0.162984 -0.21703,-0.325612 0.1626,-0.433564 -0.37966,-0.70485 -0.27076,-2.712157 v -1.518708 l -2.00713,1.138766 -2.33232,-0.32526 -2.11529,-0.27164 -1.356,0.759532 -1.68163,-0.271285 -0.89143,0.23495 c 0.16909,-0.410988 0.52557,-1.251657 0.52557,-1.251657"
       inkscape:connector-curvature="0" />
    <path
       id="path50"
       style="fill:#3d1d18;fill-opacity:1;fill-rule:nonzero;stroke:none;stroke-width:0.03527778"
       d="m 36.561579,34.442094 -0.69342,-0.09243 -0.19843,-0.912284 0.5504,0.288925 0.34145,0.715788"
       inkscape:connector-curvature="0" />
    <path
       id="path52"
       style="fill:#3d1d18;fill-opacity:1;fill-rule:nonzero;stroke:none;stroke-width:0.03527778"
       d="m 39.065919,34.659053 -0.41011,-0.024 -0.0348,-0.42051 -0.61048,-0.488246 -0.1222,-0.244475 1.01699,0.407106 0.16055,0.770115"
       inkscape:connector-curvature="0" />
    <path
       id="path54"
       style="fill:#3d1d18;fill-opacity:1;fill-rule:nonzero;stroke:none;stroke-width:0.03527778"
       d="m 38.905369,33.522755 c 0.0409,-0.162632 0.85436,0.162631 0.85436,0.162631 l 0.32508,0.365829 0.10488,0.365479 -0.25396,0.07726 -0.0948,-0.442738 -0.61034,-0.446969 -0.32519,-0.08149"
       inkscape:connector-curvature="0" />
  </g>
</svg>
