<?xml version="1.0" encoding="UTF-8" standalone="no"?>
<!-- Created with Inkscape (http://www.inkscape.org/) -->

<svg
   xmlns:dc="http://purl.org/dc/elements/1.1/"
   xmlns:cc="http://creativecommons.org/ns#"
   xmlns:rdf="http://www.w3.org/1999/02/22-rdf-syntax-ns#"
   xmlns:svg="http://www.w3.org/2000/svg"
   xmlns="http://www.w3.org/2000/svg"
   xmlns:sodipodi="http://sodipodi.sourceforge.net/DTD/sodipodi-0.dtd"
   xmlns:inkscape="http://www.inkscape.org/namespaces/inkscape"
   width="13.553272mm"
   height="13.55372mm"
   viewBox="0 0 13.553272 13.55372"
   version="1.1"
   id="svg8003"
   inkscape:version="0.92.4 (f8dce91, 2019-08-02)"
   sodipodi:docname="hare.svg">
  <defs
     id="defs7997" />
  <sodipodi:namedview
     id="base"
     pagecolor="#ffffff"
     bordercolor="#666666"
     borderopacity="1.0"
     inkscape:pageopacity="0.0"
     inkscape:pageshadow="2"
     inkscape:zoom="0.35"
     inkscape:cx="-125.81608"
     inkscape:cy="-482.95811"
     inkscape:document-units="mm"
     inkscape:current-layer="layer1"
     showgrid="false"
     fit-margin-top="0"
     fit-margin-left="0"
     fit-margin-right="0"
     fit-margin-bottom="0"
     inkscape:window-width="1366"
     inkscape:window-height="712"
     inkscape:window-x="0"
     inkscape:window-y="28"
     inkscape:window-maximized="1" />
  <metadata
     id="metadata8000">
    <rdf:RDF>
      <cc:Work
         rdf:about="">
        <dc:format>image/svg+xml</dc:format>
        <dc:type
           rdf:resource="http://purl.org/dc/dcmitype/StillImage" />
        <dc:title></dc:title>
      </cc:Work>
    </rdf:RDF>
  </metadata>
  <g
     inkscape:label="Layer 1"
     inkscape:groupmode="layer"
     id="layer1"
     transform="translate(-6.074553,-7.4969462)">
    <path
       id="path1230"
       style="fill:#9c9c8e;fill-opacity:1;fill-rule:nonzero;stroke:none;stroke-width:0.03527778"
       d="m 8.269507,11.802246 -0.106821,-0.29916 0.426226,-1.5127098 0.128164,-0.87312 -0.533012,-1.47108 -0.04244,-0.14923 H 7.970456 l -0.596124,1.06539 -0.02124,1.00189 0.234562,1.8968798 -0.128164,1.12889 0.703192,-0.38347 0.106821,-0.40428"
       inkscape:connector-curvature="0" />
    <path
       id="path1232"
       style="fill:#7b7c77;fill-opacity:1;fill-rule:nonzero;stroke:none;stroke-width:0.03527778"
       d="m 9.548185,19.239156 -0.809872,0.25612 -0.660365,0.36124 -0.107491,0.17074 0.149931,0.12842 v 0.25541 h 0.660364 l 0.979911,-0.0427 0.789199,-0.29845 0.08435,-0.51153 -1.086027,-0.31926"
       inkscape:connector-curvature="0" />
    <path
       id="path1234"
       style="fill:#d2d1c3;fill-opacity:1;fill-rule:nonzero;stroke:none;stroke-width:0.03527778"
       d="m 12.25452,8.7757662 0.404707,0.49001 -0.298486,0.7672898 -1.02235,0.72461 -1.513487,1.40617 -0.106539,0.25576 0.170745,0.44768 0.49029,0.59654 0.553579,-0.0639 h 0.596688 l 2.834887,-0.63853 1.939325,0.4258 2.109223,0.70274 0.980476,2.66382 0.234244,2.36608 -0.959238,0.895 -0.38294,0.21237 0.105939,0.42651 -0.873513,0.0857 -0.852452,0.14852 -1.832681,0.36266 h -0.511774 l -0.04233,-0.21309 h -0.170462 v -0.44732 l -0.724006,-0.23459 -0.78934,-0.29916 -0.02124,0.14993 -0.830933,0.27658 -0.340783,0.31997 -0.938177,0.12805 -0.958568,0.19156 -0.383505,-0.19156 0.06378,-0.2988 0.34096,-0.40499 0.831215,-0.10583 -1.044011,-0.51188 -0.618172,-0.74577 -0.639692,-0.93769 -0.148837,-0.80962 -0.319405,-0.21343 -0.02096,-0.2981 H 6.75612 l -0.51054,-0.53269 -0.171027,-0.57574 0.362021,-0.72425 0.724852,-1.74766 0.553685,-0.70309 1.044257,-0.74542 0.895456,-1.12994 1.32087,-0.8949998 1.065213,-0.46849 0.213607,-0.10689"
       inkscape:connector-curvature="0" />
    <path
       id="path1236"
       style="fill:#664c40;fill-opacity:1;fill-rule:nonzero;stroke:none;stroke-width:0.03527778"
       d="m 6.249854,15.323326 -0.161502,-0.054 -0.01379,0.0272 0.15875,0.53799 h 0.20835 l 0.06424,-0.17533 -0.143616,-0.19227 -0.11243,-0.14357"
       inkscape:connector-curvature="0" />
    <path
       id="path1238"
       style="fill:#9c9c8e;fill-opacity:1;fill-rule:nonzero;stroke:none;stroke-width:0.03527778"
       d="m 7.800277,15.754766 -0.144145,0.31962 -0.223379,0.14393 -0.255481,-0.0159 -0.159844,-0.0642 -0.367418,-0.1591 -0.208351,-0.14464 0.144428,0.23989 0.335703,0.17604 -0.05429,0.15451 h 0.621771 l 0.134903,-0.10654 0.288148,-0.28786 0.06421,-0.47978 H 7.815983 l -0.0157,0.22401"
       inkscape:connector-curvature="0" />
    <path
       id="path1240"
       style="fill:#9c9c8e;fill-opacity:1;fill-rule:nonzero;stroke:none;stroke-width:0.03527778"
       d="m 10.762764,19.452236 -0.340925,-0.19156 -1.342883,-1.25765 -0.553826,-0.95956 -0.447746,-0.31927 -0.297921,-0.25541 -0.234809,-0.19155 c 0,0 -0.02977,0.0519 -0.0707,0.1277 h 0.09275 l 0.02095,0.2981 0.319405,0.21343 0.148837,0.80962 0.639692,0.93769 0.618172,0.74577 1.044011,0.51188 0.511104,-0.23424 0.234562,-0.12806 0.213325,-0.21343 v -0.10654 l -0.14926,0.0215 -0.404742,0.19156"
       inkscape:connector-curvature="0" />
    <path
       id="path1242"
       style="fill:#9c9c8e;fill-opacity:1;fill-rule:nonzero;stroke:none;stroke-width:0.03527778"
       d="m 15.770444,18.919886 v -0.63958 l 0.148943,-0.63959 -0.17018,0.29881 -0.383505,0.66004 -0.596829,0.27728 -1.171893,0.0857 -0.873936,-0.0857 h -0.255341 v 0.38383 l 0.127318,0.38311 0.07772,0.24271 0.711623,0.26918 0.724006,0.23459 0.06382,-0.19191 0.447181,-0.27693 0.76701,-0.0857 0.767433,-0.0635 0.703192,-0.0642 0.106539,-0.12771 -0.554109,-0.17074 -0.638986,-0.48966"
       inkscape:connector-curvature="0" />
    <path
       id="path1244"
       style="fill:#9c9c8e;fill-opacity:1;fill-rule:nonzero;stroke:none;stroke-width:0.03527778"
       d="m 19.627822,18.919886 -0.234244,-2.36608 -0.980476,-2.66382 -1.140177,-0.37959 0.05316,0.12453 0.468807,0.23389 0.425979,0.39441 0.607554,2.01401 0.170462,0.94791 -0.04286,0.85266 0.234703,0.67063 -0.585822,0.0857 -0.554355,0.19156 -0.468948,0.0857 v 0.21308 l 0.554214,0.44767 -0.554214,0.27658 -0.170356,0.23495 h -1.214861 l -1.044293,0.14851 -0.553967,0.2346 -0.01887,0.38382 h 0.253682 l 1.832681,-0.36265 0.852452,-0.14852 0.873513,-0.0857 -0.105939,-0.42651 0.38294,-0.21237 0.959238,-0.895"
       inkscape:connector-curvature="0" />
    <path
       id="path1246"
       style="fill:#7b7c77;fill-opacity:1;fill-rule:nonzero;stroke:none;stroke-width:0.03527778"
       d="m 14.131403,20.837586 h 0.147426 l 0.04233,0.21308 h 0.06943 l 0.01588,-0.25612 0.191664,-0.3623 -0.276965,0.10725 -0.18976,0.29809"
       inkscape:connector-curvature="0" />
    <path
       id="path1248"
       style="fill:#9c9c8e;fill-opacity:1;fill-rule:nonzero;stroke:none;stroke-width:0.03527778"
       d="m 12.382543,19.687186 -0.490749,0.25505 -0.553403,0.1711 -0.405412,0.19121 -0.255376,-0.1704 -0.341312,-0.0854 h -0.298098 l -0.255763,0.0646 0.510716,0.085 0.10735,0.19191 -0.14926,0.12736 -0.788917,0.3623 -0.0146,0.0138 0.05761,0.0289 0.958568,-0.19156 0.938177,-0.12806 0.340783,-0.31996 0.830933,-0.27658 0.02124,-0.14993 0.04452,0.0173 -0.02328,-0.1016 v -0.2988 l -0.233715,0.21378"
       inkscape:connector-curvature="0" />
    <path
       id="path1250"
       style="fill:#9c9c8e;fill-opacity:1;fill-rule:nonzero;stroke:none;stroke-width:0.03527778"
       d="m 9.611721,11.652666 0.383751,-0.17004 0.63874,-0.49 0.767856,-0.57609 0.724429,-0.5323398 0.1276,-0.53305 -0.0423,-0.19156 -0.853016,0.6604 -0.958286,0.4900098 -0.405024,0.63959 -0.383751,0.70308"
       inkscape:connector-curvature="0" />
    <path
       id="path1252"
       style="fill:#9c9c8e;fill-opacity:1;fill-rule:nonzero;stroke:none;stroke-width:0.03527778"
       d="m 10.3794,13.463826 -0.49029,-0.59654 -0.170745,-0.44768 0.0175,-0.042 0.08904,-0.21378 0.467289,-0.43392 -0.424603,-0.0134 -0.452931,0.51681 0.170462,1.34232 0.11176,0.46355 -0.31944,0.76765 -0.234527,0.48965 -0.31944,0.29881 -0.383364,0.25541 -0.426932,0.25576 0.02148,0.14958 0.724712,-0.34184 0.575204,-0.57503 0.68199,-0.78846 0.213607,-0.36195 0.250261,-0.7373 -0.101036,0.0123"
       inkscape:connector-curvature="0" />
    <path
       id="path1254"
       style="fill:#9c9c8e;fill-opacity:1;fill-rule:nonzero;stroke:none;stroke-width:0.03527778"
       d="m 8.567146,11.512616 0.32011,0.39546 0.149119,0.38418 0.06421,-0.29845 0.04233,-0.38347 -0.188524,-0.48119 -0.195016,0.24694 -0.192228,0.13653"
       inkscape:connector-curvature="0" />
    <path
       id="path1258"
       style="fill:#eae9e2;fill-opacity:1;fill-rule:nonzero;stroke:none;stroke-width:0.03527778"
       d="m 9.699068,20.005386 -0.172508,0.0219 -0.34096,0.40499 -0.06378,0.2988 0.0799,0.0402 c 0.0907,-0.12805 0.239536,-0.3175 0.239536,-0.3175 l 0.277107,-0.17074 -0.0193,-0.27764"
       inkscape:connector-curvature="0" />
    <path
       id="path1260"
       style="fill:#eae9e2;fill-opacity:1;fill-rule:nonzero;stroke:none;stroke-width:0.03527778"
       d="m 16.735185,13.421496 0.129258,-0.0473 -0.560564,-0.18698 -1.939325,-0.4258 -2.834887,0.63853 h -0.270086 l 0.472651,0.19756 0.703227,-0.17604 1.486465,-0.27199 1.901825,0.24024 0.911436,0.0317"
       inkscape:connector-curvature="0" />
    <path
       id="path1262"
       style="fill:#eae9e2;fill-opacity:1;fill-rule:nonzero;stroke:none;stroke-width:0.03527778"
       d="m 8.330537,11.683006 -0.61542,0.4385 -0.553685,0.70309 -0.724853,1.74766 -0.188101,0.37712 0.129258,-0.0254 0.240171,-0.36724 0.336127,-1.00789 0.478719,-0.5267 0.428555,-0.0931 0.458611,-0.15487 -0.170603,-0.46425 0.03475,-0.26317 0.146473,-0.36372"
       inkscape:connector-curvature="0" />
    <path
       id="path1264"
       style="fill:#9c9c8e;fill-opacity:1;fill-rule:nonzero;stroke:none;stroke-width:0.03527778"
       d="m 7.320993,13.964776 0.0962,0.0639 0.175965,-0.19156 0.287585,-0.096 0.238971,-0.22437 0.06435,-0.22366 0.128164,-0.27094 -0.27245,-0.0963 -0.255482,0.0804 -0.239642,0.23883 -0.0798,0.27164 -0.0642,0.25612 -0.07966,0.19191"
       inkscape:connector-curvature="0" />
    <path
       id="path1266"
       style="fill:#664c40;fill-opacity:1;fill-rule:nonzero;stroke:none;stroke-width:0.03527778"
       d="m 7.576475,13.645506 0.06435,-0.23953 0.08008,-0.17604 0.222814,-0.0804 0.09606,0.0956 v 0.16087 l -0.191558,0.0635 -0.271745,0.17603"
       inkscape:connector-curvature="0" />
    <path
       id="path1268"
       style="fill:#181614;fill-opacity:1;fill-rule:nonzero;stroke:none;stroke-width:0.03527778"
       d="m 7.913977,13.189726 -0.167569,0.0635 -0.03186,0.0808 0.02205,0.0931 0.07179,0.024 0.140018,-0.0399 0.06008,-0.0861 v -0.0674 l -0.09451,-0.0681"
       inkscape:connector-curvature="0" />
    <path
       id="path1270"
       style="fill:#eae9e2;fill-opacity:1;fill-rule:nonzero;stroke:none;stroke-width:0.03527778"
       d="m 7.868504,13.265216 -0.05348,0.0116 -0.0023,0.042 0.03916,0.0109 0.03376,-0.0138 0.0081,-0.0335 -0.02519,-0.0173"
       inkscape:connector-curvature="0" />
    <path
       id="path1272"
       style="fill:#181614;fill-opacity:1;fill-rule:nonzero;stroke:none;stroke-width:0.03527778"
       d="m 6.961583,15.707146 -0.05648,0.0875 0.07235,0.0561 0.09631,-0.0476 -0.0088,-0.11994 -0.103364,0.024"
       inkscape:connector-curvature="0" />
    <path
       id="path1274"
       style="fill:#181614;fill-opacity:1;fill-rule:nonzero;stroke:none;stroke-width:0.03527778"
       d="m 7.161432,15.827086 -0.01601,0.0963 0.06368,0.0476 0.06396,-0.0568 0.0081,-0.0797 -0.119733,-0.007"
       inkscape:connector-curvature="0" />
    <path
       id="path1276"
       style="fill:#181614;fill-opacity:1;fill-rule:nonzero;stroke:none;stroke-width:0.03527778"
       d="m 7.136879,15.587196 0.02455,0.0639 0.09521,-0.0162 v -0.0875 l -0.0871,-0.0564 -0.03267,0.0963"
       inkscape:connector-curvature="0" />
    <path
       id="path1278"
       style="fill:#181614;fill-opacity:1;fill-rule:nonzero;stroke:none;stroke-width:0.03527778"
       d="m 7.369359,15.690916 -0.01654,0.0321 0.04784,0.0395 0.02466,-0.0554 -0.01598,-0.0561 -0.03997,0.0399"
       inkscape:connector-curvature="0" />
    <path
       id="path1280"
       style="fill:#181614;fill-opacity:1;fill-rule:nonzero;stroke:none;stroke-width:0.03527778"
       d="m 6.969168,15.514876 0.0083,0.0565 0.03997,0.008 0.03182,-0.0561 v -0.048 l -0.04784,-0.0155 -0.03224,0.055"
       inkscape:connector-curvature="0" />
    <path
       id="path1282"
       style="fill:#181614;fill-opacity:1;fill-rule:nonzero;stroke:none;stroke-width:0.03527778"
       d="m 7.369359,15.410806 -0.01654,0.0889 0.06438,0.008 0.04766,-0.0646 v -0.0399 l -0.0955,0.007"
       inkscape:connector-curvature="0" />
  </g>
</svg>
