<?xml version="1.0" encoding="UTF-8" standalone="no"?>
<!-- Created with Inkscape (http://www.inkscape.org/) -->

<svg
   xmlns:dc="http://purl.org/dc/elements/1.1/"
   xmlns:cc="http://creativecommons.org/ns#"
   xmlns:rdf="http://www.w3.org/1999/02/22-rdf-syntax-ns#"
   xmlns:svg="http://www.w3.org/2000/svg"
   xmlns="http://www.w3.org/2000/svg"
   xmlns:sodipodi="http://sodipodi.sourceforge.net/DTD/sodipodi-0.dtd"
   xmlns:inkscape="http://www.inkscape.org/namespaces/inkscape"
   width="65.747925mm"
   height="60.200459mm"
   viewBox="0 0 65.747925 60.200459"
   version="1.1"
   id="svg8"
   inkscape:version="0.92.4 (f8dce91, 2019-08-02)"
   sodipodi:docname="kazkremlin.svg">
  <defs
     id="defs2" />
  <sodipodi:namedview
     id="base"
     pagecolor="#ffffff"
     bordercolor="#666666"
     borderopacity="1.0"
     inkscape:pageopacity="0.0"
     inkscape:pageshadow="2"
     inkscape:zoom="0.7"
     inkscape:cx="363.43338"
     inkscape:cy="155.30514"
     inkscape:document-units="mm"
     inkscape:current-layer="layer1"
     showgrid="false"
     showguides="true"
     inkscape:guide-bbox="true"
     fit-margin-top="0"
     fit-margin-left="0"
     fit-margin-right="0"
     fit-margin-bottom="0"
     inkscape:window-width="1366"
     inkscape:window-height="712"
     inkscape:window-x="0"
     inkscape:window-y="28"
     inkscape:window-maximized="1">
    <sodipodi:guide
       position="33.156193,55.192279"
       orientation="1,0"
       id="guide1377"
       inkscape:locked="false" />
  </sodipodi:namedview>
  <metadata
     id="metadata5">
    <rdf:RDF>
      <cc:Work
         rdf:about="">
        <dc:format>image/svg+xml</dc:format>
        <dc:type
           rdf:resource="http://purl.org/dc/dcmitype/StillImage" />
        <dc:title></dc:title>
      </cc:Work>
    </rdf:RDF>
  </metadata>
  <g
     inkscape:label="Layer 1"
     inkscape:groupmode="layer"
     id="layer1"
     transform="translate(-48.108689,-164.23587)">
    <path
       style="opacity:1;fill:#00c462;fill-opacity:1;stroke:none;stroke-width:0.75590551;stroke-miterlimit:4;stroke-dasharray:none;stroke-opacity:1"
       d="m 306.07617,294.68555 a 124.24875,124.24875 0 0 0 -124.24805,124.24804 124.24875,124.24875 0 0 0 49.41993,98.9961 h 149.73047 a 124.24875,124.24875 0 0 0 49.3457,-98.9961 124.24875,124.24875 0 0 0 -124.24805,-124.24804 z"
       transform="matrix(0.26458333,0,0,0.26458333,0,87)"
       id="path1484"
       inkscape:connector-curvature="0" />
    <g
       id="g1442">
      <path
         inkscape:connector-curvature="0"
         id="path1379"
         d="m 81.264881,164.23587 -1.15084,1.1506 1.15084,-0.0167 z"
         style="fill:#5f5f5f;fill-opacity:1;stroke:none;stroke-width:0.26458332px;stroke-linecap:butt;stroke-linejoin:miter;stroke-opacity:1" />
      <path
         inkscape:connector-curvature="0"
         id="path1381"
         d="m 80.114041,165.38647 -5.11153,12.54496 3.474503,-1.06908 z"
         style="fill:#d5d6da;fill-opacity:1;stroke:none;stroke-width:0.26458332px;stroke-linecap:butt;stroke-linejoin:miter;stroke-opacity:1" />
      <path
         inkscape:connector-curvature="0"
         id="path1383"
         d="m 80.114041,165.38647 -1.637027,11.47588 h 2.787867 v -11.49258 z"
         style="fill:#f2f4f1;fill-opacity:1;stroke:none;stroke-width:0.26458332px;stroke-linecap:butt;stroke-linejoin:miter;stroke-opacity:1" />
      <path
         inkscape:connector-curvature="0"
         id="path1385"
         d="m 75.002511,177.93143 v 8.0849 l 1.5368,-0.23386 h 2.204972 l -0.267269,-8.92012 z"
         style="fill:#f2f4f1;fill-opacity:1;stroke:none;stroke-width:0.26458332px;stroke-linecap:butt;stroke-linejoin:miter;stroke-opacity:1" />
      <path
         inkscape:connector-curvature="0"
         id="path1387"
         d="m 78.477014,176.86235 0.267269,8.92012 2.520598,0.0453 v -8.96541 z"
         style="fill:#f2f4f1;fill-opacity:1;stroke:none;stroke-width:0.26458332px;stroke-linecap:butt;stroke-linejoin:miter;stroke-opacity:1" />
      <path
         inkscape:connector-curvature="0"
         id="path1389"
         d="m 68.220547,187.45291 6.781964,-1.43658 1.5368,-0.23386 4.72557,0.0453 v 11.8816 H 68.35418 Z"
         style="fill:#f2f4f1;fill-opacity:1;stroke:none;stroke-width:0.26458332px;stroke-linecap:butt;stroke-linejoin:miter;stroke-opacity:1" />
      <path
         inkscape:connector-curvature="0"
         id="path1391"
         d="m 68.35418,197.70937 h 12.910701 v 0 0.5916 h -12.94411 z"
         style="fill:#4b6658;fill-opacity:1;stroke:none;stroke-width:0.26458332px;stroke-linecap:butt;stroke-linejoin:miter;stroke-opacity:1" />
      <path
         inkscape:connector-curvature="0"
         id="path1393"
         d="m 68.320771,198.30097 v 12.09524 h 12.94411 v -12.09524 z"
         style="fill:#ffffff;fill-opacity:1;stroke:none;stroke-width:0.26458332px;stroke-linecap:butt;stroke-linejoin:miter;stroke-opacity:1" />
      <path
         inkscape:connector-curvature="0"
         id="path1395"
         d="M 81.264881,210.39621 H 61.538807 v 14.04012 h 19.726074 z"
         style="fill:#ffffff;fill-opacity:1;stroke:none;stroke-width:0.26458332px;stroke-linecap:butt;stroke-linejoin:miter;stroke-opacity:1" />
      <path
         inkscape:connector-curvature="0"
         id="path1397"
         d="m 68.35418,208.13288 -6.815373,2.26333 h 6.781964 z"
         style="fill:#076838;fill-opacity:1;stroke:none;stroke-width:0.26458332px;stroke-linecap:butt;stroke-linejoin:miter;stroke-opacity:1" />
      <ellipse
         style="opacity:1;fill:none;fill-opacity:1;stroke:#636363;stroke-width:0.62900001;stroke-miterlimit:4;stroke-dasharray:none;stroke-opacity:1"
         id="ellipse1401"
         cx="72.46344"
         cy="193.70033"
         rx="2.1560674"
         ry="2.7240152" />
      <path
         inkscape:connector-curvature="0"
         id="path1403"
         d="m 63.405505,214.74294 h 1.133928 c 0,0 0.425225,-3.54353 -0.566963,-3.54353 -0.992187,0 -0.566965,3.54353 -0.566965,3.54353 z"
         style="fill:#e7e7e7;fill-opacity:1;stroke:none;stroke-width:0.26458332px;stroke-linecap:butt;stroke-linejoin:miter;stroke-opacity:1" />
      <path
         style="fill:#e7e7e7;fill-opacity:1;stroke:none;stroke-width:0.26458332px;stroke-linecap:butt;stroke-linejoin:miter;stroke-opacity:1"
         d="m 68.933407,214.74294 h 1.133928 c 0,0 0.425225,-3.54353 -0.566963,-3.54353 -0.992187,0 -0.566965,3.54353 -0.566965,3.54353 z"
         id="path1405"
         inkscape:connector-curvature="0" />
      <path
         inkscape:connector-curvature="0"
         id="path1407"
         d="m 74.366815,214.74294 h 1.133928 c 0,0 0.425225,-3.54353 -0.566963,-3.54353 -0.992187,0 -0.566965,3.54353 -0.566965,3.54353 z"
         style="fill:#e7e7e7;fill-opacity:1;stroke:none;stroke-width:0.26458332px;stroke-linecap:butt;stroke-linejoin:miter;stroke-opacity:1" />
      <path
         inkscape:connector-curvature="0"
         id="path1409"
         d="m 81.264883,213.60901 c 0,0 -4.015996,0.14174 -4.157736,3.44903 -0.141743,3.30729 0,7.18155 0,7.18155 h 4.157736 z"
         style="fill:#584a45;fill-opacity:1;stroke:none;stroke-width:0.26458332px;stroke-linecap:butt;stroke-linejoin:miter;stroke-opacity:1" />
      <path
         style="fill:#c3996a;fill-opacity:1;stroke:none;stroke-width:0.17818312px;stroke-linecap:butt;stroke-linejoin:miter;stroke-opacity:1"
         d="m 81.264883,216.72731 c 0,0 -2.57743,0.10017 -2.668397,2.43732 -0.09097,2.33715 0,5.07496 0,5.07496 h 2.668397 z"
         id="path1411"
         inkscape:connector-curvature="0" />
      <path
         style="fill:#756762;fill-opacity:1;stroke:none;stroke-width:0.26458332px;stroke-linecap:butt;stroke-linejoin:miter;stroke-opacity:1"
         d="m 80.735716,184.88043 1.336347,0.0334 v -5.57924 c 0,0 0,-0.86862 -0.868628,-0.86862 -0.868624,0 -0.818512,0.81851 -0.818512,0.81851 v 5.56255 z"
         id="path1417"
         inkscape:connector-curvature="0" />
      <path
         inkscape:connector-curvature="0"
         id="path1419"
         d="m 77.912143,184.88043 -1.336347,0.0334 v -5.57924 c 0,0 0,-0.86862 0.868628,-0.86862 0.868624,0 0.818512,0.81851 0.818512,0.81851 v 5.56255 z"
         style="fill:#756762;fill-opacity:1;stroke:none;stroke-width:0.26458332px;stroke-linecap:butt;stroke-linejoin:miter;stroke-opacity:1" />
      <path
         inkscape:connector-curvature="0"
         id="path1421"
         d="m 68.851809,198.2578 h 0.519594 v 1.57997 h 1.369756 v -1.58691 h 1.052374 v 1.5702 h 1.369756 v -1.5368 h 1.169305 v 1.57021 h 1.269529 v -1.60361 h 1.169305 v 1.62032 h 1.319644 v -1.63703 h 0.985554 v 1.62032 h 1.57021 v -1.5535 h 0.601355 0.01669"
         style="fill:none;stroke:#666666;stroke-width:0.2;stroke-linecap:butt;stroke-linejoin:miter;stroke-miterlimit:4;stroke-dasharray:none;stroke-opacity:1" />
    </g>
    <g
       id="g1482"
       transform="matrix(-1,0,0,1,162.52976,0)">
      <path
         style="fill:#5f5f5f;fill-opacity:1;stroke:none;stroke-width:0.26458332px;stroke-linecap:butt;stroke-linejoin:miter;stroke-opacity:1"
         d="m 81.264881,164.23587 -1.15084,1.1506 1.15084,-0.0167 z"
         id="path1444"
         inkscape:connector-curvature="0" />
      <path
         style="fill:#d5d6da;fill-opacity:1;stroke:none;stroke-width:0.26458332px;stroke-linecap:butt;stroke-linejoin:miter;stroke-opacity:1"
         d="m 80.114041,165.38647 -5.11153,12.54496 3.474503,-1.06908 z"
         id="path1446"
         inkscape:connector-curvature="0" />
      <path
         style="fill:#f2f4f1;fill-opacity:1;stroke:none;stroke-width:0.26458332px;stroke-linecap:butt;stroke-linejoin:miter;stroke-opacity:1"
         d="m 80.114041,165.38647 -1.637027,11.47588 h 2.787867 v -11.49258 z"
         id="path1448"
         inkscape:connector-curvature="0" />
      <path
         style="fill:#f2f4f1;fill-opacity:1;stroke:none;stroke-width:0.26458332px;stroke-linecap:butt;stroke-linejoin:miter;stroke-opacity:1"
         d="m 75.002511,177.93143 v 8.0849 l 1.5368,-0.23386 h 2.204972 l -0.267269,-8.92012 z"
         id="path1450"
         inkscape:connector-curvature="0" />
      <path
         style="fill:#f2f4f1;fill-opacity:1;stroke:none;stroke-width:0.26458332px;stroke-linecap:butt;stroke-linejoin:miter;stroke-opacity:1"
         d="m 78.477014,176.86235 0.267269,8.92012 2.520598,0.0453 v -8.96541 z"
         id="path1452"
         inkscape:connector-curvature="0" />
      <path
         style="fill:#f2f4f1;fill-opacity:1;stroke:none;stroke-width:0.26458332px;stroke-linecap:butt;stroke-linejoin:miter;stroke-opacity:1"
         d="m 68.220547,187.45291 6.781964,-1.43658 1.5368,-0.23386 4.72557,0.0453 v 11.8816 H 68.35418 Z"
         id="path1454"
         inkscape:connector-curvature="0" />
      <path
         style="fill:#4b6658;fill-opacity:1;stroke:none;stroke-width:0.26458332px;stroke-linecap:butt;stroke-linejoin:miter;stroke-opacity:1"
         d="m 68.35418,197.70937 h 12.910701 v 0 0.5916 h -12.94411 z"
         id="path1456"
         inkscape:connector-curvature="0" />
      <path
         style="fill:#ffffff;fill-opacity:1;stroke:none;stroke-width:0.26458332px;stroke-linecap:butt;stroke-linejoin:miter;stroke-opacity:1"
         d="m 68.320771,198.30097 v 12.09524 h 12.94411 v -12.09524 z"
         id="path1458"
         inkscape:connector-curvature="0" />
      <path
         style="fill:#ffffff;fill-opacity:1;stroke:none;stroke-width:0.26458332px;stroke-linecap:butt;stroke-linejoin:miter;stroke-opacity:1"
         d="M 81.264881,210.39621 H 61.538807 v 14.04012 h 19.726074 z"
         id="path1460"
         inkscape:connector-curvature="0" />
      <path
         style="fill:#076838;fill-opacity:1;stroke:none;stroke-width:0.26458332px;stroke-linecap:butt;stroke-linejoin:miter;stroke-opacity:1"
         d="m 68.35418,208.13288 -6.815373,2.26333 h 6.781964 z"
         id="path1462"
         inkscape:connector-curvature="0" />
      <ellipse
         ry="2.7240152"
         rx="2.1560674"
         cy="193.70033"
         cx="72.46344"
         id="ellipse1464"
         style="opacity:1;fill:none;fill-opacity:1;stroke:#636363;stroke-width:0.62900001;stroke-miterlimit:4;stroke-dasharray:none;stroke-opacity:1" />
      <path
         style="fill:#e7e7e7;fill-opacity:1;stroke:none;stroke-width:0.26458332px;stroke-linecap:butt;stroke-linejoin:miter;stroke-opacity:1"
         d="m 63.405505,214.74294 h 1.133928 c 0,0 0.425225,-3.54353 -0.566963,-3.54353 -0.992187,0 -0.566965,3.54353 -0.566965,3.54353 z"
         id="path1466"
         inkscape:connector-curvature="0" />
      <path
         inkscape:connector-curvature="0"
         id="path1468"
         d="m 68.933407,214.74294 h 1.133928 c 0,0 0.425225,-3.54353 -0.566963,-3.54353 -0.992187,0 -0.566965,3.54353 -0.566965,3.54353 z"
         style="fill:#e7e7e7;fill-opacity:1;stroke:none;stroke-width:0.26458332px;stroke-linecap:butt;stroke-linejoin:miter;stroke-opacity:1" />
      <path
         style="fill:#e7e7e7;fill-opacity:1;stroke:none;stroke-width:0.26458332px;stroke-linecap:butt;stroke-linejoin:miter;stroke-opacity:1"
         d="m 74.366815,214.74294 h 1.133928 c 0,0 0.425225,-3.54353 -0.566963,-3.54353 -0.992187,0 -0.566965,3.54353 -0.566965,3.54353 z"
         id="path1470"
         inkscape:connector-curvature="0" />
      <path
         style="fill:#584a45;fill-opacity:1;stroke:none;stroke-width:0.26458332px;stroke-linecap:butt;stroke-linejoin:miter;stroke-opacity:1"
         d="m 81.264883,213.60901 c 0,0 -4.015996,0.14174 -4.157736,3.44903 -0.141743,3.30729 0,7.18155 0,7.18155 h 4.157736 z"
         id="path1472"
         inkscape:connector-curvature="0" />
      <path
         inkscape:connector-curvature="0"
         id="path1474"
         d="m 81.264883,216.72731 c 0,0 -2.57743,0.10017 -2.668397,2.43732 -0.09097,2.33715 0,5.07496 0,5.07496 h 2.668397 z"
         style="fill:#c3996a;fill-opacity:1;stroke:none;stroke-width:0.17818312px;stroke-linecap:butt;stroke-linejoin:miter;stroke-opacity:1" />
      <path
         inkscape:connector-curvature="0"
         id="path1476"
         d="m 80.735716,184.88043 1.336347,0.0334 v -5.57924 c 0,0 0,-0.86862 -0.868628,-0.86862 -0.868624,0 -0.818512,0.81851 -0.818512,0.81851 v 5.56255 z"
         style="fill:#756762;fill-opacity:1;stroke:none;stroke-width:0.26458332px;stroke-linecap:butt;stroke-linejoin:miter;stroke-opacity:1" />
      <path
         style="fill:#756762;fill-opacity:1;stroke:none;stroke-width:0.26458332px;stroke-linecap:butt;stroke-linejoin:miter;stroke-opacity:1"
         d="m 77.912143,184.88043 -1.336347,0.0334 v -5.57924 c 0,0 0,-0.86862 0.868628,-0.86862 0.868624,0 0.818512,0.81851 0.818512,0.81851 v 5.56255 z"
         id="path1478"
         inkscape:connector-curvature="0" />
      <path
         style="fill:none;stroke:#666666;stroke-width:0.2;stroke-linecap:butt;stroke-linejoin:miter;stroke-miterlimit:4;stroke-dasharray:none;stroke-opacity:1"
         d="m 68.851809,198.2578 h 0.519594 v 1.57997 h 1.369756 v -1.58691 h 1.052374 v 1.5702 h 1.369756 v -1.5368 h 1.169305 v 1.57021 h 1.269529 v -1.60361 h 1.169305 v 1.62032 h 1.319644 v -1.63703 h 0.985554 v 1.62032 h 1.57021 v -1.5535 h 0.601355 0.01669"
         id="path1480"
         inkscape:connector-curvature="0" />
    </g>
  </g>
</svg>
