<?xml version="1.0" encoding="UTF-8" standalone="no"?>
<!-- Created with Inkscape (http://www.inkscape.org/) -->

<svg
   xmlns:dc="http://purl.org/dc/elements/1.1/"
   xmlns:cc="http://creativecommons.org/ns#"
   xmlns:rdf="http://www.w3.org/1999/02/22-rdf-syntax-ns#"
   xmlns:svg="http://www.w3.org/2000/svg"
   xmlns="http://www.w3.org/2000/svg"
   xmlns:sodipodi="http://sodipodi.sourceforge.net/DTD/sodipodi-0.dtd"
   xmlns:inkscape="http://www.inkscape.org/namespaces/inkscape"
   width="55.030285mm"
   height="76.225357mm"
   viewBox="0 0 55.030285 76.225357"
   version="1.1"
   id="svg8"
   inkscape:version="0.92.4 (f8dce91, 2019-08-02)"
   sodipodi:docname="shchetinina.svg">
  <defs
     id="defs2" />
  <sodipodi:namedview
     id="base"
     pagecolor="#ffffff"
     bordercolor="#666666"
     borderopacity="1.0"
     inkscape:pageopacity="0.0"
     inkscape:pageshadow="2"
     inkscape:zoom="0.7"
     inkscape:cx="243.04375"
     inkscape:cy="59.422961"
     inkscape:document-units="mm"
     inkscape:current-layer="layer2"
     showgrid="false"
     showguides="true"
     inkscape:guide-bbox="true"
     fit-margin-top="0"
     fit-margin-left="0"
     fit-margin-right="0"
     fit-margin-bottom="0"
     inkscape:window-width="1366"
     inkscape:window-height="712"
     inkscape:window-x="0"
     inkscape:window-y="28"
     inkscape:window-maximized="1"
     inkscape:snap-others="false"
     inkscape:object-nodes="false"
     inkscape:snap-nodes="false"
     inkscape:object-paths="false">
    <sodipodi:guide
       position="27.528761,31.136901"
       orientation="1,0"
       id="guide838"
       inkscape:locked="false" />
  </sodipodi:namedview>
  <metadata
     id="metadata5">
    <rdf:RDF>
      <cc:Work
         rdf:about="">
        <dc:format>image/svg+xml</dc:format>
        <dc:type
           rdf:resource="http://purl.org/dc/dcmitype/StillImage" />
        <dc:title />
      </cc:Work>
    </rdf:RDF>
  </metadata>
  <g
     inkscape:groupmode="layer"
     id="layer2"
     inkscape:label="Layer 2"
     transform="translate(-0.45509012,-0.41451935)">
    <path
       style="fill:#020049;fill-opacity:1;stroke:none;stroke-width:1.00514138px;stroke-linecap:butt;stroke-linejoin:miter;stroke-opacity:1"
       d="m 103.57227,130.95312 v 0.1543 l -30.000004,12.99805 -1.72461,4.13281 -0.126953,0.0293 c 0,0 -34.126205,27.39485 -43.435547,46.43554 -8.018516,16.40052 -8.58789,54.08985 -8.58789,54.08985 l 18.275949,40.3125 h 31.192801 l 0.11914,0.41797 h 34.642574 34.28711 l 0.11914,-0.41797 h 35.02847 l 15.4188,-40.3125 c 0,0 -0.56757,-37.68937 -8.58594,-54.08985 -9.30942,-19.04115 -43.4375,-46.43554 -43.4375,-46.43554 l -1.21289,-0.28906 -1.61719,-3.87305 -30,-12.99805 v -0.1543 l -0.17773,0.0762 z"
       transform="matrix(0.26458333,0,0,0.26458333,0.45509012,0.41451935)"
       id="path873"
       inkscape:connector-curvature="0"
       sodipodi:nodetypes="cccccscccccccccsccccccc" />
    <path
       style="fill:#fdc18b;fill-opacity:1;stroke:none;stroke-width:0.28037196px;stroke-linecap:butt;stroke-linejoin:miter;stroke-opacity:1"
       d="m 28.583605,6.9869276 c -0.343966,-2.361e-4 -0.538985,0.016732 -0.538985,0.016732 0,0 -0.221282,-0.019042 -0.608748,-0.016239 -2.626307,0.018997 -12.877988,1.0552483 -13.525273,15.9400614 0.04291,2.015683 0.166314,5.312855 0.528133,7.692978 0.01132,-0.01147 0.02281,-0.02247 0.03411,-0.03395 2.693981,12.781218 13.571781,13.726108 13.571781,13.726108 0,0 8.648986,-0.750832 12.432832,-9.974349 0,0 0,-4.91e-4 0,-4.91e-4 -0.01038,-0.420192 0.08985,-0.870173 0.326596,-1.353273 0.210915,-0.430384 0.392509,-0.86729 0.553455,-1.30652 0.09254,-0.354556 0.179938,-0.716856 0.258898,-1.091475 0.0242,0.02461 0.04881,0.04841 0.07338,0.07234 0.690475,-2.410278 0.74417,-4.803799 0.628901,-6.58379 -0.0365,0.01748 -0.07211,0.03612 -0.107487,0.05512 -0.0048,-0.57539 -0.02306,-1.131666 -0.05426,-1.669199 -0.10889,-0.786916 -0.219107,-1.264201 -0.219107,-1.264201 0,0 0.116038,-0.01 0.120404,-0.01033 C 40.706742,7.8300365 30.991377,6.9885812 28.583605,6.9869276 Z"
       id="path880"
       inkscape:connector-curvature="0" />
    <circle
       style="opacity:1;fill:#000000;fill-opacity:1;stroke:none;stroke-width:0.11388516;stroke-miterlimit:4;stroke-dasharray:none;stroke-opacity:1"
       id="path831"
       cx="21.412151"
       cy="25.656115"
       r="0.96322888" />
    <circle
       r="0.96322888"
       cy="25.656115"
       cx="34.220573"
       id="circle875"
       style="opacity:1;fill:#000000;fill-opacity:1;stroke:none;stroke-width:0.11388516;stroke-miterlimit:4;stroke-dasharray:none;stroke-opacity:1" />
    <path
       style="fill:none;stroke:#ef9f6b;stroke-width:0.30137473px;stroke-linecap:butt;stroke-linejoin:miter;stroke-opacity:1"
       d="m 25.374847,38.610588 h 5.166424"
       id="path840"
       inkscape:connector-curvature="0" />
    <path
       style="fill:#fdc18b;fill-opacity:1;stroke:none;stroke-width:0.26458332px;stroke-linecap:butt;stroke-linejoin:miter;stroke-opacity:1"
       d="m 15.160286,21.983258 c 0,0 -3.006782,2.138156 -2.739513,3.340869 0.26727,1.202713 0.400905,6.280833 1.002261,6.748555 0.601357,0.467723 2.539061,-0.200451 2.539061,-0.200451 z"
       id="path860"
       inkscape:connector-curvature="0" />
    <path
       inkscape:connector-curvature="0"
       id="path862"
       d="m 40.798026,21.983258 c 0,0 3.006782,2.138156 2.739513,3.340869 -0.26727,1.202713 -0.400905,6.280833 -1.002261,6.748555 -0.601357,0.467723 -2.539061,-0.200451 -2.539061,-0.200451 z"
       style="fill:#fdc18b;fill-opacity:1;stroke:none;stroke-width:0.26458332px;stroke-linecap:butt;stroke-linejoin:miter;stroke-opacity:1" />
    <path
       style="fill:#f68740;stroke:none;stroke-width:0.26458332px;stroke-linecap:butt;stroke-linejoin:miter;stroke-opacity:1;fill-opacity:1"
       d="m 27.983851,25.390944 c 0,0 -1.135895,6.882192 -1.135895,8.218539 0,1.336346 1.135895,1.937702 1.135895,1.937702 z"
       id="path827"
       inkscape:connector-curvature="0" />
    <path
       inkscape:connector-curvature="0"
       id="path829"
       d="m 27.917034,25.390944 c 0,0 1.135895,6.882192 1.135895,8.218539 0,1.336346 -1.135895,1.937702 -1.135895,1.937702 z"
       style="fill:#f68740;fill-opacity:1;stroke:none;stroke-width:0.26458332px;stroke-linecap:butt;stroke-linejoin:miter;stroke-opacity:1" />
    <ellipse
       style="opacity:1;fill:#f68740;fill-opacity:1;stroke:none;stroke-width:0.26499999;stroke-miterlimit:4;stroke-dasharray:none;stroke-opacity:1"
       id="path832"
       cx="27.98385"
       cy="38.620785"
       rx="1.6036172"
       ry="0.53453904" />
    <path
       style="fill:#3a3000;stroke:none;stroke-width:0.26458332px;stroke-linecap:butt;stroke-linejoin:miter;stroke-opacity:1;fill-opacity:1"
       d="m 37.024287,8.2261858 c 0,0 5.197171,3.6852672 6.142112,9.6383922 0.944941,5.953125 3.118305,3.685268 3.118305,3.685268 0,0 -0.283483,6.047618 -5.197174,4.346726 C 36.17384,24.19568 34.000475,8.2261858 25.685001,9.1711264 17.369524,10.116067 16.80256,25.991066 15.007173,26.747019 c -1.795387,0.755952 -7.2760413,1.039434 -7.7485115,-2.929316 -0.4724704,-3.96875 0.1889879,-3.023809 0.1889879,-3.023809 0,0 1.7953871,3.590774 3.6852676,0.661458 1.889881,-2.929315 8.598959,-15.8749995 8.598959,-15.8749995 L 30.315208,5.2968702 Z"
       id="path836"
       inkscape:connector-curvature="0" />
    <path
       style="fill:#020049;fill-opacity:1;stroke:none;stroke-width:0.26458332px;stroke-linecap:butt;stroke-linejoin:miter;stroke-opacity:1"
       d="M 15.045518,21.307991 C 14.042165,25.864292 7.2164085,24.174518 9.4737077,17.655559 11.731007,11.136599 8.5261188,5.1232695 18.730575,2.939538 28.93503,0.75580675 34.669158,3.3603831 35.906893,4.1972181 c 1.858591,1.2565977 2.351461,4.8466776 0.906153,5.4447274 -1.445309,0.5980505 -10.152425,0.3087996 -14.853956,2.9214575 -5.609334,3.117128 -6.348931,6.180516 -6.913572,8.744588 z"
       id="path834"
       inkscape:connector-curvature="0"
       sodipodi:nodetypes="sssssss" />
    <path
       style="fill:#b15300;fill-opacity:1;stroke:none;stroke-width:0.26458332px;stroke-linecap:butt;stroke-linejoin:miter;stroke-opacity:1"
       d="m 15.196161,44.133922 c 0,0 -1.700893,5.764139 0.944941,8.787948 2.645833,3.023809 5.480655,4.724701 5.480655,4.724701 l 1.322916,-1.322916 c 0,0 -6.614583,-3.874254 -6.614583,-7.465029 0,-3.590774 0.94494,-6.92169 0.94494,-6.92169 z"
       id="path852"
       inkscape:connector-curvature="0"
       sodipodi:nodetypes="csccscc" />
    <path
       sodipodi:nodetypes="csccscc"
       inkscape:connector-curvature="0"
       id="path854"
       d="m 40.848097,44.133922 c 0,0 1.700893,5.764139 -0.944941,8.787948 -2.645833,3.023809 -5.480655,4.724701 -5.480655,4.724701 l -1.322916,-1.322916 c 0,0 6.614583,-3.874254 6.614583,-7.465029 0,-3.590774 -0.94494,-6.92169 -0.94494,-6.92169 z"
       style="fill:#b15300;fill-opacity:1;stroke:none;stroke-width:0.26458332px;stroke-linecap:butt;stroke-linejoin:miter;stroke-opacity:1" />
    <path
       style="opacity:1;fill:#0066b1;fill-opacity:1;stroke:none;stroke-width:1.18993604;stroke-miterlimit:4;stroke-dasharray:none;stroke-opacity:1"
       d="M 78.75 193.45312 L 78.75 197.91797 L 81.964844 197.91797 L 81.964844 202.02344 L 81.427734 202.02344 C 78.459875 202.02344 76.072266 204.413 76.072266 207.38086 L 76.072266 237.73828 C 76.072266 240.70614 78.459875 243.0957 81.427734 243.0957 L 91.072266 243.0957 C 94.040125 243.0957 96.427734 240.70614 96.427734 237.73828 L 96.427734 232.73828 L 112.5 232.73828 L 112.5 237.73828 C 112.5 240.70614 114.88957 243.0957 117.85742 243.0957 L 127.5 243.0957 C 130.46786 243.0957 132.85742 240.70614 132.85742 237.73828 L 132.85742 207.38086 C 132.85742 204.413 130.46786 202.02344 127.5 202.02344 L 126.96484 202.02344 L 126.96484 197.91797 L 130 197.91797 L 130 193.45312 L 115.71484 193.45312 L 115.71484 197.91797 L 118.92773 197.91797 L 118.92773 202.02344 L 117.85742 202.02344 C 114.88957 202.02344 112.5 204.413 112.5 207.38086 L 112.5 212.38086 L 96.427734 212.38086 L 96.427734 207.38086 C 96.427734 204.413 94.040125 202.02344 91.072266 202.02344 L 90 202.02344 L 90 197.91797 L 93.035156 197.91797 L 93.035156 193.45312 L 78.75 193.45312 z "
       transform="matrix(0.26458333,0,0,0.26458333,0.45509012,0.41451935)"
       id="rect838" />
    <rect
       style="opacity:1;fill:#044a7d;fill-opacity:1;stroke:none;stroke-width:0.26210132;stroke-miterlimit:4;stroke-dasharray:none;stroke-opacity:1"
       id="rect864"
       width="4.2486358"
       height="5.8799295"
       x="25.973597"
       y="56.527843" />
  </g>
</svg>
