<?xml version="1.0" encoding="UTF-8" standalone="no"?>
<!-- Created with Inkscape (http://www.inkscape.org/) -->

<svg
   xmlns:dc="http://purl.org/dc/elements/1.1/"
   xmlns:cc="http://creativecommons.org/ns#"
   xmlns:rdf="http://www.w3.org/1999/02/22-rdf-syntax-ns#"
   xmlns:svg="http://www.w3.org/2000/svg"
   xmlns="http://www.w3.org/2000/svg"
   xmlns:sodipodi="http://sodipodi.sourceforge.net/DTD/sodipodi-0.dtd"
   xmlns:inkscape="http://www.inkscape.org/namespaces/inkscape"
   width="55.030285mm"
   height="76.225357mm"
   viewBox="0 0 55.030285 76.225357"
   version="1.1"
   id="svg8"
   inkscape:version="0.92.4 (f8dce91, 2019-08-02)"
   sodipodi:docname="surikov.svg">
  <defs
     id="defs2" />
  <sodipodi:namedview
     id="base"
     pagecolor="#ffffff"
     bordercolor="#666666"
     borderopacity="1.0"
     inkscape:pageopacity="0.0"
     inkscape:pageshadow="2"
     inkscape:zoom="1.4"
     inkscape:cx="-52.375054"
     inkscape:cy="127.87349"
     inkscape:document-units="mm"
     inkscape:current-layer="layer2"
     showgrid="false"
     showguides="true"
     inkscape:guide-bbox="true"
     fit-margin-top="0"
     fit-margin-left="0"
     fit-margin-right="0"
     fit-margin-bottom="0"
     inkscape:window-width="1366"
     inkscape:window-height="712"
     inkscape:window-x="0"
     inkscape:window-y="28"
     inkscape:window-maximized="1"
     inkscape:snap-others="false"
     inkscape:object-nodes="false">
    <sodipodi:guide
       position="27.497768,51.593752"
       orientation="1,0"
       id="guide829"
       inkscape:locked="false" />
  </sodipodi:namedview>
  <metadata
     id="metadata5">
    <rdf:RDF>
      <cc:Work
         rdf:about="">
        <dc:format>image/svg+xml</dc:format>
        <dc:type
           rdf:resource="http://purl.org/dc/dcmitype/StillImage" />
        <dc:title />
      </cc:Work>
    </rdf:RDF>
  </metadata>
  <g
     inkscape:groupmode="layer"
     id="layer2"
     inkscape:label="Layer 2"
     transform="translate(-0.45509012,-0.41451935)">
    <path
       style="fill:#222222;fill-opacity:1;stroke:none;stroke-width:0.99999994px;stroke-linecap:butt;stroke-linejoin:miter;stroke-opacity:1"
       d="M 103.92773 140.61328 L 103.92773 140.76758 L 64.144531 163.3418 L 30.304688 222.43555 L 62.628906 287.58984 L 103.92773 287.95312 L 103.92773 287.95508 L 104.06445 287.95312 L 104.20117 287.95508 L 104.20117 287.95312 L 145.5 287.58984 L 177.82422 222.43555 L 143.98438 163.3418 L 104.20117 140.76758 L 104.20117 140.61328 L 104.06445 140.69141 L 103.92773 140.61328 z "
       transform="matrix(0.26458333,0,0,0.26458333,0.45509012,0.41451935)"
       id="path836" />
    <path
       inkscape:connector-curvature="0"
       id="path846"
       d="m 38.691965,38.177453 7.634292,8.395438 -7.74594,3.336969 -10.555443,26.692872 V 29.136211 Z"
       style="fill:#222222;fill-opacity:1;stroke:none;stroke-width:0.29706764px;stroke-linecap:butt;stroke-linejoin:miter;stroke-opacity:1" />
    <path
       style="fill:#222222;fill-opacity:1;stroke:none;stroke-width:0.29706764px;stroke-linecap:butt;stroke-linejoin:miter;stroke-opacity:1"
       d="M 17.357784,38.177453 9.7234927,46.572891 17.469432,49.90986 28.024874,76.602732 V 29.136211 Z"
       id="path844"
       inkscape:connector-curvature="0" />
    <rect
       style="opacity:1;fill:#d3d3d3;fill-opacity:1;stroke:none;stroke-width:0.25350189;stroke-miterlimit:4;stroke-dasharray:none;stroke-opacity:1"
       id="rect842"
       width="15.352596"
       height="18.874937"
       x="20.368364"
       y="31.034924" />
    <path
       id="path880"
       style="fill:#fdc18b;fill-opacity:1;stroke:none;stroke-width:0.28303984px;stroke-linecap:butt;stroke-linejoin:miter;stroke-opacity:1"
       d="m 39.959548,25.762535 c 0,0 1.136193,-4.107762 4.274255,-2.644077 3.138057,1.463688 -0.05411,4.863214 0,5.193724 0.05411,0.33051 0.387541,6.080778 -1.72694,6.038584 -2.114479,-0.04219 -0.05851,-3.205645 -1.140599,-4.291606 -1.08209,-1.085959 -1.839552,-2.927371 -1.406716,-4.296625 z M 28.044665,5.1338683 c 0,0 13.751858,-1.2916043 13.751858,18.2977527 0,19.589359 -13.751858,20.880964 -13.751858,20.880964 z M 16.129786,25.762535 c 0,0 -1.136194,-4.107762 -4.274255,-2.644077 -3.1380555,1.463688 0.05411,4.863214 0,5.193724 -0.05411,0.33051 -0.38754,6.080778 1.726939,6.038584 2.11448,-0.04219 0.05851,-3.205645 1.140599,-4.291606 1.08209,-1.085959 1.839552,-2.927371 1.406717,-4.296625 z M 28.044668,5.1338683 c 0,0 -13.751858,-1.2916043 -13.751858,18.2977527 0,19.589359 13.751858,20.880964 13.751858,20.880964 z"
       inkscape:connector-curvature="0" />
    <circle
       style="opacity:1;fill:#000000;fill-opacity:1;stroke:none;stroke-width:0.11388516;stroke-miterlimit:4;stroke-dasharray:none;stroke-opacity:1"
       id="path831"
       cx="22.999653"
       cy="25.126947"
       r="0.96322888" />
    <path
       style="fill:#d3d3d3;fill-opacity:1;stroke:none;stroke-width:0.17074382px;stroke-linecap:butt;stroke-linejoin:miter;stroke-opacity:1"
       d="m 21.618423,45.642273 6.406451,9.073597 V 44.277823 Z"
       id="path848"
       inkscape:connector-curvature="0" />
    <path
       inkscape:connector-curvature="0"
       id="path850"
       d="M 34.431326,45.642273 28.024874,54.71587 V 44.277823 Z"
       style="fill:#d3d3d3;fill-opacity:1;stroke:none;stroke-width:0.17074382px;stroke-linecap:butt;stroke-linejoin:miter;stroke-opacity:1" />
    <ellipse
       style="opacity:1;fill:#3f2a1d;fill-opacity:1;stroke:none;stroke-width:0.20616141;stroke-miterlimit:4;stroke-dasharray:none;stroke-opacity:1"
       id="path827"
       cx="28.132507"
       cy="40.507519"
       rx="5.6839066"
       ry="5.6667128" />
    <path
       style="fill:#3f2a1d;fill-opacity:1;stroke:none;stroke-width:0.99999994px;stroke-linecap:butt;stroke-linejoin:miter;stroke-opacity:1"
       d="M 98.25 130.01172 C 92.762069 130.05357 84.755302 130.863 81.072266 134.88086 C 75.179408 141.30943 78.75 153.27344 78.75 153.27344 C 78.75 153.27344 89.29002 132.59904 103.59766 138.82031 C 103.59102 138.92787 103.58894 139.00601 103.58203 139.11523 C 103.69882 139.05788 103.81338 139.01859 103.92969 138.96484 C 104.04544 139.01835 104.15916 139.05816 104.27539 139.11523 C 104.26848 139.00602 104.26641 138.92786 104.25977 138.82031 C 118.5674 132.59904 129.10742 153.27344 129.10742 153.27344 C 129.10742 153.27344 132.67801 141.30943 126.78516 134.88086 C 120.8923 128.45229 103.92773 130.23828 103.92773 130.23828 C 103.92773 130.23828 101.54276 129.98661 98.25 130.01172 z "
       transform="matrix(0.26458333,0,0,0.26458333,0.45509012,0.41451935)"
       id="path829" />
    <path
       id="path870"
       style="opacity:1;fill:#ef9f6b;fill-opacity:1;stroke:none;stroke-width:0.43417364;stroke-miterlimit:4;stroke-dasharray:none;stroke-opacity:1"
       d="m 27.385501,26.927122 c -0.198257,0 -0.357748,0.213095 -0.357748,0.477735 v 5.971509 h -0.545925 c -0.354979,0 -0.640623,0.381552 -0.640623,0.85522 v 0.179271 c 0,0.473667 0.285644,0.854892 0.640623,0.854892 h 0.545925 v 0.0081 c 0,0.26464 0.159381,0.477407 0.357748,0.477407 h 0.05538 v 6.11e-4 h 0.604073 v -0.478021 -0.07412 -7.563738 -0.231193 -0.475775 h -0.343571 c -0.0049,-2.61e-4 -0.0095,-0.002 -0.0144,-0.002 z m 1.318339,0 c 0.198257,0 0.357748,0.213095 0.357748,0.477735 v 5.971509 h 0.545925 c 0.354979,0 0.640623,0.381552 0.640623,0.85522 v 0.179271 c 0,0.473667 -0.285644,0.854892 -0.640623,0.854892 h -0.545925 v 0.0081 c 0,0.26464 -0.159381,0.477407 -0.357748,0.477407 h -0.05538 v 6.11e-4 h -0.604073 v -0.478021 -0.07412 -7.563738 -0.231193 -0.475775 h 0.343571 c 0.0049,-2.61e-4 0.0095,-0.002 0.0144,-0.002 z"
       inkscape:connector-curvature="0" />
    <circle
       r="0.96322888"
       cy="25.126947"
       cx="32.633072"
       id="circle875"
       style="opacity:1;fill:#000000;fill-opacity:1;stroke:none;stroke-width:0.11388516;stroke-miterlimit:4;stroke-dasharray:none;stroke-opacity:1" />
    <path
       style="fill:none;stroke:#ef9f6b;stroke-width:0.30137473px;stroke-linecap:butt;stroke-linejoin:miter;stroke-opacity:1"
       d="m 25.441664,40.760665 h 5.166424"
       id="path840"
       inkscape:connector-curvature="0" />
    <path
       style="fill:#4f301d;fill-opacity:1;stroke:none;stroke-width:0.2626403px;stroke-linecap:butt;stroke-linejoin:miter;stroke-opacity:1"
       d="M 22.578767,3.4996023 C 20.337216,3.5509883 17.858519,4.4354671 16.130229,7.4171926 12.179852,14.232565 7.7663883,23.185832 7.7663883,23.185832 c 0,0 5.2037237,3.073834 3.2285357,4.543815 -1.9751881,1.469983 -0.832545,2.382285 -0.832545,2.382285 l 2.939624,2.294951 3.423367,2.004528 c 0,0 -3.291677,-11.091852 -0.789772,-17.105416 2.501905,-6.013564 9.551128,-7.884364 12.215252,-4.276225 0.03054,-5.7462951 0,-8.2852825 0,-8.2852825 0,0 -2.49009,-1.3109522 -5.372083,-1.2448852 z m 10.788467,0 c -2.881992,-0.066067 -5.372082,1.2448852 -5.372082,1.2448852 0,0 -0.03054,2.5389874 0,8.2852825 2.664123,-3.608139 9.713855,-1.737339 12.21576,4.276225 2.501906,6.013564 -0.790279,17.105416 -0.790279,17.105416 l 3.423875,-2.004528 2.101476,-2.011249 c 0,0 1.980282,-1.196004 0.0051,-2.665987 -1.97519,-1.469981 3.09541,-5.078354 3.09541,-5.078354 0,0 -4.280339,-8.418728 -8.230716,-15.2341004 C 38.087484,4.4354671 35.608785,3.5509878 33.367234,3.4996023 Z"
       id="path841"
       inkscape:connector-curvature="0"
       sodipodi:nodetypes="sscscccsccssccsccccccs" />
    <path
       style="fill:none;stroke:#000000;stroke-width:0.26458332px;stroke-linecap:butt;stroke-linejoin:miter;stroke-opacity:1"
       d="m 18.314465,24.006692 c 0,0 4.535715,-2.173363 7.087053,-0.566965"
       id="path847"
       inkscape:connector-curvature="0" />
    <path
       inkscape:connector-curvature="0"
       id="path849"
       d="m 37.056513,24.006692 c 0,0 -4.535715,-2.173363 -7.087053,-0.566965"
       style="fill:none;stroke:#000000;stroke-width:0.26458332px;stroke-linecap:butt;stroke-linejoin:miter;stroke-opacity:1" />
    <path
       sodipodi:type="star"
       style="opacity:1;fill:#c4ae00;fill-opacity:1;stroke:none;stroke-width:0.26499999;stroke-miterlimit:4;stroke-dasharray:none;stroke-opacity:1"
       id="path851"
       sodipodi:sides="3"
       sodipodi:cx="24.834554"
       sodipodi:cy="49.709071"
       sodipodi:r1="3.2252798"
       sodipodi:r2="1.61264"
       sodipodi:arg1="0"
       sodipodi:arg2="1.0471976"
       inkscape:flatsided="false"
       inkscape:rounded="0"
       inkscape:randomized="0"
       d="m 28.059834,49.709072 -2.418959,1.396587 -2.41896,1.396587 0,-2.793174 0,-2.793174 2.41896,1.396587 z"
       inkscape:transform-center-x="-0.8063199" />
    <path
       inkscape:transform-center-x="0.80632121"
       d="m -27.757627,49.709072 -2.418959,1.396587 -2.41896,1.396587 0,-2.793174 0,-2.793174 2.41896,1.396587 z"
       inkscape:randomized="0"
       inkscape:rounded="0"
       inkscape:flatsided="false"
       sodipodi:arg2="1.0471976"
       sodipodi:arg1="0"
       sodipodi:r2="1.61264"
       sodipodi:r1="3.2252798"
       sodipodi:cy="49.709072"
       sodipodi:cx="-30.982907"
       sodipodi:sides="3"
       id="path853"
       style="opacity:1;fill:#c4ae00;fill-opacity:1;stroke:none;stroke-width:0.26499999;stroke-miterlimit:4;stroke-dasharray:none;stroke-opacity:1"
       sodipodi:type="star"
       transform="scale(-1,1)" />
  </g>
</svg>
