<?xml version="1.0" encoding="UTF-8" standalone="no"?>
<!-- Created with Inkscape (http://www.inkscape.org/) -->

<svg
   xmlns:dc="http://purl.org/dc/elements/1.1/"
   xmlns:cc="http://creativecommons.org/ns#"
   xmlns:rdf="http://www.w3.org/1999/02/22-rdf-syntax-ns#"
   xmlns:svg="http://www.w3.org/2000/svg"
   xmlns="http://www.w3.org/2000/svg"
   xmlns:sodipodi="http://sodipodi.sourceforge.net/DTD/sodipodi-0.dtd"
   xmlns:inkscape="http://www.inkscape.org/namespaces/inkscape"
   width="30.809877mm"
   height="20.056496mm"
   viewBox="0 0 30.809877 20.056496"
   version="1.1"
   id="svg9716"
   inkscape:version="0.92.4 (f8dce91, 2019-08-02)"
   sodipodi:docname="wolf.svg">
  <defs
     id="defs9710" />
  <sodipodi:namedview
     id="base"
     pagecolor="#ffffff"
     bordercolor="#666666"
     borderopacity="1.0"
     inkscape:pageopacity="0.0"
     inkscape:pageshadow="2"
     inkscape:zoom="0.35"
     inkscape:cx="-184.6337"
     inkscape:cy="-413.52655"
     inkscape:document-units="mm"
     inkscape:current-layer="layer1"
     showgrid="false"
     fit-margin-top="0"
     fit-margin-left="0"
     fit-margin-right="0"
     fit-margin-bottom="0"
     inkscape:window-width="1366"
     inkscape:window-height="712"
     inkscape:window-x="0"
     inkscape:window-y="28"
     inkscape:window-maximized="1" />
  <metadata
     id="metadata9713">
    <rdf:RDF>
      <cc:Work
         rdf:about="">
        <dc:format>image/svg+xml</dc:format>
        <dc:type
           rdf:resource="http://purl.org/dc/dcmitype/StillImage" />
        <dc:title></dc:title>
      </cc:Work>
    </rdf:RDF>
  </metadata>
  <g
     inkscape:label="Layer 1"
     inkscape:groupmode="layer"
     id="layer1"
     transform="translate(-21.636714,-19.364605)">
    <path
       id="path1142"
       style="fill:#6a6b68;fill-opacity:1;fill-rule:nonzero;stroke:none;stroke-width:0.03527778"
       d="m 24.441328,21.221643 -0.0861,-0.822325 -0.24059,-0.647348 0.16016,-0.301273 0.75565,0.509764 0.85972,0.987074 -1.44886,0.274108"
       inkscape:connector-curvature="0" />
    <path
       id="path1144"
       style="fill:#86877e;fill-opacity:1;fill-rule:nonzero;stroke:none;stroke-width:0.03527778"
       d="m 32.683981,31.637405 0.383468,1.798815 0.325261,1.506008 0.08961,1.131004 -0.222602,0.82409 -0.661458,0.149577 -0.31115,0.420158 -0.02151,0.434623 0.681567,0.17921 1.09079,-0.01871 0.170039,-0.500591 0.43815,-0.777523 -0.118181,-0.550334 -0.05891,-1.746956 -0.04374,-2.799644 -0.131586,-1.750483 -1.389946,0.18556 -0.219779,1.515182"
       inkscape:connector-curvature="0" />
    <path
       id="path1146"
       style="fill:#6a6b68;fill-opacity:1;fill-rule:nonzero;stroke:none;stroke-width:0.03527778"
       d="m 34.442576,36.778789 -0.251883,0.396168 -0.118179,0.470607 -0.116416,-0.127352 0.1651,-0.865013 0.321378,0.12559"
       inkscape:connector-curvature="0" />
    <path
       id="path1148"
       style="fill:#9c9c8e;fill-opacity:1;fill-rule:nonzero;stroke:none;stroke-width:0.03527778"
       d="m 34.425291,31.687147 -0.131585,-1.750483 -1.389946,0.18556 -0.219779,1.515181 0.383468,1.798815 0.254,1.17616 0.148519,-1.055865 0.445913,-1.299633 0.516112,-0.115004 -0.0067,-0.454731"
       inkscape:connector-curvature="0" />
    <path
       id="path1150"
       style="fill:#6a6b68;fill-opacity:1;fill-rule:nonzero;stroke:none;stroke-width:0.03527778"
       d="m 33.438924,37.505512 -0.0099,-0.08185 -0.206375,0.0441 -0.312914,0.270933 -0.128059,0.298802 0.132998,0.03528 0.0388,-0.128058 0.136173,-0.26529 0.34925,-0.173918"
       inkscape:connector-curvature="0" />
    <path
       id="path1152"
       style="fill:#6a6b68;fill-opacity:1;fill-rule:nonzero;stroke:none;stroke-width:0.03527778"
       d="m 32.438799,37.620164 -0.09772,0.301625 0.09313,0.024 0.05292,-0.201083 0.134054,-0.23848 0.213783,-0.193675 -0.178152,0.01799 -0.218017,0.289631"
       inkscape:connector-curvature="0" />
    <path
       id="path1154"
       style="fill:#bfbdb0;fill-opacity:1;fill-rule:nonzero;stroke:none;stroke-width:0.03527778"
       d="m 34.469035,34.48679 -0.04374,-2.799643 -0.131585,-1.750483 -0.470607,0.06279 0.267052,2.579513 0.158047,1.779058 0.03069,1.581502 0.339019,0.894998 0.02822,-0.05045 -0.118182,-0.550333 -0.05891,-1.746957"
       inkscape:connector-curvature="0" />
    <path
       id="path1156"
       style="fill:#9c9c8e;fill-opacity:1;fill-rule:nonzero;stroke:none;stroke-width:0.03527778"
       d="m 46.809201,25.176632 1.121834,0.09172 1.653116,1.099256 1.958975,3.002844 0.833263,2.257425 0.0702,1.529292 -0.486833,1.029406 -0.61595,-0.02999 -1.82633,-2.015768 -0.886528,-3.386315 -0.746125,-1.816806 -0.625475,-0.575734 -0.450147,-1.185333"
       inkscape:connector-curvature="0" />
    <path
       id="path1158"
       style="fill:#bfbdb0;fill-opacity:1;fill-rule:nonzero;stroke:none;stroke-width:0.03527778"
       d="m 51.929418,32.777582 -0.790575,-0.556683 -0.855133,-0.886884 -0.589137,-1.30951 -0.905582,-2.088798 -0.688623,-1.505302 -0.953204,-0.363008 0.112184,0.294568 0.625475,0.575734 0.746125,1.816806 0.886528,3.386315 1.826332,2.01577 0.61595,0.02999 0.486833,-1.029406 -0.02574,-0.564092 c -0.06985,-0.04128 -0.124531,-0.06985 -0.124531,-0.06985 l -0.36689,0.254352"
       inkscape:connector-curvature="0" />
    <path
       id="path1160"
       style="fill:#86877e;fill-opacity:1;fill-rule:nonzero;stroke:none;stroke-width:0.03527778"
       d="m 52.067356,30.790387 -0.52423,-1.419932 -1.958975,-3.002844 -1.653116,-1.099256 -0.184854,-0.01482 1.212143,0.918985 1.041752,1.523296 0.736248,1.643944 0.8382,1.240367 0.492832,0.210257"
       inkscape:connector-curvature="0" />
    <path
       id="path1162"
       style="fill:#86877e;fill-opacity:1;fill-rule:nonzero;stroke:none;stroke-width:0.03527778"
       d="m 40.804924,29.785674 0.41275,1.945571 0.899936,1.643237 0.778229,1.164873 0.0092,0.545042 -0.798335,1.450268 -0.392642,0.598313 -0.228248,0.206727 -0.773641,0.216959 -0.579613,0.697089 0.137936,0.1524 1.272468,-0.01024 0.733425,-0.145344 0.185915,-0.826912 1.077735,-1.217436 0.850548,-1.048808 0.281517,-0.531283 -0.04833,-0.510469 -0.509059,-0.715081 0.148873,-2.282119 -1.041752,-1.722615 -2.416881,0.389819"
       inkscape:connector-curvature="0" />
    <path
       id="path1164"
       style="fill:#9c9c8e;fill-opacity:1;fill-rule:nonzero;stroke:none;stroke-width:0.03527778"
       d="m 44.114685,33.400589 0.148873,-2.282119 -1.041752,-1.722615 -2.416882,0.389819 0.41275,1.945571 0.781402,1.427337 0.533048,-0.454025 0.914752,-0.136877 0.357717,0.853723 0.603605,1.010354 -0.261057,1.025525 0.243417,-0.29986 0.281516,-0.531283 -0.04833,-0.510469 -0.509058,-0.715081"
       inkscape:connector-curvature="0" />
    <path
       id="path1166"
       style="fill:#bfbdb0;fill-opacity:1;fill-rule:nonzero;stroke:none;stroke-width:0.03527778"
       d="m 44.390558,35.157422 0.281516,-0.531283 -0.04833,-0.510469 -0.509058,-0.715081 0.148873,-2.282119 -0.14746,-0.243065 c -0.248005,0.183092 -0.494949,0.375357 -0.494949,0.375357 -0.02188,0.07161 -0.0035,1.907116 -0.0035,1.907116 l 0.306563,1.141236 -0.04586,0.942268 -0.741891,1.03505 -0.7366,0.94474 -0.190148,0.535165 0.135114,0.190145 0.117475,-0.522817 1.077736,-1.217435 0.850548,-1.048808"
       inkscape:connector-curvature="0" />
    <path
       id="path1168"
       style="fill:#9c9c8e;fill-opacity:1;fill-rule:nonzero;stroke:none;stroke-width:0.03527778"
       d="m 21.728818,25.392886 0.92146,-1.008239 0.43462,-0.705557 0.067,-0.614185 0.33619,-0.927806 0.8128,-1.013529 0.88971,-0.3556 1.879246,0.201435 1.134886,0.564446 0.714023,0.253294 3.251552,0.378529 1.063625,-0.202142 0.69215,-0.03845 1.061863,0.561623 2.740376,0.425095 3.233209,0.01482 2.043641,-0.189793 1.939925,0.45861 2.240492,1.709563 0.54116,2.279295 0.154165,2.768249 -0.485423,2.483556 0.203906,1.027287 0.580674,0.754946 0.276928,0.268111 -0.218368,1.479198 -0.688975,2.182283 -0.305507,0.31115 -0.290335,0.71261 -0.847725,0.249415 -0.36054,-0.05433 -0.09631,-0.259995 -0.54892,0.0822 -0.313622,-0.26952 0.546807,-0.772231 0.915106,-0.136525 0.275167,-0.422275 0.632177,-2.511425 -1.189215,-0.931686 -0.892175,-1.060804 -1.75895,-1.903235 -0.814917,-1.16699 -0.912987,0.100541 -3.030008,0.286457 -3.348215,0.125235 -1.890183,0.01587 -0.55739,1.716617 -0.462492,2.011891 -0.247295,1.331738 0.07479,0.693912 -0.01622,0.326322 -0.619125,0.769053 -0.334433,0.891472 -0.226835,0.170391 -1.449565,-0.07161 -0.356659,-0.126294 0.169334,-0.500946 0.824441,-0.503412 0.687565,-1.420284 0.09701,-1.229783 -0.386291,-3.94335 -0.288925,-0.776465 -1.193446,-0.85866 -1.089379,-1.47038 -0.427919,-0.166862 -0.566915,0.444852 -0.629353,-0.503415 -0.948623,-1.391354 -0.71226,-0.289631 -1.08161,0.564092 -0.55492,0.191206 -0.78811,-0.22084 -0.59796,-0.392641 0.0921,-0.395111"
       inkscape:connector-curvature="0" />
    <path
       id="path1170"
       style="fill:#bfbdb0;fill-opacity:1;fill-rule:nonzero;stroke:none;stroke-width:0.03527778"
       d="m 48.439035,34.608147 -0.638175,-0.08149 -0.520346,-0.497768 -0.715788,-0.94333 -0.903816,-1.570918 -1.049867,-0.814917 -1.75401,-2.011892 -0.448027,-1.220965 -0.679805,-0.215545 -0.865716,0.611362 -1.06045,0.129471 -2.118077,0.22225 -1.633009,-0.0441 -1.692626,-0.301625 -1.11619,-0.200025 -0.454732,0.377119 0.232834,1.173691 0.324556,0.779288 0.02506,0.543277 1.838677,-0.01553 3.348215,-0.125235 3.030008,-0.286456 0.912987,-0.100542 0.814917,1.16699 1.75895,1.903235 0.892175,1.060804 1.189215,0.931686 -0.632177,2.511425 -0.275167,0.422275 -0.915106,0.136525 -0.546807,0.772231 0.313621,0.269521 0.548921,-0.0822 0.09631,0.259996 0.36054,0.05433 0.847725,-0.249415 0.290335,-0.71261 0.305507,-0.31115 0.688975,-2.182283 0.200377,-1.35749"
       inkscape:connector-curvature="0" />
    <path
       id="path1172"
       style="fill:#bfbdb0;fill-opacity:1;fill-rule:nonzero;stroke:none;stroke-width:0.03527778"
       d="m 30.222298,29.986405 0.0448,0.124884 0.06421,-0.864307 -0.351015,-0.986367 0.167217,-1.183568 -0.415925,-1.138767 -0.42404,-0.244475 -0.246592,0.5842 -0.63147,1.011767 -0.02045,0.959556 0.620889,0.859012 1.19239,0.878065"
       inkscape:connector-curvature="0" />
    <path
       id="path1174"
       style="fill:#bfbdb0;fill-opacity:1;fill-rule:nonzero;stroke:none;stroke-width:0.03527778"
       d="m 26.724506,27.237561 -0.06597,-0.874889 -0.544337,-0.753886 -0.44238,-0.602898 0.16439,-0.391583 0.751773,-0.508 0.02857,-0.579615 -1.409698,-0.142168 -0.58314,0.770114 -0.47661,0.08572 -0.85513,0.394052 -0.28222,-0.159456 -0.40993,-0.03493 -0.87101,0.952854 -0.0921,0.395111 0.59795,0.392641 0.78811,0.22084 0.55492,-0.191206 1.08162,-0.564092 0.71225,0.289631 0.948625,1.391354 0.432503,0.345723 -0.02822,-0.435327"
       inkscape:connector-curvature="0" />
    <path
       id="path1176"
       style="fill:#86877e;fill-opacity:1;fill-rule:nonzero;stroke:none;stroke-width:0.03527778"
       d="M 30.737351,28.380207 30.451956,27.53072 c 0,0 0.201083,-1.11619 0.206375,-1.225198 0.0053,-0.108657 0.162277,-1.081969 0.162277,-1.081969 l 0.115006,-1.59244 0.6604,-0.8763 -0.35419,1.290461 0.242007,1.719439 0.236712,1.101725 -0.329494,0.783167 -0.653698,0.730602"
       inkscape:connector-curvature="0" />
    <path
       id="path1178"
       style="fill:#86877e;fill-opacity:1;fill-rule:nonzero;stroke:none;stroke-width:0.03527778"
       d="m 23.847248,23.135461 -0.37747,0.471663 c 0.0801,0.03175 0.47978,-0.3302 0.47978,-0.3302 l -0.10231,-0.141463"
       inkscape:connector-curvature="0" />
    <path
       id="path1180"
       style="fill:#3c3a38;fill-opacity:1;fill-rule:nonzero;stroke:none;stroke-width:0.03527778"
       d="m 23.704728,22.992586 0.15205,0.225071 0.0469,0.166158 0.21166,-0.153458 0.17957,-0.33161 -0.28928,0.06773 -0.30092,0.02611"
       inkscape:connector-curvature="0" />
    <path
       id="path1182"
       style="fill:#9c9c8e;fill-opacity:1;fill-rule:nonzero;stroke:none;stroke-width:0.03527778"
       d="m 23.920278,23.043738 0.0483,0.124884 0.0568,-0.05151 -0.01,-0.0822 -0.0956,0.0088"
       inkscape:connector-curvature="0" />
    <path
       id="path1184"
       style="fill:#3c3a38;fill-opacity:1;fill-rule:nonzero;stroke:none;stroke-width:0.03527778"
       d="m 21.636748,25.787997 0.4639,0.304093 -0.0444,-0.347485 0.19579,-0.09913 -0.0162,-0.218721 -0.21625,-0.03775 -0.0755,-0.231423 -0.2152,0.235304 -0.0921,0.395111"
       inkscape:connector-curvature="0" />
    <path
       id="path1186"
       style="fill:#3c3a38;fill-opacity:1;fill-rule:nonzero;stroke:none;stroke-width:0.03527778"
       d="m 23.857128,25.697686 -0.72884,0.418394 -0.52881,0.16651 0.14464,0.04092 0.45543,-0.185914 0.37324,-0.200025 0.56021,-0.298802 0.42369,-0.124532 0.0596,-0.106185 -0.21661,-0.02893 -0.54257,0.318558"
       inkscape:connector-curvature="0" />
    <path
       id="path1188"
       style="fill:#86877e;fill-opacity:1;fill-rule:nonzero;stroke:none;stroke-width:0.03527778"
       d="m 23.797158,22.497286 0.20708,-0.516114 0.75741,-0.617009 0.4565,-0.05009 -0.11995,0.59337 0.39017,0.546455 1.018473,0.358775 0.0141,0.436737 -0.409225,-0.165452 -0.83925,-0.295981 -0.3489,0.07373 -0.31186,-0.306565 -0.81456,-0.05785"
       inkscape:connector-curvature="0" />
    <path
       id="path1190"
       style="fill:#86877e;fill-opacity:1;fill-rule:nonzero;stroke:none;stroke-width:0.03527778"
       d="m 26.160418,24.85737 0.246588,0.52987 0.327377,-0.01058 -0.330552,-0.479777 -0.0695,-0.248356 -0.173915,0.208846"
       inkscape:connector-curvature="0" />
    <path
       id="path1192"
       style="fill:#86877e;fill-opacity:1;fill-rule:nonzero;stroke:none;stroke-width:0.03527778"
       d="m 26.674058,24.937097 0.735893,0.554566 0.482955,0.70485 0.400754,0.155927 0.221898,-0.07091 -0.470959,-0.404635 -0.338666,-0.861836 -1.114073,-0.627239 0.0822,0.549275"
       inkscape:connector-curvature="0" />
    <path
       id="path1194"
       style="fill:#86877e;fill-opacity:1;fill-rule:nonzero;stroke:none;stroke-width:0.03527778"
       d="m 26.888548,26.119255 0.100893,0.713669 0.517877,-0.0011 0.373946,0.154517 0.142875,-0.129469 -0.421923,-0.29351 -0.237067,-0.720021 -0.417689,-0.37465 -0.304094,0.09384 0.245182,0.556683"
       inkscape:connector-curvature="0" />
    <path
       id="path1196"
       style="fill:#86877e;fill-opacity:1;fill-rule:nonzero;stroke:none;stroke-width:0.03527778"
       d="m 28.300716,26.761663 0.200377,-0.181327 -0.589137,-0.219429 -0.03387,0.134408 0.422627,0.266348"
       inkscape:connector-curvature="0" />
    <path
       id="path1198"
       style="fill:#86877e;fill-opacity:1;fill-rule:nonzero;stroke:none;stroke-width:0.03527778"
       d="m 44.327764,23.355947 1.58115,1.086202 0.491067,1.114073 -0.07267,1.467556 -0.113948,0.648404 0.968375,1.355725 0.02506,0.601133 0.110773,1.068213 0.30762,0.564092 0.255765,-1.308806 -0.154172,-2.768249 -0.54116,-2.279295 -2.240492,-1.709563 -1.939925,-0.45861 -2.043641,0.189793 -3.233209,-0.01482 -2.740377,-0.425096 -1.061862,-0.561623 -0.69215,0.03845 -1.063625,0.202142 -3.160184,-0.367946 0.124884,0.208844 c 0,0 0.833263,0.232127 0.915813,0.208843 0.08361,-0.02294 1.436158,0.179565 1.436158,0.179565 l 1.065035,0.48895 1.295752,0.254706 1.0668,-0.08396 0.112183,0.496359 0.0042,0.463904 0.372533,0.180975 0.706263,-0.509764 0.967316,-0.2794 2.374194,-0.07373 1.38924,0.01376 1.477433,-0.117475 2.009775,0.126648"
       inkscape:connector-curvature="0" />
    <path
       id="path1200"
       style="fill:#6a6b68;fill-opacity:1;fill-rule:nonzero;stroke:none;stroke-width:0.03527778"
       d="m 31.84331,36.705057 -0.301977,0.325967 -0.319969,0.133704 -0.02257,-0.09666 0.412047,-0.347133 0.182033,-0.372885 0.05044,0.35701"
       inkscape:connector-curvature="0" />
    <path
       id="path1202"
       style="fill:#6a6b68;fill-opacity:1;fill-rule:nonzero;stroke:none;stroke-width:0.03527778"
       d="m 29.762626,38.005749 0.52705,-0.192262 -0.02188,-0.110067 -0.581379,0.189442 -0.176387,0.490712 0.18415,0.0095 c 0.01976,-0.137229 0.06844,-0.38735 0.06844,-0.38735"
       inkscape:connector-curvature="0" />
    <path
       id="path1204"
       style="fill:#6a6b68;fill-opacity:1;fill-rule:nonzero;stroke:none;stroke-width:0.03527778"
       d="m 29.642331,37.686132 -0.311857,0.243417 -0.09666,0.365831 0.08467,0.02963 0.0635,-0.338315 0.271286,-0.245534 -0.01093,-0.05503"
       inkscape:connector-curvature="0" />
    <path
       id="path1206"
       style="fill:#86877e;fill-opacity:1;fill-rule:nonzero;stroke:none;stroke-width:0.03527778"
       d="m 32.121651,28.857163 -0.03598,1.279174 -0.609952,0.760235 -0.442735,0.141817 -0.174273,-0.335492 0.54469,-0.5461 0.434268,-1.068211 0.283985,-0.231423"
       inkscape:connector-curvature="0" />
    <path
       id="path1208"
       style="fill:#bfbdb0;fill-opacity:1;fill-rule:nonzero;stroke:none;stroke-width:0.03527778"
       d="m 33.698216,29.480522 -0.461785,-0.02294 -0.277638,1.212498 -0.527402,1.8542 -0.47484,1.884185 -0.07796,1.031523 0.194027,0.351367 -0.02045,-0.188736 0.247295,-1.331737 0.462492,-2.011892 0.55739,-1.716617 0.631473,-0.0053 0.09454,-0.358775 -0.347133,-0.697794"
       inkscape:connector-curvature="0" />
    <path
       id="path1210"
       style="fill:#86877e;fill-opacity:1;fill-rule:nonzero;stroke:none;stroke-width:0.03527778"
       d="m 47.717958,34.722799 0.185915,0.662871 -0.06597,0.786694 0.261763,-0.886177 -0.05503,-0.547513 -0.326673,-0.01587"
       inkscape:connector-curvature="0" />
    <path
       id="path1212"
       style="fill:#86877e;fill-opacity:1;fill-rule:nonzero;stroke:none;stroke-width:0.03527778"
       d="m 48.238658,35.965637 0.200377,-1.35749 -0.272696,-0.03492 0.129117,0.250473 -0.198615,1.079852 -0.32244,1.00189 -0.408516,0.924628 -0.409575,0.560917 -0.152046,0.82409 0.149577,-0.04339 0.290335,-0.71261 0.305507,-0.31115 0.688975,-2.182283"
       inkscape:connector-curvature="0" />
    <path
       id="path1214"
       style="fill:#86877e;fill-opacity:1;fill-rule:nonzero;stroke:none;stroke-width:0.03527778"
       d="m 45.595648,38.359939 -0.460024,0.486481 -0.08784,0.297744 0.05257,0.0448 0.06879,-0.0095 c 0.04868,-0.133701 0.129821,-0.32526 0.129821,-0.32526 l 0.496713,-0.502356 0.184501,-0.04551 -0.01447,-0.09172 -0.370062,0.145344"
       inkscape:connector-curvature="0" />
    <path
       id="path1216"
       style="fill:#86877e;fill-opacity:1;fill-rule:nonzero;stroke:none;stroke-width:0.03527778"
       d="m 46.280035,38.46683 -0.397934,0.343252 -0.215193,0.343607 0.07867,0.213076 0.01693,0.0021 c 0.05221,-0.163335 0.129823,-0.39511 0.129823,-0.39511 l 0.399698,-0.37959 -0.01199,-0.127352"
       inkscape:connector-curvature="0" />
    <path
       id="path1218"
       style="fill:#86877e;fill-opacity:1;fill-rule:nonzero;stroke:none;stroke-width:0.03527778"
       d="m 27.801889,21.96812 0.480835,-0.4064 -0.07796,-0.02787 -0.826559,-0.410988 -0.118885,0.791282 -0.189793,0.535868 0.338666,0.31609 0.3937,-0.797983"
       inkscape:connector-curvature="0" />
    <path
       id="path1220"
       style="fill:#bfbdb0;fill-opacity:1;fill-rule:nonzero;stroke:none;stroke-width:0.03527778"
       d="m 25.190628,20.76797 -0.88971,0.3556 -0.8128,1.013529 -0.33619,0.927806 -0.067,0.614185 -0.43462,0.705557 -0.92146,1.008239 -0.0921,0.395111 0.0818,0.05398 0.15346,-0.406048 0.30797,-0.347838 0.66499,-0.602898 0.39582,-0.652639 0.0441,-0.524934 c 0,0 0.2593,-0.84102 0.26247,-0.894995 0.002,-0.05433 0.51329,-0.828323 0.51329,-0.828323 l 0.51047,-0.411337 0.52176,-0.264938 0.47554,-0.06703 0.0173,-0.03069 -0.39511,-0.04233"
       inkscape:connector-curvature="0" />
    <path
       id="path1222"
       style="fill:#ce7574;fill-opacity:1;fill-rule:nonzero;stroke:none;stroke-width:0.03527778"
       d="m 26.78871,22.245049 -0.594432,-0.203904 -0.33373,-0.113948 -0.3122,-0.306211 -0.28928,-0.03246 -0.11465,-0.259644 0.375,-0.963083 0.15169,-0.864306 0.17004,-0.136877 0.646291,0.904168 0.359127,1.180042 -0.05786,0.796219"
       inkscape:connector-curvature="0" />
    <path
       id="path1224"
       style="fill:#bfbdb0;fill-opacity:1;fill-rule:nonzero;stroke:none;stroke-width:0.03527778"
       d="m 26.007658,20.408488 -0.30056,0.566209 -0.19827,0.641704 0.0395,0.0046 0.3122,0.306211 0.33373,0.113948 0.007,0.0024 0.195789,-0.307975 0.06879,-0.668867 -0.35137,-0.980368 -0.10654,0.322085"
       inkscape:connector-curvature="0" />
    <path
       id="path1226"
       style="fill:#6a6b68;fill-opacity:1;fill-rule:nonzero;stroke:none;stroke-width:0.03527778"
       d="m 25.841148,19.36462 -0.17004,0.136877 -0.15169,0.864306 -0.375,0.963083 0.11465,0.259644 0.0212,0.0021 0.0928,-0.469194 0.18873,-0.517173 0.14993,-0.82832 0.15805,0.11712 0.31115,0.687213 0.0571,0.674862 -0.18415,0.426861 -0.21696,0.222956 0.0236,0.02223 0.33372,0.113945 0.594434,0.203904 0.05786,-0.796219 -0.359127,-1.180042 -0.646293,-0.904168"
       inkscape:connector-curvature="0" />
    <path
       id="path1228"
       style="fill:#eae9e2;fill-opacity:1;fill-rule:nonzero;stroke:none;stroke-width:0.03527778"
       d="m 41.587739,30.114815 0.912987,-0.100541 0.814917,1.16699 1.75895,1.903235 0.770467,0.916165 -0.475192,-1.010709 -1.534935,-2.037998 -0.805392,-1.34761 -0.95885,-0.446969 -2.095852,0.51435 -4.508854,0.06809 -1.772709,-0.159809 -0.690385,0.0021 0.11289,0.659693 0.02506,0.850197 0.178506,-0.54963 1.890184,-0.01587 3.348214,-0.125235 3.030009,-0.286457"
       inkscape:connector-curvature="0" />
  </g>
</svg>
