<?xml version="1.0" encoding="UTF-8" standalone="no"?>
<!-- Created with Inkscape (http://www.inkscape.org/) -->

<svg
   xmlns:dc="http://purl.org/dc/elements/1.1/"
   xmlns:cc="http://creativecommons.org/ns#"
   xmlns:rdf="http://www.w3.org/1999/02/22-rdf-syntax-ns#"
   xmlns:svg="http://www.w3.org/2000/svg"
   xmlns="http://www.w3.org/2000/svg"
   xmlns:sodipodi="http://sodipodi.sourceforge.net/DTD/sodipodi-0.dtd"
   xmlns:inkscape="http://www.inkscape.org/namespaces/inkscape"
   version="1.1"
   id="svg2"
   xml:space="preserve"
   width="666.66669"
   height="666.66669"
   viewBox="0 0 666.66669 666.66669"
   sodipodi:docname="baikal.svg"
   inkscape:version="0.92.4 (f8dce91, 2019-08-02)"><metadata
     id="metadata8"><rdf:RDF><cc:Work
         rdf:about=""><dc:format>image/svg+xml</dc:format><dc:type
           rdf:resource="http://purl.org/dc/dcmitype/StillImage" /><dc:title></dc:title></cc:Work></rdf:RDF></metadata><defs
     id="defs6"><clipPath
       clipPathUnits="userSpaceOnUse"
       id="clipPath20"><path
         d="M 0,0 H 500 V 500 H 0 Z"
         id="path18"
         inkscape:connector-curvature="0" /></clipPath><clipPath
       clipPathUnits="userSpaceOnUse"
       id="clipPath582"><path
         d="M 0,500 H 500 V 0 H 0 Z"
         id="path580"
         inkscape:connector-curvature="0" /></clipPath><clipPath
       clipPathUnits="userSpaceOnUse"
       id="clipPath1475"><ellipse
         style="opacity:1;fill:#044a7d;fill-opacity:1;stroke:none;stroke-width:0.75118107;stroke-miterlimit:4;stroke-dasharray:none;stroke-opacity:1"
         id="ellipse1477"
         cx="250.19362"
         cy="-246.42155"
         rx="242.14819"
         ry="244.1088"
         clip-path="none"
         transform="scale(1,-1)" /></clipPath><clipPath
       clipPathUnits="userSpaceOnUse"
       id="clipPath1479"><ellipse
         style="opacity:1;fill:#044a7d;fill-opacity:1;stroke:none;stroke-width:0.75118107;stroke-miterlimit:4;stroke-dasharray:none;stroke-opacity:1"
         id="ellipse1481"
         cx="250.19362"
         cy="-246.42155"
         rx="242.14819"
         ry="244.1088"
         clip-path="none"
         transform="scale(1,-1)" /></clipPath></defs><sodipodi:namedview
     pagecolor="#ffffff"
     bordercolor="#666666"
     borderopacity="1"
     objecttolerance="10"
     gridtolerance="10"
     guidetolerance="10"
     inkscape:pageopacity="0"
     inkscape:pageshadow="2"
     inkscape:window-width="1366"
     inkscape:window-height="712"
     id="namedview4"
     showgrid="false"
     inkscape:zoom="0.50063159"
     inkscape:cx="173.00772"
     inkscape:cy="341.70877"
     inkscape:window-x="0"
     inkscape:window-y="28"
     inkscape:window-maximized="1"
     inkscape:current-layer="g10" /><g
     id="g10"
     inkscape:groupmode="layer"
     inkscape:label="2537633"
     transform="matrix(1.3333333,0,0,-1.3333333,0,666.66667)"><path
       d="M 0,253.496 H 500 V 500.001 H 0 Z"
       style="fill:#deeffb;fill-opacity:1;fill-rule:nonzero;stroke:none"
       id="path12"
       inkscape:connector-curvature="0"
       clip-path="url(#clipPath1479)" /><g
       id="g14"
       clip-path="url(#clipPath1475)"><g
         id="g16"
         clip-path="url(#clipPath20)"><g
           id="g22"
           transform="translate(217.2485,278.2466)"><path
             d="m 0,0 c 0,0 151.946,114.638 170.691,114.652 18.745,0.015 207.11,-126.574 207.11,-126.574 V -24.251 H -4.61 Z"
             style="fill:#badcee;fill-opacity:1;fill-rule:nonzero;stroke:none"
             id="path24"
             inkscape:connector-curvature="0" /></g><g
           id="g26"
           transform="translate(-71.6431,281.6909)"><path
             d="m 0,0 c 0,0 183.824,138.689 206.502,138.707 22.678,0.017 250.562,-153.13 250.562,-153.13 V -29.338 H -5.578 Z"
             style="fill:#badcee;fill-opacity:1;fill-rule:nonzero;stroke:none"
             id="path28"
             inkscape:connector-curvature="0" /></g><g
           id="g30"
           transform="translate(528.2041,443.9019)"><path
             d="m 0,0 c -42.848,7.106 -87.605,8.452 -131.157,3.945 -31.492,-3.26 -62.207,-9.527 -93.563,-13.38 -56.984,-7.003 -115.947,-5.912 -172.33,3.19 -25.627,4.137 -50.835,9.921 -76.976,11.899 -26.14,1.978 -54.066,-0.251 -75.623,-10.855 2.433,-3.292 3.778,-6.733 6.212,-10.025 22.435,11.062 53.33,11.931 80.406,9.05 27.076,-2.881 52.927,-9.775 79.52,-14.378 57.575,-9.967 118.892,-8.977 175.759,2.837 45.54,9.46 91.28,25.91 137.974,19.856 24.047,-3.118 45.678,-12.011 66.702,-20.806 2.625,5.378 6.802,10.713 7.341,16.388 0.048,0.508 0.081,1.045 -0.246,1.499 C 3.671,-0.295 0.75,-0.125 0,0"
             style="fill:#badcee;fill-opacity:1;fill-rule:nonzero;stroke:none"
             id="path32"
             inkscape:connector-curvature="0" /></g><g
           id="g34"
           transform="translate(316.3599,284.4658)"><path
             d="m 0,0 -15.75,-38.5 h -9.22 l -10.62,25.96 -1.1,2.68 -4.03,9.86 2.67,15.58 0.2,1.21 0.78,4.55 4.96,-4.09 -4.57,6.4 2.47,14.46 0.22,1.31 1.73,10.11 8.05,-6.65 -7.41,10.39 1.39,8.13 0.22,1.33 3.5,20.51 0.24,1.36 1.16,6.82 4.25,-3.51 0.5,-0.41 -0.5,0.7 -3.87,5.42 3.87,22.7 0.5,2.93 0.5,-2.93 4.69,-27.47 0.23,-1.35 2.34,-13.73 -6.26,-8.77 6.8,5.61 0.27,-1.57 0.22,-1.3 L -8.61,50.42 -8.37,49 -4.52,26.47 -4.3,25.18 -2.4,14.04 -8.86,5 l 7.02,5.79 1.05,-6.16 0.23,-1.37 z"
             style="fill:#708338;fill-opacity:1;fill-rule:nonzero;stroke:none"
             id="path36"
             inkscape:connector-curvature="0" /></g><g
           id="g38"
           transform="translate(315.7998,287.7256)"><path
             d="m 0,0 -0.23,1.37 -1.05,6.16 -7.02,-5.79 6.46,9.04 -1.9,11.14 -0.22,1.29 -3.85,22.53 -0.24,1.42 -2.96,17.32 -0.22,1.3 -0.27,1.57 -6.8,-5.61 6.26,8.77 -2.34,13.73 -0.23,1.35 -4.69,27.47 -0.5,2.93 -0.5,-2.93 V 84.94 l 0.5,-0.7 -0.5,0.41 V -38.226 h -5.555 l 1.445,-3.534 h 9.22 l 15.75,38.5 z"
             style="fill:#5f6a2b;fill-opacity:1;fill-rule:nonzero;stroke:none"
             id="path40"
             inkscape:connector-curvature="0" /></g><g
           id="g42"
           transform="translate(296.7197,255.9258)"><path
             d="m 0,0 c 0.29,-0.31 0.08,-0.72 -0.22,-0.83 v -9.13 h -1 v 9.82 C -6.13,5.24 -11.04,10.62 -15.95,16 l -1.1,2.68 C -11.77,12.9 -6.49,7.12 -1.22,1.34 v 3.8 c -0.03,0.09 -0.03,0.18 0,0.28 v 21.84 c -5.73,5.62 -11.46,11.24 -17.19,16.86 l 0.2,1.21 c 5.66,-5.56 11.33,-11.11 16.99,-16.67 v 21.42 c -4.45,5.53 -8.9,11.05 -13.35,16.57 l 0.22,1.31 C -9.97,62.53 -5.6,57.1 -1.22,51.67 v 26.06 c -3.12,4.07 -6.25,8.14 -9.37,12.21 l 0.22,1.33 c 3.06,-3.97 6.1,-7.94 9.15,-11.91 v 24.81 c -1.88,2.54 -3.77,5.07 -5.65,7.61 l 0.24,1.36 c 1.8,-2.44 3.61,-4.87 5.41,-7.3 v 39.02 l 0.5,2.93 0.5,-2.93 v -33.81 c 1.56,2.11 3.12,4.23 4.69,6.34 l 0.23,-1.35 -4.54,-6.15 c -0.099,-0.14 -0.24,-0.2 -0.38,-0.21 v -5.21 c 0.1,-0.16 0.08,-0.31 0,-0.44 V 87.69 c 2.69,3.3 5.38,6.59 8.07,9.89 l 0.22,-1.3 C 5.311,92.89 2.54,89.5 -0.22,86.11 v -8.05 c 0.031,-0.03 0.05,-0.07 0.08,-0.1 0.17,-0.23 0.09,-0.44 -0.08,-0.58 V 62.33 c 3.75,5.55 7.5,11.09 11.25,16.63 l 0.241,-1.42 C 7.46,71.9 3.64,66.26 -0.17,60.63 -0.18,60.61 -0.2,60.6 -0.22,60.58 V 50.43 c 0.07,-0.09 0.14,-0.17 0.2,-0.26 0.25,-0.31 0.07,-0.7 -0.2,-0.83 V 36.57 C 4.89,42.71 10,48.86 15.12,55.01 l 0.22,-1.29 C 10.271,47.62 5.2,41.53 0.14,35.44 0.03,35.31 -0.1,35.26 -0.22,35.27 v -7.59 l 0.07,-0.07 C 0.11,27.36 0,27.04 -0.22,26.87 V 6.85 c 6.36,8.77 12.71,17.54 19.07,26.32 L 19.08,31.8 C 12.65,22.92 6.21,14.04 -0.22,5.15 V 0.25 C -0.15,0.16 -0.07,0.08 0,0"
             style="fill:#434a1d;fill-opacity:1;fill-rule:nonzero;stroke:none"
             id="path44"
             inkscape:connector-curvature="0" /></g><g
           id="g46"
           transform="translate(414.9492,284.4658)"><path
             d="m 0,0 -15.75,-38.5 h -9.22 l -10.62,25.96 -1.1,2.68 -4.03,9.86 2.67,15.58 0.2,1.21 0.78,4.55 4.96,-4.09 -4.57,6.4 2.47,14.46 0.22,1.31 1.73,10.11 8.05,-6.65 -7.41,10.39 1.39,8.13 0.22,1.33 3.5,20.51 0.24,1.36 1.16,6.82 4.25,-3.51 0.5,-0.41 -0.5,0.7 -3.87,5.42 3.87,22.7 0.5,2.93 0.5,-2.93 4.69,-27.47 0.23,-1.35 2.34,-13.73 -6.26,-8.77 6.8,5.61 0.27,-1.57 0.22,-1.3 L -8.61,50.42 -8.37,49 -4.52,26.47 -4.3,25.18 -2.4,14.04 -8.86,5 l 7.02,5.79 1.05,-6.16 0.23,-1.37 z"
             style="fill:#5f6a2b;fill-opacity:1;fill-rule:nonzero;stroke:none"
             id="path48"
             inkscape:connector-curvature="0" /></g><g
           id="g50"
           transform="translate(414.3892,287.7256)"><path
             d="m 0,0 -0.23,1.37 -1.05,6.16 -7.02,-5.79 6.46,9.04 -1.9,11.14 -0.22,1.29 -3.85,22.53 -0.24,1.42 -2.96,17.32 -0.22,1.3 -0.27,1.57 -6.8,-5.61 6.26,8.77 -2.34,13.73 -0.23,1.35 -4.69,27.47 -0.5,2.93 -0.256,-1.498 V 84.598 l 0.256,-0.358 -0.256,0.21 V -41.76 h 4.866 l 15.75,38.5 z"
             style="fill:#505924;fill-opacity:1;fill-rule:nonzero;stroke:none"
             id="path52"
             inkscape:connector-curvature="0" /></g><g
           id="g54"
           transform="translate(395.3091,255.9258)"><path
             d="m 0,0 c 0.29,-0.31 0.08,-0.72 -0.22,-0.83 v -9.13 h -1 v 9.82 C -6.13,5.24 -11.04,10.62 -15.95,16 l -1.1,2.68 C -11.77,12.9 -6.49,7.12 -1.22,1.34 v 3.8 c -0.03,0.09 -0.03,0.18 0,0.28 v 21.84 c -5.73,5.62 -11.46,11.24 -17.19,16.86 l 0.2,1.21 c 5.66,-5.56 11.33,-11.11 16.99,-16.67 v 21.42 c -4.45,5.53 -8.9,11.05 -13.35,16.57 l 0.22,1.31 C -9.97,62.53 -5.6,57.1 -1.22,51.67 v 26.06 c -3.12,4.07 -6.25,8.14 -9.37,12.21 l 0.22,1.33 c 3.06,-3.97 6.1,-7.94 9.15,-11.91 v 24.81 c -1.88,2.54 -3.77,5.07 -5.65,7.61 l 0.24,1.36 c 1.8,-2.44 3.61,-4.87 5.41,-7.3 v 39.02 l 0.5,2.93 0.5,-2.93 v -33.81 c 1.56,2.11 3.12,4.23 4.69,6.34 l 0.23,-1.35 -4.54,-6.15 c -0.1,-0.14 -0.24,-0.2 -0.38,-0.21 v -5.21 c 0.1,-0.16 0.08,-0.31 0,-0.44 V 87.69 c 2.69,3.3 5.38,6.59 8.07,9.89 l 0.22,-1.3 C 5.31,92.89 2.54,89.5 -0.22,86.11 v -8.05 c 0.03,-0.03 0.05,-0.07 0.08,-0.1 0.17,-0.23 0.09,-0.44 -0.08,-0.58 V 62.33 c 3.75,5.55 7.5,11.09 11.25,16.63 l 0.24,-1.42 C 7.46,71.9 3.64,66.26 -0.17,60.63 -0.18,60.61 -0.2,60.6 -0.22,60.58 V 50.43 c 0.07,-0.09 0.14,-0.17 0.2,-0.26 0.25,-0.31 0.07,-0.7 -0.2,-0.83 V 36.57 C 4.89,42.71 10,48.86 15.12,55.01 l 0.22,-1.29 C 10.27,47.62 5.2,41.53 0.14,35.44 0.03,35.31 -0.1,35.26 -0.22,35.27 v -7.59 l 0.07,-0.07 C 0.11,27.36 0,27.04 -0.22,26.87 V 6.85 c 6.36,8.77 12.71,17.54 19.07,26.32 L 19.08,31.8 C 12.65,22.92 6.21,14.04 -0.22,5.15 V 0.25 C -0.15,0.16 -0.07,0.08 0,0"
             style="fill:#434a1d;fill-opacity:1;fill-rule:nonzero;stroke:none"
             id="path56"
             inkscape:connector-curvature="0" /></g><g
           id="g58"
           transform="translate(176.8599,295.6016)"><path
             d="m 0,0 -15.75,-38.5 h -9.22 l -10.62,25.96 -1.1,2.68 -4.03,9.86 2.67,15.58 0.2,1.21 0.78,4.55 4.96,-4.09 -4.57,6.4 2.47,14.46 0.22,1.31 1.73,10.11 8.05,-6.65 -7.41,10.39 1.39,8.13 0.22,1.33 3.5,20.51 0.24,1.36 1.16,6.82 4.25,-3.51 0.5,-0.41 -0.5,0.7 -3.87,5.42 3.87,22.7 0.5,2.93 0.5,-2.93 4.69,-27.47 0.23,-1.35 2.34,-13.73 -6.26,-8.77 6.8,5.61 0.27,-1.57 0.22,-1.3 L -8.61,50.42 -8.37,49 -4.52,26.47 -4.3,25.18 -2.4,14.04 -8.86,5 l 7.02,5.79 1.05,-6.16 0.23,-1.37 z"
             style="fill:#5f6a2b;fill-opacity:1;fill-rule:nonzero;stroke:none"
             id="path60"
             inkscape:connector-curvature="0" /></g><g
           id="g62"
           transform="translate(176.2998,298.8613)"><path
             d="m 0,0 -0.23,1.37 -1.05,6.16 -7.02,-5.79 6.46,9.04 -1.9,11.14 -0.22,1.29 -3.85,22.53 -0.24,1.42 -2.96,17.32 -0.22,1.3 -0.27,1.57 -6.8,-5.61 6.26,8.77 -2.34,13.73 -0.23,1.35 -4.69,27.47 -0.5,2.93 -0.5,-2.93 V 84.94 l 0.5,-0.7 -0.5,0.41 V -33.361 h -7.546 l 3.436,-8.399 h 9.22 l 15.75,38.5 z"
             style="fill:#505924;fill-opacity:1;fill-rule:nonzero;stroke:none"
             id="path64"
             inkscape:connector-curvature="0" /></g><g
           id="g66"
           transform="translate(157.2197,267.0615)"><path
             d="m 0,0 c 0.29,-0.31 0.08,-0.72 -0.22,-0.83 v -9.13 h -1 v 9.82 C -6.13,5.24 -11.04,10.62 -15.95,16 l -1.1,2.68 C -11.77,12.9 -6.49,7.12 -1.22,1.34 v 3.8 c -0.03,0.09 -0.03,0.18 0,0.28 v 21.84 c -5.73,5.62 -11.46,11.24 -17.19,16.86 l 0.2,1.21 c 5.66,-5.56 11.33,-11.11 16.99,-16.67 v 21.42 c -4.45,5.53 -8.9,11.05 -13.35,16.57 l 0.22,1.31 C -9.97,62.53 -5.6,57.1 -1.22,51.67 v 26.06 c -3.12,4.07 -6.25,8.14 -9.37,12.21 l 0.22,1.33 c 3.06,-3.97 6.1,-7.94 9.15,-11.91 v 24.81 c -1.88,2.54 -3.77,5.07 -5.65,7.61 l 0.24,1.36 c 1.8,-2.44 3.61,-4.87 5.41,-7.3 v 39.02 l 0.5,2.93 0.5,-2.93 v -33.81 c 1.56,2.11 3.12,4.23 4.69,6.34 l 0.23,-1.35 -4.54,-6.15 c -0.099,-0.14 -0.24,-0.2 -0.38,-0.21 v -5.21 c 0.1,-0.16 0.08,-0.31 0,-0.44 V 87.69 c 2.69,3.3 5.38,6.59 8.07,9.89 l 0.22,-1.3 C 5.311,92.89 2.54,89.5 -0.22,86.11 v -8.05 c 0.031,-0.03 0.05,-0.07 0.08,-0.1 0.17,-0.23 0.09,-0.44 -0.08,-0.58 V 62.33 c 3.75,5.55 7.5,11.09 11.25,16.63 l 0.241,-1.42 C 7.46,71.9 3.64,66.26 -0.17,60.63 -0.18,60.61 -0.2,60.6 -0.22,60.58 V 50.43 c 0.07,-0.09 0.14,-0.17 0.2,-0.26 0.25,-0.31 0.07,-0.7 -0.2,-0.83 V 36.57 C 4.89,42.71 10,48.86 15.12,55.01 l 0.22,-1.29 C 10.271,47.62 5.2,41.53 0.14,35.44 0.03,35.31 -0.1,35.26 -0.22,35.27 v -7.59 l 0.07,-0.07 C 0.11,27.36 0,27.04 -0.22,26.87 V 6.85 c 6.36,8.77 12.71,17.54 19.07,26.32 L 19.08,31.8 C 12.65,22.92 6.21,14.04 -0.22,5.15 V 0.25 C -0.15,0.16 -0.07,0.08 0,0"
             style="fill:#434a1d;fill-opacity:1;fill-rule:nonzero;stroke:none"
             id="path68"
             inkscape:connector-curvature="0" /></g><g
           id="g70"
           transform="translate(133.6714,300.8281)"><path
             d="m 0,0 -19.577,-47.855 h -11.461 l -13.2,32.268 -1.367,3.331 -5.01,12.256 3.319,19.366 0.249,1.504 0.969,5.655 6.165,-5.084 -5.68,7.956 3.07,17.974 0.273,1.628 2.151,12.567 10.006,-8.266 -9.21,12.914 1.727,10.106 0.274,1.653 4.35,25.494 0.299,1.691 1.442,8.477 5.282,-4.363 0.622,-0.51 -0.622,0.87 -4.81,6.738 4.81,28.215 0.622,3.643 0.621,-3.643 5.83,-34.145 0.286,-1.678 2.908,-17.066 -7.781,-10.901 8.453,6.973 0.335,-1.952 0.274,-1.615 3.679,-21.529 0.298,-1.765 4.786,-28.005 0.273,-1.604 2.362,-13.846 -8.03,-11.237 8.726,7.197 1.305,-7.657 0.286,-1.703 z"
             style="fill:#708338;fill-opacity:1;fill-rule:nonzero;stroke:none"
             id="path72"
             inkscape:connector-curvature="0" /></g><g
           id="g74"
           transform="translate(132.9756,304.8804)"><path
             d="m 0,0 -0.286,1.703 -1.305,7.657 -8.726,-7.197 8.03,11.236 -2.362,13.848 -0.273,1.603 -4.786,28.004 -0.298,1.766 -3.68,21.528 -0.273,1.616 -0.335,1.952 -8.453,-6.973 7.781,10.901 -2.909,17.066 -0.285,1.678 -5.83,34.146 -0.621,3.641 -0.365,-2.133 V 105.22 l 0.365,-0.51 -0.365,0.299 V -51.88 h -5.377 l 0.011,-0.028 h 11.461 L 0.696,-4.052 Z"
             style="fill:#5f6a2b;fill-opacity:1;fill-rule:nonzero;stroke:none"
             id="path76"
             inkscape:connector-curvature="0" /></g><g
           id="g78"
           transform="translate(109.2593,265.3525)"><path
             d="M 0,0 C 0.36,-0.385 0.099,-0.895 -0.273,-1.032 V -12.38 H -1.517 V -0.174 C -7.62,6.514 -13.723,13.201 -19.826,19.888 l -1.367,3.331 C -14.63,16.035 -8.067,8.851 -1.517,1.666 v 4.723 c -0.037,0.112 -0.037,0.224 0,0.348 v 27.147 c -7.122,6.986 -14.244,13.972 -21.367,20.957 l 0.249,1.504 C -15.6,49.435 -8.552,42.536 -1.517,35.625 V 62.25 c -5.531,6.874 -11.063,13.735 -16.594,20.596 l 0.274,1.629 c 5.444,-6.75 10.876,-13.499 16.32,-20.249 v 32.393 c -3.878,5.059 -7.768,10.118 -11.647,15.177 l 0.274,1.653 c 3.804,-4.935 7.582,-9.869 11.373,-14.804 v 30.838 c -2.337,3.158 -4.686,6.303 -7.023,9.46 l 0.299,1.69 c 2.237,-3.032 4.487,-6.053 6.724,-9.073 v 48.501 l 0.622,3.642 0.622,-3.642 v -42.026 c 1.939,2.623 3.877,5.258 5.829,7.881 l 0.286,-1.678 -5.643,-7.644 c -0.125,-0.175 -0.299,-0.249 -0.472,-0.261 v -6.477 c 0.124,-0.198 0.099,-0.385 0,-0.546 v -20.311 c 3.343,4.102 6.687,8.191 10.03,12.293 l 0.274,-1.616 C 6.6,115.462 3.157,111.249 -0.273,107.035 V 97.029 c 0.037,-0.037 0.062,-0.087 0.099,-0.124 0.211,-0.286 0.112,-0.548 -0.099,-0.721 V 77.477 c 4.661,6.898 9.322,13.784 13.983,20.67 l 0.298,-1.765 C 9.272,89.372 4.524,82.361 -0.211,75.363 -0.224,75.338 -0.249,75.326 -0.273,75.301 V 62.685 c 0.086,-0.112 0.173,-0.211 0.248,-0.324 0.311,-0.385 0.087,-0.87 -0.248,-1.031 V 45.457 c 6.351,7.632 12.703,15.276 19.067,22.92 l 0.273,-1.603 C 12.766,59.192 6.463,51.622 0.174,44.052 0.037,43.891 -0.125,43.829 -0.273,43.841 v -9.435 l 0.086,-0.087 C 0.137,34.009 0,33.611 -0.273,33.399 V 8.515 C 7.632,19.416 15.525,30.317 23.43,41.23 l 0.286,-1.702 C 15.724,28.49 7.719,17.452 -0.273,6.401 V 0.311 C -0.187,0.199 -0.087,0.1 0,0"
             style="fill:#434a1d;fill-opacity:1;fill-rule:nonzero;stroke:none"
             id="path80"
             inkscape:connector-curvature="0" /></g><g
           id="g82"
           transform="translate(99.9902,300.8281)"><path
             d="m 0,0 -19.578,-47.855 h -11.46 l -13.2,32.268 -1.368,3.331 -5.009,12.256 3.319,19.366 0.248,1.504 0.97,5.655 6.165,-5.084 -5.68,7.956 3.07,17.974 0.273,1.628 2.151,12.567 10.006,-8.266 -9.211,12.914 1.728,10.106 0.273,1.653 4.351,25.494 0.298,1.691 1.442,8.477 5.283,-4.363 0.621,-0.51 -0.621,0.87 -4.811,6.738 4.811,28.215 0.621,3.643 0.622,-3.643 5.83,-34.145 0.285,-1.678 2.909,-17.066 -7.781,-10.901 8.452,6.973 0.336,-1.952 0.273,-1.615 3.68,-21.529 0.298,-1.765 4.785,-28.005 0.274,-1.604 2.362,-13.846 -8.03,-11.237 8.726,7.197 1.305,-7.657 0.286,-1.703 z"
             style="fill:#5f6a2b;fill-opacity:1;fill-rule:nonzero;stroke:none"
             id="path84"
             inkscape:connector-curvature="0" /></g><g
           id="g86"
           transform="translate(99.2939,304.8804)"><path
             d="m 0,0 -0.286,1.703 -1.305,7.657 -8.726,-7.197 8.03,11.236 -2.362,13.848 -0.273,1.603 -4.786,28.004 -0.298,1.766 -3.68,21.528 -0.273,1.616 -0.335,1.952 -8.453,-6.973 7.781,10.901 -2.908,17.066 -0.286,1.678 -5.83,34.146 -0.621,3.641 -0.622,-3.641 -0.061,-0.359 v -34.509 l 0.061,-0.086 0.622,-0.87 -0.622,0.51 -0.061,0.051 V -51.908 h 6.413 L 0.696,-4.052 Z"
             style="fill:#505924;fill-opacity:1;fill-rule:nonzero;stroke:none"
             id="path88"
             inkscape:connector-curvature="0" /></g><g
           id="g90"
           transform="translate(75.5776,265.3525)"><path
             d="M 0,0 C 0.36,-0.385 0.1,-0.895 -0.273,-1.032 V -12.38 H -1.517 V -0.174 C -7.62,6.514 -13.723,13.201 -19.826,19.888 l -1.367,3.331 C -14.63,16.035 -8.067,8.851 -1.517,1.666 v 4.723 c -0.037,0.112 -0.037,0.224 0,0.348 v 27.147 c -7.122,6.986 -14.244,13.972 -21.367,20.957 l 0.249,1.504 C -15.6,49.435 -8.552,42.536 -1.517,35.625 V 62.25 c -5.531,6.874 -11.062,13.735 -16.593,20.596 l 0.273,1.629 c 5.444,-6.75 10.876,-13.499 16.32,-20.249 v 32.393 c -3.878,5.059 -7.768,10.118 -11.647,15.177 l 0.274,1.653 c 3.804,-4.935 7.582,-9.869 11.373,-14.804 v 30.838 c -2.337,3.158 -4.686,6.303 -7.023,9.46 l 0.299,1.69 c 2.237,-3.032 4.487,-6.053 6.724,-9.073 v 48.501 l 0.622,3.642 0.622,-3.642 v -42.026 c 1.939,2.623 3.877,5.258 5.829,7.881 l 0.286,-1.678 -5.643,-7.644 c -0.124,-0.175 -0.299,-0.249 -0.472,-0.261 v -6.477 c 0.124,-0.198 0.099,-0.385 0,-0.546 v -20.311 c 3.343,4.102 6.687,8.191 10.03,12.293 l 0.274,-1.616 C 6.6,115.462 3.157,111.249 -0.273,107.035 V 97.029 c 0.037,-0.037 0.062,-0.087 0.099,-0.124 0.211,-0.286 0.112,-0.548 -0.099,-0.721 V 77.477 c 4.661,6.898 9.322,13.784 13.983,20.67 l 0.299,-1.765 C 9.273,89.372 4.524,82.361 -0.211,75.363 -0.224,75.338 -0.249,75.326 -0.273,75.301 V 62.685 c 0.086,-0.112 0.173,-0.211 0.248,-0.324 0.311,-0.385 0.087,-0.87 -0.248,-1.031 V 45.457 c 6.351,7.632 12.703,15.276 19.067,22.92 l 0.273,-1.603 C 12.766,59.192 6.463,51.622 0.174,44.052 0.037,43.891 -0.125,43.829 -0.273,43.841 v -9.435 l 0.086,-0.087 C 0.137,34.009 0,33.611 -0.273,33.399 V 8.515 C 7.632,19.416 15.525,30.317 23.431,41.23 l 0.285,-1.702 C 15.724,28.49 7.719,17.452 -0.273,6.401 V 0.311 C -0.187,0.199 -0.087,0.1 0,0"
             style="fill:#434a1d;fill-opacity:1;fill-rule:nonzero;stroke:none"
             id="path92"
             inkscape:connector-curvature="0" /></g><g
           id="g94"
           transform="translate(66.3086,300.8281)"><path
             d="m 0,0 -19.577,-47.855 h -11.461 l -13.2,32.268 -1.368,3.331 -5.009,12.256 3.319,19.366 0.249,1.504 0.969,5.655 6.165,-5.084 -5.68,7.956 3.07,17.974 0.273,1.628 2.151,12.567 10.006,-8.266 -9.211,12.914 1.728,10.106 0.273,1.653 4.351,25.494 0.298,1.691 1.442,8.477 5.283,-4.363 0.621,-0.51 -0.621,0.87 -4.81,6.738 4.81,28.215 0.621,3.643 0.622,-3.643 5.83,-34.145 0.286,-1.678 2.908,-17.066 -7.781,-10.901 8.452,6.973 0.336,-1.952 0.274,-1.615 3.679,-21.529 0.298,-1.765 4.786,-28.005 0.273,-1.604 2.362,-13.846 -8.03,-11.237 8.726,7.197 1.305,-7.657 0.286,-1.703 z"
             style="fill:#708338;fill-opacity:1;fill-rule:nonzero;stroke:none"
             id="path96"
             inkscape:connector-curvature="0" /></g><g
           id="g98"
           transform="translate(65.6123,304.8804)"><path
             d="m 0,0 -0.286,1.703 -1.305,7.657 -8.726,-7.197 8.03,11.236 -2.361,13.848 -0.274,1.603 -4.786,28.004 -0.298,1.766 -3.679,21.528 -0.273,1.616 -0.336,1.952 -8.453,-6.973 7.782,10.901 -2.909,17.066 -0.286,1.678 -5.83,34.146 -0.621,3.641 -0.501,-2.936 v -35.827 l 0.501,-0.702 -0.501,0.411 V -51.908 h 6.231 L 0.696,-4.052 Z"
             style="fill:#5f6a2b;fill-opacity:1;fill-rule:nonzero;stroke:none"
             id="path100"
             inkscape:connector-curvature="0" /></g><g
           id="g102"
           transform="translate(41.896,265.3525)"><path
             d="M 0,0 C 0.36,-0.385 0.1,-0.895 -0.273,-1.032 V -12.38 H -1.517 V -0.174 C -7.62,6.514 -13.723,13.201 -19.826,19.888 l -1.367,3.331 C -14.63,16.035 -8.067,8.851 -1.517,1.666 v 4.723 c -0.037,0.112 -0.037,0.224 0,0.348 v 27.147 c -7.122,6.986 -14.244,13.972 -21.367,20.957 l 0.249,1.504 C -15.6,49.435 -8.552,42.536 -1.517,35.625 V 62.25 c -5.531,6.874 -11.062,13.735 -16.593,20.596 l 0.273,1.629 c 5.444,-6.75 10.876,-13.499 16.32,-20.249 v 32.393 c -3.878,5.059 -7.768,10.118 -11.646,15.177 l 0.273,1.653 c 3.804,-4.935 7.582,-9.869 11.373,-14.804 v 30.838 c -2.336,3.158 -4.686,6.303 -7.023,9.46 l 0.299,1.69 c 2.238,-3.032 4.487,-6.053 6.724,-9.073 v 48.501 l 0.622,3.642 0.622,-3.642 v -42.026 c 1.939,2.623 3.878,5.258 5.829,7.881 l 0.286,-1.678 -5.643,-7.644 c -0.124,-0.175 -0.299,-0.249 -0.472,-0.261 v -6.477 c 0.124,-0.198 0.099,-0.385 0,-0.546 v -20.311 c 3.343,4.102 6.687,8.191 10.031,12.293 l 0.273,-1.616 C 6.601,115.462 3.157,111.249 -0.273,107.035 V 97.029 c 0.037,-0.037 0.062,-0.087 0.099,-0.124 0.211,-0.286 0.112,-0.548 -0.099,-0.721 V 77.477 c 4.661,6.898 9.322,13.784 13.983,20.67 l 0.299,-1.765 C 9.273,89.372 4.524,82.361 -0.211,75.363 -0.224,75.338 -0.249,75.326 -0.273,75.301 V 62.685 c 0.086,-0.112 0.173,-0.211 0.248,-0.324 0.311,-0.385 0.087,-0.87 -0.248,-1.031 V 45.457 c 6.351,7.632 12.703,15.276 19.067,22.92 l 0.274,-1.603 C 12.766,59.192 6.464,51.622 0.174,44.052 0.037,43.891 -0.124,43.829 -0.273,43.841 v -9.435 l 0.086,-0.087 C 0.137,34.009 0,33.611 -0.273,33.399 V 8.515 C 7.632,19.416 15.525,30.317 23.431,41.23 l 0.285,-1.702 C 15.724,28.49 7.719,17.452 -0.273,6.401 V 0.311 C -0.187,0.199 -0.087,0.1 0,0"
             style="fill:#434a1d;fill-opacity:1;fill-rule:nonzero;stroke:none"
             id="path104"
             inkscape:connector-curvature="0" /></g><g
           id="g106"
           transform="translate(28.8862,294.564)"><path
             d="m 0,0 -17.015,-41.591 h -9.96 l -11.473,28.044 -1.188,2.895 L -43.99,0 l 2.885,16.831 0.216,1.307 0.842,4.915 5.359,-4.418 -4.937,6.914 2.668,15.621 0.238,1.415 1.868,10.922 8.697,-7.184 -8.005,11.224 1.501,8.783 0.238,1.437 3.781,22.157 0.26,1.469 1.253,7.368 4.591,-3.792 0.54,-0.443 -0.54,0.756 -4.181,5.855 4.181,24.523 0.54,3.165 0.54,-3.165 5.067,-29.676 0.248,-1.458 2.528,-14.833 -6.763,-9.474 7.347,6.06 0.291,-1.696 0.238,-1.404 3.198,-18.711 0.259,-1.533 4.159,-24.34 0.237,-1.393 2.053,-12.035 -6.979,-9.766 7.584,6.255 1.134,-6.655 0.249,-1.48 z"
             style="fill:#5f6a2b;fill-opacity:1;fill-rule:nonzero;stroke:none"
             id="path108"
             inkscape:connector-curvature="0" /></g><g
           id="g110"
           transform="translate(28.2813,298.0854)"><path
             d="m 0,0 -0.249,1.48 -1.134,6.655 -7.584,-6.255 6.979,9.766 -2.053,12.034 -0.237,1.394 -4.16,24.339 -0.258,1.534 -3.198,18.711 -0.238,1.404 -0.291,1.696 -7.347,-6.06 6.763,9.474 -2.528,14.832 -0.248,1.459 -4.998,29.274 v -166.85 h 4.371 L 0.605,-3.521 Z"
             style="fill:#505924;fill-opacity:1;fill-rule:nonzero;stroke:none"
             id="path112"
             inkscape:connector-curvature="0" /></g><g
           id="g114"
           transform="translate(7.6689,263.7324)"><path
             d="M 0,0 C 0.313,-0.335 0.086,-0.778 -0.237,-0.897 V -10.76 H -1.318 V -0.151 L -17.23,17.285 -18.419,20.18 C -12.715,13.936 -7.011,7.691 -1.318,1.447 v 4.106 c -0.032,0.097 -0.032,0.194 0,0.302 v 23.594 c -6.19,6.071 -12.38,12.142 -18.57,18.214 l 0.216,1.307 c 6.114,-6.007 12.24,-12.003 18.354,-18.009 v 23.14 c -4.807,5.974 -9.615,11.937 -14.422,17.9 l 0.238,1.416 c 4.731,-5.866 9.453,-11.732 14.184,-17.598 v 28.152 c -3.37,4.397 -6.752,8.794 -10.122,13.191 l 0.237,1.437 c 3.306,-4.289 6.59,-8.578 9.885,-12.867 v 26.802 c -2.031,2.744 -4.073,5.477 -6.103,8.221 l 0.259,1.47 c 1.944,-2.637 3.9,-5.262 5.844,-7.887 v 42.153 l 0.54,3.166 0.541,-3.166 v -36.524 c 1.685,2.279 3.37,4.569 5.066,6.849 l 0.249,-1.459 -4.905,-6.644 c -0.108,-0.151 -0.259,-0.215 -0.41,-0.226 v -5.629 c 0.108,-0.172 0.086,-0.335 0,-0.475 V 94.731 c 2.905,3.565 5.811,7.119 8.717,10.684 l 0.238,-1.404 C 5.736,100.349 2.744,96.686 -0.237,93.024 v -8.696 c 0.032,-0.033 0.053,-0.076 0.086,-0.108 0.184,-0.249 0.097,-0.476 -0.086,-0.627 V 67.334 C 3.813,73.33 7.865,79.315 11.916,85.3 l 0.259,-1.534 C 8.059,77.673 3.933,71.58 -0.184,65.498 -0.194,65.477 -0.216,65.466 -0.237,65.444 V 54.479 c 0.075,-0.097 0.151,-0.184 0.216,-0.281 0.27,-0.335 0.075,-0.756 -0.216,-0.896 V 39.506 c 5.52,6.633 11.04,13.277 16.571,19.921 l 0.238,-1.394 C 11.095,51.443 5.618,44.864 0.151,38.286 0.033,38.145 -0.108,38.091 -0.237,38.102 v -8.2 l 0.075,-0.075 C 0.119,29.557 0,29.211 -0.237,29.027 V 7.4 c 6.87,9.474 13.73,18.948 20.601,28.433 l 0.248,-1.48 C 13.666,24.76 6.709,15.167 -0.237,5.563 V 0.27 C -0.162,0.172 -0.076,0.086 0,0"
             style="fill:#434a1d;fill-opacity:1;fill-rule:nonzero;stroke:none"
             id="path116"
             inkscape:connector-curvature="0" /></g><g
           id="g118"
           transform="translate(284.2349,280.4619)"><path
             d="m 0,0 -14.112,-34.496 h -8.261 l -9.515,23.26 -0.986,2.401 -3.611,8.835 2.392,13.959 0.179,1.084 0.7,4.078 4.443,-3.665 -4.094,5.734 2.213,12.956 0.197,1.174 1.55,9.058 7.213,-5.958 -6.64,9.309 1.246,7.285 0.197,1.192 3.136,18.377 0.215,1.218 1.039,6.111 3.809,-3.145 0.448,-0.368 -0.448,0.628 -3.468,4.856 3.468,20.339 0.448,2.626 0.448,-2.626 4.202,-24.613 0.206,-1.21 2.096,-12.301 -5.608,-7.858 6.092,5.026 0.243,-1.407 0.196,-1.164 2.653,-15.519 0.214,-1.272 3.45,-20.187 0.197,-1.156 1.703,-9.981 -5.788,-8.1 6.29,5.187 0.94,-5.519 0.207,-1.227 z"
             style="fill:#5f6a2b;fill-opacity:1;fill-rule:nonzero;stroke:none"
             id="path120"
             inkscape:connector-curvature="0" /></g><g
           id="g122"
           transform="translate(283.7334,283.3828)"><path
             d="m 0,0 -0.206,1.228 -0.941,5.519 -6.29,-5.188 5.788,8.1 -1.702,9.981 -0.197,1.156 -3.45,20.187 -0.215,1.272 -2.652,15.519 -0.197,1.164 -0.242,1.407 -6.093,-5.026 5.609,7.858 -2.097,12.302 -0.206,1.209 -4.202,24.613 -0.448,2.626 -0.448,-2.626 -0.044,-0.261 V 76.168 l 0.044,-0.062 0.448,-0.627 -0.448,0.367 -0.044,0.037 V -33.383 h -5.289 l 1.65,-4.034 h 8.262 L 0.501,-2.921 Z"
             style="fill:#505924;fill-opacity:1;fill-rule:nonzero;stroke:none"
             id="path124"
             inkscape:connector-curvature="0" /></g><g
           id="g126"
           transform="translate(266.6377,254.8901)"><path
             d="m 0,0 c 0.26,-0.278 0.072,-0.646 -0.197,-0.744 v -8.18 h -0.896 v 8.799 c -4.4,4.82 -8.799,9.64 -13.198,14.461 l -0.986,2.401 C -10.546,11.558 -5.815,6.379 -1.093,1.2 v 3.405 c -0.027,0.081 -0.027,0.162 0,0.251 v 19.569 c -5.134,5.035 -10.268,10.071 -15.403,15.106 l 0.18,1.084 c 5.071,-4.981 10.151,-9.954 15.223,-14.936 v 19.193 c -3.988,4.954 -7.974,9.9 -11.962,14.846 l 0.198,1.174 c 3.924,-4.866 7.839,-9.731 11.764,-14.596 v 23.35 c -2.796,3.646 -5.6,7.293 -8.396,10.94 l 0.197,1.191 c 2.742,-3.557 5.466,-7.114 8.199,-10.671 v 22.23 c -1.685,2.276 -3.378,4.542 -5.063,6.818 l 0.216,1.219 c 1.612,-2.186 3.234,-4.364 4.847,-6.541 v 34.962 l 0.448,2.625 0.448,-2.625 V 99.5 c 1.398,1.891 2.795,3.791 4.202,5.681 l 0.206,-1.21 -4.068,-5.51 c -0.089,-0.126 -0.215,-0.179 -0.34,-0.188 v -4.669 c 0.09,-0.143 0.072,-0.277 0,-0.394 V 78.57 c 2.41,2.956 4.82,5.905 7.231,8.861 L 7.23,86.267 C 4.758,83.229 2.276,80.191 -0.197,77.154 v -7.213 c 0.027,-0.026 0.045,-0.063 0.072,-0.089 0.152,-0.206 0.08,-0.394 -0.072,-0.52 V 55.847 c 3.36,4.973 6.72,9.937 10.08,14.901 l 0.215,-1.272 C 6.684,64.422 3.261,59.369 -0.152,54.324 -0.162,54.306 -0.179,54.297 -0.197,54.279 v -9.094 c 0.063,-0.081 0.125,-0.152 0.179,-0.233 0.224,-0.278 0.063,-0.627 -0.179,-0.744 V 32.767 c 4.578,5.501 9.157,11.011 13.744,16.522 l 0.198,-1.156 C 9.202,42.667 4.659,37.21 0.125,31.754 0.027,31.638 -0.09,31.593 -0.197,31.602 v -6.801 l 0.063,-0.063 C 0.099,24.514 0,24.228 -0.197,24.075 V 6.137 C 5.501,13.995 11.191,21.853 16.89,29.72 l 0.206,-1.227 C 11.334,20.536 5.564,12.58 -0.197,4.614 V 0.224 C -0.134,0.143 -0.063,0.071 0,0"
             style="fill:#434a1d;fill-opacity:1;fill-rule:nonzero;stroke:none"
             id="path128"
             inkscape:connector-curvature="0" /></g><g
           id="g130"
           transform="translate(446.2495,300.6226)"><path
             d="m 0,0 -14.112,-34.496 h -8.261 l -9.516,23.26 -0.985,2.401 -3.611,8.835 2.392,13.959 0.179,1.084 0.699,4.078 4.444,-3.665 -4.094,5.734 2.213,12.956 0.197,1.174 1.55,9.058 7.213,-5.958 -6.64,9.309 1.246,7.285 0.197,1.192 3.136,18.377 0.215,1.218 1.039,6.111 3.809,-3.145 0.447,-0.368 -0.447,0.628 -3.468,4.856 3.468,20.339 0.447,2.626 0.449,-2.626 4.202,-24.613 0.206,-1.21 2.096,-12.301 -5.608,-7.858 6.092,5.026 0.242,-1.407 0.197,-1.164 2.653,-15.519 0.214,-1.272 3.45,-20.187 0.197,-1.156 1.703,-9.981 -5.788,-8.1 6.29,5.187 0.94,-5.519 0.206,-1.227 z"
             style="fill:#708338;fill-opacity:1;fill-rule:nonzero;stroke:none"
             id="path132"
             inkscape:connector-curvature="0" /></g><g
           id="g134"
           transform="translate(445.7476,303.5435)"><path
             d="m 0,0 -0.206,1.228 -0.94,5.519 -6.291,-5.188 5.789,8.1 -1.703,9.981 -0.197,1.156 -3.45,20.187 -0.214,1.272 -2.653,15.519 -0.197,1.164 -0.242,1.407 -6.092,-5.026 5.608,7.858 -2.096,12.302 -0.206,1.209 -4.202,24.613 -0.449,2.626 -0.34,-1.994 V 75.955 l 0.34,-0.476 -0.34,0.279 V -37.417 h 4.471 L 0.502,-2.921 Z"
             style="fill:#5f6a2b;fill-opacity:1;fill-rule:nonzero;stroke:none"
             id="path136"
             inkscape:connector-curvature="0" /></g><g
           id="g138"
           transform="translate(428.6519,275.0508)"><path
             d="m 0,0 c 0.26,-0.278 0.072,-0.646 -0.197,-0.744 v -8.18 h -0.896 v 8.799 c -4.399,4.82 -8.799,9.64 -13.198,14.461 l -0.985,2.401 C -10.545,11.558 -5.815,6.379 -1.093,1.2 v 3.405 c -0.027,0.081 -0.027,0.162 0,0.251 v 19.569 c -5.134,5.035 -10.268,10.071 -15.402,15.106 l 0.179,1.084 c 5.071,-4.981 10.152,-9.954 15.223,-14.936 v 19.193 c -3.987,4.954 -7.974,9.9 -11.961,14.846 l 0.197,1.174 c 3.924,-4.866 7.839,-9.731 11.764,-14.596 v 23.35 c -2.795,3.646 -5.6,7.293 -8.395,10.94 l 0.196,1.191 c 2.743,-3.557 5.466,-7.114 8.199,-10.671 v 22.23 c -1.684,2.276 -3.378,4.542 -5.062,6.818 l 0.215,1.219 c 1.612,-2.186 3.234,-4.364 4.847,-6.541 v 34.962 l 0.448,2.625 0.448,-2.625 V 99.5 c 1.398,1.891 2.796,3.791 4.202,5.681 l 0.206,-1.21 -4.067,-5.51 c -0.09,-0.126 -0.215,-0.179 -0.341,-0.188 v -4.669 c 0.09,-0.143 0.072,-0.277 0,-0.394 V 78.57 c 2.41,2.956 4.821,5.905 7.231,8.861 L 7.231,86.267 C 4.758,83.229 2.276,80.191 -0.197,77.154 v -7.213 c 0.027,-0.026 0.045,-0.063 0.072,-0.089 0.152,-0.206 0.081,-0.394 -0.072,-0.52 V 55.847 c 3.36,4.973 6.72,9.937 10.08,14.901 l 0.215,-1.272 C 6.685,64.422 3.262,59.369 -0.152,54.324 -0.161,54.306 -0.179,54.297 -0.197,54.279 v -9.094 c 0.063,-0.081 0.126,-0.152 0.179,-0.233 0.225,-0.278 0.063,-0.627 -0.179,-0.744 V 32.767 c 4.579,5.501 9.157,11.011 13.745,16.522 l 0.197,-1.156 C 9.202,42.667 4.659,37.21 0.125,31.754 0.027,31.638 -0.089,31.593 -0.197,31.602 v -6.801 l 0.063,-0.063 C 0.099,24.514 0,24.228 -0.197,24.075 V 6.137 C 5.501,13.995 11.191,21.853 16.89,29.72 l 0.206,-1.227 C 11.334,20.536 5.564,12.58 -0.197,4.614 V 0.224 C -0.134,0.143 -0.062,0.071 0,0"
             style="fill:#434a1d;fill-opacity:1;fill-rule:nonzero;stroke:none"
             id="path140"
             inkscape:connector-curvature="0" /></g><g
           id="g142"
           transform="translate(198.8228,313.7676)"><path
             d="m 0,0 -12.805,-31.302 h -7.497 l -8.634,21.107 -0.895,2.178 -3.276,8.017 2.171,12.667 0.163,0.984 0.634,3.7 4.033,-3.326 -3.716,5.204 2.008,11.756 0.179,1.065 1.406,8.22 6.545,-5.407 -6.024,8.448 1.13,6.61 0.179,1.081 2.845,16.675 0.196,1.106 0.942,5.545 3.456,-2.854 0.407,-0.333 -0.407,0.569 -3.146,4.407 3.146,18.456 0.407,2.382 0.406,-2.382 3.813,-22.334 0.187,-1.098 1.903,-11.163 -5.09,-7.13 5.529,4.561 0.219,-1.277 0.179,-1.057 2.407,-14.081 0.195,-1.155 3.13,-18.318 0.179,-1.048 1.545,-9.058 -5.253,-7.35 5.708,4.708 0.854,-5.008 0.186,-1.114 z"
             style="fill:#708338;fill-opacity:1;fill-rule:nonzero;stroke:none"
             id="path144"
             inkscape:connector-curvature="0" /></g><g
           id="g146"
           transform="translate(198.3672,316.4185)"><path
             d="m 0,0 -0.187,1.114 -0.854,5.008 -5.707,-4.707 5.252,7.349 -1.545,9.058 -0.178,1.049 -3.131,18.317 -0.195,1.155 -2.406,14.081 -0.179,1.057 -0.22,1.277 -5.528,-4.561 5.089,7.13 -1.902,11.163 -0.187,1.098 -3.813,22.334 -0.407,2.382 -0.269,-1.578 V 68.867 l 0.269,-0.377 -0.269,0.221 V -32.418 h -4.107 l 0.628,-1.535 h 7.496 L 0.456,-2.651 Z"
             style="fill:#5f6a2b;fill-opacity:1;fill-rule:nonzero;stroke:none"
             id="path148"
             inkscape:connector-curvature="0" /></g><g
           id="g150"
           transform="translate(182.8545,290.5635)"><path
             d="m 0,0 c 0.236,-0.252 0.065,-0.585 -0.179,-0.675 v -7.423 h -0.813 v 7.984 C -4.984,4.26 -8.976,8.635 -12.968,13.009 l -0.894,2.179 c 4.293,-4.7 8.586,-9.399 12.87,-14.098 v 3.089 c -0.024,0.073 -0.024,0.147 0,0.228 v 17.757 l -13.976,13.708 0.163,0.983 c 4.601,-4.521 9.212,-9.033 13.813,-13.553 v 17.415 c -3.618,4.496 -7.236,8.984 -10.854,13.472 l 0.179,1.065 c 3.561,-4.415 7.114,-8.829 10.675,-13.244 v 21.188 c -2.536,3.309 -5.081,6.618 -7.618,9.927 l 0.179,1.081 c 2.488,-3.227 4.959,-6.456 7.439,-9.683 v 20.171 c -1.528,2.065 -3.065,4.122 -4.593,6.187 l 0.195,1.106 c 1.463,-1.984 2.935,-3.959 4.398,-5.935 v 31.725 l 0.407,2.382 0.406,-2.382 V 90.288 c 1.269,1.715 2.537,3.439 3.813,5.155 l 0.187,-1.098 -3.691,-5 C 0.049,89.231 -0.065,89.182 -0.179,89.174 v -4.236 c 0.082,-0.13 0.065,-0.252 0,-0.357 V 71.295 c 2.187,2.684 4.374,5.358 6.561,8.041 l 0.18,-1.057 C 4.317,75.523 2.065,72.767 -0.179,70.011 v -6.545 c 0.025,-0.025 0.041,-0.057 0.065,-0.081 0.138,-0.187 0.073,-0.358 -0.065,-0.472 V 50.677 c 3.049,4.512 6.098,9.016 9.147,13.521 L 9.163,63.043 C 6.065,58.458 2.959,53.872 -0.138,49.294 -0.146,49.278 -0.163,49.27 -0.179,49.254 v -8.253 c 0.057,-0.073 0.114,-0.138 0.163,-0.211 0.203,-0.252 0.057,-0.569 -0.163,-0.675 V 29.733 c 4.155,4.992 8.309,9.992 12.472,14.993 l 0.179,-1.049 C 8.35,38.717 4.228,33.766 0.114,28.814 0.024,28.708 -0.081,28.668 -0.179,28.676 v -6.171 l 0.057,-0.057 C 0.09,22.245 0,21.985 -0.179,21.847 V 5.569 c 5.171,7.131 10.334,14.261 15.505,21.4 l 0.187,-1.114 C 10.285,18.635 5.049,11.415 -0.179,4.187 V 0.204 C -0.122,0.13 -0.057,0.065 0,0"
             style="fill:#434a1d;fill-opacity:1;fill-rule:nonzero;stroke:none"
             id="path152"
             inkscape:connector-curvature="0" /></g><g
           id="g154"
           transform="translate(191.5986,459.2461)"><path
             d="M 0,0 C -1.595,1.203 -3.363,2.291 -5.342,2.566 -7.32,2.842 -9.895,2.16 -10.914,0.442 c -0.663,1.956 -2.384,3.517 -4.396,3.987 -2.011,0.47 -4.584,0.05 -6.045,-1.41 -1.489,2.597 -4.631,4.139 -7.596,3.727 -2.964,-0.413 -5.567,-2.753 -6.29,-5.657 0.175,2.799 -2.018,5.885 -4.594,6.992 -2.576,1.107 -5.819,0.415 -7.709,-1.657 -1.89,-2.071 -2.646,-5.196 -1.283,-7.646 -1.801,2.643 -5.444,4.422 -8.042,2.555 -4.478,-3.217 -10.149,-5.59 -15.663,-5.59 H 6.769 C 6.107,-4.07 5.463,-3.809 4.861,-3.489 3.097,-2.553 1.595,-1.202 0,0"
             style="fill:#ffffff;fill-opacity:1;fill-rule:nonzero;stroke:none"
             id="path156"
             inkscape:connector-curvature="0" /></g><g
           id="g158"
           transform="translate(38.2373,481.9639)"><path
             d="m 0,0 c -1.36,1.025 -2.867,1.953 -4.554,2.188 -1.686,0.234 -3.882,-0.347 -4.75,-1.811 -0.566,1.668 -2.033,2.998 -3.748,3.399 -1.715,0.4 -3.908,0.042 -5.155,-1.202 -1.269,2.214 -3.947,3.528 -6.475,3.176 -2.527,-0.351 -4.746,-2.346 -5.363,-4.822 0.149,2.386 -1.721,5.017 -3.916,5.961 -2.196,0.944 -4.962,0.354 -6.573,-1.412 -1.611,-1.766 -2.256,-4.431 -1.093,-6.519 -1.536,2.253 -4.641,3.77 -6.856,2.178 -3.818,-2.742 -8.653,-4.766 -13.354,-4.766 H 5.771 C 5.207,-3.47 4.657,-3.247 4.144,-2.975 2.64,-2.176 1.359,-1.025 0,0"
             style="fill:#ffffff;fill-opacity:1;fill-rule:nonzero;stroke:none"
             id="path160"
             inkscape:connector-curvature="0" /></g><g
           id="g162"
           transform="translate(57.9414,251)"><path
             d="m 0,0 c 8.804,9.03 11.388,23.614 6.112,35.085 -1.246,2.708 -3.049,5.385 -5.804,6.522 -2.756,1.138 -6.178,-0.25 -7.024,-3.108 -0.025,2.941 -0.076,5.926 -0.915,8.745 -0.839,2.819 -2.578,5.498 -5.205,6.82 -3.073,1.546 -6.963,0.944 -9.76,-1.058 -2.797,-2.001 -4.565,-5.219 -5.318,-8.575 -0.753,-3.356 0.185,-6.864 0.7,-10.264 -0.987,7.123 -6.905,13.12 -13.893,14.815 -6.988,1.696 -14.67,-0.679 -19.954,-5.557 -5.284,-4.877 -8.226,-12.017 -8.612,-19.197 C -70.108,16.124 -71.7,8.029 -70.607,0 Z"
             style="fill:#aebe44;fill-opacity:1;fill-rule:nonzero;stroke:none"
             id="path164"
             inkscape:connector-curvature="0" /></g><g
           id="g166"
           transform="translate(49.0674,247.1465)"><path
             d="m 0,0 c 6.397,6.562 8.275,17.159 4.441,25.495 -0.905,1.967 -2.215,3.912 -4.218,4.739 -2.002,0.827 -4.488,-0.181 -5.103,-2.258 -0.018,2.136 -0.056,4.305 -0.665,6.354 -0.61,2.048 -1.873,3.995 -3.783,4.956 -2.232,1.123 -5.059,0.686 -7.091,-0.769 -2.033,-1.454 -3.317,-3.793 -3.865,-6.231 -0.547,-2.439 0.135,-4.988 0.509,-7.459 -0.717,5.176 -5.017,9.534 -10.096,10.766 -5.077,1.232 -10.659,-0.494 -14.499,-4.038 -3.839,-3.544 -5.977,-8.732 -6.257,-13.95 C -50.943,11.716 -52.101,5.834 -51.307,0 Z"
             style="fill:#94a13a;fill-opacity:1;fill-rule:nonzero;stroke:none"
             id="path168"
             inkscape:connector-curvature="0" /></g><g
           id="g170"
           transform="translate(115.2729,251)"><path
             d="m 0,0 h 63.987 c 2.826,4.689 4.67,10.007 4.698,15.463 0.032,6.298 -2.57,12.747 -7.552,16.601 -4.982,3.854 -11.532,4.215 -16.819,0.79 -3.385,2.983 -7.992,4.538 -12.493,4.216 C 27.32,36.748 22.982,34.554 20.055,31.119 18.354,29.124 17.49,26.33 18.432,23.884 14.677,26.949 9.13,27.482 4.721,25.467 0.313,23.451 -2.856,19.086 -3.728,14.318 -4.6,9.55 -3.263,4.485 -0.417,0.562 -0.284,0.379 -0.143,0.19 0,0"
             style="fill:#94a13a;fill-opacity:1;fill-rule:nonzero;stroke:none"
             id="path172"
             inkscape:connector-curvature="0" /></g><g
           id="g174"
           transform="translate(174.8999,251)"><path
             d="m 0,0 h 96.657 c 2.004,2.904 3.385,6.263 3.653,9.772 0.302,3.965 -0.908,8.111 -3.639,11.001 -2.732,2.89 -6.824,4.568 -10.657,3.51 3.316,4.14 3.07,10.481 0.059,14.846 -3.011,4.366 -8.325,6.807 -13.62,7.121 -5.294,0.313 -10.274,-1.98 -14.984,-4.417 2.227,5.361 1.58,11.822 -1.666,16.635 -3.246,4.813 -8.994,7.833 -14.799,7.777 C 35.199,66.188 29.511,63.057 26.359,58.182 24.329,55.042 23.635,51.154 25.542,47.939 19.037,52.418 10.401,53.639 2.91,51.138 -4.582,48.637 -10.753,42.474 -13.263,34.986 -15.785,27.464 -14.615,18.944 -10.799,11.99 -8.187,7.23 -4.411,3.188 0,0"
             style="fill:#aebe44;fill-opacity:1;fill-rule:nonzero;stroke:none"
             id="path176"
             inkscape:connector-curvature="0" /></g><g
           id="g178"
           transform="translate(178.3882,246.0146)"><path
             d="m 0,0 h 79.227 c 1.643,2.38 2.774,5.133 2.994,8.01 0.248,3.25 -0.743,6.648 -2.982,9.017 -2.239,2.369 -5.593,3.744 -8.735,2.877 2.717,3.393 2.516,8.591 0.048,12.169 -2.469,3.579 -6.824,5.579 -11.164,5.837 -4.34,0.257 -8.421,-1.624 -12.283,-3.621 1.826,4.395 1.296,9.69 -1.365,13.635 -2.661,3.946 -7.372,6.421 -12.13,6.375 C 28.851,54.253 24.189,51.686 21.605,47.69 19.942,45.117 19.373,41.93 20.936,39.294 15.604,42.966 8.525,43.966 2.385,41.917 -3.756,39.867 -8.814,34.815 -10.872,28.677 -12.938,22.512 -11.98,15.528 -8.852,9.828 -6.711,5.926 -3.616,2.612 0,0"
             style="fill:#94a13a;fill-opacity:1;fill-rule:nonzero;stroke:none"
             id="path180"
             inkscape:connector-curvature="0" /></g><g
           id="g182"
           transform="translate(511.251,251)"><path
             d="m 0,0 v 66.763 c -0.214,4.678 -2.065,9.322 -5.375,12.634 -3.311,3.312 -8.102,5.186 -12.756,4.67 -4.654,-0.515 -9.03,-3.528 -10.888,-7.826 -0.474,-1.097 -0.855,-2.237 -0.947,-3.294 -1.317,1.523 -3.254,2.563 -5.273,2.772 -3.323,0.343 -6.662,-1.303 -8.845,-3.832 -2.183,-2.529 -3.306,-5.84 -3.687,-9.158 -0.5,-4.351 0.529,-8.173 2.462,-11.885 -3.233,4.15 -9.03,6.206 -14.445,6.842 -7.624,0.894 -15.58,-0.167 -22.368,-3.751 -6.788,-3.585 -12.295,-9.819 -14.288,-17.232 -1.694,-6.298 -1.27,-12.93 2.201,-18.134 -3.149,3.053 -7.719,4.658 -12.076,4.033 -5.476,-0.786 -10.297,-5.04 -11.756,-10.376 -1.133,-4.143 -0.183,-8.75 2.314,-12.226 z"
             style="fill:#aebe44;fill-opacity:1;fill-rule:nonzero;stroke:none"
             id="path184"
             inkscape:connector-curvature="0" /></g><g
           id="g186"
           transform="translate(514.751,228.5)"><path
             d="m 0,0 v 66.763 c -0.214,4.678 -2.065,9.322 -5.375,12.634 -3.311,3.312 -8.102,5.186 -12.756,4.67 -4.654,-0.515 -9.03,-3.528 -10.888,-7.826 -0.474,-1.097 -0.855,-2.237 -0.947,-3.294 -1.317,1.523 -3.254,2.563 -5.273,2.772 -3.323,0.343 -6.662,-1.303 -8.845,-3.832 -2.183,-2.529 -3.306,-5.84 -3.687,-9.158 -0.5,-4.351 0.529,-8.173 2.462,-11.885 -3.233,4.15 -9.03,6.206 -14.445,6.842 -7.624,0.894 -15.58,-0.167 -22.368,-3.751 -6.788,-3.585 -12.295,-9.819 -14.288,-17.232 -1.694,-6.298 -1.27,-12.93 2.201,-18.134 -3.149,3.053 -7.719,4.658 -12.076,4.033 -5.476,-0.786 -10.297,-5.04 -11.756,-10.376 -1.133,-4.143 -0.183,-8.749 2.314,-12.226 z"
             style="fill:#94a13a;fill-opacity:1;fill-rule:nonzero;stroke:none"
             id="path188"
             inkscape:connector-curvature="0" /></g><g
           id="g190"
           transform="translate(461.1294,474.1021)"><path
             d="m 0,0 c -1.801,1.357 -3.797,2.586 -6.031,2.897 -2.233,0.311 -5.14,-0.459 -6.291,-2.397 -0.749,2.208 -2.692,3.97 -4.963,4.5 -2.271,0.531 -5.176,0.056 -6.826,-1.591 -1.681,2.931 -5.228,4.672 -8.575,4.207 -3.347,-0.466 -6.285,-3.108 -7.103,-6.387 0.198,3.16 -2.278,6.644 -5.186,7.894 -2.908,1.251 -6.57,0.468 -8.704,-1.871 -2.134,-2.338 -2.987,-5.867 -1.447,-8.632 -2.035,2.984 -6.147,4.992 -9.08,2.885 -5.056,-3.632 -11.459,-6.312 -17.684,-6.312 H 7.642 C 6.896,-4.595 6.167,-4.3 5.488,-3.94 3.497,-2.882 1.8,-1.358 0,0"
             style="fill:#ffffff;fill-opacity:1;fill-rule:nonzero;stroke:none"
             id="path192"
             inkscape:connector-curvature="0" /></g><g
           id="g194"
           transform="translate(435.8389,289.7578)"><path
             d="m 0,0 c -1.384,-0.939 -2.806,-1.896 -4.431,-2.292 -1.625,-0.395 -3.522,-0.118 -4.646,1.121 -1.257,1.383 -1.197,3.599 -0.328,5.254 0.87,1.655 2.387,2.863 3.907,3.951 1.541,1.103 3.197,2.162 5.069,2.455 C 1.444,10.783 3.588,10.12 4.512,8.465 5.373,6.923 4.96,4.923 3.958,3.47 2.957,2.017 1.461,0.991 0,0"
             style="fill:#c6d65a;fill-opacity:1;fill-rule:nonzero;stroke:none"
             id="path196"
             inkscape:connector-curvature="0" /></g><g
           id="g198"
           transform="translate(255.2349,289.2622)"><path
             d="M 0,0 C 0.963,-1.925 0.432,-4.48 -1.218,-5.861 -2.869,-7.243 -5.477,-7.317 -7.203,-6.03 -9.53,-4.295 -9.642,-0.322 -7.416,1.542 -5.19,3.405 -1.299,2.596 0,0"
             style="fill:#c6d65a;fill-opacity:1;fill-rule:nonzero;stroke:none"
             id="path200"
             inkscape:connector-curvature="0" /></g><g
           id="g202"
           transform="translate(151.7549,283.0957)"><path
             d="m 0,0 c 1.271,-1.899 0.813,-4.631 -0.727,-6.318 -1.54,-1.688 -3.937,-2.411 -6.22,-2.324 -1.496,0.059 -3.07,0.488 -4.063,1.608 -1.105,1.247 -1.253,3.161 -0.618,4.701 0.634,1.539 1.945,2.726 3.416,3.508 C -5.534,2.601 -1.687,2.521 0,0"
             style="fill:#c6d65a;fill-opacity:1;fill-rule:nonzero;stroke:none"
             id="path204"
             inkscape:connector-curvature="0" /></g><g
           id="g206"
           transform="translate(16.2549,295.0908)"><path
             d="m 0,0 c 1.271,-1.899 0.813,-4.631 -0.727,-6.318 -1.54,-1.688 -3.937,-2.411 -6.22,-2.324 -1.496,0.059 -3.07,0.488 -4.063,1.609 -1.105,1.246 -1.253,3.16 -0.618,4.7 0.634,1.539 1.945,2.726 3.416,3.508 C -5.534,2.601 -1.687,2.521 0,0"
             style="fill:#c6d65a;fill-opacity:1;fill-rule:nonzero;stroke:none"
             id="path208"
             inkscape:connector-curvature="0" /></g><path
           d="M 503.5,107.921 H -8 V 259.5 h 511.5 z"
           style="fill:#84b3e3;fill-opacity:1;fill-rule:nonzero;stroke:none"
           id="path210"
           inkscape:connector-curvature="0" /><g
           id="g212"
           transform="translate(503.5,51.0908)"><path
             d="m 0,0 h -511.5 v 151.579 c 148.333,41.663 310.459,-7.003 511.5,0 z"
             style="fill:#77aadd;fill-opacity:1;fill-rule:nonzero;stroke:none"
             id="path214"
             inkscape:connector-curvature="0" /></g><g
           id="g216"
           transform="translate(535.1099,117.3799)"><path
             d="M 0,0 V -135.71 H -549.63 V 42.32 c 7.51,8.05 19.86,9.61 30.73,7.79 10.86,-1.81 21.06,-6.42 31.8,-8.83 34.08,-7.65 70.25,7.23 104.29,-0.59 12.72,-2.919 24.88,-8.98 37.93,-9.19 10.09,-0.16 20.16,3.21 30.16,1.83 13.47,-1.85 24.68,-12.019 38.14,-13.9 18.35,-2.56 36.62,10.78 54.66,6.55 4.51,-1.05 8.66,-3.15 12.83,-5.22 3.31,-1.64 6.63,-3.26 10.16,-4.32 23.97,-7.2 49.49,12.89 73.8,6.89 10.34,-2.559 19.04,-9.59 29.16,-12.88 C -79.86,5.21 -62.42,9.94 -45.48,10.3 -29.79,10.63 -14.02,7.061 0,0"
             style="fill:#aebe44;fill-opacity:1;fill-rule:nonzero;stroke:none"
             id="path218"
             inkscape:connector-curvature="0" /></g><g
           id="g220"
           transform="translate(-34.4668,115.0527)"><path
             d="m 0,0 c 7.511,8.054 19.861,9.61 30.722,7.794 10.861,-1.816 21.064,-6.42 31.808,-8.833 34.077,-7.654 70.243,7.226 104.283,-0.594 12.719,-2.921 24.881,-8.974 37.93,-9.187 10.097,-0.164 20.16,3.213 30.165,1.833 13.465,-1.857 24.678,-12.025 38.14,-13.904 18.349,-2.56 36.622,10.777 54.661,6.555 8.094,-1.893 15.026,-7.149 22.986,-9.543 23.971,-7.206 49.497,12.885 73.798,6.884 10.34,-2.553 19.04,-9.582 29.168,-12.876 16.11,-5.24 33.545,-0.505 50.483,-0.15 15.697,0.329 31.461,-3.239 45.487,-10.295 V -178.034 H 0 Z"
             style="fill:#9fad3e;fill-opacity:1;fill-rule:nonzero;stroke:none"
             id="path222"
             inkscape:connector-curvature="0" /></g><g
           id="g224"
           transform="translate(535.1099,117.3799)"><path
             d="m 0,0 v -135.71 h -435.48 c -1.74,6 -2.63,12.12 -2.63,18.33 0,61.943 88.733,114.831 213.733,135.766 8.473,1.42 17.12,0.584 25.341,-1.914 0.036,-0.011 0.071,-0.021 0.106,-0.032 23.97,-7.2 49.49,12.89 73.8,6.89 10.34,-2.559 19.04,-9.59 29.16,-12.88 C -79.86,5.21 -62.42,9.94 -45.48,10.3 -29.79,10.63 -14.02,7.061 0,0"
             style="fill:#94a13a;fill-opacity:1;fill-rule:nonzero;stroke:none"
             id="path226"
             inkscape:connector-curvature="0" /></g><g
           id="g228"
           transform="translate(214.125,78.8818)"><path
             d="m 0,0 c 0,-9.565 -34.509,-17.32 -77.079,-17.32 -42.57,0 -77.08,7.755 -77.08,17.32 0,9.566 34.51,17.321 77.08,17.321 C -34.509,17.321 0,9.566 0,0"
             style="fill:#869134;fill-opacity:1;fill-rule:nonzero;stroke:none"
             id="path230"
             inkscape:connector-curvature="0" /></g><g
           id="g232"
           transform="translate(300.6982,77.9707)"><path
             d="m 0,0 c 0,-6.157 -22.211,-11.148 -49.611,-11.148 -27.399,0 -49.61,4.991 -49.61,11.148 0,6.156 22.211,11.147 49.61,11.147 C -22.211,11.147 0,6.156 0,0"
             style="fill:#869134;fill-opacity:1;fill-rule:nonzero;stroke:none"
             id="path234"
             inkscape:connector-curvature="0" /></g><g
           id="g236"
           transform="translate(175.6167,89.6387)"><path
             d="m 0,0 c -11.37,-10.25 -32.9,-5.5 -32.9,-5.5 l -3.37,26.471 -3.63,28.529 1.53,7 32.64,7.551 L -9.6,29.521 -12.62,2.5 Z"
             style="fill:#21507d;fill-opacity:1;fill-rule:nonzero;stroke:none"
             id="path238"
             inkscape:connector-curvature="0" /></g><g
           id="g240"
           transform="translate(175.6167,89.6387)"><path
             d="M 0,0 C -11.37,-10.25 -32.9,-5.5 -32.9,-5.5 L -36.27,20.971 -9.6,29.521 -12.62,2.5 Z"
             style="fill:#10273d;fill-opacity:1;fill-rule:nonzero;stroke:none"
             id="path242"
             inkscape:connector-curvature="0" /></g><g
           id="g244"
           transform="translate(168.1602,74.8398)"><path
             d="m 0,0 -1.76,-2.34 -12.3,6.151 C -17.18,2.49 -20.49,1.43 -23.91,0.601 -25.89,0.12 -27.92,-0.29 -29.96,-0.63 l 1.8,-6.96 h -2.95 l -5.39,6.111 C -42.71,-2.1 -48.99,-2.18 -54.92,-1.95 l -2.9,-7.14 h -2.84 v 7.46 c -1.36,0.1 -2.69,0.21 -3.99,0.33 -13.65,1.28 -23.67,3.71 -23.67,3.71 l -9.22,-5.75 h -7.62 l 9.6,9.25 2.65,17.75 -8.3,9.5 3.3,5.981 5.5,-3.481 2.5,19.52 h 72.22 l 1.31,-6.2 h 0.01 L -7.71,8.16 Z"
             style="fill:#e29363;fill-opacity:1;fill-rule:nonzero;stroke:none"
             id="path246"
             inkscape:connector-curvature="0" /></g><g
           id="g248"
           transform="translate(83.6699,118.4199)"><path
             d="M 0,0 -2.17,-10.27 5.16,-20.53 -7.92,-7.92 -5.42,11.6 H 66.8 L 68.11,5.4 C 68.11,5.4 34.33,-10.75 0,0"
             style="fill:#b45946;fill-opacity:1;fill-rule:nonzero;stroke:none"
             id="path250"
             inkscape:connector-curvature="0" /></g><g
           id="g252"
           transform="translate(144.25,75.4404)"><path
             d="m 0,0 c -1.98,-0.48 -4.01,-0.891 -6.05,-1.23 l -3.98,25.79 z"
             style="fill:#b45946;fill-opacity:1;fill-rule:nonzero;stroke:none"
             id="path254"
             inkscape:connector-curvature="0" /></g><g
           id="g256"
           transform="translate(107.5,73.21)"><path
             d="m 0,0 c -1.36,0.1 -2.69,0.21 -3.99,0.33 l 1.38,24.35 z"
             style="fill:#b45946;fill-opacity:1;fill-rule:nonzero;stroke:none"
             id="path258"
             inkscape:connector-curvature="0" /></g><g
           id="g260"
           transform="translate(86.25,89.6504)"><path
             d="m 0,0 -9.5,4.43 -1,-13.58 -8.82,-9 h -3.93 l 9.6,9.25 2.65,17.75 z"
             style="fill:#b45946;fill-opacity:1;fill-rule:nonzero;stroke:none"
             id="path262"
             inkscape:connector-curvature="0" /></g><g
           id="g264"
           transform="translate(69.708,110.3408)"><path
             d="m 0,0 c -1.004,-1.687 -2.358,-2.732 -3.024,-2.337 -0.666,0.397 -0.392,2.086 0.612,3.773 1.005,1.686 2.358,2.732 3.024,2.335 C 1.278,3.375 1.004,1.687 0,0"
             style="fill:#b45946;fill-opacity:1;fill-rule:nonzero;stroke:none"
             id="path266"
             inkscape:connector-curvature="0" /></g><g
           id="g268"
           transform="translate(202.8901,117.5703)"><path
             d="m 0,0 c -0.83,-1.971 -1.71,-4 -2.64,-6.07 -1.39,-2.97 -2.64,-5.611 -3.76,-8 h -30.08 c 0.01,0.96 0.02,1.92 0.04,2.88 0.14,7.669 0.59,15.27 1.12,23.639 0.19,2.891 0.39,5.881 0.59,8.981 0,0 -3.12,-5.071 -11.22,-10.08 -11.2,-6.94 -31.93,-13.79 -67.14,-7.05 -17.89,3.429 -31.37,14.139 -36.49,30.49 -0.17,0.54 -0.33,1.08 -0.48,1.64 l 6.54,1.67 96.3,24.5 6.47,12.58 c 0,0 24.11,13.09 38.61,4.42 C 11.83,71.25 21.84,51.689 0,0"
             style="fill:#275e92;fill-opacity:1;fill-rule:nonzero;stroke:none"
             id="path270"
             inkscape:connector-curvature="0" /></g><g
           id="g272"
           transform="translate(156.9399,128.9199)"><path
             d="m 0,0 c -11.2,-6.939 -31.93,-13.79 -67.14,-7.05 -17.89,3.43 -31.37,14.14 -36.49,30.49 -0.17,0.54 -0.33,1.081 -0.48,1.64 l 6.54,1.67 c 2.13,-1.8 3.68,-4.229 5.38,-6.46 C -81.48,6.25 -63.81,-1.11 -46.27,-3.03 -30.85,-4.71 -15.33,-2.66 0,0"
             style="fill:#21507d;fill-opacity:1;fill-rule:nonzero;stroke:none"
             id="path274"
             inkscape:connector-curvature="0" /></g><g
           id="g276"
           transform="translate(160.4448,208.1699)"><path
             d="m 0,0 -0.945,0.83 -0.881,7.48 6.947,8.53 6.434,-6.51 -1,-4.5 z"
             style="fill:#fa8359;fill-opacity:1;fill-rule:nonzero;stroke:none"
             id="path278"
             inkscape:connector-curvature="0" /></g><g
           id="g280"
           transform="translate(155.6665,219.333)"><path
             d="m 0,0 10.895,6.248 c 0.927,0.532 2.102,0.322 2.788,-0.496 l 2.65,-3.164 -3.166,-3.421 c 0,0 -2.769,1.469 -3,4 0,0 -0.513,-1.025 -0.314,-2.342 0.273,-1.822 0.046,-3.718 -1.02,-5.221 -1.166,-1.645 -3,-3.02 -5.666,-1.937 z"
             style="fill:#ffc3a1;fill-opacity:1;fill-rule:nonzero;stroke:none"
             id="path282"
             inkscape:connector-curvature="0" /></g><g
           id="g284"
           transform="translate(167.0264,219.9609)"><path
             d="M 0,0 C 0,0 1.412,3.05 3.568,3.638 L 4.974,1.96 1.807,-1.461 C 1.111,-1.102 0.522,-0.595 0,0"
             style="fill:#fa8359;fill-opacity:1;fill-rule:nonzero;stroke:none"
             id="path286"
             inkscape:connector-curvature="0" /></g><g
           id="g288"
           transform="translate(123.6699,317.6699)"><path
             d="m 0,0 -21.67,-19.47 -4.67,-4.2 c 0,0 -13.83,13.33 -1.83,24.67 5.07,4.54 10.08,5.74 14.44,5.39 C -5.78,5.77 0,0 0,0"
             style="fill:#e73d3d;fill-opacity:1;fill-rule:nonzero;stroke:none"
             id="path290"
             inkscape:connector-curvature="0" /></g><g
           id="g292"
           transform="translate(123.6699,317.6699)"><path
             d="m 0,0 -21.67,-19.47 c -3.32,4.63 -7.56,13.54 0.83,21.47 2.4,2.16 4.8,3.56 7.11,4.39 C -5.78,5.77 0,0 0,0"
             style="fill:#f85757;fill-opacity:1;fill-rule:nonzero;stroke:none"
             id="path294"
             inkscape:connector-curvature="0" /></g><g
           id="g296"
           transform="translate(123.6665,315.1665)"><path
             d="m 0,0 c 0,0 2.667,-1.167 3.667,-4.167 1,-3 3.666,-15.166 3.666,-15.166 l -3.666,-1 c 0,0 1.833,-8.167 0,-9 -1.834,-0.834 -15.5,-1.167 -15.5,-1.167 l -9.667,6.333 2,5.667 z"
             style="fill:#ffc3a1;fill-opacity:1;fill-rule:nonzero;stroke:none"
             id="path298"
             inkscape:connector-curvature="0" /></g><g
           id="g300"
           transform="translate(116.9121,307.9961)"><path
             d="m 0,0 c 0.179,-4.077 -1.629,-8.195 -4.751,-10.823 -0.801,0.947 -2.238,1.005 -3.349,0.455 -1.111,-0.55 -1.716,-1.989 -1.262,-3.143 0.453,-1.154 1.949,-1.791 3.068,-1.255 -1.894,-0.693 -3.849,-1.92 -5.743,-2.613 -0.947,-0.347 -2.119,-0.657 -2.873,0.014 -0.49,0.436 -0.615,1.177 -0.472,1.818 0.142,0.641 0.508,1.207 0.878,1.75 C -10.783,-8.33 -5.457,-3.735 0,0"
             style="fill:#6b222d;fill-opacity:1;fill-rule:nonzero;stroke:none"
             id="path302"
             inkscape:connector-curvature="0" /></g><g
           id="g304"
           transform="translate(97.3335,294)"><path
             d="M 0,0 27.333,27 30.667,23.333 4.833,-3 Z"
             style="fill:#ffb948;fill-opacity:1;fill-rule:nonzero;stroke:none"
             id="path306"
             inkscape:connector-curvature="0" /></g><g
           id="g308"
           transform="translate(95.4004,321.6992)"><path
             d="m 0,0 c 0.599,-0.552 0.782,-1.458 0.61,-2.254 -0.171,-0.796 -0.65,-1.495 -1.204,-2.092 -0.498,-0.537 -1.084,-1.021 -1.781,-1.242 -0.698,-0.222 -1.524,-0.141 -2.071,0.347 -0.934,0.832 -0.678,2.369 -0.09,3.473 0.441,0.83 1.054,1.607 1.897,2.021 C -1.795,0.666 -0.69,0.637 0,0"
             style="fill:#e73d3d;fill-opacity:1;fill-rule:nonzero;stroke:none"
             id="path310"
             inkscape:connector-curvature="0" /></g><g
           id="g312"
           transform="translate(411.5278,160.8818)"><path
             d="m 0,0 c -0.276,0 -0.5,0.224 -0.5,0.5 v 254.403 c -23.963,-48.915 -54.951,-74.275 -76.859,-86.965 -22.095,-12.796 -39.617,-15.608 -42.498,-15.999 -2.67,-32.651 -27.733,-56.153 -48.337,-70.138 -22.373,-15.187 -44.453,-22.73 -44.674,-22.804 -0.265,-0.085 -0.546,0.053 -0.633,0.314 -0.089,0.261 0.052,0.545 0.313,0.633 0.22,0.075 22.189,7.581 44.452,22.697 20.499,13.918 45.452,37.322 47.914,69.78 0.018,0.242 0.206,0.435 0.446,0.46 0.184,0.019 18.662,2.095 42.566,15.952 22.062,12.79 53.393,38.519 77.359,88.464 0.101,0.21 0.334,0.326 0.562,0.271 0.227,-0.052 0.389,-0.254 0.389,-0.487 L 0.5,0.5 C 0.5,0.224 0.276,0 0,0"
             style="fill:#ffffff;fill-opacity:1;fill-rule:nonzero;stroke:none"
             id="path314"
             inkscape:connector-curvature="0" /></g><g
           id="g316"
           transform="translate(206.6528,244.3379)"><path
             d="m 0,0 205.375,175.511 0.542,-1.042 L 2.05,-2.858 Z"
             style="fill:#6b222d;fill-opacity:1;fill-rule:nonzero;stroke:none"
             id="path318"
             inkscape:connector-curvature="0" /></g><g
           id="g320"
           transform="translate(177.5684,215.0566)"><path
             d="m 0,0 c -1.084,0 -2.159,0.47 -2.897,1.376 -1.302,1.6 -1.06,3.95 0.539,5.253 l 32.359,26.105 c 1.598,1.302 3.95,1.061 5.251,-0.539 1.302,-1.598 1.061,-3.95 -0.538,-5.252 L 2.355,0.838 C 1.663,0.274 0.829,0 0,0"
             style="fill:#40141b;fill-opacity:1;fill-rule:nonzero;stroke:none"
             id="path322"
             inkscape:connector-curvature="0" /></g><g
           id="g324"
           transform="translate(81.5,286.8335)"><path
             d="m 0,0 c 0,0 25,-4.833 41.5,-15.167 l 2.333,1.834 c 0,0 -9.333,16.666 -36,22.5 z"
             style="fill:#6b222d;fill-opacity:1;fill-rule:nonzero;stroke:none"
             id="path326"
             inkscape:connector-curvature="0" /></g><g
           id="g328"
           transform="translate(161.0498,168.25)"><path
             d="m 0,0 -0.01,-0.01 c -5.12,-14.14 -28,-29.41 -64.97,-29.24 -68.18,4.75 -48.92,34.87 -48.92,34.87 l 5.04,-0.41 5.56,-0.46 c 65.75,-9.75 88.75,20.5 99.25,12 C 1.03,12.36 2.27,6.29 0,0"
             style="fill:#5e1e28;fill-opacity:1;fill-rule:nonzero;stroke:none"
             id="path330"
             inkscape:connector-curvature="0" /></g><g
           id="g332"
           transform="translate(161.0498,168.25)"><path
             d="m 0,0 -0.01,-0.01 c -10.4,-10.11 -30.09,-18.51 -57.56,-18.38 -40.36,2.82 -50.08,14.51 -51.29,23.6 l 5.56,-0.46 c 65.75,-9.75 88.75,20.5 99.25,12 C 1.03,12.36 2.27,6.29 0,0"
             style="fill:#6b222d;fill-opacity:1;fill-rule:nonzero;stroke:none"
             id="path334"
             inkscape:connector-curvature="0" /></g><g
           id="g336"
           transform="translate(140.54,179.707)"><path
             d="m 0,0 c -0.687,1.086 -2.418,0.084 -1.727,-1.01 4.232,-6.692 6.464,-14.029 6.644,-21.947 0.028,-1.288 2.029,-1.291 2,0 C 6.729,-14.709 4.411,-6.975 0,0"
             style="fill:#40141b;fill-opacity:1;fill-rule:nonzero;stroke:none"
             id="path338"
             inkscape:connector-curvature="0" /></g><g
           id="g340"
           transform="translate(152.3623,182.2539)"><path
             d="m 0,0 c -0.697,1.079 -2.429,0.077 -1.727,-1.01 3.094,-4.784 4.723,-10.045 4.835,-15.744 0.025,-1.288 2.025,-1.29 2,0 C 4.989,-10.725 3.276,-5.065 0,0"
             style="fill:#40141b;fill-opacity:1;fill-rule:nonzero;stroke:none"
             id="path342"
             inkscape:connector-curvature="0" /></g><g
           id="g344"
           transform="translate(126.8345,174.7383)"><path
             d="m 0,0 c -0.625,1.128 -2.353,0.119 -1.727,-1.01 4.137,-7.46 6.075,-15.451 5.845,-23.976 -0.035,-1.29 1.965,-1.287 2,0 C 6.357,-16.131 4.295,-7.747 0,0"
             style="fill:#40141b;fill-opacity:1;fill-rule:nonzero;stroke:none"
             id="path346"
             inkscape:connector-curvature="0" /></g><g
           id="g348"
           transform="translate(117.6074,147.251)"><path
             d="m 0,0 c -3.532,6.746 -5.272,13.888 -5.266,21.502 0.002,1.29 -1.998,1.29 -2,0 C -7.273,13.559 -5.411,6.027 -1.727,-1.009 -1.128,-2.152 0.598,-1.141 0,0"
             style="fill:#40141b;fill-opacity:1;fill-rule:nonzero;stroke:none"
             id="path350"
             inkscape:connector-curvature="0" /></g><g
           id="g352"
           transform="translate(101.0181,145.4521)"><path
             d="m 0,0 c -3.489,6.604 -5.365,13.582 -5.66,21.045 -0.051,1.285 -2.051,1.29 -2,0 C -7.352,13.253 -5.37,5.886 -1.727,-1.009 -1.124,-2.149 0.602,-1.139 0,0"
             style="fill:#40141b;fill-opacity:1;fill-rule:nonzero;stroke:none"
             id="path354"
             inkscape:connector-curvature="0" /></g><g
           id="g356"
           transform="translate(84.2549,145.5703)"><path
             d="m 0,0 c -3.041,7.075 -3.192,14.55 -0.604,21.786 0.436,1.218 -1.498,1.736 -1.929,0.531 C -5.313,14.543 -4.981,6.562 -1.727,-1.01 -1.219,-2.191 0.504,-1.172 0,0"
             style="fill:#40141b;fill-opacity:1;fill-rule:nonzero;stroke:none"
             id="path358"
             inkscape:connector-curvature="0" /></g><g
           id="g360"
           transform="translate(69.0898,148.7139)"><path
             d="m 0,0 c -2.501,6.409 -3.039,13.024 -1.518,19.743 0.285,1.256 -1.644,1.79 -1.928,0.532 C -5.043,13.226 -4.56,6.209 -1.928,-0.531 -1.465,-1.719 0.47,-1.203 0,0"
             style="fill:#40141b;fill-opacity:1;fill-rule:nonzero;stroke:none"
             id="path362"
             inkscape:connector-curvature="0" /></g><g
           id="g364"
           transform="translate(56.6748,153.251)"><path
             d="m 0,0 c -1.833,5.287 -2.335,10.7 -1.41,16.224 0.212,1.261 -1.715,1.801 -1.928,0.531 C -4.325,10.864 -3.887,5.117 -1.929,-0.531 -1.509,-1.742 0.424,-1.222 0,0"
             style="fill:#40141b;fill-opacity:1;fill-rule:nonzero;stroke:none"
             id="path366"
             inkscape:connector-curvature="0" /></g><g
           id="g368"
           transform="translate(144.25,177.25)"><path
             d="m 0,0 c 0,0 -1.3,-1.03 -3.81,-2.57 -2.2,-1.34 -5.32,-3.08 -9.3,-4.85 -14.78,-6.59 -41.38,-13.73 -76.31,-3.45 -4.13,1.22 -7.2,4.7 -7.94,8.94 -3.77,21.51 -11.2,87.84 34.61,111.51 0,0 16.92,0.92 43.83,-13.33 l 11.67,-6 5.93,-73.85 z"
             style="fill:#f85757;fill-opacity:1;fill-rule:nonzero;stroke:none"
             id="path370"
             inkscape:connector-curvature="0" /></g><g
           id="g372"
           transform="translate(144.25,177.25)"><path
             d="M 0,0 C 0,0 -1.3,-1.03 -3.81,-2.57 -7.68,1.71 -19.31,14.79 -27.67,26.5 -37.83,40.75 -38.2,61 -38.2,61 L -1.32,16.4 Z"
             style="fill:#e73d3d;fill-opacity:1;fill-rule:nonzero;stroke:none"
             id="path374"
             inkscape:connector-curvature="0" /></g><g
           id="g376"
           transform="translate(167.7017,208.1699)"><path
             d="m 0,0 -0.868,5.83 c 0,0 -0.597,3.5 0.868,5.5 1.465,2 4.298,4.528 4.298,4.528 l 3.904,-2.107 8.763,-1.921 c 0,0 1.667,-5 -2.167,-15.167 l -8.5,-6 z"
             style="fill:#ffc3a1;fill-opacity:1;fill-rule:nonzero;stroke:none"
             id="path378"
             inkscape:connector-curvature="0" /></g><g
           id="g380"
           transform="translate(159.5,209)"><path
             d="m 0,0 7.333,5 c 0,0 10,-8.333 9,-19.167 L 6.167,-21.333 Z"
             style="fill:#6b222d;fill-opacity:1;fill-rule:nonzero;stroke:none"
             id="path382"
             inkscape:connector-curvature="0" /></g><g
           id="g384"
           transform="translate(167.8301,187.6699)"><path
             d="m 0,0 c 0,0 -12.33,-15.17 -23.58,-10.42 -11.25,4.75 -31.58,39.25 -31.58,39.25 0,0 -15.17,26.83 0,43.33 7.33,8.34 24.33,7.67 24.33,7.67 L -5.69,20.5 c 0,0 1.04,-1.4 2.25,-3.67 C -1.35,12.92 1.27,6.43 0,0"
             style="fill:#ffb948;fill-opacity:1;fill-rule:nonzero;stroke:none"
             id="path386"
             inkscape:connector-curvature="0" /></g><g
           id="g388"
           transform="translate(164.3901,204.5)"><path
             d="m 0,0 -7.89,-7.33 5.64,11 c 0,0 1.04,-1.4 2.25,-3.67"
             style="fill:#ff8b48;fill-opacity:1;fill-rule:nonzero;stroke:none"
             id="path390"
             inkscape:connector-curvature="0" /></g><g
           id="g392"
           transform="translate(200.25,111.5)"><path
             d="M 0,0 -13.5,-28.75 -2.82,-30 c 0,0 -10.53,-10 -29.73,-5.5 -1.15,11.27 -1.43,20.87 -1.25,30.38 L 2.64,6.07 C 1.81,4.1 0.93,2.07 0,0"
             style="fill:#15334f;fill-opacity:1;fill-rule:nonzero;stroke:none"
             id="path394"
             inkscape:connector-curvature="0" /></g><g
           id="g396"
           transform="translate(167.5698,130.0195)"><path
             d="m 0,0 c 0.19,2.891 0.39,5.881 0.59,8.98 0,0 5.34,12.64 5.34,29.571 C 5.93,38.551 10.35,22.83 0,0"
             style="fill:#114068;fill-opacity:1;fill-rule:nonzero;stroke:none"
             id="path398"
             inkscape:connector-curvature="0" /></g><g
           id="g400"
           transform="translate(429.6294,171.585)"><path
             d="m 0,0 c -0.495,0.403 -1.207,-0.3 -0.707,-0.708 4.339,-3.54 1.954,-9.211 -1.503,-12.324 -3.679,-3.313 -8.866,-5.225 -13.571,-6.459 -4.799,-1.26 -9.821,-1.487 -14.739,-0.96 -4.343,0.466 -11.658,1.786 -12.323,7.149 -0.078,0.631 -1.079,0.639 -1,0 0.606,-4.892 5.694,-6.701 9.904,-7.604 6.071,-1.304 12.415,-0.998 18.424,0.45 5.602,1.351 11.693,3.972 15.616,8.315 C 3.152,-8.763 3.774,-3.08 0,0"
             style="fill:#93c0ed;fill-opacity:1;fill-rule:nonzero;stroke:none"
             id="path402"
             inkscape:connector-curvature="0" /></g><g
           id="g404"
           transform="translate(408.0059,178.4346)"><path
             d="m 0,0 c -7.083,-0.728 -13.687,-3.312 -19.348,-7.639 -0.505,-0.385 -0.007,-1.256 0.505,-0.863 5.51,4.211 11.94,6.793 18.843,7.502 0.635,0.064 0.642,1.065 0,1"
             style="fill:#93c0ed;fill-opacity:1;fill-rule:nonzero;stroke:none"
             id="path406"
             inkscape:connector-curvature="0" /></g><g
           id="g408"
           transform="translate(428.5781,176.0732)"><path
             d="m 0,0 c -2.622,2.111 -5.709,3.226 -9.079,3.23 -0.645,10e-4 -0.645,-0.999 0,-1 C -5.99,2.226 -3.116,1.233 -0.707,-0.707 -0.21,-1.107 0.502,-0.404 0,0"
             style="fill:#93c0ed;fill-opacity:1;fill-rule:nonzero;stroke:none"
             id="path410"
             inkscape:connector-curvature="0" /></g><g
           id="g412"
           transform="translate(402.7275,156.6768)"><path
             d="m 0,0 c -5.242,-1.403 -9.802,2.82 -8.871,8.143 0.702,4.007 5.221,6.01 8.51,7.493 0.587,0.264 0.078,1.126 -0.505,0.863 C -5.618,14.358 -10.581,11.393 -9.944,5.447 -9.414,0.493 -4.25,-2.174 0.266,-0.965 0.888,-0.798 0.624,0.167 0,0"
             style="fill:#93c0ed;fill-opacity:1;fill-rule:nonzero;stroke:none"
             id="path414"
             inkscape:connector-curvature="0" /></g><g
           id="g416"
           transform="translate(419.0049,174.835)"><path
             d="m 0,0 c -0.64,0.072 -0.633,-0.929 0,-1 3.639,-0.41 6.3,-3.393 6.377,-7.036 0.076,-3.639 -3.531,-6.402 -6.877,-6.549 -0.642,-0.028 -0.645,-1.028 0,-1 4.222,0.186 7.501,3.354 7.877,7.549 C 7.752,-3.849 3.837,-0.433 0,0"
             style="fill:#93c0ed;fill-opacity:1;fill-rule:nonzero;stroke:none"
             id="path418"
             inkscape:connector-curvature="0" /></g><g
           id="g420"
           transform="translate(208.6665,221.8311)"><path
             d="m 0,0 c 0,-5.892 -4.775,-10.667 -10.667,-10.667 -5.891,0 -10.666,4.775 -10.666,10.667 0,5.891 4.775,10.666 10.666,10.666 C -4.775,10.666 0,5.891 0,0"
             style="fill:#e73d3d;fill-opacity:1;fill-rule:nonzero;stroke:none"
             id="path422"
             inkscape:connector-curvature="0" /></g><g
           id="g424"
           transform="translate(205.5,224.0283)"><path
             d="m 0,0 c 0,-4.143 -3.358,-7.5 -7.5,-7.5 -4.142,0 -7.5,3.357 -7.5,7.5 0,4.142 3.358,7.5 7.5,7.5 C -3.358,7.5 0,4.142 0,0"
             style="fill:#f85757;fill-opacity:1;fill-rule:nonzero;stroke:none"
             id="path426"
             inkscape:connector-curvature="0" /></g><g
           id="g428"
           transform="translate(202.0776,198.3105)"><path
             d="m 0,0 c -0.569,0 -1.134,0.241 -1.53,0.711 l -4.076,4.834 c -0.683,0.809 -0.617,2.008 0.149,2.737 l 6.734,6.413 -6.831,7.475 c -0.745,0.815 -0.688,2.081 0.127,2.826 0.815,0.745 2.08,0.69 2.826,-0.127 L 5.552,15.947 C 6.286,15.144 6.243,13.9 5.455,13.149 L -1.335,6.684 1.528,3.289 C 2.24,2.445 2.133,1.184 1.289,0.471 0.913,0.154 0.456,0 0,0"
             style="fill:#6b222d;fill-opacity:1;fill-rule:nonzero;stroke:none"
             id="path430"
             inkscape:connector-curvature="0" /></g><g
           id="g432"
           transform="translate(126.5913,312.5459)"><path
             d="m 0,0 -10.008,-6.85 8.435,8.598 C -1.057,1.336 -0.53,0.71 0,0"
             style="fill:#fa8359;fill-opacity:1;fill-rule:nonzero;stroke:none"
             id="path434"
             inkscape:connector-curvature="0" /></g><g
           id="g436"
           transform="translate(109.7446,296.332)"><path
             d="M 0,0 C 0.396,-0.13 0.708,-0.485 0.785,-0.894 0.863,-1.303 0.703,-1.748 0.383,-2.014 -0.035,-1.889 -0.471,-1.755 -0.786,-1.453 -1.102,-1.151 -1.251,-0.627 -1,-0.27 -0.787,0.033 -0.351,0.116 0,0"
             style="fill:#fa8359;fill-opacity:1;fill-rule:nonzero;stroke:none"
             id="path438"
             inkscape:connector-curvature="0" /></g><g
           id="g440"
           transform="translate(105.9277,291.0479)"><path
             d="m 0,0 c 0,0 5.06,-1.291 8.691,-6.294 0,0 -5.786,4.48 -9.744,5.863 z"
             style="fill:#fa8359;fill-opacity:1;fill-rule:nonzero;stroke:none"
             id="path442"
             inkscape:connector-curvature="0" /></g><g
           id="g444"
           transform="translate(131.1401,169.8301)"><path
             d="m 0,0 c -14.78,-6.59 -41.38,-13.73 -76.31,-3.45 -4.13,1.22 -7.2,4.7 -7.94,8.94 -3.77,21.51 -11.2,87.84 34.61,111.51 0,0 -25.75,-28.58 -23.5,-60.33 C -73.28,25.92 -68.36,-14.91 0,0"
             style="fill:#e73d3d;fill-opacity:1;fill-rule:nonzero;stroke:none"
             id="path446"
             inkscape:connector-curvature="0" /></g><path
           d="m 288.041,75.706 h -76.08 v 45.15 h 76.08 z"
           style="fill:#8fc1db;fill-opacity:1;fill-rule:nonzero;stroke:none"
           id="path448"
           inkscape:connector-curvature="0" /><path
           d="m 279.15,82.057 h -67.19 v 38.8 h 67.19 z"
           style="fill:#badcee;fill-opacity:1;fill-rule:nonzero;stroke:none"
           id="path450"
           inkscape:connector-curvature="0" /><g
           id="g452"
           transform="translate(228.7344,75.71)"><path
             d="M 0,0 H -16.776 V 26.817 L 0,20 Z"
             style="fill:#275e92;fill-opacity:1;fill-rule:nonzero;stroke:none"
             id="path454"
             inkscape:connector-curvature="0" /></g><g
           id="g456"
           transform="translate(271.2656,75.71)"><path
             d="M 0,0 H 16.776 V 26.817 L 0,20 Z"
             style="fill:#275e92;fill-opacity:1;fill-rule:nonzero;stroke:none"
             id="path458"
             inkscape:connector-curvature="0" /></g><g
           id="g460"
           transform="translate(279.2905,98.9707)"><path
             d="m 0,0 v -17.095 h -8.025 v -6.166 H 8.751 V 3.557 Z"
             style="fill:#1f4a73;fill-opacity:1;fill-rule:nonzero;stroke:none"
             id="path462"
             inkscape:connector-curvature="0" /></g><g
           id="g464"
           transform="translate(288.0405,120.8564)"><path
             d="m 0,0 v -13.101 h -24.54 l -3.34,7.701 h -20.33 l -3.33,-7.701 h -24.54 l 0,13.101 z"
             style="fill:#8fc1db;fill-opacity:1;fill-rule:nonzero;stroke:none"
             id="path466"
             inkscape:connector-curvature="0" /></g><g
           id="g468"
           transform="translate(210.8643,131.2939)"><path
             d="M 0,0 V -20.532 H 23.667 L 27,-12.834 h 24.271 l 3.333,-7.698 H 78.271 V 0 Z"
             style="fill:#275e92;fill-opacity:1;fill-rule:nonzero;stroke:none"
             id="path470"
             inkscape:connector-curvature="0" /></g><g
           id="g472"
           transform="translate(210.8643,131.2939)"><path
             d="m 0,0 v -6.751 h 68.51 v -13.781 h 9.761 V 0 Z"
             style="fill:#1f4a73;fill-opacity:1;fill-rule:nonzero;stroke:none"
             id="path474"
             inkscape:connector-curvature="0" /></g><path
           d="m 210.864,121.543 h 78.271 v 5.667 h -78.271 z"
           style="fill:#4a93d9;fill-opacity:1;fill-rule:nonzero;stroke:none"
           id="path476"
           inkscape:connector-curvature="0" /><path
           d="m 258.889,106.543 h -17.778 v 6.333 h 17.778 z"
           style="fill:#275e92;fill-opacity:1;fill-rule:nonzero;stroke:none"
           id="path478"
           inkscape:connector-curvature="0" /><g
           id="g480"
           transform="translate(197.4258,45.4951)"><path
             d="m 0,0 c 0.049,-1.854 -1.69,-3.198 -3.265,-4.179 -17.868,-11.124 -38.369,-17.924 -55.036,-30.778 7.594,13.645 18.898,25.201 32.372,33.094 6.4,3.749 13.734,6.75 21.07,5.656 C -2.646,3.463 -0.06,2.237 0,0"
             style="fill:#708338;fill-opacity:1;fill-rule:nonzero;stroke:none"
             id="path482"
             inkscape:connector-curvature="0" /></g><g
           id="g484"
           transform="translate(27.9297,141.9229)"><path
             d="M 0,0 C 1.369,3.391 6.174,3.689 7.761,0.396 7.771,0.374 7.782,0.352 7.792,0.329 8.834,-1.902 8.801,-4.466 8.748,-6.928 8.466,-19.853 8.185,-32.777 7.904,-45.701 7.737,-53.366 7.623,-61.311 10.676,-68.343 3.31,-55.502 0.698,-40.54 -1.239,-25.863 -2.38,-17.224 -3.195,-7.913 0,0"
             style="fill:#708338;fill-opacity:1;fill-rule:nonzero;stroke:none"
             id="path486"
             inkscape:connector-curvature="0" /></g><g
           id="g488"
           transform="translate(171.0537,-7.6338)"><path
             d="m 0,0 c -0.621,4.009 -2.419,8 -5.678,10.416 -3.229,2.394 -7.569,3.044 -10.546,5.744 -6.943,6.297 -2.03,18.067 -5.108,26.92 -2.841,8.176 -12.402,12.418 -21.043,11.901 -4.634,-0.277 -9.151,-1.627 -13.782,-1.958 -4.631,-0.332 -9.707,0.565 -12.862,3.971 -5.272,5.691 -2.748,14.977 -5.469,22.24 -2.847,7.602 -11.149,11.885 -19.186,13.025 -8.036,1.139 -16.203,-0.147 -24.319,-0.036 -8.116,0.109 -16.817,1.952 -22.293,7.944 -3.92,4.289 -5.633,10.077 -7.924,15.418 -6.067,14.145 -17.947,26.675 -33.069,29.545 -7.74,1.47 -16.111,-0.332 -22.775,-4.472 V -13.366 H -1.779 C -0.031,-9.139 0.71,-4.589 0,0"
             style="fill:#5f6a2b;fill-opacity:1;fill-rule:nonzero;stroke:none"
             id="path490"
             inkscape:connector-curvature="0" /></g><g
           id="g492"
           transform="translate(123.9248,-8.46)"><path
             d="m 0,0 c -0.461,2.976 -1.795,5.937 -4.214,7.73 -2.396,1.776 -5.618,2.259 -7.827,4.263 -5.152,4.673 -1.506,13.407 -3.79,19.979 -2.109,6.067 -9.205,9.216 -15.617,8.832 -3.44,-0.205 -6.792,-1.207 -10.229,-1.453 -3.436,-0.247 -7.203,0.419 -9.545,2.947 -3.913,4.223 -2.039,11.114 -4.059,16.506 -2.113,5.64 -8.274,8.819 -14.238,9.666 -5.964,0.845 -12.025,-0.11 -18.049,-0.028 -6.023,0.081 -12.48,1.45 -16.544,5.896 -2.909,3.183 -4.181,7.479 -5.881,11.442 -4.503,10.498 -13.32,19.797 -24.542,21.927 -5.744,1.091 -11.957,-0.246 -16.902,-3.318 V -9.92 H -1.32 C -0.023,-6.782 0.527,-3.405 0,0"
             style="fill:#576127;fill-opacity:1;fill-rule:nonzero;stroke:none"
             id="path494"
             inkscape:connector-curvature="0" /></g><g
           id="g496"
           transform="translate(24.5625,33.6689)"><path
             d="m 0,0 c -0.269,-0.053 -0.367,-0.256 -0.352,-0.464 -21.617,-14.775 -40.781,-33.113 -56.429,-54.205 h 1.252 c 11.626,15.57 25.178,29.632 40.242,41.832 0.058,-0.056 0.128,-0.102 0.231,-0.122 11.001,-2.106 22.002,-4.212 33.003,-6.317 0.63,-0.121 0.899,0.842 0.266,0.964 -10.851,2.077 -21.702,4.154 -32.552,6.231 4.91,3.935 9.968,7.687 15.176,11.221 13.936,2.678 28.075,4.021 42.267,4.011 0.645,0 0.645,1 0,1 -13.479,0.01 -26.91,-1.213 -40.166,-3.615 4.361,2.892 8.806,5.658 13.351,8.255 0.171,-0.001 0.336,0.078 0.437,0.247 5.863,3.335 11.877,6.408 18.009,9.229 0.11,-0.41 0.807,-0.514 0.968,0 0.055,0.175 0.111,0.351 0.166,0.527 6.87,3.115 13.893,5.905 21.048,8.335 0.607,0.206 0.347,1.173 -0.266,0.965 -6.924,-2.352 -13.724,-5.035 -20.38,-8.026 1.213,3.857 2.427,7.714 3.642,11.571 0.193,0.617 -0.772,0.879 -0.965,0.265 -1.301,-4.133 -2.602,-8.267 -3.904,-12.402 -6.053,-2.761 -11.991,-5.767 -17.785,-9.024 1.969,5.544 3.938,11.088 5.907,16.632 0.216,0.61 -0.75,0.869 -0.964,0.266 C 20.113,21.495 18.024,15.613 15.936,9.731 10.656,6.718 5.499,3.493 0.468,0.085 0.312,0.056 0.156,0.03 0,0"
             style="fill:#434a1d;fill-opacity:1;fill-rule:nonzero;stroke:none"
             id="path498"
             inkscape:connector-curvature="0" /></g><g
           id="g500"
           transform="translate(29.9414,74.6592)"><path
             d="m 0,0 c -11.095,-6.832 -22.19,-13.664 -33.285,-20.496 1.146,4.543 2.19,9.111 3.136,13.702 0.225,0.023 0.423,0.176 0.399,0.47 -0.028,0.345 -0.072,0.688 -0.104,1.033 2.716,13.504 4.574,27.188 5.52,40.958 0.044,0.644 -0.956,0.64 -1,0 -0.869,-12.649 -2.517,-25.225 -4.888,-37.656 -2.185,16.716 -9.047,32.551 -19.825,45.578 -0.411,0.498 -1.115,-0.214 -0.707,-0.707 11.292,-13.649 18.238,-30.493 19.895,-48.117 -1.081,-5.367 -2.285,-10.707 -3.64,-16.008 -0.085,-0.053 -0.17,-0.106 -0.255,-0.157 -0.357,-0.22 -0.265,-0.66 -0.008,-0.848 -2.213,-8.546 -4.784,-16.997 -7.696,-25.33 -0.061,-0.029 -0.122,-0.057 -0.182,-0.086 -0.334,-0.162 -0.301,-0.513 -0.109,-0.731 -5.52,-15.662 -12.281,-30.886 -20.192,-45.52 v -1.744 h 0.204 c 8.303,15.198 15.354,31.045 21.076,47.354 8.177,3.934 16.704,7.003 25.514,9.184 0.626,0.155 0.36,1.119 -0.266,0.965 -8.545,-2.116 -16.824,-5.077 -24.781,-8.828 2.857,8.257 5.378,16.63 7.552,25.094 11.382,7.008 22.765,14.017 34.146,21.026 C 1.052,-0.526 0.551,0.339 0,0"
             style="fill:#434a1d;fill-opacity:1;fill-rule:nonzero;stroke:none"
             id="path502"
             inkscape:connector-curvature="0" /></g><g
           id="g504"
           transform="translate(78.6011,0.2363)"><path
             d="m 0,0 c -11.071,-6.457 -21.78,-13.538 -32.052,-21.236 h 1.654 c 12.586,9.367 25.825,17.825 39.594,25.31 0.029,-0.009 0.05,-0.025 0.084,-0.03 6.888,-1.002 13.777,-2.005 20.666,-3.008 0.63,-0.092 0.902,0.872 0.265,0.965 -6.522,0.949 -13.044,1.898 -19.566,2.848 6.657,3.577 13.433,6.935 20.321,10.052 0.056,-0.069 0.128,-0.13 0.235,-0.163 7.354,-2.248 14.878,-3.738 22.53,-4.482 0.643,-0.063 0.637,0.938 0,1 -7.295,0.709 -14.463,2.127 -21.482,4.219 6.839,3.06 13.779,5.905 20.818,8.498 0.6,0.221 0.341,1.188 -0.266,0.964 C 40.53,20.416 28.547,15.173 16.913,9.255 c 0.509,7.276 1.018,14.552 1.526,21.827 0.045,0.645 -0.955,0.64 -1,0 C 16.919,23.644 16.399,16.204 15.879,8.765 15.878,8.749 15.884,8.738 15.885,8.723 10.583,6.002 5.364,3.125 0.215,0.127 0.3,0.206 0.365,0.311 0.38,0.45 c 0.834,7.661 1.667,15.321 2.5,22.983 0.07,0.64 -0.93,0.633 -1,0 C 1.047,15.771 0.214,8.111 -0.62,0.45 -0.662,0.057 -0.301,-0.09 0,0"
             style="fill:#434a1d;fill-opacity:1;fill-rule:nonzero;stroke:none"
             id="path506"
             inkscape:connector-curvature="0" /></g><g
           id="g508"
           transform="translate(54.2612,-21)"><path
             d="m 0,0 c 18.983,8.003 39.083,13.15 59.526,15.325 4.96,-2.963 9.921,-5.927 14.881,-8.89 0.554,-0.331 1.057,0.533 0.505,0.863 -4.578,2.735 -9.155,5.47 -13.732,8.204 11.808,1.162 23.721,1.349 35.595,0.493 0.644,-0.047 0.64,0.954 0,1 -8.027,0.578 -16.071,0.662 -24.09,0.317 4.708,3.98 9.416,7.961 14.124,11.942 0.493,0.417 -0.218,1.121 -0.707,0.707 C 81.104,25.735 76.107,21.51 71.11,17.284 71.095,17.271 71.091,17.257 71.078,17.243 45.773,15.957 20.775,10.115 -2.504,0 Z"
             style="fill:#434a1d;fill-opacity:1;fill-rule:nonzero;stroke:none"
             id="path510"
             inkscape:connector-curvature="0" /></g><g
           id="g512"
           transform="translate(486.2002,106.7158)"><path
             d="m 0,0 c 0.026,-24.531 0.052,-49.063 0.079,-73.595 -3.363,18.736 -6.738,37.577 -7.314,56.69 -0.179,5.906 -0.04,12.022 1.329,17.665 C -5.079,4.17 -0.017,3.604 0,0.096 Z"
             style="fill:#5f6a2b;fill-opacity:1;fill-rule:nonzero;stroke:none"
             id="path514"
             inkscape:connector-curvature="0" /></g><g
           id="g516"
           transform="translate(471.9424,91.665)"><path
             d="M 0,0 C 2.925,-2.517 3.764,-6.633 4.43,-10.434 7.119,-25.777 9.808,-41.121 12.497,-56.465 4.325,-39.531 -1.167,-21.307 -3.71,-2.676 -3.883,-1.408 -3.866,0.208 -2.708,0.753 -1.811,1.176 -0.752,0.647 0,0"
             style="fill:#5f6a2b;fill-opacity:1;fill-rule:nonzero;stroke:none"
             id="path518"
             inkscape:connector-curvature="0" /></g><g
           id="g520"
           transform="translate(397.8892,106.6006)"><path
             d="m 0,0 c 3.768,1.557 7.378,-2.392 9.562,-5.835 15.28,-24.093 30.561,-48.186 45.841,-72.28 5.726,-9.029 11.484,-18.118 15.515,-28.021 -25.673,29.6 -51.501,59.412 -71.334,93.204 -1.246,2.122 -2.495,4.345 -2.72,6.795 C -3.362,-3.687 -2.274,-0.939 0,0"
             style="fill:#5f6a2b;fill-opacity:1;fill-rule:nonzero;stroke:none"
             id="path522"
             inkscape:connector-curvature="0" /></g><g
           id="g524"
           transform="translate(446.2544,79.5918)"><path
             d="m 0,0 c 2.705,-5.121 4.195,-10.78 5.663,-16.383 5.492,-20.958 10.985,-41.916 16.477,-62.874 -10.013,18.459 -18.506,37.742 -25.365,57.591 -2.5,7.234 -4.797,15.085 -2.623,22.423 0.2,0.674 0.461,1.373 1.012,1.807 C -3.193,3.863 -0.978,1.853 0,0"
             style="fill:#5f6a2b;fill-opacity:1;fill-rule:nonzero;stroke:none"
             id="path526"
             inkscape:connector-curvature="0" /></g><g
           id="g528"
           transform="translate(469.5273,1.0439)"><path
             d="m 0,0 c -28.307,10.223 -53.611,28.564 -72.238,52.191 -2.983,3.785 1.81,8.802 5.675,5.925 0.035,-0.026 0.07,-0.052 0.105,-0.078 12.306,-9.252 22.363,-21.107 33.461,-31.779 C -22.85,16.501 -11.787,7.696 0,0"
             style="fill:#5f6a2b;fill-opacity:1;fill-rule:nonzero;stroke:none"
             id="path530"
             inkscape:connector-curvature="0" /></g><g
           id="g532"
           transform="translate(449.4146,120.2871)"><path
             d="m 0,0 c 3.819,0.066 5.614,-4.614 6.338,-8.365 5.067,-26.248 10.134,-52.496 15.202,-78.744 1.898,-9.836 3.804,-19.736 3.925,-29.753 -12.242,34.611 -24.547,69.463 -30.26,105.728 -0.359,2.278 -0.686,4.644 -0.043,6.858 C -4.195,-2.063 -2.305,-0.039 0,0"
             style="fill:#708338;fill-opacity:1;fill-rule:nonzero;stroke:none"
             id="path534"
             inkscape:connector-curvature="0" /></g><g
           id="g536"
           transform="translate(479.3662,80.1572)"><path
             d="m 0,0 c 0.604,-5.393 -0.037,-10.839 -0.677,-16.228 -2.394,-20.159 -4.788,-40.317 -7.182,-60.476 -2.404,19.529 -3.201,39.256 -2.38,58.916 0.3,7.165 0.988,14.799 5.399,20.453 0.405,0.518 0.872,1.038 1.502,1.229 C -1.46,4.463 -0.218,1.95 0,0"
             style="fill:#708338;fill-opacity:1;fill-rule:nonzero;stroke:none"
             id="path538"
             inkscape:connector-curvature="0" /></g><g
           id="g540"
           transform="translate(472.7383,3.6836)"><path
             d="m 0,0 c -21.193,18.627 -36.978,43.313 -45.12,70.32 -1.295,4.295 4.625,6.983 6.995,3.174 0.021,-0.035 0.042,-0.069 0.064,-0.104 C -30.5,61.104 -25.794,47.318 -19.774,34.208 -14.271,22.221 -7.641,10.751 0,0"
             style="fill:#708338;fill-opacity:1;fill-rule:nonzero;stroke:none"
             id="path542"
             inkscape:connector-curvature="0" /></g><g
           id="g544"
           transform="translate(503.5,-4)"><path
             d="m 0,0 v 54.733 c -2.268,-0.965 -4.278,-2.637 -6.364,-4.023 -2.765,-1.839 -6.371,-3.241 -9.33,-1.733 -2.048,1.043 -3.283,3.259 -5.289,4.38 -4.186,2.339 -9.589,-1.369 -11.114,-5.914 -1.525,-4.545 -0.527,-9.488 -0.213,-14.272 0.314,-4.784 -0.385,-10.218 -4.177,-13.151 -5.612,-4.342 -15.149,-1.051 -19.848,-6.368 C -59.563,10.001 -58.458,4.716 -56.437,0 Z"
             style="fill:#5f6a2b;fill-opacity:1;fill-rule:nonzero;stroke:none"
             id="path546"
             inkscape:connector-curvature="0" /></g><g
           id="g548"
           transform="translate(506.5,-19.0791)"><path
             d="m 0,0 v 54.733 c -2.268,-0.965 -4.278,-2.637 -6.364,-4.023 -2.765,-1.838 -6.371,-3.241 -9.33,-1.733 -2.048,1.044 -3.283,3.26 -5.289,4.381 -4.186,2.338 -9.589,-1.369 -11.114,-5.914 -1.525,-4.546 -0.527,-9.488 -0.213,-14.272 0.314,-4.784 -0.385,-10.218 -4.177,-13.152 -5.612,-4.342 -15.149,-1.051 -19.848,-6.367 C -59.563,10.001 -58.458,4.716 -56.437,0 Z"
             style="fill:#576127;fill-opacity:1;fill-rule:nonzero;stroke:none"
             id="path550"
             inkscape:connector-curvature="0" /></g><g
           id="g552"
           transform="translate(504.3267,-3.6797)"><path
             d="m 0,0 c -2.269,1.869 -4.44,3.843 -6.511,5.91 l -4.604,29.361 c -0.1,0.635 -1.063,0.364 -0.965,-0.267 1.456,-9.286 2.913,-18.573 4.369,-27.859 -1.074,1.112 -2.119,2.251 -3.134,3.415 -0.023,0.174 -0.126,0.325 -0.311,0.375 -2.062,2.389 -3.984,4.893 -5.79,7.478 0.036,0.07 0.06,0.151 0.046,0.257 l -1.785,13.462 c -0.083,0.63 -1.084,0.639 -1,0 0.534,-4.023 1.067,-8.045 1.6,-12.068 -3.784,5.677 -6.946,11.774 -9.383,18.203 -0.226,0.596 -1.193,0.337 -0.964,-0.266 3.757,-9.911 9.167,-19.074 15.967,-27.105 -10.612,-0.572 -21.223,-1.145 -31.835,-1.718 -0.641,-0.034 -0.644,-1.034 0,-1 10.888,0.588 21.776,1.176 32.664,1.763 1.348,-1.548 2.743,-3.059 4.195,-4.518 0.024,-0.154 0.049,-0.309 0.073,-0.464 0.059,-0.38 0.426,-0.431 0.691,-0.28 1.909,-1.874 3.895,-3.677 5.97,-5.386 C -0.213,-1.113 0.498,-0.41 0,0"
             style="fill:#434a1d;fill-opacity:1;fill-rule:nonzero;stroke:none"
             id="path554"
             inkscape:connector-curvature="0" /></g><g
           id="g556"
           transform="translate(484.5059,16.6855)"><path
             d="m 0,0 c -4.334,0.138 -8.668,0.275 -13.003,0.413 -0.645,0.021 -0.643,-0.979 0,-1 C -8.668,-0.725 -4.334,-0.862 0,-1 0.646,-1.021 0.643,-0.021 0,0"
             style="fill:#434a1d;fill-opacity:1;fill-rule:nonzero;stroke:none"
             id="path558"
             inkscape:connector-curvature="0" /></g><g
           id="g560"
           transform="translate(305.2231,226.4365)"><path
             d="m 0,0 c -1.374,0 -2.714,-0.044 -4.016,-0.122 l 1.976,-2.275 -7.072,1.745 c -7.098,-1.065 -12.013,-3.325 -12.013,-5.95 0,-1.232 1.101,-2.381 2.981,-3.369 l 9.062,1.257 -4.393,-2.971 c 3.657,-0.948 8.352,-1.518 13.475,-1.518 4.82,0 9.249,0.51 12.804,1.359 l -3.225,2.229 8.805,-0.232 c 1.737,0.959 2.741,2.065 2.741,3.245 C 21.125,-2.956 11.667,0 0,0"
             style="fill:#72a3d4;fill-opacity:1;fill-rule:nonzero;stroke:none"
             id="path562"
             inkscape:connector-curvature="0" /></g><g
           id="g564"
           transform="translate(303.7651,228.6035)"><path
             d="m 0,0 c -1.301,0 -2.57,-0.042 -3.802,-0.116 l 1.87,-2.155 -6.695,1.653 C -15.348,-1.625 -20,-3.766 -20,-6.25 c 0,-1.167 1.042,-2.255 2.822,-3.189 l 8.579,1.188 -4.159,-2.812 C -9.295,-11.96 -4.85,-12.5 0,-12.5 c 4.563,0 8.756,0.482 12.122,1.287 l -3.054,2.109 8.336,-0.219 C 19.049,-8.415 20,-7.368 20,-6.25 20,-2.799 11.045,0 0,0"
             style="fill:#5f6a2b;fill-opacity:1;fill-rule:nonzero;stroke:none"
             id="path566"
             inkscape:connector-curvature="0" /></g><g
           id="g568"
           transform="translate(17.4673,245.7295)"><path
             d="m 0,0 c -0.97,0 -1.916,-0.031 -2.833,-0.087 l 1.394,-1.604 -4.99,1.23 c -5.009,-0.75 -8.476,-2.345 -8.476,-4.197 0,-0.869 0.777,-1.681 2.104,-2.377 l 6.393,0.887 -3.1,-2.097 c 2.581,-0.668 5.894,-1.07 9.508,-1.07 3.401,0 6.526,0.359 9.034,0.959 l -2.276,1.572 6.213,-0.164 c 1.226,0.677 1.934,1.457 1.934,2.29 C 14.905,-2.086 8.232,0 0,0"
             style="fill:#72a3d4;fill-opacity:1;fill-rule:nonzero;stroke:none"
             id="path570"
             inkscape:connector-curvature="0" /></g><g
           id="g572"
           transform="translate(17.2173,247.7295)"><path
             d="m 0,0 c -0.97,0 -1.916,-0.031 -2.833,-0.087 l 1.394,-1.604 -4.99,1.23 c -5.009,-0.75 -8.476,-2.345 -8.476,-4.197 0,-0.869 0.777,-1.681 2.104,-2.377 l 6.393,0.887 -3.1,-2.097 c 2.581,-0.668 5.894,-1.07 9.508,-1.07 3.401,0 6.526,0.359 9.034,0.959 l -2.276,1.572 6.213,-0.164 c 1.226,0.677 1.934,1.457 1.934,2.29 C 14.905,-2.086 8.232,0 0,0"
             style="fill:#5f6a2b;fill-opacity:1;fill-rule:nonzero;stroke:none"
             id="path574"
             inkscape:connector-curvature="0" /></g></g></g></g></svg>