<?xml version="1.0" encoding="UTF-8" standalone="no"?>
<!-- Created with Inkscape (http://www.inkscape.org/) -->

<svg
   xmlns:dc="http://purl.org/dc/elements/1.1/"
   xmlns:cc="http://creativecommons.org/ns#"
   xmlns:rdf="http://www.w3.org/1999/02/22-rdf-syntax-ns#"
   xmlns:svg="http://www.w3.org/2000/svg"
   xmlns="http://www.w3.org/2000/svg"
   xmlns:sodipodi="http://sodipodi.sourceforge.net/DTD/sodipodi-0.dtd"
   xmlns:inkscape="http://www.inkscape.org/namespaces/inkscape"
   width="55.030285mm"
   height="76.225357mm"
   viewBox="0 0 55.030285 76.225357"
   version="1.1"
   id="svg8"
   inkscape:version="0.92.4 (f8dce91, 2019-08-02)"
   sodipodi:docname="chechov.svg">
  <defs
     id="defs2" />
  <sodipodi:namedview
     id="base"
     pagecolor="#ffffff"
     bordercolor="#666666"
     borderopacity="1.0"
     inkscape:pageopacity="0.0"
     inkscape:pageshadow="2"
     inkscape:zoom="1.4"
     inkscape:cx="168.68668"
     inkscape:cy="159.65727"
     inkscape:document-units="mm"
     inkscape:current-layer="layer2"
     showgrid="false"
     showguides="true"
     inkscape:guide-bbox="true"
     fit-margin-top="0"
     fit-margin-left="0"
     fit-margin-right="0"
     fit-margin-bottom="0"
     inkscape:window-width="1366"
     inkscape:window-height="712"
     inkscape:window-x="0"
     inkscape:window-y="28"
     inkscape:window-maximized="1"
     inkscape:snap-others="false">
    <sodipodi:guide
       position="27.497768,51.593752"
       orientation="1,0"
       id="guide829"
       inkscape:locked="false" />
  </sodipodi:namedview>
  <metadata
     id="metadata5">
    <rdf:RDF>
      <cc:Work
         rdf:about="">
        <dc:format>image/svg+xml</dc:format>
        <dc:type
           rdf:resource="http://purl.org/dc/dcmitype/StillImage" />
        <dc:title />
      </cc:Work>
    </rdf:RDF>
  </metadata>
  <g
     inkscape:groupmode="layer"
     id="layer2"
     inkscape:label="Layer 2"
     transform="translate(-0.45509012,-0.41451935)">
    <path
       inkscape:connector-curvature="0"
       id="path846"
       d="m 39.003525,38.177453 7.857271,8.395438 -7.97218,3.336969 -10.863742,26.692872 V 29.136211 Z"
       style="fill:#414141;fill-opacity:1;stroke:none;stroke-width:0.30137473px;stroke-linecap:butt;stroke-linejoin:miter;stroke-opacity:1" />
    <path
       style="fill:#414141;fill-opacity:1;stroke:none;stroke-width:0.30137473px;stroke-linecap:butt;stroke-linejoin:miter;stroke-opacity:1"
       d="M 17.046224,38.177453 9.1889536,46.572891 17.161133,49.90986 28.024874,76.602732 V 29.136211 Z"
       id="path844"
       inkscape:connector-curvature="0" />
    <rect
       style="opacity:1;fill:#d3d3d3;fill-opacity:1;stroke:none;stroke-width:0.30184934;stroke-miterlimit:4;stroke-dasharray:none;stroke-opacity:1"
       id="rect842"
       width="21.767065"
       height="18.874937"
       x="17.161131"
       y="31.034924" />
    <path
       id="path880"
       style="fill:#fdc18b;fill-opacity:1;stroke:none;stroke-width:0.31074318px;stroke-linecap:butt;stroke-linejoin:miter;stroke-opacity:1"
       d="m 42.406101,25.762535 c 0,0 1.369495,-4.107762 5.151913,-2.644077 3.782413,1.463688 -0.06522,4.863214 0,5.193724 0.06522,0.33051 0.467117,6.080778 -2.081542,6.038584 -2.548658,-0.04219 -0.07052,-3.205645 -1.374805,-4.291606 -1.304282,-1.085959 -2.217278,-2.927371 -1.695566,-4.296625 z M 28.044665,5.1338683 c 0,0 16.575608,-1.2916043 16.575608,18.2977527 0,19.589359 -16.575608,20.880964 -16.575608,20.880964 z M 13.683233,25.762535 c 0,0 -1.369496,-4.107762 -5.1519131,-2.644077 -3.7824115,1.463688 0.06522,4.863214 0,5.193724 -0.06522,0.33051 -0.4671167,6.080778 2.0815411,6.038584 2.548659,-0.04219 0.07052,-3.205645 1.374805,-4.291606 1.304282,-1.085959 2.217278,-2.927371 1.695567,-4.296625 z M 28.044668,5.1338683 c 0,0 -16.575608,-1.2916043 -16.575608,18.2977527 0,19.589359 16.575608,20.880964 16.575608,20.880964 z"
       inkscape:connector-curvature="0" />
    <circle
       style="opacity:1;fill:#000000;fill-opacity:1;stroke:none;stroke-width:0.11388516;stroke-miterlimit:4;stroke-dasharray:none;stroke-opacity:1"
       id="path831"
       cx="21.412151"
       cy="26.185282"
       r="0.96322888" />
    <path
       style="fill:#d3d3d3;fill-opacity:1;stroke:none;stroke-width:0.30137473px;stroke-linecap:butt;stroke-linejoin:miter;stroke-opacity:1"
       d="M 19.079362,47.322166 28.024874,67.56706 V 44.277823 Z"
       id="path848"
       inkscape:connector-curvature="0" />
    <path
       inkscape:connector-curvature="0"
       id="path850"
       d="M 36.970387,47.322166 28.024874,67.56706 V 44.277823 Z"
       style="fill:#d3d3d3;fill-opacity:1;stroke:none;stroke-width:0.30137473px;stroke-linecap:butt;stroke-linejoin:miter;stroke-opacity:1" />
    <ellipse
       style="opacity:1;fill:#3a3a3a;fill-opacity:1;stroke:none;stroke-width:0.26829243;stroke-miterlimit:4;stroke-dasharray:none;stroke-opacity:1"
       id="path827"
       cx="28.132507"
       cy="41.783188"
       rx="7.8572698"
       ry="6.9423823" />
    <path
       id="path870"
       style="opacity:1;fill:#ef9f6b;fill-opacity:1;stroke:none;stroke-width:0.67250311;stroke-miterlimit:4;stroke-dasharray:none;stroke-opacity:1"
       d="m 28.922008,21.314467 c 0.263925,0 0.47612,0.384123 0.47612,0.861157 v 10.764139 h 0.726555 c 0.472391,0 0.852588,0.687779 0.852588,1.541604 v 0.323152 c 0,0.853825 -0.380197,1.541014 -0.852588,1.541014 h -0.726555 v 0.01472 c 0,0.477034 -0.212195,0.860566 -0.47612,0.860566 h -0.07328 v 0.0011 H 28.04467 V 36.360248 36.226632 22.592369 22.175624 21.317999 h 0.457232 c 0.0065,-4.7e-4 0.01263,-0.0035 0.01922,-0.0035 z m -1.754675,0 c -0.263925,0 -0.47612,0.384123 -0.47612,0.861157 v 10.764139 h -0.726556 c -0.47239,0 -0.852587,0.687779 -0.852587,1.541604 v 0.323152 c 0,0.853825 0.380197,1.541014 0.852587,1.541014 h 0.726556 v 0.01472 c 0,0.477034 0.212195,0.860566 0.47612,0.860566 h 0.07328 v 0.0011 h 0.804064 V 36.360248 36.226632 22.592369 22.175624 21.317999 h -0.457232 c -0.0065,-4.7e-4 -0.01263,-0.0035 -0.01922,-0.0035 z"
       inkscape:connector-curvature="0" />
    <circle
       r="0.96322888"
       cy="26.185282"
       cx="34.220573"
       id="circle875"
       style="opacity:1;fill:#000000;fill-opacity:1;stroke:none;stroke-width:0.11388516;stroke-miterlimit:4;stroke-dasharray:none;stroke-opacity:1" />
    <path
       style="fill:#3a3a3a;fill-opacity:1;stroke:none;stroke-width:0.30137473px;stroke-linecap:butt;stroke-linejoin:miter;stroke-opacity:1"
       d="m 13.683233,25.762535 c 0,0 -4.8024251,-4.317298 -4.8024251,-6.600557 0,-2.283258 1.5221721,-10.3507707 2.8921271,-11.1118567 1.369954,-0.7610863 5.327602,-1.5221724 5.327602,-1.5221724 0,0 -1.522171,-1.2177378 0.761087,-3.0443448 2.283258,-1.8266067 11.264076,-5.4798203 18.874937,-0.7610861 7.61086,4.718734 8.828598,10.95964 8.828598,10.95964 l 0.761085,8.524166 -3.920143,3.556211 c 0,0 -0.950808,-11.928159 -3.538498,-13.145897 -2.587694,-1.217738 -12.17738,-0.761086 -12.481814,-2.435476 -0.304435,-1.6743893 -6.08869,0 -6.08869,0.761086 0,0.761086 -6.834611,-0.802873 -6.613866,14.820287 z"
       id="path825"
       inkscape:connector-curvature="0" />
    <ellipse
       style="opacity:1;fill:none;fill-opacity:1;stroke:#777777;stroke-width:0.30184934;stroke-miterlimit:4;stroke-dasharray:none;stroke-opacity:1"
       id="path832"
       cx="21.190125"
       cy="27.736975"
       rx="4.2515364"
       ry="3.3366489" />
    <ellipse
       ry="3.3366489"
       rx="4.2515364"
       cy="27.736975"
       cx="34.751991"
       id="ellipse834"
       style="opacity:1;fill:none;fill-opacity:1;stroke:#777777;stroke-width:0.30184934;stroke-miterlimit:4;stroke-dasharray:none;stroke-opacity:1" />
    <path
       style="fill:none;stroke:#777777;stroke-width:0.30137473px;stroke-linecap:butt;stroke-linejoin:miter;stroke-opacity:1"
       d="m 23.719522,25.046125 c 0,0 3.821002,-3.33665 8.341623,0.107629"
       id="path836"
       inkscape:connector-curvature="0" />
    <path
       style="fill:none;stroke:#ef9f6b;stroke-width:0.30137473px;stroke-linecap:butt;stroke-linejoin:miter;stroke-opacity:1"
       d="m 25.441664,40.760665 h 5.166424"
       id="path840"
       inkscape:connector-curvature="0" />
    <path
       style="fill:none;stroke:#777777;stroke-width:0.30137473px;stroke-linecap:butt;stroke-linejoin:miter;stroke-opacity:1"
       d="m 16.910266,27.838361 c 0.568443,0.893267 -6.596836,10.301353 2.283258,19.483805"
       id="path852"
       inkscape:connector-curvature="0"
       sodipodi:nodetypes="cc" />
  </g>
</svg>
