<?xml version="1.0" encoding="UTF-8" standalone="no"?>
<!-- Created with Inkscape (http://www.inkscape.org/) -->

<svg
   xmlns:dc="http://purl.org/dc/elements/1.1/"
   xmlns:cc="http://creativecommons.org/ns#"
   xmlns:rdf="http://www.w3.org/1999/02/22-rdf-syntax-ns#"
   xmlns:svg="http://www.w3.org/2000/svg"
   xmlns="http://www.w3.org/2000/svg"
   xmlns:sodipodi="http://sodipodi.sourceforge.net/DTD/sodipodi-0.dtd"
   xmlns:inkscape="http://www.inkscape.org/namespaces/inkscape"
   width="24.513599mm"
   height="18.021729mm"
   viewBox="0 0 24.513599 18.021729"
   version="1.1"
   id="svg10416"
   inkscape:version="0.92.4 (f8dce91, 2019-08-02)"
   sodipodi:docname="fox.svg">
  <defs
     id="defs10410" />
  <sodipodi:namedview
     id="base"
     pagecolor="#ffffff"
     bordercolor="#666666"
     borderopacity="1.0"
     inkscape:pageopacity="0.0"
     inkscape:pageshadow="2"
     inkscape:zoom="0.35"
     inkscape:cx="-256.53216"
     inkscape:cy="-368.8002"
     inkscape:document-units="mm"
     inkscape:current-layer="layer1"
     showgrid="false"
     fit-margin-top="0"
     fit-margin-left="0"
     fit-margin-right="0"
     fit-margin-bottom="0"
     inkscape:window-width="1366"
     inkscape:window-height="712"
     inkscape:window-x="0"
     inkscape:window-y="28"
     inkscape:window-maximized="1" />
  <metadata
     id="metadata10413">
    <rdf:RDF>
      <cc:Work
         rdf:about="">
        <dc:format>image/svg+xml</dc:format>
        <dc:type
           rdf:resource="http://purl.org/dc/dcmitype/StillImage" />
        <dc:title></dc:title>
      </cc:Work>
    </rdf:RDF>
  </metadata>
  <g
     inkscape:label="Layer 1"
     inkscape:groupmode="layer"
     id="layer1"
     transform="translate(-40.659848,-33.233218)">
    <path
       id="path100"
       style="fill:#d8561e;fill-opacity:1;fill-rule:nonzero;stroke:none;stroke-width:0.03527778"
       d="m 47.720119,40.235856 -1.451329,0.923573 -0.560917,0.626885 -0.131585,0.197913 -0.594784,0.39616 -0.197556,0.19791 -0.296685,0.26388 c 0,0 -1.088673,1.02306 -1.121834,1.12184 -0.03351,0.0988 0.06562,0.16474 0.06562,0.16474 0,0 -0.428976,0.39582 -0.528108,0.4946 -0.09878,0.0995 -0.79163,0.99024 -0.79163,0.99024 l -0.82445,1.15464 -0.49494,1.25343 -0.13194,1.55045 0.13194,0.36336 c 0,0 0.75882,-0.0988 0.8576,-0.1651 0.0991,-0.066 1.484488,-0.29668 1.484488,-0.29668 l 1.088673,-0.85796 c 0,0 1.319742,-1.41852 1.353609,-1.51765 0.0321,-0.0991 0.560565,-0.59372 0.593018,-0.69285 0.03351,-0.0991 0.363009,-0.29704 0.363009,-0.42863 0,-0.13194 0.06632,-1.18815 0.06632,-1.18815 l 0.29704,-1.05552 c 0,0 0.461433,-0.79198 0.461433,-0.92392 0,-0.13159 0.363008,-2.573161 0.363008,-2.573161"
       inkscape:connector-curvature="0" />
    <path
       id="path102"
       style="fill:#d6c6bf;fill-opacity:1;fill-rule:nonzero;stroke:none;stroke-width:0.03527778"
       d="m 43.002069,49.044717 0.197909,-0.29669 -0.659697,-0.13229 -0.395816,-0.72601 -0.527757,0.0332 -0.46249,0.23107 -0.27446,-0.35384 -0.0878,0.22155 -0.13194,1.55045 0.13194,0.36336 c 0,0 0.75882,-0.0988 0.8576,-0.1651 0.0991,-0.066 1.484488,-0.29668 1.484488,-0.29668 l 0.281872,-0.2219 -0.413809,-0.20708"
       inkscape:connector-curvature="0" />
    <path
       id="path104"
       style="fill:#d6c6bf;fill-opacity:1;fill-rule:nonzero;stroke:none;stroke-width:0.03527778"
       d="m 40.659978,49.572117 0.0324,-0.38558 h 2.7e-4 l -0.0328,0.38558"
       inkscape:connector-curvature="0" />
    <path
       id="path106"
       style="fill:#b3441f;fill-opacity:1;fill-rule:nonzero;stroke:none;stroke-width:0.03527778"
       d="m 43.415523,49.251797 -0.413454,-0.20708 0.197909,-0.29669 -0.659697,-0.13229 0.791634,-0.46178 0.989896,-1.02306 1.154993,-1.38571 0.726017,-1.18745 0.44591,-1.62701 0.22719,0.87206 -0.277283,0.98567 c 0,0 -0.06632,1.05621 -0.06632,1.18815 0,0.13159 -0.329494,0.3295 -0.363009,0.42863 -0.03245,0.0991 -0.560916,0.59372 -0.593018,0.69285 -0.03387,0.0991 -1.353608,1.51765 -1.353608,1.51765 l -0.807157,0.63606"
       inkscape:connector-curvature="0" />
    <path
       id="path108"
       style="fill:#b0988e;fill-opacity:1;fill-rule:nonzero;stroke:none;stroke-width:0.03527778"
       d="m 40.791918,49.935477 -0.13194,-0.36336 0.0328,-0.38558 1.08867,-0.10866 0.758823,-0.46214 0.659697,0.13229 -0.197909,0.29669 0.413454,0.20708 -0.281517,0.2219 c 0,0 -1.385358,0.23072 -1.484488,0.29668 -0.0988,0.0663 -0.8576,0.1651 -0.8576,0.1651"
       inkscape:connector-curvature="0" />
    <path
       id="path110"
       style="fill:#5f4943;fill-opacity:1;fill-rule:nonzero;stroke:none;stroke-width:0.03527778"
       d="m 61.247382,34.643622 c 0.02469,-0.07444 0.494948,-0.940504 0.494948,-0.940504 l 0.370768,-0.123473 0.07444,0.271992 0.02434,0.470252 0.02506,0.643467 -0.989542,-0.321734"
       inkscape:connector-curvature="0" />
    <path
       id="path112"
       style="fill:#d8561e;fill-opacity:1;fill-rule:nonzero;stroke:none;stroke-width:0.03527778"
       d="m 52.075513,44.227887 0.06597,1.41888 -0.396169,1.02235 -0.626533,0.69285 -0.560917,0.46179 -0.09948,0.36301 0.09948,0.65969 0.428625,0.92392 0.132292,0.13194 0.362302,0.0991 0.329848,0.39582 -0.06562,0.26423 h -0.8576 l -0.560917,-0.0332 -0.06632,-0.46179 -0.164748,-0.19791 -0.03316,-0.32984 -0.363009,-0.69286 -0.527401,-0.95708 0.131233,-0.46179 0.56162,-0.29704 0.362657,-1.25342 0.3302,-2.3756 1.51765,0.62688"
       inkscape:connector-curvature="0" />
    <path
       id="path114"
       style="fill:#3d2e28;fill-opacity:1;fill-rule:nonzero;stroke:none;stroke-width:0.03527778"
       d="m 51.11878,49.902317 -0.132292,-0.13194 -0.428625,-0.92392 -0.09913,-0.65969 0.0635,-0.23425 -0.2286,-0.096 -0.296685,0.19826 -0.462492,-0.0988 -0.333023,-0.0716 -0.02928,0.10442 0.527402,0.95709 0.363008,0.69285 0.03316,0.32985 0.164748,0.19791 0.06632,0.46179 0.560917,0.0332 h 0.857602 l 0.06562,-0.26424 -0.329848,-0.39581 -0.362302,-0.0991"
       inkscape:connector-curvature="0" />
    <path
       id="path116"
       style="fill:#d8561e;fill-opacity:1;fill-rule:nonzero;stroke:none;stroke-width:0.03527778"
       d="m 59.630603,43.964017 -0.164748,2.04575 -0.13194,1.5173 -0.03351,0.8248 0.231069,0.85795 0.428976,0.16475 0.29704,0.36301 -0.03281,0.32984 -0.858308,-0.0328 -0.428274,-0.42898 -0.39652,-1.518 v -3.79377 l 1.089025,-0.32985"
       inkscape:connector-curvature="0" />
    <path
       id="path118"
       style="fill:#5f4943;fill-opacity:1;fill-rule:nonzero;stroke:none;stroke-width:0.03527778"
       d="m 60.257488,49.737577 -0.29704,-0.36301 -0.428976,-0.16475 -0.231069,-0.85795 0.03351,-0.8248 0.13194,-1.5173 0.04586,-0.5715 -0.541512,-0.15451 -0.428625,0.29986 v 2.50401 l 0.39652,1.51801 0.428274,0.42898 0.858308,0.0328 0.03281,-0.32985"
       inkscape:connector-curvature="0" />
    <path
       id="path120"
       style="fill:#d8561e;fill-opacity:1;fill-rule:nonzero;stroke:none;stroke-width:0.03527778"
       d="m 65.173447,37.233364 -0.197909,0.593725 -0.528108,0.396171 -1.055865,-0.09878 h -0.824793 l -0.626886,0.494948 -0.692504,2.176992 -0.494946,1.847847 -0.660048,1.08867 -0.758473,0.92358 -0.428977,0.29739 -0.131585,2.47403 -0.06703,1.58397 -0.06597,0.42863 0.231068,0.75918 0.42898,0.0988 0.297037,0.56056 -0.165452,0.13264 -1.285875,-0.13264 -0.3302,-1.25342 -0.05786,-0.75918 -0.07443,-0.74189 -0.230365,-0.67663 -0.329846,-2.57316 -0.429331,-0.3302 -0.989542,0.23107 -1.781527,-0.0328 -2.276475,-0.32985 -0.627239,0.92358 -0.362657,0.95673 -0.857954,0.75883 -1.48449,0.75882 -0.396168,0.36301 0.23142,2.04576 0.395817,0.13158 0.362656,0.29739 0.09913,0.59373 -0.329848,0.0325 h -0.825148 l -0.527402,-0.46144 -0.231775,-0.19791 -0.06562,-1.25377 -0.494948,-1.74837 0.792339,-0.99025 0.09913,-0.89076 -0.462846,-1.58326 -0.395817,-1.51801 c 0,0 0.231423,-1.187801 0.264231,-1.286578 0.03281,-0.09913 0.857957,-1.253773 0.857957,-1.253773 l 1.781527,-0.758825 3.101269,-0.263877 2.639131,-0.264232 0.660048,-0.362654 0.989542,-0.09878 0.528108,-0.231068 0.857954,-1.286582 1.31939,-1.68275 1.154993,-0.626885 1.188157,0.09878 1.286581,0.957088 0.296686,0.560562 0.494948,0.42898 1.187802,0.692854"
       inkscape:connector-curvature="0" />
    <path
       id="path122"
       style="fill:#3d2e28;fill-opacity:1;fill-rule:nonzero;stroke:none;stroke-width:0.03527778"
       d="m 59.300403,50.298487 -0.42898,-0.0988 -0.231068,-0.75918 0.06597,-0.42862 0.06703,-1.58397 0.112887,-2.13572 -0.443442,-0.1076 -0.132291,-0.29668 -0.758825,-0.26424 -0.401109,0.44627 0.302684,2.35797 0.230365,0.67662 0.07443,0.74189 0.05786,0.75918 0.3302,1.25342 1.285875,0.13265 0.165452,-0.13265 -0.297037,-0.56056"
       inkscape:connector-curvature="0" />
    <path
       id="path124"
       style="fill:#3d2e28;fill-opacity:1;fill-rule:nonzero;stroke:none;stroke-width:0.03527778"
       d="m 49.798686,47.032117 0.197908,-0.17462 -0.29704,0.0102 -1.51765,0.26388 -0.659693,-0.13229 -0.190148,-0.46673 -0.0074,0.0705 -0.79234,0.99025 0.494948,1.74837 0.06562,1.25377 0.231775,0.19791 0.527402,0.46143 h 0.825149 l 0.329849,-0.0324 -0.09913,-0.59373 -0.362656,-0.29739 -0.395817,-0.13158 -0.23142,-2.04576 0.396168,-0.36301 1.48449,-0.75883"
       inkscape:connector-curvature="0" />
    <path
       id="path126"
       style="fill:#d6c6bf;fill-opacity:1;fill-rule:nonzero;stroke:none;stroke-width:0.03527778"
       d="m 57.221836,44.260697 -0.164396,-0.29668 -1.617133,0.16474 h -1.913112 l -1.451682,-0.0991 -0.52846,-0.0328 0.09948,0.39617 2.276475,0.32985 1.781527,0.0328 0.989542,-0.23107 0.318558,0.24518 0.209198,-0.50906"
       inkscape:connector-curvature="0" />
    <path
       id="path128"
       style="fill:#d6c6bf;fill-opacity:1;fill-rule:nonzero;stroke:none;stroke-width:0.03527778"
       d="m 64.28233,37.464435 -0.758119,-0.363008 -0.594783,-0.26388 -0.890058,0.131588 -1.122188,0.462137 -0.726017,0.231071 -0.164393,0.395817 0.197908,0.890762 0.164748,1.715559 -0.164748,1.220606 -0.758825,1.55082 -0.3302,0.85795 -0.04657,0.53234 0.244827,-0.16968 0.758473,-0.92358 0.660048,-1.08867 0.494946,-1.847847 0.692504,-2.176991 0.626886,-0.494948 h 0.824793 l 1.055865,0.09878 0.528108,-0.396172 0.06632,-0.200025 -0.759531,-0.162628"
       inkscape:connector-curvature="0" />
    <path
       id="path130"
       style="fill:#d6c6bf;fill-opacity:1;fill-rule:nonzero;stroke:none;stroke-width:0.03527778"
       d="m 58.390236,50.884457 -0.244123,-0.0254 -0.3302,-1.25342 -0.05786,-0.75918 -0.07443,-0.74189 -0.230365,-0.67663 0.230365,0.67663 0.07443,0.74189 0.05786,0.75918 0.3302,1.25342 0.244123,0.0254 v 0"
       inkscape:connector-curvature="0" />
    <path
       id="path132"
       style="fill:#b3441f;fill-opacity:1;fill-rule:nonzero;stroke:none;stroke-width:0.03527778"
       d="m 48.664153,47.047637 0.07902,-0.0815 1.319389,-1.18745 0.890766,-1.84785 -0.230365,-0.75917 0.427919,-0.19791 1.649941,0.62724 2.309638,0.13193 2.210504,-0.46213 0.59408,0.39617 -0.132292,0.75882 v 0.27834 l -0.231071,-0.0804 -0.400754,0.44591 -0.02752,-0.21484 -0.110773,-0.085 0.209198,-0.50906 -0.164396,-0.29668 -1.617133,0.16474 h -1.913112 l -1.451682,-0.0991 -0.52846,-0.0328 0.09948,0.39617 -0.627239,0.92358 -0.362658,0.95673 -0.6604,0.5842 -0.296685,0.0102 -1.035402,0.17992"
       inkscape:connector-curvature="0" />
    <path
       id="path134"
       style="fill:#33241f;fill-opacity:1;fill-rule:nonzero;stroke:none;stroke-width:0.03527778"
       d="m 58.390236,50.884457 -0.244123,-0.0254 -0.3302,-1.25342 -0.05786,-0.75918 -0.07443,-0.74189 -0.230365,-0.67663 -0.302329,-2.35832 0.400754,-0.44591 0.231071,0.0804 v 2.49308 l 0.264229,0.98954 0.03281,1.25377 0.230717,1.08903 0.07973,0.35489"
       inkscape:connector-curvature="0" />
    <path
       id="path136"
       style="fill:#33241f;fill-opacity:1;fill-rule:nonzero;stroke:none;stroke-width:0.03527778"
       d="m 48.098296,49.753097 -0.213077,-0.18098 -0.231071,-1.48449 1.010005,-1.03999 1.035401,-0.17991 0.296686,-0.0102 -0.197554,0.17462 -1.48449,0.75883 -0.396168,0.36301 0.180268,1.59914"
       inkscape:connector-curvature="0" />
    <path
       id="path138"
       style="fill:#b0988e;fill-opacity:1;fill-rule:nonzero;stroke:none;stroke-width:0.03527778"
       d="m 57.012638,44.769757 -0.318558,-0.24518 -0.989542,0.23107 -1.781527,-0.0328 -1.836914,-0.26635 -0.439561,-0.0635 -0.09948,-0.39617 0.52846,0.0328 1.451682,0.0991 h 1.913112 l 1.617133,-0.16474 0.164396,0.29668 -0.209198,0.50906"
       inkscape:connector-curvature="0" />
    <path
       id="path140"
       style="fill:#f46b21;fill-opacity:1;fill-rule:nonzero;stroke:none;stroke-width:0.03527778"
       d="m 61.11509,34.824597 0.593725,-0.09878 c 0,0 0.06244,-0.05786 0.140758,-0.136525 l -1.1303,-0.09419 -1.154993,0.626886 -1.31939,1.68275 -0.857954,1.286581 -0.528108,0.231069 -0.989542,0.09878 -0.660048,0.362653 -2.639131,0.264232 -3.101269,0.263877 -1.325034,0.564443 0.764117,-0.06985 2.837392,-0.428625 2.606323,-0.131937 1.187802,0.1651 1.254125,-0.1651 0.791282,-0.363008 0.52846,-0.923573 c 0,0 1.22061,-1.68275 1.253067,-1.781879 0.03316,-0.09913 0.791985,-1.022705 0.791985,-1.022705 l 0.956733,-0.3302"
       inkscape:connector-curvature="0" />
    <path
       id="path142"
       style="fill:#5f4943;fill-opacity:1;fill-rule:nonzero;stroke:none;stroke-width:0.03527778"
       d="m 62.756565,36.001464 0.53199,0.2794 0.346427,0.197556 -0.210254,-0.232481 -0.457906,-0.291042 -0.210257,0.04657"
       inkscape:connector-curvature="0" />
    <path
       id="path144"
       style="fill:#f46b21;fill-opacity:1;fill-rule:nonzero;stroke:none;stroke-width:0.03527778"
       d="m 60.752082,33.233218 -0.371475,0.172861 -0.618419,1.583618 0.123825,0.29704 0.767644,0.4953 0.148166,-0.322085 0.272347,-0.29704 0.246591,-0.02469 -0.02468,-0.692504 -0.543984,-1.212496"
       inkscape:connector-curvature="0" />
    <path
       id="path146"
       style="fill:#d8561e;fill-opacity:1;fill-rule:nonzero;stroke:none;stroke-width:0.03527778"
       d="m 60.628611,33.554597 0.179562,-0.196143 -0.05609,-0.125236 -0.371475,0.172861 -0.618419,1.583618 0.123825,0.29704 0.767644,0.4953 0.07937,-0.173919 -0.104421,-0.593373 V 34.17337 33.554597"
       inkscape:connector-curvature="0" />
    <path
       id="path148"
       style="fill:#b3441f;fill-opacity:1;fill-rule:nonzero;stroke:none;stroke-width:0.03527778"
       d="m 60.882611,35.37211 v -2.64e-4 l 0.191559,-0.208844 0.08502,-0.0085 v 2.64e-4 l -0.08502,0.0081 -0.191559,0.209199"
       inkscape:connector-curvature="0" />
    <path
       id="path150"
       style="fill:#d6541e;fill-opacity:1;fill-rule:nonzero;stroke:none;stroke-width:0.03527778"
       d="m 60.882611,35.371756 -0.08079,-0.604661 -0.02506,-0.693208 0.02506,-0.370769 0.296688,0.519994 0.02469,0.42051 0.04974,0.470255 -0.01376,0.04057 -0.08502,0.0085 -0.191559,0.208843"
       inkscape:connector-curvature="0" />
    <path
       id="path152"
       style="fill:#3d2e28;fill-opacity:1;fill-rule:nonzero;stroke:none;stroke-width:0.03527778"
       d="m 60.752082,33.233218 -0.371475,0.172861 -0.367242,0.940858 0.3429,-0.148873 0.272346,0.101954 V 34.17337 33.554597 l 0.179562,-0.196143 -0.05609,-0.125236"
       inkscape:connector-curvature="0" />
    <path
       id="path154"
       style="fill:#5f4943;fill-opacity:1;fill-rule:nonzero;stroke:none;stroke-width:0.03527778"
       d="m 64.741998,38.002772 -0.277987,-0.0314 -0.445913,-0.07408 -0.692501,-0.197908 -0.643115,0.06209 v 0.07408 l 0.346075,-0.02469 0.321381,-0.0127 0.519994,0.136173 0.445913,0.111829 0.300212,0.05115 0.125941,-0.09455"
       inkscape:connector-curvature="0" />
    <path
       id="path156"
       style="fill:#5f4943;fill-opacity:1;fill-rule:nonzero;stroke:none;stroke-width:0.03527778"
       d="m 64.934263,37.464435 0.1016,0.181679 0.137584,-0.41275 -0.1397,-0.08114 -0.198967,0.03986 v 0.148521 l 0.161218,0.02469 v 0.09913 h -0.06174"
       inkscape:connector-curvature="0" />
    <path
       id="path158"
       style="fill:#3d2e28;fill-opacity:1;fill-rule:nonzero;stroke:none;stroke-width:0.03527778"
       d="m 63.041257,35.819079 -0.02506,0.08643 0.02506,0.12347 0.07373,0.08678 -0.271991,-0.03739 -0.247299,-0.01236 0.185563,-0.148167 0.259996,-0.09878"
       inkscape:connector-curvature="0" />
  </g>
</svg>
