<?xml version="1.0" encoding="UTF-8" standalone="no"?>
<!-- Created with Inkscape (http://www.inkscape.org/) -->

<svg
   xmlns:dc="http://purl.org/dc/elements/1.1/"
   xmlns:cc="http://creativecommons.org/ns#"
   xmlns:rdf="http://www.w3.org/1999/02/22-rdf-syntax-ns#"
   xmlns:svg="http://www.w3.org/2000/svg"
   xmlns="http://www.w3.org/2000/svg"
   xmlns:sodipodi="http://sodipodi.sourceforge.net/DTD/sodipodi-0.dtd"
   xmlns:inkscape="http://www.inkscape.org/namespaces/inkscape"
   width="105.07731mm"
   height="99.518517mm"
   viewBox="0 0 105.07731 99.518517"
   version="1.1"
   id="svg8"
   inkscape:version="0.92.4 (f8dce91, 2019-08-02)"
   sodipodi:docname="hramnakrovi.svg">
  <defs
     id="defs2" />
  <sodipodi:namedview
     id="base"
     pagecolor="#ffffff"
     bordercolor="#666666"
     borderopacity="1.0"
     inkscape:pageopacity="0.0"
     inkscape:pageshadow="2"
     inkscape:zoom="0.35"
     inkscape:cx="305.71545"
     inkscape:cy="133.83519"
     inkscape:document-units="mm"
     inkscape:current-layer="layer1"
     showgrid="false"
     showguides="true"
     inkscape:guide-bbox="true"
     fit-margin-top="0"
     fit-margin-left="0"
     fit-margin-right="0"
     fit-margin-bottom="0"
     inkscape:window-width="1366"
     inkscape:window-height="712"
     inkscape:window-x="0"
     inkscape:window-y="28"
     inkscape:window-maximized="1" />
  <metadata
     id="metadata5">
    <rdf:RDF>
      <cc:Work
         rdf:about="">
        <dc:format>image/svg+xml</dc:format>
        <dc:type
           rdf:resource="http://purl.org/dc/dcmitype/StillImage" />
        <dc:title></dc:title>
      </cc:Work>
    </rdf:RDF>
  </metadata>
  <g
     inkscape:label="Layer 1"
     inkscape:groupmode="layer"
     id="layer1"
     transform="translate(-50.270833,-69.954536)">
    <path
       style="opacity:1;fill:#afff4b;fill-opacity:1;stroke:none;stroke-width:0.1;stroke-miterlimit:4;stroke-dasharray:none;stroke-opacity:1"
       d="M 102.80975,76.110599 A 52.538688,52.538688 0 0 0 50.270833,128.64951 52.538688,52.538688 0 0 0 69.512552,169.25065 H 136.09867 A 52.538688,52.538688 0 0 0 155.34814,128.64951 52.538688,52.538688 0 0 0 102.80975,76.110599 Z"
       id="path1262"
       inkscape:connector-curvature="0" />
    <g
       id="g1163"
       transform="matrix(-1,0,0,0.81861953,205.53026,19.632785)">
      <path
         style="fill:#fcfcfc;fill-opacity:1;stroke:none;stroke-width:0.26458332px;stroke-linecap:butt;stroke-linejoin:miter;stroke-opacity:1"
         d="M 102.76513,117.92942 H 89.034161 v 15.59588 h -2.666603 v 49.51488 h 16.397572 z"
         id="path1151"
         inkscape:connector-curvature="0" />
      <path
         style="fill:#8ef2ff;fill-opacity:1;stroke:none;stroke-width:0.26458332px;stroke-linecap:butt;stroke-linejoin:miter;stroke-opacity:1"
         d="m 102.76513,128.04464 c 0,0 -4.15488,0.18899 -4.15488,3.16555 0,2.97656 0,6.37835 0,6.37835 h 4.15488 z"
         id="path1153"
         inkscape:connector-curvature="0" />
      <path
         style="fill:#dadada;fill-opacity:1;stroke:none;stroke-width:0.26458332px;stroke-linecap:butt;stroke-linejoin:miter;stroke-opacity:1"
         d="m 90.690662,112.50037 v 5.42905 h 12.074468 v -5.61266 z"
         id="path1155"
         inkscape:connector-curvature="0" />
      <path
         style="fill:#9d9d9d;fill-opacity:1;stroke:none;stroke-width:0.26458332px;stroke-linecap:butt;stroke-linejoin:miter;stroke-opacity:1"
         d="M 102.76513,108.2409 H 89.93471 l 0.755952,4.25947 h 12.074468 z"
         id="path1157"
         inkscape:connector-curvature="0" />
      <path
         style="fill:none;stroke:#000000;stroke-width:0.26458332px;stroke-linecap:butt;stroke-linejoin:miter;stroke-opacity:1"
         d="m 102.76513,116.59307 c 0,0 -1.87089,4.07586 -4.94449,5.07812 -3.0736,1.00226 -7.48355,4.54358 -7.48355,10.15624"
         id="path1159"
         inkscape:connector-curvature="0" />
      <path
         inkscape:connector-curvature="0"
         id="path1161"
         d="m 102.79661,120.53934 c 0,0 -1.43973,2.63861 -3.805008,3.28744 -2.365281,0.64883 -5.758946,2.94139 -5.758946,6.57487"
         style="fill:none;stroke:#000000;stroke-width:0.18674856px;stroke-linecap:butt;stroke-linejoin:miter;stroke-opacity:1" />
    </g>
    <g
       id="g942">
      <path
         inkscape:connector-curvature="0"
         id="path826"
         d="m 102.76513,69.954536 v 9.888971"
         style="fill:none;stroke:#000000;stroke-width:0.26458332px;stroke-linecap:butt;stroke-linejoin:miter;stroke-opacity:1" />
      <path
         inkscape:connector-curvature="0"
         id="path828"
         d="m 100.22607,72.894501 h 5.47903"
         style="fill:none;stroke:#000000;stroke-width:0.26458332px;stroke-linecap:butt;stroke-linejoin:miter;stroke-opacity:1" />
      <g
         id="g919">
        <g
           id="g881">
          <path
             style="fill:#ef6435;fill-opacity:1;stroke:none;stroke-width:0.44458893px;stroke-linecap:butt;stroke-linejoin:miter;stroke-opacity:1"
             d="M 91.339357,92.770703 V 108.2409 h 7.149462 V 92.204724 Z"
             id="path857"
             inkscape:connector-curvature="0" />
          <path
             inkscape:connector-curvature="0"
             id="path834"
             d="m 102.76513,79.843507 c 0,0 -10.089421,1.269532 -10.089421,10.824417 9.020341,0 10.089421,0 10.089421,0 z"
             style="fill:#e39f31;fill-opacity:1;stroke:none;stroke-width:0.26458332px;stroke-linecap:butt;stroke-linejoin:miter;stroke-opacity:1" />
          <path
             inkscape:connector-curvature="0"
             id="path846"
             d="m 91.339357,92.405175 v 5.479026 h 7.149462 v -5.679477 z"
             style="fill:#f7e9d1;fill-opacity:1;stroke:none;stroke-width:0.26458332px;stroke-linecap:butt;stroke-linejoin:miter;stroke-opacity:1" />
          <path
             inkscape:connector-curvature="0"
             id="path844"
             d="m 90.804822,90.667924 h 11.960308 v 1.737251 H 91.339359 Z"
             style="fill:#afaa9f;fill-opacity:1;stroke:none;stroke-width:0.26458332px;stroke-linecap:butt;stroke-linejoin:miter;stroke-opacity:1" />
          <path
             inkscape:connector-curvature="0"
             id="path859"
             d="M 98.488819,92.770703 V 108.2409 h 4.276311 V 92.204724 Z"
             style="fill:#ef6435;fill-opacity:1;stroke:none;stroke-width:0.34384018px;stroke-linecap:butt;stroke-linejoin:miter;stroke-opacity:1" />
          <path
             style="fill:#f7e9d1;fill-opacity:1;stroke:none;stroke-width:0.20462582px;stroke-linecap:butt;stroke-linejoin:miter;stroke-opacity:1"
             d="m 98.488819,92.405175 v 5.479026 h 4.276311 v -5.679477 z"
             id="path861"
             inkscape:connector-curvature="0" />
          <path
             inkscape:connector-curvature="0"
             id="path865"
             d="m 96.796001,95.136829 c -0.396468,-0.0201 -1.982306,0.07463 -1.982306,2.88096 0,3.207231 0.06718,8.619631 0.06718,8.619631 h 2.004528 2.004531 c 0,0 0.06666,-5.4124 0.06666,-8.619631 0,-3.207234 -2.071193,-2.873211 -2.071193,-2.873211 0,0 -0.03276,-0.0049 -0.0894,-0.0077 z"
             style="fill:#66b2c6;fill-opacity:1;stroke:none;stroke-width:0.26458332px;stroke-linecap:butt;stroke-linejoin:miter;stroke-opacity:1" />
          <path
             style="fill:#66b2c6;fill-opacity:1;stroke:none;stroke-width:0.26458332px;stroke-linecap:butt;stroke-linejoin:miter;stroke-opacity:1"
             d="m 102.67573,95.136829 c -0.39647,-0.0201 -1.98231,0.07463 -1.98231,2.88096 0,3.207231 0.0672,8.619631 0.0672,8.619631 h 2.00453 2.00453 c 0,0 0.0667,-5.4124 0.0667,-8.619631 0,-3.207234 -2.07119,-2.873211 -2.07119,-2.873211 0,0 -0.0328,-0.0049 -0.0894,-0.0077 z"
             id="path871"
             inkscape:connector-curvature="0" />
        </g>
        <g
           id="g899"
           transform="matrix(-1,0,0,1,205.53026,0)">
          <path
             inkscape:connector-curvature="0"
             id="path883"
             d="M 91.339357,92.770703 V 108.2409 h 7.149462 V 92.204724 Z"
             style="fill:#ef6435;fill-opacity:1;stroke:none;stroke-width:0.44458893px;stroke-linecap:butt;stroke-linejoin:miter;stroke-opacity:1" />
          <path
             style="fill:#e39f31;fill-opacity:1;stroke:none;stroke-width:0.26458332px;stroke-linecap:butt;stroke-linejoin:miter;stroke-opacity:1"
             d="m 102.76513,79.843507 c 0,0 -10.089421,1.269532 -10.089421,10.824417 9.020341,0 10.089421,0 10.089421,0 z"
             id="path885"
             inkscape:connector-curvature="0" />
          <path
             style="fill:#f7e9d1;fill-opacity:1;stroke:none;stroke-width:0.26458332px;stroke-linecap:butt;stroke-linejoin:miter;stroke-opacity:1"
             d="m 91.339357,92.405175 v 5.479026 h 7.149462 v -5.679477 z"
             id="path887"
             inkscape:connector-curvature="0" />
          <path
             style="fill:#afaa9f;fill-opacity:1;stroke:none;stroke-width:0.26458332px;stroke-linecap:butt;stroke-linejoin:miter;stroke-opacity:1"
             d="m 90.804822,90.667924 h 11.960308 v 1.737251 H 91.339359 Z"
             id="path889"
             inkscape:connector-curvature="0" />
          <path
             style="fill:#ef6435;fill-opacity:1;stroke:none;stroke-width:0.34384018px;stroke-linecap:butt;stroke-linejoin:miter;stroke-opacity:1"
             d="M 98.488819,92.770703 V 108.2409 h 4.276311 V 92.204724 Z"
             id="path891"
             inkscape:connector-curvature="0" />
          <path
             inkscape:connector-curvature="0"
             id="path893"
             d="m 98.488819,92.405175 v 5.479026 h 4.276311 v -5.679477 z"
             style="fill:#f7e9d1;fill-opacity:1;stroke:none;stroke-width:0.20462582px;stroke-linecap:butt;stroke-linejoin:miter;stroke-opacity:1" />
          <path
             style="fill:#66b2c6;fill-opacity:1;stroke:none;stroke-width:0.26458332px;stroke-linecap:butt;stroke-linejoin:miter;stroke-opacity:1"
             d="m 96.796001,95.136829 c -0.396468,-0.0201 -1.982306,0.07463 -1.982306,2.88096 0,3.207231 0.06718,8.619631 0.06718,8.619631 h 2.004528 2.004531 c 0,0 0.06666,-5.4124 0.06666,-8.619631 0,-3.207234 -2.071193,-2.873211 -2.071193,-2.873211 0,0 -0.03276,-0.0049 -0.0894,-0.0077 z"
             id="path895"
             inkscape:connector-curvature="0" />
          <path
             inkscape:connector-curvature="0"
             id="path897"
             d="m 102.67573,95.136829 c -0.39647,-0.0201 -1.98231,0.07463 -1.98231,2.88096 0,3.207231 0.0672,8.619631 0.0672,8.619631 h 2.00453 2.00453 c 0,0 0.0667,-5.4124 0.0667,-8.619631 0,-3.207234 -2.07119,-2.873211 -2.07119,-2.873211 0,0 -0.0328,-0.0049 -0.0894,-0.0077 z"
             style="fill:#66b2c6;fill-opacity:1;stroke:none;stroke-width:0.26458332px;stroke-linecap:butt;stroke-linejoin:miter;stroke-opacity:1" />
        </g>
      </g>
    </g>
    <g
       id="g986"
       transform="matrix(0.6943513,0,0,0.6943513,6.5263641,43.757922)">
      <path
         style="fill:none;stroke:#000000;stroke-width:0.26458332px;stroke-linecap:butt;stroke-linejoin:miter;stroke-opacity:1"
         d="m 102.76513,69.954536 v 9.888971"
         id="path944"
         inkscape:connector-curvature="0" />
      <path
         style="fill:none;stroke:#000000;stroke-width:0.26458332px;stroke-linecap:butt;stroke-linejoin:miter;stroke-opacity:1"
         d="m 100.22607,72.894501 h 5.47903"
         id="path946"
         inkscape:connector-curvature="0" />
      <g
         id="g984">
        <g
           id="g964">
          <path
             inkscape:connector-curvature="0"
             id="path948"
             d="M 91.339357,92.770703 V 108.2409 h 7.149462 V 92.204724 Z"
             style="fill:#ef6435;fill-opacity:1;stroke:none;stroke-width:0.44458893px;stroke-linecap:butt;stroke-linejoin:miter;stroke-opacity:1" />
          <path
             style="fill:#e39f31;fill-opacity:1;stroke:none;stroke-width:0.26458332px;stroke-linecap:butt;stroke-linejoin:miter;stroke-opacity:1"
             d="m 102.76513,79.843507 c 0,0 -10.089421,1.269532 -10.089421,10.824417 9.020341,0 10.089421,0 10.089421,0 z"
             id="path950"
             inkscape:connector-curvature="0" />
          <path
             style="fill:#f7e9d1;fill-opacity:1;stroke:none;stroke-width:0.26458332px;stroke-linecap:butt;stroke-linejoin:miter;stroke-opacity:1"
             d="m 91.339357,92.405175 v 5.479026 h 7.149462 v -5.679477 z"
             id="path952"
             inkscape:connector-curvature="0" />
          <path
             style="fill:#afaa9f;fill-opacity:1;stroke:none;stroke-width:0.26458332px;stroke-linecap:butt;stroke-linejoin:miter;stroke-opacity:1"
             d="m 90.804822,90.667924 h 11.960308 v 1.737251 H 91.339359 Z"
             id="path954"
             inkscape:connector-curvature="0" />
          <path
             style="fill:#ef6435;fill-opacity:1;stroke:none;stroke-width:0.34384018px;stroke-linecap:butt;stroke-linejoin:miter;stroke-opacity:1"
             d="M 98.488819,92.770703 V 108.2409 h 4.276311 V 92.204724 Z"
             id="path956"
             inkscape:connector-curvature="0" />
          <path
             inkscape:connector-curvature="0"
             id="path958"
             d="m 98.488819,92.405175 v 5.479026 h 4.276311 v -5.679477 z"
             style="fill:#f7e9d1;fill-opacity:1;stroke:none;stroke-width:0.20462582px;stroke-linecap:butt;stroke-linejoin:miter;stroke-opacity:1" />
          <path
             style="fill:#66b2c6;fill-opacity:1;stroke:none;stroke-width:0.26458332px;stroke-linecap:butt;stroke-linejoin:miter;stroke-opacity:1"
             d="m 96.796001,95.136829 c -0.396468,-0.0201 -1.982306,0.07463 -1.982306,2.88096 0,3.207231 0.06718,8.619631 0.06718,8.619631 h 2.004528 2.004531 c 0,0 0.06666,-5.4124 0.06666,-8.619631 0,-3.207234 -2.071193,-2.873211 -2.071193,-2.873211 0,0 -0.03276,-0.0049 -0.0894,-0.0077 z"
             id="path960"
             inkscape:connector-curvature="0" />
          <path
             inkscape:connector-curvature="0"
             id="path962"
             d="m 102.67573,95.136829 c -0.39647,-0.0201 -1.98231,0.07463 -1.98231,2.88096 0,3.207231 0.0672,8.619631 0.0672,8.619631 h 2.00453 2.00453 c 0,0 0.0667,-5.4124 0.0667,-8.619631 0,-3.207234 -2.07119,-2.873211 -2.07119,-2.873211 0,0 -0.0328,-0.0049 -0.0894,-0.0077 z"
             style="fill:#66b2c6;fill-opacity:1;stroke:none;stroke-width:0.26458332px;stroke-linecap:butt;stroke-linejoin:miter;stroke-opacity:1" />
        </g>
        <g
           transform="matrix(-1,0,0,1,205.53026,0)"
           id="g982">
          <path
             style="fill:#ef6435;fill-opacity:1;stroke:none;stroke-width:0.44458893px;stroke-linecap:butt;stroke-linejoin:miter;stroke-opacity:1"
             d="M 91.339357,92.770703 V 108.2409 h 7.149462 V 92.204724 Z"
             id="path966"
             inkscape:connector-curvature="0" />
          <path
             inkscape:connector-curvature="0"
             id="path968"
             d="m 102.76513,79.843507 c 0,0 -10.089421,1.269532 -10.089421,10.824417 9.020341,0 10.089421,0 10.089421,0 z"
             style="fill:#e39f31;fill-opacity:1;stroke:none;stroke-width:0.26458332px;stroke-linecap:butt;stroke-linejoin:miter;stroke-opacity:1" />
          <path
             inkscape:connector-curvature="0"
             id="path970"
             d="m 91.339357,92.405175 v 5.479026 h 7.149462 v -5.679477 z"
             style="fill:#f7e9d1;fill-opacity:1;stroke:none;stroke-width:0.26458332px;stroke-linecap:butt;stroke-linejoin:miter;stroke-opacity:1" />
          <path
             inkscape:connector-curvature="0"
             id="path972"
             d="m 90.804822,90.667924 h 11.960308 v 1.737251 H 91.339359 Z"
             style="fill:#afaa9f;fill-opacity:1;stroke:none;stroke-width:0.26458332px;stroke-linecap:butt;stroke-linejoin:miter;stroke-opacity:1" />
          <path
             inkscape:connector-curvature="0"
             id="path974"
             d="M 98.488819,92.770703 V 108.2409 h 4.276311 V 92.204724 Z"
             style="fill:#ef6435;fill-opacity:1;stroke:none;stroke-width:0.34384018px;stroke-linecap:butt;stroke-linejoin:miter;stroke-opacity:1" />
          <path
             style="fill:#f7e9d1;fill-opacity:1;stroke:none;stroke-width:0.20462582px;stroke-linecap:butt;stroke-linejoin:miter;stroke-opacity:1"
             d="m 98.488819,92.405175 v 5.479026 h 4.276311 v -5.679477 z"
             id="path976"
             inkscape:connector-curvature="0" />
          <path
             inkscape:connector-curvature="0"
             id="path978"
             d="m 96.796001,95.136829 c -0.396468,-0.0201 -1.982306,0.07463 -1.982306,2.88096 0,3.207231 0.06718,8.619631 0.06718,8.619631 h 2.004528 2.004531 c 0,0 0.06666,-5.4124 0.06666,-8.619631 0,-3.207234 -2.071193,-2.873211 -2.071193,-2.873211 0,0 -0.03276,-0.0049 -0.0894,-0.0077 z"
             style="fill:#66b2c6;fill-opacity:1;stroke:none;stroke-width:0.26458332px;stroke-linecap:butt;stroke-linejoin:miter;stroke-opacity:1" />
          <path
             style="fill:#66b2c6;fill-opacity:1;stroke:none;stroke-width:0.26458332px;stroke-linecap:butt;stroke-linejoin:miter;stroke-opacity:1"
             d="m 102.67573,95.136829 c -0.39647,-0.0201 -1.98231,0.07463 -1.98231,2.88096 0,3.207231 0.0672,8.619631 0.0672,8.619631 h 2.00453 2.00453 c 0,0 0.0667,-5.4124 0.0667,-8.619631 0,-3.207234 -2.07119,-2.873211 -2.07119,-2.873211 0,0 -0.0328,-0.0049 -0.0894,-0.0077 z"
             id="path980"
             inkscape:connector-curvature="0" />
        </g>
      </g>
    </g>
    <g
       transform="matrix(0.6943513,0,0,0.6943513,56.230233,43.757922)"
       id="g1030">
      <path
         inkscape:connector-curvature="0"
         id="path988"
         d="m 102.76513,69.954536 v 9.888971"
         style="fill:none;stroke:#000000;stroke-width:0.26458332px;stroke-linecap:butt;stroke-linejoin:miter;stroke-opacity:1" />
      <path
         inkscape:connector-curvature="0"
         id="path990"
         d="m 100.22607,72.894501 h 5.47903"
         style="fill:none;stroke:#000000;stroke-width:0.26458332px;stroke-linecap:butt;stroke-linejoin:miter;stroke-opacity:1" />
      <g
         id="g1028">
        <g
           id="g1008">
          <path
             style="fill:#ef6435;fill-opacity:1;stroke:none;stroke-width:0.44458893px;stroke-linecap:butt;stroke-linejoin:miter;stroke-opacity:1"
             d="M 91.339357,92.770703 V 108.2409 h 7.149462 V 92.204724 Z"
             id="path992"
             inkscape:connector-curvature="0" />
          <path
             inkscape:connector-curvature="0"
             id="path994"
             d="m 102.76513,79.843507 c 0,0 -10.089421,1.269532 -10.089421,10.824417 9.020341,0 10.089421,0 10.089421,0 z"
             style="fill:#e39f31;fill-opacity:1;stroke:none;stroke-width:0.26458332px;stroke-linecap:butt;stroke-linejoin:miter;stroke-opacity:1" />
          <path
             inkscape:connector-curvature="0"
             id="path996"
             d="m 91.339357,92.405175 v 5.479026 h 7.149462 v -5.679477 z"
             style="fill:#f7e9d1;fill-opacity:1;stroke:none;stroke-width:0.26458332px;stroke-linecap:butt;stroke-linejoin:miter;stroke-opacity:1" />
          <path
             inkscape:connector-curvature="0"
             id="path998"
             d="m 90.804822,90.667924 h 11.960308 v 1.737251 H 91.339359 Z"
             style="fill:#afaa9f;fill-opacity:1;stroke:none;stroke-width:0.26458332px;stroke-linecap:butt;stroke-linejoin:miter;stroke-opacity:1" />
          <path
             inkscape:connector-curvature="0"
             id="path1000"
             d="M 98.488819,92.770703 V 108.2409 h 4.276311 V 92.204724 Z"
             style="fill:#ef6435;fill-opacity:1;stroke:none;stroke-width:0.34384018px;stroke-linecap:butt;stroke-linejoin:miter;stroke-opacity:1" />
          <path
             style="fill:#f7e9d1;fill-opacity:1;stroke:none;stroke-width:0.20462582px;stroke-linecap:butt;stroke-linejoin:miter;stroke-opacity:1"
             d="m 98.488819,92.405175 v 5.479026 h 4.276311 v -5.679477 z"
             id="path1002"
             inkscape:connector-curvature="0" />
          <path
             inkscape:connector-curvature="0"
             id="path1004"
             d="m 96.796001,95.136829 c -0.396468,-0.0201 -1.982306,0.07463 -1.982306,2.88096 0,3.207231 0.06718,8.619631 0.06718,8.619631 h 2.004528 2.004531 c 0,0 0.06666,-5.4124 0.06666,-8.619631 0,-3.207234 -2.071193,-2.873211 -2.071193,-2.873211 0,0 -0.03276,-0.0049 -0.0894,-0.0077 z"
             style="fill:#66b2c6;fill-opacity:1;stroke:none;stroke-width:0.26458332px;stroke-linecap:butt;stroke-linejoin:miter;stroke-opacity:1" />
          <path
             style="fill:#66b2c6;fill-opacity:1;stroke:none;stroke-width:0.26458332px;stroke-linecap:butt;stroke-linejoin:miter;stroke-opacity:1"
             d="m 102.67573,95.136829 c -0.39647,-0.0201 -1.98231,0.07463 -1.98231,2.88096 0,3.207231 0.0672,8.619631 0.0672,8.619631 h 2.00453 2.00453 c 0,0 0.0667,-5.4124 0.0667,-8.619631 0,-3.207234 -2.07119,-2.873211 -2.07119,-2.873211 0,0 -0.0328,-0.0049 -0.0894,-0.0077 z"
             id="path1006"
             inkscape:connector-curvature="0" />
        </g>
        <g
           id="g1026"
           transform="matrix(-1,0,0,1,205.53026,0)">
          <path
             inkscape:connector-curvature="0"
             id="path1010"
             d="M 91.339357,92.770703 V 108.2409 h 7.149462 V 92.204724 Z"
             style="fill:#ef6435;fill-opacity:1;stroke:none;stroke-width:0.44458893px;stroke-linecap:butt;stroke-linejoin:miter;stroke-opacity:1" />
          <path
             style="fill:#e39f31;fill-opacity:1;stroke:none;stroke-width:0.26458332px;stroke-linecap:butt;stroke-linejoin:miter;stroke-opacity:1"
             d="m 102.76513,79.843507 c 0,0 -10.089421,1.269532 -10.089421,10.824417 9.020341,0 10.089421,0 10.089421,0 z"
             id="path1012"
             inkscape:connector-curvature="0" />
          <path
             style="fill:#f7e9d1;fill-opacity:1;stroke:none;stroke-width:0.26458332px;stroke-linecap:butt;stroke-linejoin:miter;stroke-opacity:1"
             d="m 91.339357,92.405175 v 5.479026 h 7.149462 v -5.679477 z"
             id="path1014"
             inkscape:connector-curvature="0" />
          <path
             style="fill:#afaa9f;fill-opacity:1;stroke:none;stroke-width:0.26458332px;stroke-linecap:butt;stroke-linejoin:miter;stroke-opacity:1"
             d="m 90.804822,90.667924 h 11.960308 v 1.737251 H 91.339359 Z"
             id="path1016"
             inkscape:connector-curvature="0" />
          <path
             style="fill:#ef6435;fill-opacity:1;stroke:none;stroke-width:0.34384018px;stroke-linecap:butt;stroke-linejoin:miter;stroke-opacity:1"
             d="M 98.488819,92.770703 V 108.2409 h 4.276311 V 92.204724 Z"
             id="path1018"
             inkscape:connector-curvature="0" />
          <path
             inkscape:connector-curvature="0"
             id="path1020"
             d="m 98.488819,92.405175 v 5.479026 h 4.276311 v -5.679477 z"
             style="fill:#f7e9d1;fill-opacity:1;stroke:none;stroke-width:0.20462582px;stroke-linecap:butt;stroke-linejoin:miter;stroke-opacity:1" />
          <path
             style="fill:#66b2c6;fill-opacity:1;stroke:none;stroke-width:0.26458332px;stroke-linecap:butt;stroke-linejoin:miter;stroke-opacity:1"
             d="m 96.796001,95.136829 c -0.396468,-0.0201 -1.982306,0.07463 -1.982306,2.88096 0,3.207231 0.06718,8.619631 0.06718,8.619631 h 2.004528 2.004531 c 0,0 0.06666,-5.4124 0.06666,-8.619631 0,-3.207234 -2.071193,-2.873211 -2.071193,-2.873211 0,0 -0.03276,-0.0049 -0.0894,-0.0077 z"
             id="path1022"
             inkscape:connector-curvature="0" />
          <path
             inkscape:connector-curvature="0"
             id="path1024"
             d="m 102.67573,95.136829 c -0.39647,-0.0201 -1.98231,0.07463 -1.98231,2.88096 0,3.207231 0.0672,8.619631 0.0672,8.619631 h 2.00453 2.00453 c 0,0 0.0667,-5.4124 0.0667,-8.619631 0,-3.207234 -2.07119,-2.873211 -2.07119,-2.873211 0,0 -0.0328,-0.0049 -0.0894,-0.0077 z"
             style="fill:#66b2c6;fill-opacity:1;stroke:none;stroke-width:0.26458332px;stroke-linecap:butt;stroke-linejoin:miter;stroke-opacity:1" />
        </g>
      </g>
    </g>
    <g
       id="g1149"
       transform="matrix(1,0,0,0.80870635,0,21.447296)">
      <path
         inkscape:connector-curvature="0"
         id="path1135"
         d="M 102.76513,117.92942 H 89.034161 v 15.59588 h -2.666603 v 49.51488 h 16.397572 z"
         style="fill:#fcfcfc;fill-opacity:1;stroke:none;stroke-width:0.26458332px;stroke-linecap:butt;stroke-linejoin:miter;stroke-opacity:1" />
      <path
         inkscape:connector-curvature="0"
         id="path1141"
         d="m 102.76513,128.04464 c 0,0 -4.15488,0.18899 -4.15488,3.16555 0,2.97656 0,6.37835 0,6.37835 h 4.15488 z"
         style="fill:#8ef2ff;fill-opacity:1;stroke:none;stroke-width:0.26458332px;stroke-linecap:butt;stroke-linejoin:miter;stroke-opacity:1" />
      <path
         inkscape:connector-curvature="0"
         id="path1133"
         d="m 90.690662,112.50037 v 5.42905 h 12.074468 v -5.61266 z"
         style="fill:#dadada;fill-opacity:1;stroke:none;stroke-width:0.26458332px;stroke-linecap:butt;stroke-linejoin:miter;stroke-opacity:1" />
      <path
         inkscape:connector-curvature="0"
         id="path1131"
         d="M 102.76513,108.2409 H 89.93471 l 0.755952,4.25947 h 12.074468 z"
         style="fill:#9d9d9d;fill-opacity:1;stroke:none;stroke-width:0.26458332px;stroke-linecap:butt;stroke-linejoin:miter;stroke-opacity:1" />
      <path
         inkscape:connector-curvature="0"
         id="path1137"
         d="m 102.76513,116.59307 c 0,0 -1.87089,4.07586 -4.94449,5.07812 -3.0736,1.00226 -7.48355,4.54358 -7.48355,10.15624"
         style="fill:none;stroke:#000000;stroke-width:0.26458332px;stroke-linecap:butt;stroke-linejoin:miter;stroke-opacity:1" />
      <path
         style="fill:none;stroke:#000000;stroke-width:0.18674856px;stroke-linecap:butt;stroke-linejoin:miter;stroke-opacity:1"
         d="m 102.79661,120.53934 c 0,0 -1.43973,2.63861 -3.805008,3.28744 -2.365281,0.64883 -5.758946,2.94139 -5.758946,6.57487"
         id="path1139"
         inkscape:connector-curvature="0" />
    </g>
    <path
       inkscape:connector-curvature="0"
       id="path1032"
       d="m 102.76513,122.66623 v 11.60158"
       style="fill:none;stroke:#000000;stroke-width:0.31040487px;stroke-linecap:butt;stroke-linejoin:miter;stroke-opacity:1" />
    <path
       inkscape:connector-curvature="0"
       id="path1034"
       d="m 99.786346,126.11534 h 6.427904"
       style="fill:none;stroke:#000000;stroke-width:0.31040487px;stroke-linecap:butt;stroke-linejoin:miter;stroke-opacity:1" />
    <path
       style="fill:#ffe8e0;fill-opacity:1;stroke:none;stroke-width:0.52158451px;stroke-linecap:butt;stroke-linejoin:miter;stroke-opacity:1"
       d="m 89.360598,149.43378 v 18.14939 h 8.387633 v -18.81338 z"
       id="path1036"
       inkscape:connector-curvature="0" />
    <path
       inkscape:connector-curvature="0"
       id="path1038"
       d="m 102.76513,134.26781 c 0,0 -11.836746,1.48939 -11.836746,12.69903 10.582516,0 11.836746,0 11.836746,0 z"
       style="fill:#e39f31;fill-opacity:1;stroke:none;stroke-width:0.31040487px;stroke-linecap:butt;stroke-linejoin:miter;stroke-opacity:1" />
    <path
       inkscape:connector-curvature="0"
       id="path1040"
       d="m 89.360598,149.00495 v 6.42791 h 8.387633 v -6.66307 z"
       style="fill:#f7e9d1;fill-opacity:1;stroke:none;stroke-width:0.31040487px;stroke-linecap:butt;stroke-linejoin:miter;stroke-opacity:1" />
    <path
       inkscape:connector-curvature="0"
       id="path1042"
       d="m 88.73349,146.96684 h 14.03164 v 2.03811 H 89.3606 Z"
       style="fill:#afaa9f;fill-opacity:1;stroke:none;stroke-width:0.31040487px;stroke-linecap:butt;stroke-linejoin:miter;stroke-opacity:1" />
    <path
       inkscape:connector-curvature="0"
       id="path1044"
       d="m 97.748231,149.43378 v 18.14939 h 5.016899 v -18.81338 z"
       style="fill:#ffe8e0;fill-opacity:1;stroke:none;stroke-width:0.40338773px;stroke-linecap:butt;stroke-linejoin:miter;stroke-opacity:1" />
    <path
       style="fill:#f7e9d1;fill-opacity:1;stroke:none;stroke-width:0.2400637px;stroke-linecap:butt;stroke-linejoin:miter;stroke-opacity:1"
       d="m 97.748231,149.00495 v 6.42791 h 5.016899 v -6.66307 z"
       id="path1046"
       inkscape:connector-curvature="0" />
    <path
       inkscape:connector-curvature="0"
       id="path1048"
       d="m 95.762244,152.20968 c -0.46513,-0.0236 -2.325609,0.0876 -2.325609,3.3799 0,3.76267 0.07881,10.11241 0.07881,10.11241 h 2.35168 2.351684 c 0,0 0.0782,-6.34974 0.0782,-10.11241 0,-3.76268 -2.42989,-3.37081 -2.42989,-3.37081 0,0 -0.03843,-0.006 -0.104883,-0.009 z"
       style="fill:#66b2c6;fill-opacity:1;stroke:none;stroke-width:0.31040487px;stroke-linecap:butt;stroke-linejoin:miter;stroke-opacity:1" />
    <path
       style="fill:#66b2c6;fill-opacity:1;stroke:none;stroke-width:0.31040487px;stroke-linecap:butt;stroke-linejoin:miter;stroke-opacity:1"
       d="m 102.66025,152.20968 c -0.46514,-0.0236 -2.32562,0.0876 -2.32562,3.3799 0,3.76267 0.0788,10.11241 0.0788,10.11241 h 2.35168 2.35169 c 0,0 0.0782,-6.34974 0.0782,-10.11241 0,-3.76268 -2.42989,-3.37081 -2.42989,-3.37081 0,0 -0.0385,-0.006 -0.10488,-0.009 z"
       id="path1050"
       inkscape:connector-curvature="0" />
    <path
       inkscape:connector-curvature="0"
       id="path1054"
       d="m 116.16967,149.43378 v 18.14939 h -8.38764 v -18.81338 z"
       style="fill:#ffe8e0;fill-opacity:1;stroke:none;stroke-width:0.52158451px;stroke-linecap:butt;stroke-linejoin:miter;stroke-opacity:1" />
    <path
       style="fill:#e39f31;fill-opacity:1;stroke:none;stroke-width:0.31040487px;stroke-linecap:butt;stroke-linejoin:miter;stroke-opacity:1"
       d="m 102.76513,134.26781 c 0,0 11.83675,1.48939 11.83675,12.69903 -10.58252,0 -11.83675,0 -11.83675,0 z"
       id="path1056"
       inkscape:connector-curvature="0" />
    <path
       style="fill:#f7e9d1;fill-opacity:1;stroke:none;stroke-width:0.31040487px;stroke-linecap:butt;stroke-linejoin:miter;stroke-opacity:1"
       d="m 116.16967,149.00495 v 6.42791 h -8.38764 v -6.66307 z"
       id="path1058"
       inkscape:connector-curvature="0" />
    <path
       style="fill:#afaa9f;fill-opacity:1;stroke:none;stroke-width:0.31040487px;stroke-linecap:butt;stroke-linejoin:miter;stroke-opacity:1"
       d="m 116.79677,146.96684 h -14.03164 v 2.03811 h 13.40453 z"
       id="path1060"
       inkscape:connector-curvature="0" />
    <path
       style="fill:#ffe8e0;fill-opacity:1;stroke:none;stroke-width:0.40338773px;stroke-linecap:butt;stroke-linejoin:miter;stroke-opacity:1"
       d="m 107.78203,149.43378 v 18.14939 h -5.0169 v -18.81338 z"
       id="path1062"
       inkscape:connector-curvature="0" />
    <path
       inkscape:connector-curvature="0"
       id="path1064"
       d="m 107.78203,149.00495 v 6.42791 h -5.0169 v -6.66307 z"
       style="fill:#f7e9d1;fill-opacity:1;stroke:none;stroke-width:0.2400637px;stroke-linecap:butt;stroke-linejoin:miter;stroke-opacity:1" />
    <path
       style="fill:#66b2c6;fill-opacity:1;stroke:none;stroke-width:0.31040487px;stroke-linecap:butt;stroke-linejoin:miter;stroke-opacity:1"
       d="m 109.76802,152.20968 c 0.46513,-0.0236 2.32561,0.0876 2.32561,3.3799 0,3.76267 -0.0788,10.11241 -0.0788,10.11241 h -2.35168 -2.35168 c 0,0 -0.0782,-6.34974 -0.0782,-10.11241 0,-3.76268 2.42989,-3.37081 2.42989,-3.37081 0,0 0.0384,-0.006 0.10488,-0.009 z"
       id="path1066"
       inkscape:connector-curvature="0" />
    <path
       inkscape:connector-curvature="0"
       id="path1068"
       d="m 102.87002,152.20968 c 0.46513,-0.0236 2.32561,0.0876 2.32561,3.3799 0,3.76267 -0.0788,10.11241 -0.0788,10.11241 h -2.35168 -2.35168 c 0,0 -0.0783,-6.34974 -0.0783,-10.11241 0,-3.76268 2.42988,-3.37081 2.42988,-3.37081 0,0 0.0385,-0.006 0.10489,-0.009 z"
       style="fill:#66b2c6;fill-opacity:1;stroke:none;stroke-width:0.31040487px;stroke-linecap:butt;stroke-linejoin:miter;stroke-opacity:1" />
    <rect
       y="118.91513"
       x="69.947968"
       height="14.610168"
       width="3.323385"
       id="rect1210"
       style="opacity:1;fill:#d0c9b7;fill-opacity:1;stroke:none;stroke-width:0.08997858;stroke-miterlimit:4;stroke-dasharray:none;stroke-opacity:1" />
    <rect
       style="opacity:1;fill:#ffffff;fill-opacity:1;stroke:none;stroke-width:0.2;stroke-miterlimit:4;stroke-dasharray:none;stroke-opacity:1"
       id="rect1169"
       width="16.419592"
       height="14.610168"
       x="69.947968"
       y="118.91513" />
    <rect
       style="opacity:1;fill:#d0c9b7;fill-opacity:1;stroke:none;stroke-width:0.08997858;stroke-miterlimit:4;stroke-dasharray:none;stroke-opacity:1"
       id="rect1212"
       width="3.323385"
       height="14.610168"
       x="83.044174"
       y="118.91513" />
    <rect
       style="opacity:1;fill:#d0c9b7;fill-opacity:1;stroke:none;stroke-width:0.2;stroke-miterlimit:4;stroke-dasharray:none;stroke-opacity:1"
       id="rect1167"
       width="18.568081"
       height="3.5907736"
       x="68.697174"
       y="118.26451" />
    <path
       style="fill:#e39f31;fill-opacity:1;stroke:none;stroke-width:0.31040487px;stroke-linecap:butt;stroke-linejoin:miter;stroke-opacity:1"
       d="m 69.623709,139.6132 c 0,0 -11.836746,1.48939 -11.836746,12.69903 10.582516,0 11.836746,0 11.836746,0 z"
       id="path1218"
       inkscape:connector-curvature="0" />
    <rect
       y="133.5253"
       x="68.456833"
       height="35.398857"
       width="20.57733"
       id="rect1171"
       style="opacity:1;fill:#e7e7e7;fill-opacity:1;stroke:none;stroke-width:0.34850606;stroke-miterlimit:4;stroke-dasharray:none;stroke-opacity:1" />
    <g
       id="g1208"
       style="stroke:none">
      <path
         id="path1189"
         transform="scale(0.26458333)"
         d="m 295,514.05469 c 0,0 -13.20312,2.865 -13.20312,8.95117 v 102.0332 H 295 308.20312 V 523.00586 C 308.20313,516.91969 295,514.05469 295,514.05469 Z"
         style="fill:#ffffff;fill-opacity:1;stroke:none;stroke-width:0.43514773;stroke-linecap:butt;stroke-linejoin:miter;stroke-miterlimit:4;stroke-dasharray:none;stroke-opacity:1"
         inkscape:connector-curvature="0" />
      <g
         id="g1181"
         style="stroke:none">
        <path
           style="fill:#66b2c6;fill-opacity:1;stroke:none;stroke-width:0.14931819px;stroke-linecap:butt;stroke-linejoin:miter;stroke-opacity:1"
           d="m 76.140254,143.25819 c 0,0 -1.395463,0.57062 -1.395463,1.78319 0,1.21257 0,20.32841 0,20.32841 h 1.395463 z"
           id="path1175"
           inkscape:connector-curvature="0" />
        <path
           inkscape:connector-curvature="0"
           id="path1177"
           d="m 76.140254,143.25819 c 0,0 1.395463,0.57062 1.395463,1.78319 0,1.21257 0,20.32841 0,20.32841 h -1.395463 z"
           style="fill:#66b2c6;fill-opacity:1;stroke:none;stroke-width:0.14931819px;stroke-linecap:butt;stroke-linejoin:miter;stroke-opacity:1" />
      </g>
      <g
         transform="translate(3.9422255)"
         id="g1187"
         style="stroke:none">
        <path
           inkscape:connector-curvature="0"
           id="path1183"
           d="m 76.140254,143.25819 c 0,0 -1.395463,0.57062 -1.395463,1.78319 0,1.21257 0,20.32841 0,20.32841 h 1.395463 z"
           style="fill:#66b2c6;fill-opacity:1;stroke:none;stroke-width:0.14931819px;stroke-linecap:butt;stroke-linejoin:miter;stroke-opacity:1" />
        <path
           style="fill:#66b2c6;fill-opacity:1;stroke:none;stroke-width:0.14931819px;stroke-linecap:butt;stroke-linejoin:miter;stroke-opacity:1"
           d="m 76.140254,143.25819 c 0,0 1.395463,0.57062 1.395463,1.78319 0,1.21257 0,20.32841 0,20.32841 h -1.395463 z"
           id="path1185"
           inkscape:connector-curvature="0" />
      </g>
      <circle
         r="1.6704345"
         cy="139.77869"
         cx="78.109512"
         id="path1198"
         style="opacity:1;fill:#66b2c6;fill-opacity:1;stroke:none;stroke-width:0.1;stroke-miterlimit:4;stroke-dasharray:none;stroke-opacity:1" />
    </g>
    <rect
       y="118.91513"
       x="69.947968"
       height="14.610168"
       width="3.323385"
       id="rect1214"
       style="opacity:1;fill:#d0c9b7;fill-opacity:1;stroke:none;stroke-width:0.08997858;stroke-miterlimit:4;stroke-dasharray:none;stroke-opacity:1" />
    <rect
       style="opacity:1;fill:#ffffff;fill-opacity:1;stroke:none;stroke-width:0.10527437;stroke-miterlimit:4;stroke-dasharray:none;stroke-opacity:1"
       id="rect1216"
       width="8.0569868"
       height="3.5944872"
       x="74.011215"
       y="118.21355" />
    <rect
       style="opacity:1;fill:#f7e9d1;fill-opacity:1;stroke:none;stroke-width:0.1;stroke-miterlimit:4;stroke-dasharray:none;stroke-opacity:1"
       id="rect1220"
       width="10.66987"
       height="16.611935"
       x="57.786964"
       y="152.31223" />
    <path
       style="fill:#66b2c6;fill-opacity:1;stroke:none;stroke-width:0.21652532px;stroke-linecap:butt;stroke-linejoin:miter;stroke-opacity:1"
       d="m 63.253808,154.15216 c -0.324455,-0.0165 -1.622247,0.0611 -1.622247,2.35768 0,2.62468 0.05497,7.05399 0.05497,7.05399 h 1.640433 1.640435 c 0,0 0.05455,-4.42931 0.05455,-7.05399 0,-2.62469 -1.694989,-2.35133 -1.694989,-2.35133 0,0 -0.02681,-0.004 -0.07316,-0.006 z"
       id="path1222"
       inkscape:connector-curvature="0" />
    <rect
       style="opacity:1;fill:#d0c9b7;fill-opacity:1;stroke:none;stroke-width:0.08997858;stroke-miterlimit:4;stroke-dasharray:none;stroke-opacity:1"
       id="rect1224"
       width="3.323385"
       height="14.610168"
       x="-135.58229"
       y="118.91513"
       transform="scale(-1,1)" />
    <rect
       y="118.91513"
       x="-135.58229"
       height="14.610168"
       width="16.419592"
       id="rect1226"
       style="opacity:1;fill:#ffffff;fill-opacity:1;stroke:none;stroke-width:0.2;stroke-miterlimit:4;stroke-dasharray:none;stroke-opacity:1"
       transform="scale(-1,1)" />
    <rect
       y="118.91513"
       x="-122.48608"
       height="14.610168"
       width="3.323385"
       id="rect1228"
       style="opacity:1;fill:#d0c9b7;fill-opacity:1;stroke:none;stroke-width:0.08997858;stroke-miterlimit:4;stroke-dasharray:none;stroke-opacity:1"
       transform="scale(-1,1)" />
    <rect
       y="118.26451"
       x="-136.83308"
       height="3.5907736"
       width="18.568081"
       id="rect1230"
       style="opacity:1;fill:#d0c9b7;fill-opacity:1;stroke:none;stroke-width:0.2;stroke-miterlimit:4;stroke-dasharray:none;stroke-opacity:1"
       transform="scale(-1,1)" />
    <path
       inkscape:connector-curvature="0"
       id="path1232"
       d="m 135.90655,139.6132 c 0,0 11.83675,1.48939 11.83675,12.69903 -10.58252,0 -11.83675,0 -11.83675,0 z"
       style="fill:#e39f31;fill-opacity:1;stroke:none;stroke-width:0.31040487px;stroke-linecap:butt;stroke-linejoin:miter;stroke-opacity:1" />
    <rect
       style="opacity:1;fill:#e7e7e7;fill-opacity:1;stroke:none;stroke-width:0.34850606;stroke-miterlimit:4;stroke-dasharray:none;stroke-opacity:1"
       id="rect1234"
       width="20.57733"
       height="35.398857"
       x="-137.07343"
       y="133.5253"
       transform="scale(-1,1)" />
    <g
       style="stroke:none"
       id="g1252"
       transform="matrix(-1,0,0,1,205.53026,9.2773433e-7)">
      <path
         style="fill:#ffffff;fill-opacity:1;stroke:none;stroke-width:0.43514773;stroke-linecap:butt;stroke-linejoin:miter;stroke-miterlimit:4;stroke-dasharray:none;stroke-opacity:1"
         d="m 295,514.05469 c 0,0 -13.20312,2.865 -13.20312,8.95117 v 102.0332 H 295 308.20312 V 523.00586 C 308.20313,516.91969 295,514.05469 295,514.05469 Z"
         transform="scale(0.26458333)"
         id="path1236"
         inkscape:connector-curvature="0" />
      <g
         style="stroke:none"
         id="g1242">
        <path
           inkscape:connector-curvature="0"
           id="path1238"
           d="m 76.140254,143.25819 c 0,0 -1.395463,0.57062 -1.395463,1.78319 0,1.21257 0,20.32841 0,20.32841 h 1.395463 z"
           style="fill:#66b2c6;fill-opacity:1;stroke:none;stroke-width:0.14931819px;stroke-linecap:butt;stroke-linejoin:miter;stroke-opacity:1" />
        <path
           style="fill:#66b2c6;fill-opacity:1;stroke:none;stroke-width:0.14931819px;stroke-linecap:butt;stroke-linejoin:miter;stroke-opacity:1"
           d="m 76.140254,143.25819 c 0,0 1.395463,0.57062 1.395463,1.78319 0,1.21257 0,20.32841 0,20.32841 h -1.395463 z"
           id="path1240"
           inkscape:connector-curvature="0" />
      </g>
      <g
         style="stroke:none"
         id="g1248"
         transform="translate(3.9422255)">
        <path
           style="fill:#66b2c6;fill-opacity:1;stroke:none;stroke-width:0.14931819px;stroke-linecap:butt;stroke-linejoin:miter;stroke-opacity:1"
           d="m 76.140254,143.25819 c 0,0 -1.395463,0.57062 -1.395463,1.78319 0,1.21257 0,20.32841 0,20.32841 h 1.395463 z"
           id="path1244"
           inkscape:connector-curvature="0" />
        <path
           inkscape:connector-curvature="0"
           id="path1246"
           d="m 76.140254,143.25819 c 0,0 1.395463,0.57062 1.395463,1.78319 0,1.21257 0,20.32841 0,20.32841 h -1.395463 z"
           style="fill:#66b2c6;fill-opacity:1;stroke:none;stroke-width:0.14931819px;stroke-linecap:butt;stroke-linejoin:miter;stroke-opacity:1" />
      </g>
      <circle
         style="opacity:1;fill:#66b2c6;fill-opacity:1;stroke:none;stroke-width:0.1;stroke-miterlimit:4;stroke-dasharray:none;stroke-opacity:1"
         id="circle1250"
         cx="78.109512"
         cy="139.77869"
         r="1.6704345" />
    </g>
    <rect
       style="opacity:1;fill:#d0c9b7;fill-opacity:1;stroke:none;stroke-width:0.08997858;stroke-miterlimit:4;stroke-dasharray:none;stroke-opacity:1"
       id="rect1254"
       width="3.323385"
       height="14.610168"
       x="-135.58229"
       y="118.91513"
       transform="scale(-1,1)" />
    <rect
       y="118.21355"
       x="-131.51904"
       height="3.5944872"
       width="8.0569868"
       id="rect1256"
       style="opacity:1;fill:#ffffff;fill-opacity:1;stroke:none;stroke-width:0.10527437;stroke-miterlimit:4;stroke-dasharray:none;stroke-opacity:1"
       transform="scale(-1,1)" />
    <rect
       y="152.31223"
       x="-147.7433"
       height="16.611935"
       width="10.66987"
       id="rect1258"
       style="opacity:1;fill:#f7e9d1;fill-opacity:1;stroke:none;stroke-width:0.1;stroke-miterlimit:4;stroke-dasharray:none;stroke-opacity:1"
       transform="scale(-1,1)" />
    <path
       inkscape:connector-curvature="0"
       id="path1260"
       d="m 142.27645,154.15216 c 0.32446,-0.0165 1.62225,0.0611 1.62225,2.35768 0,2.62468 -0.055,7.05399 -0.055,7.05399 h -1.64043 -1.64044 c 0,0 -0.0546,-4.42931 -0.0546,-7.05399 0,-2.62469 1.69499,-2.35133 1.69499,-2.35133 0,0 0.0268,-0.004 0.0732,-0.006 z"
       style="fill:#66b2c6;fill-opacity:1;stroke:none;stroke-width:0.21652532px;stroke-linecap:butt;stroke-linejoin:miter;stroke-opacity:1" />
  </g>
</svg>
