<?xml version="1.0" encoding="UTF-8" standalone="no"?>
<!-- Created with Inkscape (http://www.inkscape.org/) -->

<svg
   xmlns:dc="http://purl.org/dc/elements/1.1/"
   xmlns:cc="http://creativecommons.org/ns#"
   xmlns:rdf="http://www.w3.org/1999/02/22-rdf-syntax-ns#"
   xmlns:svg="http://www.w3.org/2000/svg"
   xmlns="http://www.w3.org/2000/svg"
   xmlns:sodipodi="http://sodipodi.sourceforge.net/DTD/sodipodi-0.dtd"
   xmlns:inkscape="http://www.inkscape.org/namespaces/inkscape"
   width="55.030285mm"
   height="76.225357mm"
   viewBox="0 0 55.030285 76.225357"
   version="1.1"
   id="svg8"
   inkscape:version="0.92.4 (f8dce91, 2019-08-02)"
   sodipodi:docname="lenin.svg">
  <defs
     id="defs2" />
  <sodipodi:namedview
     id="base"
     pagecolor="#ffffff"
     bordercolor="#666666"
     borderopacity="1.0"
     inkscape:pageopacity="0.0"
     inkscape:pageshadow="2"
     inkscape:zoom="1.979899"
     inkscape:cx="-51.365928"
     inkscape:cy="78.169096"
     inkscape:document-units="mm"
     inkscape:current-layer="layer2"
     showgrid="false"
     showguides="true"
     inkscape:guide-bbox="true"
     fit-margin-top="0"
     fit-margin-left="0"
     fit-margin-right="0"
     fit-margin-bottom="0"
     inkscape:window-width="1366"
     inkscape:window-height="712"
     inkscape:window-x="0"
     inkscape:window-y="28"
     inkscape:window-maximized="1"
     inkscape:snap-others="false"
     inkscape:object-nodes="false"
     inkscape:snap-nodes="true" />
  <metadata
     id="metadata5">
    <rdf:RDF>
      <cc:Work
         rdf:about="">
        <dc:format>image/svg+xml</dc:format>
        <dc:type
           rdf:resource="http://purl.org/dc/dcmitype/StillImage" />
        <dc:title />
      </cc:Work>
    </rdf:RDF>
  </metadata>
  <g
     inkscape:groupmode="layer"
     id="layer2"
     inkscape:label="Layer 2"
     transform="translate(-0.45509012,-0.41451935)">
    <path
       inkscape:connector-curvature="0"
       id="path873"
       d="m 36.639117,39.643711 11.49259,12.286132 2.27179,14.311321 0.26727,10.66598 H 28.117486 V 37.618526 Z"
       style="fill:#444444;fill-opacity:1;stroke:none;stroke-width:0.26594365px;stroke-linecap:butt;stroke-linejoin:miter;stroke-opacity:1" />
    <path
       style="fill:#444444;fill-opacity:1;stroke:none;stroke-width:0.26594365px;stroke-linecap:butt;stroke-linejoin:miter;stroke-opacity:1"
       d="M 19.431226,39.643711 7.9386367,51.929843 5.6668459,66.241164 5.3995763,76.907144 H 27.952857 V 37.618526 Z"
       id="path871"
       inkscape:connector-curvature="0" />
    <path
       inkscape:connector-curvature="0"
       id="path868"
       d="m 35.890357,38.542662 7.181548,17.207496 -6.047619,21.267693 H 27.858364 V 35.062495 Z"
       style="fill:#070000;fill-opacity:1;stroke:none;stroke-width:0.26761416px;stroke-linecap:butt;stroke-linejoin:miter;stroke-opacity:1" />
    <path
       style="fill:#070000;fill-opacity:1;stroke:none;stroke-width:0.26761416px;stroke-linecap:butt;stroke-linejoin:miter;stroke-opacity:1"
       d="m 19.920864,38.542662 -7.181548,17.207496 6.047619,21.267693 h 9.165922 V 35.062495 Z"
       id="path866"
       inkscape:connector-curvature="0" />
    <path
       id="path832"
       d="m 27.952841,6.0409257 c 3.947231,0.074565 7.344281,1.5070142 8.546998,2.3906991 1.933928,1.4209395 0.644733,2.3682572 0.644733,2.3682572 0,0 3.352347,0.59207 4.512704,1.184127 1.160357,0.592057 2.449377,6.867538 2.449377,8.643709 0,1.776173 -4.06756,5.134608 -4.06756,5.134608 0.186972,-12.153436 -5.602142,-10.936628 -5.602142,-11.528685 0,-0.592058 -4.899144,-1.894592 -5.157,-0.592065 -0.06092,0.307714 -0.570217,0.521201 -1.32711,0.682905 z"
       style="fill:#3a3a3a;fill-opacity:1;stroke:none;stroke-width:0.24463281px;stroke-linecap:butt;stroke-linejoin:miter;stroke-opacity:1"
       inkscape:connector-curvature="0" />
    <path
       style="fill:#3a3a3a;fill-opacity:1;stroke:none;stroke-width:0.24463281px;stroke-linecap:butt;stroke-linejoin:miter;stroke-opacity:1"
       d="M 27.952652,6.0409257 C 24.00542,6.1154909 20.60837,7.5479399 19.405653,8.4316248 17.471725,9.8525643 18.76092,10.799882 18.76092,10.799882 c 0,0 -3.352346,0.59207 -4.512703,1.184127 -1.160358,0.592057 -2.449378,6.867536 -2.449378,8.64371 0,1.776172 4.06756,5.134607 4.06756,5.134607 -0.186972,-12.153435 5.602143,-10.936628 5.602143,-11.528686 0,-0.592058 4.899143,-1.894591 5.157,-0.592064 0.06092,0.307714 0.570217,0.521201 1.32711,0.682905 z"
       id="path825"
       inkscape:connector-curvature="0" />
    <path
       style="fill:#d3d3d3;fill-opacity:1;stroke:none;stroke-width:0.30137473px;stroke-linecap:butt;stroke-linejoin:miter;stroke-opacity:1"
       d="m 19.079362,38.855494 8.945512,20.244894 V 35.811151 Z"
       id="path848"
       inkscape:connector-curvature="0" />
    <path
       inkscape:connector-curvature="0"
       id="path850"
       d="M 36.970387,38.855494 28.024874,59.100388 V 35.811151 Z"
       style="fill:#d3d3d3;fill-opacity:1;stroke:none;stroke-width:0.30137473px;stroke-linecap:butt;stroke-linejoin:miter;stroke-opacity:1" />
    <path
       style="fill:#c90000;fill-opacity:1;stroke:none;stroke-width:0.24153002px;stroke-linecap:butt;stroke-linejoin:miter;stroke-opacity:1"
       d="m 27.999882,47.819378 -2.739883,5.196909 2.739883,6.142154 2.740403,-6.142154 z"
       id="path881"
       inkscape:connector-curvature="0" />
    <path
       style="fill:#fdc18b;fill-opacity:1;stroke:none;stroke-width:1.08590603px;stroke-linecap:butt;stroke-linejoin:miter;stroke-opacity:1"
       d="M 106.3125 17.769531 C 105.01247 17.768594 104.27539 17.835938 104.27539 17.835938 C 104.27539 17.835938 103.43905 17.760361 101.97461 17.771484 C 92.04841 17.846883 53.301898 21.959733 50.855469 81.037109 C 51.017639 89.037295 51.484055 102.12367 52.851562 111.57031 C 52.894344 111.5248 52.937785 111.48112 52.980469 111.43555 C 63.162446 162.16382 104.27539 165.91406 104.27539 165.91406 C 104.27539 165.91406 136.96447 162.93403 151.26562 126.32617 C 151.26562 126.32617 151.26562 126.32422 151.26562 126.32422 C 151.22638 124.65649 151.60521 122.87053 152.5 120.95312 C 153.29716 119.24494 153.9835 117.51087 154.5918 115.76758 C 154.94156 114.36036 155.27188 112.9224 155.57031 111.43555 C 155.66179 111.53323 155.75479 111.62767 155.84766 111.72266 C 158.45733 102.15634 158.66027 92.656528 158.22461 85.591797 C 158.08665 85.661158 157.95208 85.735163 157.81836 85.810547 C 157.80035 83.526839 157.7312 81.318996 157.61328 79.185547 C 157.20173 76.062299 156.78516 74.167969 156.78516 74.167969 C 156.78516 74.167969 157.22373 74.12843 157.24023 74.126953 C 152.13223 21.115805 115.41274 17.776094 106.3125 17.769531 z "
       transform="matrix(0.26458333,0,0,0.26458333,0.45509012,0.41451935)"
       id="path880" />
    <circle
       style="opacity:1;fill:#000000;fill-opacity:1;stroke:none;stroke-width:0.11388516;stroke-miterlimit:4;stroke-dasharray:none;stroke-opacity:1"
       id="path831"
       cx="21.412151"
       cy="25.656115"
       r="0.96322888" />
    <path
       id="path870"
       style="opacity:1;fill:#ef9f6b;fill-opacity:1;stroke:none;stroke-width:0.58029258;stroke-miterlimit:4;stroke-dasharray:none;stroke-opacity:1"
       d="m 28.922008,22.202709 c 0.263925,0 0.47612,0.286006 0.47612,0.641192 v 8.014652 h 0.726555 c 0.472391,0 0.852588,0.5121 0.852588,1.147832 v 0.240609 c 0,0.635732 -0.380197,1.147392 -0.852588,1.147392 h -0.726555 v 0.01096 c 0,0.355185 -0.212195,0.640751 -0.47612,0.640751 h -0.07328 v 8.19e-4 H 28.04467 v -0.641574 -0.09949 -10.15166 -0.310295 -0.638562 h 0.457232 c 0.0065,-3.5e-4 0.01263,-0.0026 0.01922,-0.0026 z m -1.754675,0 c -0.263925,0 -0.47612,0.286006 -0.47612,0.641192 v 8.014652 h -0.726556 c -0.47239,0 -0.852587,0.5121 -0.852587,1.147832 v 0.240609 c 0,0.635732 0.380197,1.147392 0.852587,1.147392 h 0.726556 v 0.01096 c 0,0.355185 0.212195,0.640751 0.47612,0.640751 h 0.07328 v 8.19e-4 h 0.804064 v -0.641574 -0.09949 -10.15166 -0.310295 -0.638562 h -0.457232 c -0.0065,-3.5e-4 -0.01263,-0.0026 -0.01922,-0.0026 z"
       inkscape:connector-curvature="0" />
    <circle
       r="0.96322888"
       cy="25.656115"
       cx="34.220573"
       id="circle875"
       style="opacity:1;fill:#000000;fill-opacity:1;stroke:none;stroke-width:0.11388516;stroke-miterlimit:4;stroke-dasharray:none;stroke-opacity:1" />
    <path
       style="fill:none;stroke:#ef9f6b;stroke-width:0.30137473px;stroke-linecap:butt;stroke-linejoin:miter;stroke-opacity:1"
       d="m 25.441664,38.11483 h 5.166424"
       id="path840"
       inkscape:connector-curvature="0" />
    <path
       style="fill:#6a6a6a;fill-opacity:1;stroke:none;stroke-width:0.83289325px;stroke-linecap:butt;stroke-linejoin:miter;stroke-opacity:1"
       d="M 102.19141 129.04102 C 98.600998 129.02918 91.041533 129.69089 88.019531 135.18359 C 83.990192 142.5072 83.552734 144.6543 83.552734 144.6543 C 83.552734 144.6543 100.73768 134.17289 103.97852 139.09375 C 103.97837 139.28422 103.97868 139.15424 103.97852 139.35156 C 104.00256 139.30438 104.03629 139.26749 104.0625 139.22266 C 104.08831 139.26736 104.12085 139.30453 104.14453 139.35156 C 104.14437 139.15573 104.14468 139.28479 104.14453 139.0957 C 107.4212 134.16923 124.82227 144.6543 124.82227 144.6543 C 124.82227 144.6543 124.37758 142.5072 120.29883 135.18359 C 116.30036 128.00414 104.52722 129.0722 104.0625 129.11719 C 103.95584 129.10673 103.29514 129.04465 102.19141 129.04102 z "
       transform="matrix(0.26458333,0,0,0.26458333,0.45509012,0.41451935)"
       id="path841" />
    <path
       style="fill:#c90000;fill-opacity:1;stroke:none;stroke-width:0.99999994px;stroke-linecap:butt;stroke-linejoin:miter;stroke-opacity:1"
       d="M 103.92773 162.73828 L 94.642578 172.02344 L 103.92773 180.23828 L 113.21484 172.02344 L 103.92773 162.73828 z "
       id="path875"
       transform="matrix(0.26458333,0,0,0.26458333,0.45509012,0.41451935)" />
    <path
       style="fill:#6a6a6a;fill-opacity:1;stroke:none;stroke-width:0.99999994px;stroke-linecap:butt;stroke-linejoin:miter;stroke-opacity:1"
       d="M 103.60352 145.07031 L 103.60352 145.13867 C 102.38682 145.315 87.699452 147.51753 87.214844 151.63672 C 86.729151 155.7651 102.37573 167.11169 103.60352 167.99609 L 103.60352 168.30273 C 103.60352 168.30273 103.798 168.15744 103.81055 168.14844 C 103.8231 168.15745 104.01758 168.30273 104.01758 168.30273 L 104.01758 167.99609 C 105.24484 167.11207 120.89195 155.76518 120.40625 151.63672 C 119.92164 147.51753 105.23427 145.315 104.01758 145.13867 L 104.01758 145.07031 C 104.01758 145.07031 103.82368 145.1036 103.81055 145.10547 C 103.79741 145.1036 103.60352 145.07031 103.60352 145.07031 z "
       transform="matrix(0.26458333,0,0,0.26458333,0.45509012,0.41451935)"
       id="path845" />
    <path
       style="fill:#fdc18b;fill-opacity:1;stroke:none;stroke-width:0.26458332px;stroke-linecap:butt;stroke-linejoin:miter;stroke-opacity:1"
       d="m 15.160286,21.983258 c 0,0 -3.006782,2.138156 -2.739513,3.340869 0.26727,1.202713 0.400905,6.280833 1.002261,6.748555 0.601357,0.467723 2.539061,-0.200451 2.539061,-0.200451 z"
       id="path860"
       inkscape:connector-curvature="0" />
    <path
       inkscape:connector-curvature="0"
       id="path862"
       d="m 40.798026,21.983258 c 0,0 3.006782,2.138156 2.739513,3.340869 -0.26727,1.202713 -0.400905,6.280833 -1.002261,6.748555 -0.601357,0.467723 -2.539061,-0.200451 -2.539061,-0.200451 z"
       style="fill:#fdc18b;fill-opacity:1;stroke:none;stroke-width:0.26458332px;stroke-linecap:butt;stroke-linejoin:miter;stroke-opacity:1" />
    <path
       style="fill:#c90000;stroke:none;stroke-width:0.26458332px;stroke-linecap:butt;stroke-linejoin:miter;stroke-opacity:1;fill-opacity:1"
       d="m 37.827485,49.756318 -2.740326,-1.606397 c 0,0 -1.228423,0.377976 -1.181177,2.740327 0.04725,2.362351 1.41741,2.504091 1.41741,2.504091 z"
       id="path886"
       inkscape:connector-curvature="0" />
    <path
       inkscape:connector-curvature="0"
       id="path888"
       d="m 37.588608,49.706026 2.257883,-2.234248 c 0,0 1.283742,0.06241 1.822239,2.363052 0.538493,2.300644 -0.754043,2.776859 -0.754043,2.776859 z"
       style="fill:#c90000;fill-opacity:1;stroke:none;stroke-width:0.26458332px;stroke-linecap:butt;stroke-linejoin:miter;stroke-opacity:1" />
    <path
       style="fill:#c90000;fill-opacity:1;stroke:none;stroke-width:0.26458332px;stroke-linecap:butt;stroke-linejoin:miter;stroke-opacity:1"
       d="m 37.204651,49.946331 c 0,0 -1.889215,3.510543 0.367493,5.378799 2.037932,1.687138 0.851924,-0.100226 0.851924,-0.100226 l -0.555299,-1.467318 c 0.835218,0.367495 1.507444,1.16664 1.975167,1.16664 0.334087,-0.902033 -3.240643,-2.505652 -1.169305,-4.81085 2.071341,-2.305201 -0.334087,-0.267272 -0.334087,-0.267272 z"
       id="path4594"
       inkscape:connector-curvature="0"
       sodipodi:nodetypes="cscccscc" />
  </g>
</svg>
