<?xml version="1.0" encoding="UTF-8" standalone="no"?>
<!-- Created with Inkscape (http://www.inkscape.org/) -->

<svg
   xmlns:dc="http://purl.org/dc/elements/1.1/"
   xmlns:cc="http://creativecommons.org/ns#"
   xmlns:rdf="http://www.w3.org/1999/02/22-rdf-syntax-ns#"
   xmlns:svg="http://www.w3.org/2000/svg"
   xmlns="http://www.w3.org/2000/svg"
   xmlns:sodipodi="http://sodipodi.sourceforge.net/DTD/sodipodi-0.dtd"
   xmlns:inkscape="http://www.inkscape.org/namespaces/inkscape"
   width="44.130768mm"
   height="42.065582mm"
   viewBox="0 0 44.130768 42.065582"
   version="1.1"
   id="svg7329"
   inkscape:version="0.92.4 (f8dce91, 2019-08-02)"
   sodipodi:docname="moose.svg">
  <defs
     id="defs7323" />
  <sodipodi:namedview
     id="base"
     pagecolor="#ffffff"
     bordercolor="#666666"
     borderopacity="1.0"
     inkscape:pageopacity="0.0"
     inkscape:pageshadow="2"
     inkscape:zoom="0.35"
     inkscape:cx="-116.60327"
     inkscape:cy="-394.79171"
     inkscape:document-units="mm"
     inkscape:current-layer="layer1"
     showgrid="false"
     fit-margin-top="0"
     fit-margin-left="0"
     fit-margin-right="0"
     fit-margin-bottom="0"
     inkscape:window-width="1366"
     inkscape:window-height="712"
     inkscape:window-x="0"
     inkscape:window-y="28"
     inkscape:window-maximized="1" />
  <metadata
     id="metadata7326">
    <rdf:RDF>
      <cc:Work
         rdf:about="">
        <dc:format>image/svg+xml</dc:format>
        <dc:type
           rdf:resource="http://purl.org/dc/dcmitype/StillImage" />
        <dc:title></dc:title>
      </cc:Work>
    </rdf:RDF>
  </metadata>
  <g
     inkscape:label="Layer 1"
     inkscape:groupmode="layer"
     id="layer1"
     transform="translate(-3.6369961,-2.3124437)">
    <path
       id="path296"
       style="fill:#452722;fill-opacity:1;fill-rule:nonzero;stroke:none;stroke-width:0.03527778"
       d="m 4.9177521,21.328587 0.319581,3.26531 0.640503,3.45757 0.256293,1.98473 -0.383892,0.89641 -0.704886,0.89641 -0.447851,0.51223 0.06364,0.768 0.640539,2.88113 0.896549,4.5459 -0.128305,1.15252 0.384351,0.25612 0.319969,-0.19191 0.384317,0.32032 0.127776,0.70379 2.369114,0.32068 0.4479929,-0.12841 -0.06382,-0.38418 -1.4086059,-1.15182 -0.512233,-1.02482 -0.768104,-1.08832 -0.448415,-5.05812 0.895985,-1.60126 1.024995,-2.24049 -0.704461,-4.16172 -1.792676,-4.48205 -1.408359,-0.44802"
       inkscape:connector-curvature="0" />
    <path
       id="path298"
       style="fill:#796a56;fill-opacity:1;fill-rule:nonzero;stroke:none;stroke-width:0.03527778"
       d="m 6.4542751,41.944917 0.319969,-0.19191 0.384317,0.32032 0.127776,0.70379 2.369114,0.32068 0.4479929,-0.12841 -0.06382,-0.38418 -1.4086059,-1.15182 -0.512233,-1.02482 -0.768104,-1.08832 -0.448415,-5.05812 0.895985,-1.60126 0.562927,-1.23014 -0.178717,-0.37041 -0.896126,-2.24085 -1.280337,-1.15253 -0.323708,-0.67239 0.195544,1.05692 0.256293,1.98473 -0.383892,0.89641 -0.704886,0.89641 -0.447851,0.51223 0.06364,0.768 0.640539,2.88113 0.896549,4.5459 -0.128305,1.15252 0.384351,0.25612"
       inkscape:connector-curvature="0" />
    <path
       id="path300"
       style="fill:#6a5b4c;fill-opacity:1;fill-rule:nonzero;stroke:none;stroke-width:0.03527778"
       d="m 9.6554511,43.097797 0.4479929,-0.12841 -0.06382,-0.38418 -0.9717619,-0.79481 -0.565008,0.28293 h -1.344295 l 0.127776,0.70379 2.369114,0.32068"
       inkscape:connector-curvature="0" />
    <path
       id="path302"
       style="fill:#6a5b4c;fill-opacity:1;fill-rule:nonzero;stroke:none;stroke-width:0.03527778"
       d="m 6.7742441,41.304977 -0.584305,-0.80927 0.0083,0.0406 -0.128306,1.15252 0.384352,0.25612 0.319969,-0.19191 0.02357,0.0198 -0.02357,-0.46778"
       inkscape:connector-curvature="0" />
    <path
       id="path304"
       style="fill:#5a332a;fill-opacity:1;fill-rule:nonzero;stroke:none;stroke-width:0.03527778"
       d="m 40.004536,13.645437 2.36855,1.79246 0.448379,0.70415 -0.0642,0.64064 1.216729,1.21638 1.408642,2.04893 v 1.02447 l -0.06385,1.02411 -0.320323,0.38453 -0.96026,-0.19226 h -0.512234 l -0.448027,0.31997 -0.576439,-0.0639 -0.896409,-0.83256 -0.576439,-0.31997 -0.960261,0.44803 -0.639939,1.08867 -0.128411,1.79282 -0.640291,0.51223 -0.255765,0.57644 -0.512937,-0.89676 -0.767998,-1.21638 -0.06385,-1.6009 -1.34479,1.40899 -1.15203,1.28023 -1.664796,1.02482 -0.256328,1.5367 -0.768384,1.02411 -0.704321,0.51224 0.128024,1.28058 -0.512093,2.56117 -0.128411,1.5367 0.06449,0.76835 -0.256611,0.70379 -0.127598,0.83256 -0.256435,3.84175 0.128165,1.08832 0.576403,0.57644 0.832344,0.51187 0.192368,0.38418 1.08839,1.15252 -0.384492,0.19227 -2.176743,0.0639 -0.191947,-0.38418 -0.832486,-1.47214 h -0.384069 l -0.320498,0.38382 c -0.256048,-0.25611 0.192368,-1.79211 0.192368,-1.79211 v -3.32987 l -0.25648,-2.30505 -0.447852,-1.21637 -0.320532,-3.7137 -0.06396,-1.79281 -0.896549,-0.64029 -0.767821,-0.0639 -1.216695,0.31996 -3.329199,-0.0639 -3.521569,-0.25611 -2.368832,-0.83256 -1.66497,0.57644 -0.512339,0.57609 -0.512092,2.3047 -0.896126,1.79281 -0.384352,1.47285 0.191841,1.47249 2.304909,4.41855 1.281006,1.92016 0.640257,0.38453 0.06364,0.44768 0.576298,0.25647 1.152595,1.15217 -2.497137,-0.0639 v -0.51189 l -0.768102,-0.89641 -0.576016,0.25541 -0.512798,-0.38382 -0.255764,-0.89641 -2.81753,-4.67395 -1.2162359,-1.21638 -1.152455,-0.70414 0.320252,-1.34479 0.06392,-1.72861 -0.448134,-3.20181 c 0,0 -1.216518,-2.68888 -1.344682,-2.88079 -0.128165,-0.19226 -1.088108,-3.1376 -1.088108,-3.1376 l -0.448416,-0.7045 -0.70418,0.51259 -0.768519,-0.89641 0.768519,-2.62537 2.753043,-2.62467 3.6496269,-2.17699 2.240386,0.32032 1.664828,0.70379 4.290096,0.0642 6.467122,-0.51223 2.112681,-1.40864 1.472035,-0.51223 3.265806,0.19226 3.841644,0.19191 3.84175,0.51259"
       inkscape:connector-curvature="0" />
    <path
       id="path306"
       style="fill:#5a332a;fill-opacity:1;fill-rule:nonzero;stroke:none;stroke-width:0.03527778"
       d="m 26.430563,27.539237 -0.512057,4.54554 v 1.85702 l 0.255905,0.76835 -0.127882,1.72862 -0.256187,2.81728 -0.256187,0.89641 -0.383928,1.21673 0.320005,0.0642 0.384316,-0.0642 0.255905,0.51188 -0.128023,1.08832 0.191981,0.44873 2.880925,-0.0642 c -0.06368,-0.32033 -1.344437,-1.66512 -1.344437,-1.66512 l -0.383786,-0.96026 -0.512763,-0.76835 0.448699,-1.92052 0.640114,-2.68922 0.64008,-2.88149 0.192371,-4.86587 -2.305051,-0.0639"
       inkscape:connector-curvature="0" />
    <path
       id="path308"
       style="fill:#796a56;fill-opacity:1;fill-rule:nonzero;stroke:none;stroke-width:0.03527778"
       d="m 27.710899,41.688797 -0.383786,-0.96026 -0.512763,-0.76835 0.448699,-1.92052 0.640114,-2.68922 0.311714,-1.4023 -0.311714,-0.26282 -1.152313,-0.51152 c 0,0 -0.398004,-0.89535 -0.761259,-1.72121 l -0.07109,0.63218 v 1.85702 l 0.255905,0.76835 -0.127882,1.72862 -0.256187,2.81728 -0.256187,0.89641 -0.383928,1.21673 0.320005,0.0642 0.384316,-0.0642 0.255905,0.51188 -0.128164,1.08832 0.192122,0.44873 2.881066,-0.0642 c -0.06381,-0.32033 -1.344573,-1.66512 -1.344573,-1.66512"
       inkscape:connector-curvature="0" />
    <path
       id="path310"
       style="fill:#bcae8e;fill-opacity:1;fill-rule:nonzero;stroke:none;stroke-width:0.03527778"
       d="m 29.311911,42.521707 0.832486,1.47214 0.191804,0.38418 2.176886,-0.0639 0.384492,-0.19227 -1.08839,-1.15252 -0.192368,-0.38418 -0.832344,-0.51187 -0.576403,-0.57644 -0.128025,-1.08832 0.256152,-3.84175 0.127741,-0.83256 0.256611,-0.70379 -0.06449,-0.76835 0.02162,-0.25823 -0.725666,0.066 -1.408782,-1.02447 -0.654015,-1.17016 0.206163,2.38689 0.447852,1.21638 0.256612,2.30505 v 3.32951 c 0,0 -0.448559,1.53635 -0.192511,1.79247 l 0.320498,-0.38382 h 0.384069"
       inkscape:connector-curvature="0" />
    <path
       id="path312"
       style="fill:#bcae8e;fill-opacity:1;fill-rule:nonzero;stroke:none;stroke-width:0.03527778"
       d="m 17.850902,43.993847 -1.152595,-1.15217 -0.576298,-0.25647 -0.06364,-0.44767 -0.640257,-0.38453 -1.281006,-1.92017 -2.304909,-4.41854 -0.191841,-1.4725 0.384352,-1.47284 0.618595,-1.23755 -0.36269,-0.36301 -0.256188,-1.15252 -1.472424,0.0639 -1.7927099,-0.51153 -0.846102,-0.81244 c 0.04879,0.10795 0.07772,0.17145 0.07772,0.17145 l 0.448133,3.20181 -0.06392,1.72861 -0.320251,1.34479 1.152454,0.70414 1.2162369,1.21638 2.81753,4.67395 0.255764,0.89641 0.512797,0.38382 0.576016,-0.25541 0.768103,0.89641 v 0.51188 l 2.497137,0.0639"
       inkscape:connector-curvature="0" />
    <path
       id="path314"
       style="fill:#cfc8bd;fill-opacity:1;fill-rule:nonzero;stroke:none;stroke-width:0.03527778"
       d="m 14.39368,40.216307 -0.0019,-0.002 -0.25467,-0.3817 0.256575,0.38346 m 17.405874,-11.79155 v 0 l 0.07331,-0.0533 0.768384,-1.02411 0.256328,-1.5367 1.664796,-1.02482 1.15203,-1.28023 1.34479,-1.40899 0.06385,1.6009 0.767998,1.21638 0.512937,0.89676 0.255765,-0.57644 0.640291,-0.51223 0.128411,-1.79282 0.639939,-1.08867 0.960261,-0.44803 0.576439,0.31997 0.896409,0.83256 0.576439,0.0639 0.443088,-0.3168 v 0 l -0.443088,0.3168 -0.576439,-0.0639 -0.896409,-0.83256 -0.576439,-0.31997 -0.960261,0.44803 -0.639939,1.08867 -0.128411,1.79282 -0.640291,0.51223 -0.255765,0.57644 -0.512937,-0.89676 -0.767998,-1.21638 -0.06385,-1.6009 -1.34479,1.40899 -1.15203,1.28023 -1.664796,1.02482 -0.256328,1.5367 -0.768384,1.02411 -0.07331,0.0533"
       inkscape:connector-curvature="0" />
    <path
       id="path316"
       style="fill:#482921;fill-opacity:1;fill-rule:nonzero;stroke:none;stroke-width:0.03527778"
       d="m 12.024707,32.468957 0.618595,-1.23755 -0.36269,-0.36301 -0.256188,-1.15252 -0.198719,0.008 0.07084,-1.09714 0.959802,-2.49696 -0.703756,-2.75308 -0.06396,-1.72861 2.945024,-1.15288 1.344401,1.15288 -0.06421,2.04893 2.177027,1.40829 2.497702,0.57679 5.185832,-0.64099 3.777614,-1.40829 3.329483,-2.62502 1.792817,-1.66476 1.024607,-0.89641 0.896056,0.0638 0.06421,1.21673 0.83185,1.15253 1.793168,-0.12842 2.112786,0.12842 1.280937,0.8322 0.443088,0.57961 -0.443088,0.3168 -0.576439,-0.0638 -0.896409,-0.83256 -0.576439,-0.31997 -0.960261,0.44803 -0.639939,1.08867 -0.128411,1.79282 -0.640291,0.51223 -0.255765,0.57644 -0.512937,-0.89676 -0.767998,-1.21638 -0.06385,-1.6009 -1.34479,1.40899 -1.15203,1.28023 -1.664796,1.02482 -0.256328,1.5367 -0.768384,1.02412 -0.07331,0.0533 -1.206887,-0.62936 -1.869441,0.12453 0.01238,-0.31679 -1.315474,-0.0367 -0.66929,-1.05199 -3.009371,0.96062 -5.250603,-0.31997 -2.62449,-1.02482 -1.729281,-0.31962 -0.319723,0.63994 -0.384458,1.92088 -0.512092,2.3047 -0.896126,1.79281"
       inkscape:connector-curvature="0" />
    <path
       id="path318"
       style="fill:#482921;fill-opacity:1;fill-rule:nonzero;stroke:none;stroke-width:0.03527778"
       d="m 27.814687,31.007047 -0.03983,-0.45862 -0.06396,-1.79281 -0.896549,-0.64029 0.763871,0.54504 0.06904,-0.73695 -0.227118,-0.35702 1.315474,0.0367 -0.01238,0.3168 -0.05182,0.004 -0.576017,1.79246 -0.280704,1.29117"
       inkscape:connector-curvature="0" />
    <path
       id="path320"
       style="fill:#98876a;fill-opacity:1;fill-rule:nonzero;stroke:none;stroke-width:0.03527778"
       d="m 14.391775,40.214547 -1.022244,-1.02235 -1.729176,-2.81764 -1.024431,-2.24084 0.512233,-1.34479 0.640221,-2.17664 0.05733,-0.88794 0.19872,-0.008 0.256188,1.15252 0.36269,0.36301 -0.618595,1.23755 -0.384352,1.47284 0.191841,1.4725 2.304909,4.41854 0.25467,0.3817"
       inkscape:connector-curvature="0" />
    <path
       id="path322"
       style="fill:#39211b;fill-opacity:1;fill-rule:nonzero;stroke:none;stroke-width:0.03527778"
       d="m 24.829834,28.371437 -3.329199,-0.0639 -3.521569,-0.25611 -2.368832,-0.83256 -1.66497,0.57644 -0.512339,0.57608 0.384457,-1.92087 0.319723,-0.63994 1.729281,0.31962 2.62449,1.02482 5.250603,0.31997 3.009371,-0.96062 0.66929,1.05198 -0.989577,-0.0272 -0.06075,0.53905 -0.323286,-0.0268 -1.216695,0.31997"
       inkscape:connector-curvature="0" />
    <path
       id="path324"
       style="fill:#39211b;fill-opacity:1;fill-rule:nonzero;stroke:none;stroke-width:0.03527778"
       d="m 27.578221,28.660367 -0.763871,-0.54504 -0.444535,-0.037 0.06075,-0.53905 0.989577,0.0272 0.227118,0.35702 -0.06904,0.73695"
       inkscape:connector-curvature="0" />
    <path
       id="path326"
       style="fill:#6a5b4c;fill-opacity:1;fill-rule:nonzero;stroke:none;stroke-width:0.03527778"
       d="m 28.799855,41.113067 c 0,0 -0.448559,1.53635 -0.192511,1.79246 l 0.320498,-0.38382 h 0.324696 l -0.452683,-1.40864"
       inkscape:connector-curvature="0" />
    <path
       id="path328"
       style="fill:#6a5b4c;fill-opacity:1;fill-rule:nonzero;stroke:none;stroke-width:0.03527778"
       d="m 31.424591,43.225857 -1.280194,0.76799 0.191804,0.38418 2.176886,-0.0639 0.384492,-0.19227 -1.012295,-1.07138 -0.460693,0.17533"
       inkscape:connector-curvature="0" />
    <path
       id="path330"
       style="fill:#6a5b4c;fill-opacity:1;fill-rule:nonzero;stroke:none;stroke-width:0.03527778"
       d="m 25.982289,40.664687 -0.378108,-0.75671 -0.07003,0.24448 -0.383928,1.21673 0.320005,0.0642 0.371087,-0.0621 0.14097,-0.70662"
       inkscape:connector-curvature="0" />
    <path
       id="path332"
       style="fill:#6a5b4c;fill-opacity:1;fill-rule:nonzero;stroke:none;stroke-width:0.03527778"
       d="m 28.331153,42.368957 -0.876159,0.28046 -1.471718,0.32173 0.191135,0.44697 2.881066,-0.0642 c -0.03267,-0.16475 -0.387385,-0.60043 -0.724324,-0.98496"
       inkscape:connector-curvature="0" />
    <path
       id="path334"
       style="fill:#6a5b4c;fill-opacity:1;fill-rule:nonzero;stroke:none;stroke-width:0.03527778"
       d="m 14.009646,42.777117 0.288008,-0.12735 -0.160549,-0.64029 -0.837989,-0.30903 0.197732,0.69285 0.512798,0.38382"
       inkscape:connector-curvature="0" />
    <path
       id="path336"
       style="fill:#6a5b4c;fill-opacity:1;fill-rule:nonzero;stroke:none;stroke-width:0.03527778"
       d="m 16.698307,42.841677 -0.3175,-0.14146 -1.027042,0.7553 v 0.47448 l 2.497137,0.0639 -1.152595,-1.15217"
       inkscape:connector-curvature="0" />
    <path
       id="path338"
       style="fill:#6f3d35;fill-opacity:1;fill-rule:nonzero;stroke:none;stroke-width:0.03527778"
       d="m 36.611165,14.349227 c 0.191913,0 3.073048,0.44838 3.073048,0.44838 l 1.664407,0.44838 1.216729,1.60055 c 0,0 0.09807,-0.008 0.230716,-0.0254 l -0.0388,-0.0384 0.0642,-0.64064 -0.448379,-0.70415 -2.36855,-1.79246 -3.84175,-0.51258 -3.841644,-0.19192 -3.265806,-0.19226 -1.472035,0.51223 -2.112681,1.40865 -6.467122,0.51223 -4.290096,-0.0642 -1.664828,-0.70379 -2.240386,-0.32033 -3.6496269,2.17699 -1.553316,1.48096 c 1.146245,-0.4318 3.473767,-1.09713 3.473767,-1.09713 l 3.1377819,-0.83221 1.792852,1.34444 1.280195,1.40864 h 2.048581 l 1.857057,-1.02446 3.009336,0.70414 c 0,0 2.945024,0.19226 3.201317,0.12806 0.256328,-0.0642 3.201212,-1.72861 3.201212,-1.72861 l 4.418259,-2.11279 c 0,0 3.393652,-0.19226 3.585562,-0.19226"
       inkscape:connector-curvature="0" />
    <path
       id="path340"
       style="fill:#482921;fill-opacity:1;fill-rule:nonzero;stroke:none;stroke-width:0.03527778"
       d="m 43.045832,17.807157 -1.5367,-1.15288 0.60819,-0.12806 0.992716,1.12078 -0.06421,0.16016"
       inkscape:connector-curvature="0" />
    <path
       id="path342"
       style="fill:#331e19;fill-opacity:1;fill-rule:nonzero;stroke:none;stroke-width:0.03527778"
       d="m 42.277482,16.206247 -0.08008,0.48013 0.08008,0.12806 -1.008592,-0.0483 -0.04798,-0.14393 0.592315,-0.35207 0.352071,-0.23989 0.112183,0.17603"
       inkscape:connector-curvature="0" />
    <path
       id="path344"
       style="fill:#331e19;fill-opacity:1;fill-rule:nonzero;stroke:none;stroke-width:0.03527778"
       d="m 42.789715,21.680307 0.620538,0.69109 0.11571,-0.0825 h 0.07197 l -0.07197,-0.14429 -0.367948,-0.46425 -0.319968,-0.22402 -0.57644,-0.41592 -0.416277,-0.33655 -0.463902,0.0321 0.04763,0.24024 0.528108,0.12841 0.832554,0.57573"
       inkscape:connector-curvature="0" />
    <path
       id="path346"
       style="fill:#331e19;fill-opacity:1;fill-rule:nonzero;stroke:none;stroke-width:0.03527778"
       d="m 44.55043,20.463927 -0.0956,0.51223 0.06385,0.60819 0.319969,0.0321 0.160162,-0.28787 -0.256471,-0.19226 -0.0314,-0.64064 -0.160515,-0.0318"
       inkscape:connector-curvature="0" />
    <path
       id="path348"
       style="fill:#9a581d;fill-opacity:1;fill-rule:nonzero;stroke:none;stroke-width:0.03527778"
       d="m 39.844728,13.932947 0.576085,0.2406 -0.336198,-1.48908 1.00824,-0.76835 1.776942,-0.19191 2.064456,-1.05621 1.921227,-1.9208793 0.672042,-1.1049 0.240241,-0.863953 -0.432152,-0.04833 -0.528108,1.200855 -0.288221,-0.04798 0.04798,-1.489075 -0.240241,0.240242 -0.624065,1.728964 -1.20015,1.24848 -1.056923,0.239889 v -0.576086 l 0.624416,-1.344436 0.04833,-0.76835 -0.384881,0.143933 -0.624063,1.152172 -1.248481,0.912636 -0.672042,-0.09596 -0.09631,-1.680633 0.336198,-1.392767 -0.191913,-0.672394 -0.384527,0.240594 -0.624064,2.880783 -0.239888,1.344436 -0.480483,-0.143933 -0.480131,-1.776942 -0.624065,-3.5052 0.480131,-1.344436 0.383823,-0.76835 -0.528108,-0.143933 -0.863954,1.344083 -0.480484,1.872898 0.04762,0.480483 h -0.38382 l -0.528109,-1.296811 c 0,0 -0.192264,-1.152525 -0.192264,-1.296459 0,-0.143933 -0.336198,-0.143933 -0.336198,-0.143933 l -0.239888,1.392414 -0.192264,0.336197 -0.528249,-0.432153 -0.287867,-1.440744 -0.240207,-0.239889 -0.480237,0.528108 v 1.440745 l -0.576297,-0.432506 -0.528074,-1.104194 -0.192228,0.239889 0.33595,1.104547 -0.239887,0.336197 -0.336127,-0.288219 -0.143865,-1.008239 -0.28857,0.143933 -0.191947,1.104547 -0.576297,0.191912 c 0,0 -0.335952,-0.287867 -0.384069,-0.432153 -0.04809,-0.143934 0,-0.912284 0,-0.912284 l 0.240347,-0.624416 -0.384492,-0.09596 -0.432012,1.200503 -0.336376,2.400653 1.441027,2.161469 1.920841,1.3924143 1.776695,1.20086 2.112574,1.2961 1.824919,0.43251 0.143933,0.62441 0.624771,0.14358"
       inkscape:connector-curvature="0" />
    <path
       id="path354"
       style="fill:#7c451b;fill-opacity:1;fill-rule:nonzero;stroke:none;stroke-width:0.03527778"
       d="m 35.666428,7.1141087 -0.47992,-0.240241 -0.239924,-0.72002 -0.240347,-1.968853 0.240347,0.624417 0.719844,0.432153 -0.04798,0.576439 0.33655,1.055864 -0.288571,0.240241"
       inkscape:connector-curvature="0" />
    <path
       id="path356"
       style="fill:#7c451b;fill-opacity:1;fill-rule:nonzero;stroke:none;stroke-width:0.03527778"
       d="m 37.587655,7.3063727 -0.384527,-0.192264 -0.191913,-0.624416 0.384175,-0.239889 0.240242,0.4318 -0.04798,0.624769"
       inkscape:connector-curvature="0" />
    <path
       id="path360"
       style="fill:#7c451b;fill-opacity:1;fill-rule:nonzero;stroke:none;stroke-width:0.03527778"
       d="m 38.895403,13.122267 -1.644298,-0.38982 -2.112574,-1.2961 -1.776695,-1.20086 -1.920841,-1.3924143 -1.441027,-2.161469 0.217594,-1.552928 c 0.285115,0.815622 0.694939,1.889478 0.694939,1.889478 0,0 1.39266,1.344789 1.584748,1.344789 0.191839,0 2.833264,0.576086 2.977266,0.576086 0.143934,0 1.248482,0.288219 1.248482,0.288219 l 1.392766,1.3447893 0.720373,0.62406 0.143934,1.72861 -0.08467,0.19756"
       inkscape:connector-curvature="0" />
    <path
       id="path362"
       style="fill:#7c451b;fill-opacity:1;fill-rule:nonzero;stroke:none;stroke-width:0.03527778"
       d="m 41.957161,11.484317 -1.296458,-0.048 -0.384175,-0.19227 0.336196,-0.4318 1.008591,-0.33655 1.00824,-0.0963 1.489075,-0.0476 1.824215,-1.2005043 1.172985,-0.811742 -0.26035,0.427567 -1.921227,1.9208793 -1.216379,0.6223 -0.224013,0.0497 -1.5367,0.14428"
       inkscape:connector-curvature="0" />
    <path
       id="path364"
       style="fill:#5a332a;fill-opacity:1;fill-rule:nonzero;stroke:none;stroke-width:0.03527778"
       d="m 39.604486,13.789367 -0.816681,-1.00894 -2.064808,-0.768 -1.152525,-1.10455 -0.912461,0.19192 -0.240064,1.05656 1.584677,1.39277 2.113139,0.24024 0.960261,0.33585 0.528462,-0.33585"
       inkscape:connector-curvature="0" />
    <path
       id="path366"
       style="fill:#6f3d35;fill-opacity:1;fill-rule:nonzero;stroke:none;stroke-width:0.03527778"
       d="m 38.259697,13.068647 -1.392415,-0.43216 -0.76835,-0.67204 -0.624417,-0.48013 -0.240204,0.48013 0.432117,0.81598 1.008592,0.48048 1.440743,0.23989 0.626886,0.50765 0.333375,0.11677 0.242712,-0.15381 -1.059039,-0.90276"
       inkscape:connector-curvature="0" />
  </g>
</svg>
