<?xml version="1.0" encoding="UTF-8" standalone="no"?>
<!-- Created with Inkscape (http://www.inkscape.org/) -->

<svg
   xmlns:dc="http://purl.org/dc/elements/1.1/"
   xmlns:cc="http://creativecommons.org/ns#"
   xmlns:rdf="http://www.w3.org/1999/02/22-rdf-syntax-ns#"
   xmlns:svg="http://www.w3.org/2000/svg"
   xmlns="http://www.w3.org/2000/svg"
   xmlns:sodipodi="http://sodipodi.sourceforge.net/DTD/sodipodi-0.dtd"
   xmlns:inkscape="http://www.inkscape.org/namespaces/inkscape"
   width="50.768341mm"
   height="49.287231mm"
   viewBox="0 0 50.768341 49.287231"
   version="1.1"
   id="svg8788"
   inkscape:version="0.92.4 (f8dce91, 2019-08-02)"
   sodipodi:docname="reindeer.svg">
  <defs
     id="defs8782" />
  <sodipodi:namedview
     id="base"
     pagecolor="#ffffff"
     bordercolor="#666666"
     borderopacity="1.0"
     inkscape:pageopacity="0.0"
     inkscape:pageshadow="2"
     inkscape:zoom="0.7"
     inkscape:cx="385.59583"
     inkscape:cy="139.60266"
     inkscape:document-units="mm"
     inkscape:current-layer="layer1"
     showgrid="false"
     fit-margin-top="0"
     fit-margin-left="0"
     fit-margin-right="0"
     fit-margin-bottom="0"
     inkscape:window-width="1366"
     inkscape:window-height="712"
     inkscape:window-x="0"
     inkscape:window-y="28"
     inkscape:window-maximized="1" />
  <metadata
     id="metadata8785">
    <rdf:RDF>
      <cc:Work
         rdf:about="">
        <dc:format>image/svg+xml</dc:format>
        <dc:type
           rdf:resource="http://purl.org/dc/dcmitype/StillImage" />
        <dc:title></dc:title>
      </cc:Work>
    </rdf:RDF>
  </metadata>
  <g
     inkscape:label="Layer 1"
     inkscape:groupmode="layer"
     id="layer1"
     transform="translate(-59.558321,-46.969388)">
    <path
       id="path462"
       style="fill:#a4643d;fill-opacity:1;fill-rule:nonzero;stroke:none;stroke-width:0.03527778"
       d="m 86.938203,56.037896 -1.024467,-0.48895 -0.403929,-0.548923 0.29986,-1.23331 0.110067,-0.834321 -0.438502,0.225425 -0.732721,2.448279 -1.382183,0.665692 -1.217436,0.640643 -0.006,-2.712508 -0.375708,-0.250119 0.130529,-0.98425 0.312913,-2.363612 0.7747,-1.735313 -0.172867,-0.235304 -1.063273,1.344438 -0.820912,2.083504 -0.162279,1.223787 -0.875594,-0.583496 -0.88265,-0.383468 0.150283,-0.774348 0.403577,-1.502479 0.922867,-0.797632 0.666398,-0.406048 c -0.09702,-0.295627 -0.593019,-0.149577 -0.593019,-0.149577 l -0.924983,0.301625 -0.683331,-1.010356 -0.461786,-0.626179 -0.380999,0.303035 0.43462,0.835377 0.07161,0.999773 -0.711907,2.345973 -0.586668,-0.255412 -1.38924,-0.819854 -0.295979,-1.87819 -0.343958,0.02506 -0.410282,2.066925 1.391709,1.316567 2.834216,1.223433 1.745192,1.22202 0.02434,2.902657 -1.80834,3.367617 -1.573387,0.569031 -2.282825,0.263171 -2.528358,0.584554 -1.44639,1.152102 -1.11266,-0.854358 -1.138061,-0.319617 0.327377,-1.273175 0.08996,-1.190273 -0.383117,-0.192617 -0.07408,0.556684 -0.442384,1.284816 -0.479425,0.585259 -1.126773,-0.07761 0.514705,-1.006475 -0.04445,-1.207558 -0.141113,-1.50354 -0.258234,-0.105479 -0.08325,0.625475 -0.01376,1.129946 -0.424039,1.146175 -0.837143,0.66675 -0.242709,-0.739776 -0.160163,-1.364192 0.242359,-1.312333 -0.401461,-0.05256 -0.320675,0.876652 -0.192968,1.459793 0.0039,0.773642 -0.55527,-0.209902 -0.282223,-0.957085 -0.590902,-1.704623 -0.729546,-0.662517 c 0,0 -0.313971,0.311856 -0.122061,0.40781 0.191559,0.09596 0.618773,1.496132 0.618773,1.496132 l 0.143934,1.999543 1.121479,0.785355 3.290713,0.859613 3.059993,0.547899 0.353484,1.955837 1.25095,-0.186973 0.01093,-1.626375 1.36384,-0.525569 2.205918,-0.203554 3.306234,-0.777203 0.762,0.396875 1.338085,0.177482 2.026356,0.126929 1.068211,-0.353767 -0.06032,-0.573262 -0.763763,0.110665 -1.691571,-0.08283 -1.234368,-0.445912 -0.489657,-0.09595 0.904523,-0.98143 1.186744,-2.912885 1.242131,-0.513644 1.534232,-0.785637 1.366308,-0.03175 1.167342,0.437446 0.207433,-0.537988 -0.604663,-0.575379"
       inkscape:connector-curvature="0" />
    <path
       id="path464"
       style="fill:#7c4d33;fill-opacity:1;fill-rule:nonzero;stroke:none;stroke-width:0.03527778"
       d="m 78.719892,52.858308 v -1.542695 l 0.582436,-2.173113 0.946856,-1.472494 0.218369,0.210257 -0.582084,1.822802 v 2.383718 1.68275 l -1.165577,-0.911225"
       inkscape:connector-curvature="0" />
    <path
       id="path466"
       style="fill:#603123;fill-opacity:1;fill-rule:nonzero;stroke:none;stroke-width:0.03527778"
       d="m 79.229657,52.507296 0.02574,0.769408 0.63006,0.492829 v -4.066468 l 0.582084,-1.822802 -0.0024,-0.0019 -1.016706,2.175227 -0.218721,2.453571"
       inkscape:connector-curvature="0" />
    <path
       id="path468"
       style="fill:#7c4d33;fill-opacity:1;fill-rule:nonzero;stroke:none;stroke-width:0.03527778"
       d="m 80.322209,56.223808 1.601965,-1.051983 1.383593,-0.841375 0.437092,-2.523771 0.437092,-0.280458 v 0.841021 l -0.145698,1.262239 0.509764,0.490715 1.164873,0.350308 0.728486,0.490713 -0.145698,0.561271 -1.310921,-0.280459 -1.456621,0.210609 -1.529292,0.98072 -1.966383,1.051984 0.291748,-1.261534"
       inkscape:connector-curvature="0" />
    <path
       id="path470"
       style="fill:#7c4d33;fill-opacity:1;fill-rule:nonzero;stroke:none;stroke-width:0.03527778"
       d="m 78.355474,61.201504 1.23825,0.0702 1.383593,0.279752 1.82104,-0.140052 0.800804,-0.209902 0.145698,0.560211 -1.092552,0.491418 -2.184754,0.139348 h -1.456267 l -1.456619,-0.489656 0.800807,-0.701321"
       inkscape:connector-curvature="0" />
    <path
       id="path472"
       style="fill:#603123;fill-opacity:1;fill-rule:nonzero;stroke:none;stroke-width:0.03527778"
       d="m 84.982757,55.242029 1.310921,0.280459 0.145698,-0.561271 -0.728486,-0.490713 -0.0381,-0.0113 -0.835379,0.22225 -1.165577,0.1397 -1.820333,0.911226 -1.634419,0.944033 -0.186621,0.808919 1.966383,-1.051984 1.529292,-0.98072 1.456621,-0.210609"
       inkscape:connector-curvature="0" />
    <path
       id="path474"
       style="fill:#603123;fill-opacity:1;fill-rule:nonzero;stroke:none;stroke-width:0.03527778"
       d="m 80.467553,62.392481 2.184754,-0.139348 1.092552,-0.491418 -0.03034,-0.115359 -1.790345,0.326319 -2.403475,-0.06985 -1.520121,-0.391229 -0.445911,0.391229 1.456619,0.489656 h 1.456267"
       inkscape:connector-curvature="0" />
    <path
       id="path476"
       style="fill:#7c4d33;fill-opacity:1;fill-rule:nonzero;stroke:none;stroke-width:0.03527778"
       d="m 69.907857,66.460008 -0.65546,-1.89371 -3.34998,-0.139734 -3.641019,-0.420865 -1.310923,-0.631119 -0.437091,-1.963174 c 0,0 -0.655109,-1.331735 -0.873829,-1.401939 -0.218371,-0.07055 0.07267,-0.420863 0.07267,-0.420863 l 0.873831,0.560563 0.874183,1.612548 0.43674,0.911966 2.257777,0.490995 2.403475,-0.140404 2.111727,0.280141 1.310924,0.701286 1.383948,-1.332018 2.621136,-0.911966 2.403475,-0.560211 1.601965,-0.771525 1.456971,-3.57505 -0.437092,-2.874787 -2.039408,-0.981779 -3.203927,-0.841375 -1.674987,-1.121482 0.145343,-2.103614 0.364067,-0.0702 0.58279,1.823156 1.602314,0.630767 2.912887,0.77117 2.621844,1.192038 0.50941,3.505552 -0.94615,3.364794 -1.383945,1.823508 -3.787071,1.331738 -2.330096,0.490712 -1.3843,0.701289 0.218723,1.612582 -1.310923,0.351012"
       inkscape:connector-curvature="0" />
    <path
       id="path478"
       style="fill:#7c4d33;fill-opacity:1;fill-rule:nonzero;stroke:none;stroke-width:0.03527778"
       d="m 63.426271,63.304413 1.092552,-1.05128 0.291394,-1.192035 -0.145696,-1.122185 v -0.630767 l 0.291394,0.06985 0.363715,1.472846 0.219075,1.191683 -0.510117,1.332055 -1.602317,-0.07017"
       inkscape:connector-curvature="0" />
    <path
       id="path480"
       style="fill:#7c4d33;fill-opacity:1;fill-rule:nonzero;stroke:none;stroke-width:0.03527778"
       d="m 62.552792,63.024272 -0.145344,-0.981747 v -1.472142 l 0.218017,-0.911577 h 0.437092 l -0.07303,1.33209 0.364066,1.332442 0.583142,1.121092 -1.383948,-0.420158"
       inkscape:connector-curvature="0" />
    <path
       id="path482"
       style="fill:#7c4d33;fill-opacity:1;fill-rule:nonzero;stroke:none;stroke-width:0.03527778"
       d="m 66.120789,63.37458 0.65546,-0.982099 0.291748,-1.331383 v -0.560565 l 0.436737,0.140055 0.07232,1.191683 -0.218016,1.682713 -1.23825,-0.140404"
       inkscape:connector-curvature="0" />
    <path
       id="path484"
       style="fill:#7c4d33;fill-opacity:1;fill-rule:nonzero;stroke:none;stroke-width:0.03527778"
       d="m 75.369561,51.946731 1.310923,0.210257 0.07338,-1.121482 0.218017,-1.542698 0.874183,-0.911225 0.655463,-0.491418 c -0.146053,-0.279752 -0.655466,-0.0695 -0.655466,-0.0695 l -0.946502,0.420512 -0.874183,-0.911579 -0.582436,-0.56021 -0.364066,0.349956 0.582435,0.770819 0.218369,0.982133 -0.510117,2.874433"
       inkscape:connector-curvature="0" />
    <path
       id="path486"
       style="fill:#603123;fill-opacity:1;fill-rule:nonzero;stroke:none;stroke-width:0.03527778"
       d="m 80.322209,53.278821 -1.537758,-0.698854 0.517877,0.62865 0.655814,1.332441 v 2.524125 l -0.655814,2.663825 -0.946854,1.472496 -2.475796,0.910871 -2.476146,0.701323 -2.257425,0.841446 -0.874183,1.332019 0.251883,1.307745 0.694973,-0.185912 -0.218723,-1.612582 1.3843,-0.701289 2.330096,-0.490712 3.787071,-1.331738 1.383945,-1.823508 0.94615,-3.364794 -0.50941,-3.505552"
       inkscape:connector-curvature="0" />
    <path
       id="path488"
       style="fill:#603123;fill-opacity:1;fill-rule:nonzero;stroke:none;stroke-width:0.03527778"
       d="m 66.339864,63.795125 -3.568701,-0.210254 -1.383948,-0.631155 -0.69074,-0.720337 0.254,1.141201 1.310923,0.631119 3.641019,0.420865 3.34998,0.139734 0.213783,0.61708 0.295979,-0.266383 -0.65546,-0.841412 -2.766835,-0.280458"
       inkscape:connector-curvature="0" />
    <path
       id="path490"
       style="fill:#cfbe9c;fill-opacity:1;fill-rule:nonzero;stroke:none;stroke-width:0.03527778"
       d="m 105.59239,68.843446 1.67499,-0.28014 1.67499,1.121444 1.38429,2.524125 -0.21942,0.420441 -1.82034,-0.280424 c 0,0 -2.47614,-0.701286 -2.54846,-0.911576 -0.0737,-0.209868 -0.14605,-2.59387 -0.14605,-2.59387"
       inkscape:connector-curvature="0" />
    <path
       id="path492"
       style="fill:#6e534f;fill-opacity:1;fill-rule:nonzero;stroke:none;stroke-width:0.03527778"
       d="m 110.15909,72.53068 -2.60032,-1.724483 -1.9177,-0.685448 c 0.0265,0.603321 0.0614,1.214615 0.0974,1.316567 0.0723,0.21029 2.54847,0.911576 2.54847,0.911576 l 1.82033,0.280424 0.0519,-0.09864"
       inkscape:connector-curvature="0" />
    <path
       id="path494"
       style="fill:#45332e;fill-opacity:1;fill-rule:nonzero;stroke:none;stroke-width:0.03527778"
       d="m 79.885469,80.832527 -2.112433,0.981853 -2.039408,1.682008 -0.94615,0.42044 -0.145696,1.12257 0.437092,1.12074 1.674987,3.64603 0.582438,0.70129 1.528937,0.3507 2.039408,0.56088 -0.291393,-2.17347 -0.727782,-1.12187 -2.258129,-0.701 -0.436739,-1.05227 v -0.70029 l 1.748014,-1.12258 3.713692,-1.681618 -0.145346,-2.174523 -2.621492,0.14111"
       inkscape:connector-curvature="0" />
    <path
       id="path496"
       style="fill:#2e201e;fill-opacity:1;fill-rule:nonzero;stroke:none;stroke-width:0.03527778"
       d="m 80.044219,88.582068 -0.15875,-0.45837 -2.258129,-0.701 -0.436739,-1.05227 v -0.70029 l 1.748014,-1.12258 3.713692,-1.681618 -0.05398,-0.807122 -3.368675,1.297164 -1.820333,0.911856 -1.383948,0.21029 -0.07232,0.9113 1.528937,2.66442 2.562225,0.52822"
       inkscape:connector-curvature="0" />
    <path
       id="path498"
       style="fill:#614842;fill-opacity:1;fill-rule:nonzero;stroke:none;stroke-width:0.03527778"
       d="m 79.593724,81.953974 1.36031,-1.178632 -1.068565,0.05718 -2.112433,0.981853 -1.612194,1.330219 0.883709,0.140827 2.549173,-1.331452"
       inkscape:connector-curvature="0" />
    <path
       id="path500"
       style="fill:#614842;fill-opacity:1;fill-rule:nonzero;stroke:none;stroke-width:0.03527778"
       d="m 80.904644,91.419038 -0.291393,-2.17347 -0.727782,-1.12187 -0.28857,-0.0896 -0.0762,1.21144 -0.186973,1.74103 1.570918,0.43244"
       inkscape:connector-curvature="0" />
    <path
       id="path502"
       style="fill:#614842;fill-opacity:1;fill-rule:nonzero;stroke:none;stroke-width:0.03527778"
       d="m 77.95754,87.525108 0.252588,0.6689 0.873831,0.70087 1.331031,0.0445 -0.529521,-0.81566 -1.927929,-0.59859"
       inkscape:connector-curvature="0" />
    <path
       id="path504"
       style="fill:#614842;fill-opacity:1;fill-rule:nonzero;stroke:none;stroke-width:0.03527778"
       d="m 78.865236,90.858158 0.01341,0.004 -0.304093,-0.91543 -0.655463,-0.1404 c 0,0 -0.184502,0.41451 -0.313971,0.76274 l 1.260121,0.28924"
       inkscape:connector-curvature="0" />
    <path
       id="path506"
       style="fill:#2e201e;fill-opacity:1;fill-rule:nonzero;stroke:none;stroke-width:0.03527778"
       d="m 96.561982,79.149391 2.184752,3.365145 1.820686,1.542732 0.58208,1.12145 -0.14534,0.63154 -2.476149,3.15447 -1.456267,1.68271 -1.237895,0.7716 -0.582438,0.42054 -0.218721,0.56046 -1.019881,0.98118 -0.218017,0.49139 2.621844,0.35031 1.456267,-0.42045 0.510116,-0.35044 0.655463,-2.24356 1.383238,-1.9629 2.40348,-2.24398 0.87418,-1.12145 0.58244,-2.80458 -3.8601,-6.3095 -3.859738,2.383333"
       inkscape:connector-curvature="0" />
    <path
       id="path508"
       style="fill:#614842;fill-opacity:1;fill-rule:nonzero;stroke:none;stroke-width:0.03527778"
       d="m 97.872903,93.802468 0.152048,-0.10488 -0.297392,-0.31637 -1.602317,-0.27975 -1.132064,-0.66368 -0.980369,0.94343 -0.218017,0.49139 2.621844,0.35031 1.456267,-0.42045"
       inkscape:connector-curvature="0" />
    <path
       id="path510"
       style="fill:#6e534f;fill-opacity:1;fill-rule:nonzero;stroke:none;stroke-width:0.03527778"
       d="m 97.36314,92.820618 -0.04939,1.14336 0.559152,-0.16151 0.510116,-0.35044 0.655463,-2.24356 0.669571,-0.95004 -1.398411,0.88015 -0.946502,1.68204"
       inkscape:connector-curvature="0" />
    <path
       id="path512"
       style="fill:#45332e;fill-opacity:1;fill-rule:nonzero;stroke:none;stroke-width:0.03527778"
       d="m 96.280111,91.140658 -0.446262,0.27838 -0.582438,0.42054 -0.04057,0.10365 0.768702,0.24666 1.16558,-0.0703 -0.865013,-0.97896"
       inkscape:connector-curvature="0" />
    <path
       id="path514"
       style="fill:#614842;fill-opacity:1;fill-rule:nonzero;stroke:none;stroke-width:0.03527778"
       d="m 71.36483,65.477875 c -0.138996,0.100859 -0.487188,-0.106961 -1.165579,0.07056 -0.745771,0.194699 -2.184752,1.191295 -2.184752,1.191295 l -0.437444,0.911579 -1.164521,0.912001 -1.966384,1.331983 -1.019879,0.41991 -0.145346,0.561271 0.655815,1.051984 0.800806,0.631153 0.436738,0.489622 0.873831,-0.06918 1.165225,-0.490995 1.67499,-0.490715 1.893359,0.210537 1.748012,1.682469 0.800806,2.173039 0.728485,2.243984 0.58279,0.350028 0.437092,-0.140017 0.436737,0.631013 1.164873,0.701675 2.039408,0.840351 0.946502,0.982133 1.165225,1.050891 0.437092,0.141499 0.509765,-0.911966 0.946502,-0.139594 4.151137,-0.07056 2.476146,-0.210714 2.33045,-0.490715 4.151138,-1.121725 2.694162,-0.210714 2.039409,2.594713 1.60196,1.261888 1.23861,1.05128 0.72778,1.54231 -0.0723,0.70238 -1.23825,3.71478 -1.09291,2.24332 -0.87348,0.70195 -0.36477,0.56032 -0.946502,0.77116 -0.582083,0.98171 2.622195,0.35002 1.60126,-0.56099 1.01917,-0.42017 0.65582,-0.42085 -0.21837,-1.19159 -0.2914,-2.03345 0.72814,-1.89258 1.60196,-3.22517 0.72849,-1.40158 0.0737,-0.56127 -1.53035,-1.612196 -0.073,-1.753696 0.58349,-1.82273 0.80081,-3.084301 -0.14535,-3.085147 -0.87453,-3.716161 -1.3836,-1.472178 -3.49603,-1.332405 -3.203925,0.210677 H 90.59015 l -1.310569,-0.07027 -2.111729,-0.210291 -1.092904,-0.490572 -1.674638,-0.771279 -1.529291,0.07056 -1.893711,1.05103 -2.548818,0.561552 -2.548821,-0.140724 -2.912886,-1.121585 -1.601962,-0.210539"
       inkscape:connector-curvature="0" />
    <path
       id="path516"
       style="fill:#45332e;fill-opacity:1;fill-rule:nonzero;stroke:none;stroke-width:0.03527778"
       d="m 95.833849,79.920669 2.694162,-0.210714 2.039409,2.594713 1.17616,0.926749 -0.15593,-0.786731 -1.31198,-2.664177 -0.947205,-4.066434 -0.07232,-2.243312 -1.456266,0.209584 -0.436738,1.543016 -1.0922,2.173851 -2.330804,1.051314 -4.296479,1.192001 h -2.403124 c 0,0 -1.89371,-0.84173 -2.184752,-1.052021 l -0.875242,3.200366 2.695575,-0.04505 2.476146,-0.210714 2.33045,-0.490715 4.151138,-1.121725"
       inkscape:connector-curvature="0" />
    <path
       id="path518"
       style="fill:#2e201e;fill-opacity:1;fill-rule:nonzero;stroke:none;stroke-width:0.03527778"
       d="m 87.641642,81.207494 1.712736,-1.566965 h -2.113844 c 0,0 -1.89371,-0.84173 -2.184752,-1.052021 l -0.875242,3.200366 1.922286,-0.03168 1.538816,-0.549699"
       inkscape:connector-curvature="0" />
    <path
       id="path520"
       style="fill:#45332e;fill-opacity:1;fill-rule:nonzero;stroke:none;stroke-width:0.03527778"
       d="m 86.050967,79.032233 -1.553633,-1.214861 -1.407935,-0.630732 -1.310923,0.981287 -0.655461,1.052406 0.291394,0.840354 0.24271,1.099254 0.121357,0.443441 0.07302,2.734306 -0.218723,1.89343 0.582789,1.61216 0.07267,1.47218 -0.582437,4.76744 -0.874184,0.70087 -0.801158,1.47285 h 3.058938 l 1.092552,-0.2807 0.873831,-0.28016 -0.655463,-1.75298 -0.437091,-1.683 0.07303,-1.75232 0.218016,-2.10358 0.583142,-1.33216 0.218371,-2.17343 0.728133,-3.925778 0.170038,-0.281093 0.194381,-0.443053 -0.09737,-1.216131"
       inkscape:connector-curvature="0" />
    <path
       id="path522"
       style="fill:#2e201e;fill-opacity:1;fill-rule:nonzero;stroke:none;stroke-width:0.03527778"
       d="m 84.254269,88.403878 0.583142,-1.33216 0.218371,-2.17343 0.728133,-3.925778 0.170038,-0.281093 0.194381,-0.443053 -0.0011,-0.01267 -1.164519,1.227561 -0.582438,4.066573 -0.364066,1.40229 -0.582788,1.05118 0.218369,2.2437 -0.07267,2.10333 1.286229,3.41973 0.170392,-0.0543 -0.655463,-1.75299 -0.437091,-1.683 0.07303,-1.75232 0.218016,-2.10357"
       inkscape:connector-curvature="0" />
    <path
       id="path524"
       style="fill:#6e534f;fill-opacity:1;fill-rule:nonzero;stroke:none;stroke-width:0.03527778"
       d="m 83.089399,96.256618 1.092552,-0.2807 0.873831,-0.28016 -0.1651,-0.44138 -1.437217,-0.0498 -1.237898,-0.14028 -1.121833,-0.49045 -0.262115,0.20987 -0.801158,1.47285 h 3.058938"
       inkscape:connector-curvature="0" />
    <path
       id="path526"
       style="fill:#614842;fill-opacity:1;fill-rule:nonzero;stroke:none;stroke-width:0.03527778"
       d="m 82.579634,87.282428 -0.364067,-1.19214 v -1.82245 l 0.509411,0.0698 0.291748,1.96261 0.145698,0.91186 -0.58279,0.0703"
       inkscape:connector-curvature="0" />
    <path
       id="path528"
       style="fill:#614842;fill-opacity:1;fill-rule:nonzero;stroke:none;stroke-width:0.03527778"
       d="m 82.871028,78.027946 -1.165225,1.192387 0.655814,1.68162 0.145344,0.631156 0.800806,-0.420865 0.509765,-1.542026 -0.291396,-1.261851 -0.655108,-0.280421"
       inkscape:connector-curvature="0" />
    <path
       id="path530"
       style="fill:#6e534f;fill-opacity:1;fill-rule:nonzero;stroke:none;stroke-width:0.03527778"
       d="m 81.924174,67.861313 1.820685,2.524443 3.277306,1.963136 2.330096,1.612583 0.291396,2.033024 -0.509765,1.472176 -1.893358,-0.280035 -3.641373,-1.752986 -3.641019,-2.384425 1.966032,-5.187916"
       inkscape:connector-curvature="0" />
    <path
       id="path532"
       style="fill:#e2d6b8;fill-opacity:1;fill-rule:nonzero;stroke:none;stroke-width:0.03527778"
       d="m 80.831619,71.787624 c 0,-0.209444 0.728488,-2.313445 0.874184,-2.52416 0.145698,-0.210539 0.801158,-1.962716 0.873831,-2.172758 0.04163,-0.119875 0.248002,-1.012015 0.418394,-1.759199 l -0.127,0.0066 -1.893711,1.051031 -2.548818,0.561552 -2.548821,-0.140724 -2.079977,-0.801582 -0.250471,1.012156 -0.946856,1.261885 -1.092552,1.262274 -0.07267,0.700583 0.218723,0.771173 0.65546,1.332404 1.165225,0.91158 0.364067,1.821778 0.364066,1.122963 -0.309385,1.599494 0.163687,0.50366 0.58279,0.350028 0.437092,-0.140017 0.436737,0.631012 1.164873,0.701675 2.039408,0.840352 0.946502,0.982133 1.165225,1.05089 0.281871,0.09134 0.300919,-1.352516 -0.509765,-0.981744 -1.019175,-2.243278 c 0,0 0.144992,-2.594047 0.144992,-2.804583 0,-0.210291 0.801158,-3.435316 0.801158,-3.64603"
       inkscape:connector-curvature="0" />
    <path
       id="path534"
       style="fill:#cfbe9c;fill-opacity:1;fill-rule:nonzero;stroke:none;stroke-width:0.03527778"
       d="m 81.11349,82.815775 0.300919,-1.352516 -0.271992,-0.523523 -1.402998,-0.598628 -2.112079,-1.612582 -2.1844,-1.401869 -1.27141,-1.223433 0.03316,0.101989 -0.309385,1.599494 0.163687,0.50366 0.58279,0.350028 0.437092,-0.140017 0.436737,0.631013 1.164873,0.701675 2.039408,0.840351 0.946502,0.982133 1.165225,1.050891 0.281871,0.09133"
       inkscape:connector-curvature="0" />
    <path
       id="path536"
       style="fill:#f9eacf;fill-opacity:1;fill-rule:nonzero;stroke:none;stroke-width:0.03527778"
       d="m 79.156632,70.245315 -1.310571,2.033024 -0.291394,2.664565 0.291394,1.683137 0.655463,0.700616 0.363712,-1.542309 v -3.996724 l 0.874183,-1.472425 -0.582787,-0.06988"
       inkscape:connector-curvature="0" />
    <path
       id="path538"
       style="fill:#6e534f;fill-opacity:1;fill-rule:nonzero;stroke:none;stroke-width:0.03527778"
       d="m 106.24749,69.403905 -1.38359,-1.472178 -3.49603,-1.332405 -3.203926,0.210677 h -7.573785 l -1.310569,-0.07027 -2.111729,-0.210291 -1.092904,-0.490572 -1.674638,-0.771279 -0.5588,0.02574 1.286934,1.095833 2.112081,1.05156 3.641019,0.490995 5.389387,-0.210148 2.913592,-0.14083 3.931358,0.210714 3.17288,1.78675 -0.0413,-0.174307"
       inkscape:connector-curvature="0" />
    <path
       id="path540"
       style="fill:#cfbe9c;fill-opacity:1;fill-rule:nonzero;stroke:none;stroke-width:0.03527778"
       d="m 106.74632,71.526216 c -0.17639,1.240366 -0.57114,3.813844 -0.57114,3.977288 0,0.210571 -0.94756,2.734733 -0.94756,2.734733 v 3.014448 l 0.68438,0.543632 -0.0289,-0.684073 0.5835,-1.82273 0.8008,-3.084301 -0.14534,-3.085147 -0.37571,-1.59385"
       inkscape:connector-curvature="0" />
    <path
       id="path542"
       style="fill:#533a36;fill-opacity:1;fill-rule:nonzero;stroke:none;stroke-width:0.03527778"
       d="m 106.68423,86.440988 0.72849,-1.40159 0.0737,-0.56127 -1.53035,-1.612188 -0.01,-0.234527 -2.32022,-0.04632 -1.01953,0.209902 -0.36936,0.829413 1.17052,0.99343 0.72778,1.5423 -0.0723,0.70239 -1.23825,3.71478 -1.09291,2.24332 -0.87347,0.70195 -0.36478,0.56032 -0.946499,0.77116 -0.582083,0.98171 2.622192,0.35002 1.60126,-0.56099 1.01918,-0.42017 0.65581,-0.42085 -0.21837,-1.1916 -0.29139,-2.03344 0.72813,-1.89258 1.60197,-3.22517"
       inkscape:connector-curvature="0" />
    <path
       id="path544"
       style="fill:#6e534f;fill-opacity:1;fill-rule:nonzero;stroke:none;stroke-width:0.03527778"
       d="m 101.65997,94.994068 -1.32821,-0.77818 -0.78422,0.63817 -0.582083,0.98171 2.622193,0.35002 1.60126,-0.56099 0.38241,-0.15724 -1.91135,-0.47349"
       inkscape:connector-curvature="0" />
    <path
       id="path546"
       style="fill:#45332e;fill-opacity:1;fill-rule:nonzero;stroke:none;stroke-width:0.03527778"
       d="m 104.3873,91.791918 -0.61595,1.30955 -0.21872,1.47243 -0.0889,0.93775 0.74436,-0.30702 0.65581,-0.42086 -0.21837,-1.19159 -0.25823,-1.80026"
       inkscape:connector-curvature="0" />
    <path
       id="path548"
       style="fill:#6e534f;fill-opacity:1;fill-rule:nonzero;stroke:none;stroke-width:0.03527778"
       d="m 101.44866,93.048838 -0.58985,0.47374 -0.13934,0.2128 1.01282,0.48754 1.09291,0.14042 c 0.0998,-0.24199 -0.8061,-0.91862 -1.37654,-1.3145"
       inkscape:connector-curvature="0" />
    <path
       id="path550"
       style="fill:#2e201e;fill-opacity:1;fill-rule:nonzero;stroke:none;stroke-width:0.03527778"
       d="m 104.49948,84.688388 0.21908,0.91158 0.073,0.91091 0.43603,-0.14045 0.073,-1.7526 -0.80116,0.0706"
       inkscape:connector-curvature="0" />
    <path
       id="path552"
       style="fill:#2e201e;fill-opacity:1;fill-rule:nonzero;stroke:none;stroke-width:0.03527778"
       d="m 68.581414,67.098855 1.201912,0.289383 -1.001536,0.675111 z"
       inkscape:connector-curvature="0" />
    <path
       id="path554"
       style="fill:#533a36;fill-opacity:1;fill-rule:nonzero;stroke:none;stroke-width:0.03527778"
       d="m 66.902897,70.615731 0.09207,0.260739 3.567993,-1.542452 -0.247298,-0.821584 -3.41277,2.103297"
       inkscape:connector-curvature="0" />
    <path
       id="path556"
       style="fill:#45332e;fill-opacity:1;fill-rule:nonzero;stroke:none;stroke-width:0.03527778"
       d="m 71.801567,72.419166 c 0,-0.210291 -0.946502,-0.840986 -0.946502,-0.840986 l -1.383948,-0.421288 -1.74766,0.350731 -1.89371,1.051984 -0.03069,0.440126 0.24906,-0.01968 1.165225,-0.490995 1.67499,-0.490715 1.893359,0.210537 1.19027,1.145154 c -0.09102,-0.438192 -0.170394,-0.845968 -0.170394,-0.934868"
       inkscape:connector-curvature="0" />
    <path
       id="path558"
       style="fill:#2e201e;fill-opacity:1;fill-rule:nonzero;stroke:none;stroke-width:0.03527778"
       d="m 68.014499,66.739726 -0.437444,0.911579 -1.164521,0.912001 -1.966384,1.331983 -1.019879,0.41991 -0.145346,0.561271 0.655815,1.051984 0.800806,0.631153 0.436738,0.489622 0.873831,-0.06918 0.932392,-0.393311 -1.07809,-0.939131 -0.145343,-0.910873 -0.364419,-1.051983 1.748012,-1.121444 1.01953,-0.771843 0.364067,-0.981464 0.564443,-0.747146 c -0.567973,0.325894 -1.074208,0.676872 -1.074208,0.676872"
       inkscape:connector-curvature="0" />
    <path
       id="path560"
       style="fill:#614842;fill-opacity:1;fill-rule:nonzero;stroke:none;stroke-width:0.03527778"
       d="m 84.044367,92.572298 -0.15381,0.73974 -0.07303,1.33173 0.127704,1.39278 0.236715,-0.0606 0.873831,-0.28015 -0.655463,-1.75299 -0.355952,-1.37047"
       inkscape:connector-curvature="0" />
    <path
       id="path562"
       style="fill:#45332e;fill-opacity:1;fill-rule:nonzero;stroke:none;stroke-width:0.03527778"
       d="m 70.292739,66.306198 0.430035,0.430107 0.386998,-0.387104 0.731308,-0.946854 0.172509,-2.15124 -0.301274,-0.30085 -0.7747,0.903465 -0.731308,0.989825 0.08643,1.462651"
       inkscape:connector-curvature="0" />
    <path
       id="path564"
       style="fill:#6e534f;fill-opacity:1;fill-rule:nonzero;stroke:none;stroke-width:0.03527778"
       d="m 71.343309,64.305559 0.08291,-1.021678 -0.488599,0.569841 -0.731308,0.989825 0.08643,1.462651 0.09948,0.09948 0.624062,-0.69783 0.327025,-1.402292"
       inkscape:connector-curvature="0" />
  </g>
</svg>
