<?xml version="1.0" encoding="UTF-8" standalone="no"?>
<!-- Created with Inkscape (http://www.inkscape.org/) -->

<svg
   xmlns:dc="http://purl.org/dc/elements/1.1/"
   xmlns:cc="http://creativecommons.org/ns#"
   xmlns:rdf="http://www.w3.org/1999/02/22-rdf-syntax-ns#"
   xmlns:svg="http://www.w3.org/2000/svg"
   xmlns="http://www.w3.org/2000/svg"
   xmlns:sodipodi="http://sodipodi.sourceforge.net/DTD/sodipodi-0.dtd"
   xmlns:inkscape="http://www.inkscape.org/namespaces/inkscape"
   width="9.5652599mm"
   height="9.3330889mm"
   viewBox="0 0 9.5652599 9.3330889"
   version="1.1"
   id="svg11090"
   inkscape:version="0.92.4 (f8dce91, 2019-08-02)"
   sodipodi:docname="squirrel.svg">
  <defs
     id="defs11084" />
  <sodipodi:namedview
     id="base"
     pagecolor="#ffffff"
     bordercolor="#666666"
     borderopacity="1.0"
     inkscape:pageopacity="0.0"
     inkscape:pageshadow="2"
     inkscape:zoom="0.35"
     inkscape:cx="-190.49529"
     inkscape:cy="-479.50552"
     inkscape:document-units="mm"
     inkscape:current-layer="layer1"
     showgrid="false"
     fit-margin-top="0"
     fit-margin-left="0"
     fit-margin-right="0"
     fit-margin-bottom="0"
     inkscape:window-width="1366"
     inkscape:window-height="712"
     inkscape:window-x="0"
     inkscape:window-y="28"
     inkscape:window-maximized="1" />
  <metadata
     id="metadata11087">
    <rdf:RDF>
      <cc:Work
         rdf:about="">
        <dc:format>image/svg+xml</dc:format>
        <dc:type
           rdf:resource="http://purl.org/dc/dcmitype/StillImage" />
        <dc:title></dc:title>
      </cc:Work>
    </rdf:RDF>
  </metadata>
  <g
     inkscape:label="Layer 1"
     inkscape:groupmode="layer"
     id="layer1"
     transform="translate(-23.187593,-12.631075)">
    <path
       id="path368"
       style="fill:#d14e1f;fill-opacity:1;fill-rule:nonzero;stroke:none;stroke-width:0.03527778"
       d="m 24.730323,14.52161 -0.043,-0.416984 -0.0723,-0.34572 0.14393,-0.216255 0.15839,-0.02858 0.34608,0.489657 -0.0871,0.48895 -0.44591,0.02893"
       inkscape:connector-curvature="0" />
    <path
       id="path370"
       style="fill:#d14e1f;fill-opacity:1;fill-rule:nonzero;stroke:none;stroke-width:0.03527778"
       d="m 24.557113,16.950133 0.29457,0.25259 -0.084,0.337253 -0.35807,0.189797 -0.44203,-0.295275 -0.3369,-0.40005 -0.1905,-0.02151 v 0.105833 l -0.12595,-0.02151 -0.12664,0.105481 0.0843,0.294921 0.0843,0.336904 0.27447,0.105834 0.10442,0.14746 0.29527,0.378883 1.05375,0.569032 0.3369,-0.02117 0.084,1.074208 0.48437,0.779992 0.54821,0.316087 1.62208,0.547158 0.82197,0.04269 0.46355,-0.231775 0.50553,-1.411816 0.12629,-1.158524 -0.94826,-1.559276 -0.8001,-0.989897 -0.56903,-0.105478 -0.37959,-0.06315 -0.29457,-0.294923 -0.5902,-0.316087 -0.16863,-0.484716 -0.31573,-0.547513 -0.35807,-0.232127 -0.80116,-0.02082 -0.94756,0.526698 -0.44239,0.905933 -0.0427,0.168627 -0.10478,0.189442 0.31645,0.611013 0.16792,0.06314 0.084,0.16863 0.18979,-0.02082 0.48472,-0.02117"
       inkscape:connector-curvature="0" />
    <path
       id="path372"
       style="fill:#d14e1f;fill-opacity:1;fill-rule:nonzero;stroke:none;stroke-width:0.03527778"
       d="m 26.958823,18.614185 -0.69568,0.189796 -0.3369,0.379587 -0.16863,0.65264 0.0212,0.547865 0.23213,0.631825 0.23177,0.337608 -0.37923,-0.06386 h -0.653 l -0.25294,0.06385 -0.10583,0.378529 0.14746,0.08467 0.043,0.147463 h 0.77893 l 1.28482,-0.06315 0.8008,-0.02117 0.1263,-0.336902 0.29563,-0.126648 0.18944,-0.71614 -0.37924,-0.800804 -0.50588,-0.884767 -0.67416,-0.400404"
       inkscape:connector-curvature="0" />
    <path
       id="path374"
       style="fill:#9b3a1e;fill-opacity:1;fill-rule:nonzero;stroke:none;stroke-width:0.03527778"
       d="m 25.926243,19.183568 0.17321,-0.195437 -2.6e-4,7.94e-4 -0.17286,0.194733"
       inkscape:connector-curvature="0" />
    <path
       id="path376"
       style="fill:#9b3a1e;fill-opacity:1;fill-rule:nonzero;stroke:none;stroke-width:0.03527778"
       d="m 27.501043,21.890433 -0.0575,-0.05292 -0.1263,-0.231423 -0.82197,-0.105479 -0.35807,-0.06315 -0.12947,-0.123473 0.23495,0.03951 -0.23177,-0.337608 -0.23213,-0.631825 -0.0212,-0.547865 0.16863,-0.65264 0.17286,-0.194733 -0.17286,0.720725 0.127,0.801158 0.40005,0.65264 0.63218,0.168627 0.65264,-0.08396 0.40075,-0.40005 0.0836,-0.569032 0.0681,-0.05785 0.22754,0.479071 -0.18944,0.71614 -0.29563,0.126648 -0.0487,0.12982 -0.0776,0.207082 -0.40569,0.01058"
       inkscape:connector-curvature="0" />
    <path
       id="path378"
       style="fill:#9b3a1e;fill-opacity:1;fill-rule:nonzero;stroke:none;stroke-width:0.03527778"
       d="m 25.094393,21.964164 h -0.0522 l -0.043,-0.147463 -0.0586,-0.03351 c 0.0628,-0.08537 0.16404,-0.198263 0.16404,-0.198263 l 0.29563,-0.04198 c -0.0215,0.06314 -0.25365,0.14746 -0.25365,0.14746 l -0.0522,0.273756"
       inkscape:connector-curvature="0" />
    <path
       id="path380"
       style="fill:#ea642f;fill-opacity:1;fill-rule:nonzero;stroke:none;stroke-width:0.03527778"
       d="m 26.811013,18.783166 -0.48437,0.25259 -0.16827,0.652992 0.10477,0.695325 0.29528,-0.08396 0.0427,-0.9906 0.29422,-0.379236 0.127,-0.105481 -0.21131,-0.04163"
       inkscape:connector-curvature="0" />
    <path
       id="path382"
       style="fill:#c0b9b4;fill-opacity:1;fill-rule:nonzero;stroke:none;stroke-width:0.03527778"
       d="m 25.423183,19.044926 -0.002,-0.03034 -0.3369,0.02117 -1.05375,-0.569031 -0.29527,-0.378884 -0.10442,-0.14746 -0.27447,-0.105833 -0.0843,-0.336905 0.0843,0.336905 0.27447,0.105833 0.10442,0.14746 0.29527,0.378884 1.05375,0.569031 0.3369,-0.02117 0.002,0.03034 h -2.6e-4"
       inkscape:connector-curvature="0" />
    <path
       id="path384"
       style="fill:#9b3a1e;fill-opacity:1;fill-rule:nonzero;stroke:none;stroke-width:0.03527778"
       d="m 25.423533,19.044926 -0.002,-0.03034 -0.3369,0.02117 -1.05375,-0.569031 -0.29527,-0.378884 -0.10442,-0.14746 -0.27447,-0.105833 -0.0843,-0.336905 -0.0145,-0.05045 0.20426,0.240241 0.2734,0.06315 0.10548,0.189796 0.58984,0.442383 0.6537,0.147461 0.58985,-0.105482 0.48436,-0.421217 0.35772,-0.421216 0.0635,0.105129 -0.31644,0.611362 -0.25224,0.40005 -0.40076,0.25259 -0.18662,0.09348"
       inkscape:connector-curvature="0" />
    <path
       id="path386"
       style="fill:#c14320;fill-opacity:1;fill-rule:nonzero;stroke:none;stroke-width:0.03527778"
       d="m 24.936353,17.076426 -0.18521,0.04022 0.10054,0.08608 -0.084,0.337254 -0.35807,0.189441 -0.30551,-0.2032 0.0945,0.182388 0.44238,0.210254 0.63253,0.02151 0.042,-0.316441 -0.25294,-0.379238 -0.12629,-0.168275"
       inkscape:connector-curvature="0" />
    <path
       id="path388"
       style="fill:#c0b9b4;fill-opacity:1;fill-rule:nonzero;stroke:none;stroke-width:0.03527778"
       d="m 28.981653,21.774723 -0.52211,-0.02681 2.6e-4,-2.65e-4 0.52176,0.02717 0.46355,-0.231775 0.0198,-0.05503 -0.0198,0.05503 -0.46355,0.231775 m -1.60161,-5.519915 -0.28187,-0.281868 c 0,-2.65e-4 0,-7.94e-4 0,-7.94e-4 l 0.28187,0.282575"
       inkscape:connector-curvature="0" />
    <path
       id="path390"
       style="fill:#9b3a1e;fill-opacity:1;fill-rule:nonzero;stroke:none;stroke-width:0.03527778"
       d="m 28.981653,21.774723 -0.52176,-0.02717 0.64841,-0.415573 0.54751,-1.516592 -0.31644,-1.306335 -0.84279,-1.222023 -0.52635,-0.631825 c 0,0 -0.37888,-0.231775 -0.44273,-0.252942 -0.0628,-0.02082 -0.42157,-0.252942 -0.42157,-0.337254 0,-0.01622 -0.003,-0.04904 -0.008,-0.09208 l 0.28187,0.281869 0.37959,0.06315 0.27728,0.05115 0.41769,0.517525 0.92675,1.306335 0.48436,1.095375 -0.14676,1.222375 -0.29527,0.947915 0.0413,0.02928 -0.0198,0.05503 -0.46355,0.231775"
       inkscape:connector-curvature="0" />
    <path
       id="path392"
       style="fill:#c14320;fill-opacity:1;fill-rule:nonzero;stroke:none;stroke-width:0.03527778"
       d="m 24.810053,16.802318 0.50553,-0.357717 0.29457,-0.442735 0.10583,-1.032227 -0.0631,-0.274108 0.16863,0.02117 0.0628,1.327502 -0.12665,0.547158 -0.48401,0.168981 -0.46355,0.04198"
       inkscape:connector-curvature="0" />
    <path
       id="path394"
       style="fill:#ea642f;fill-opacity:1;fill-rule:nonzero;stroke:none;stroke-width:0.03527778"
       d="m 23.630723,16.760339 0.16792,0.06315 0.084,0.168629 0.19014,-0.02082 0.41628,-0.01834 -0.0586,-0.276931 -0.35772,-0.210609 -0.25258,-0.358068 -0.21167,-0.358423 -0.13723,0.02082 -0.01,0.02151 -0.0427,0.168627 -0.10478,0.189441 0.31645,0.611013"
       inkscape:connector-curvature="0" />
    <path
       id="path396"
       style="fill:#ea642f;fill-opacity:1;fill-rule:nonzero;stroke:none;stroke-width:0.03527778"
       d="m 23.630723,17.034448 -0.0247,-0.0024 0.13617,0.135821 z"
       inkscape:connector-curvature="0" />
    <path
       id="path398"
       style="fill:#a63e1f;fill-opacity:1;fill-rule:nonzero;stroke:none;stroke-width:0.03527778"
       d="m 29.423683,21.458633 0.29527,0.210608 0.46355,-0.04198 0.52635,-0.8636 0.61066,-1.580091 -0.31574,-1.22202 -0.48366,-1.15923 0.0836,-0.75847 0.27411,-0.10513 0.2099,0.505883 0.54822,0.336905 0.86395,-0.294923 0.25294,-1.559277 -1.264,-1.791055 -1.60126,-0.505176 -1.18004,0.358068 -0.90593,1.432632 -0.10584,0.842433 0.23178,0.969785 0.52705,0.65264 0.92675,1.306335 0.48436,1.095375 -0.14676,1.222375 -0.29527,0.947915"
       inkscape:connector-curvature="0" />
    <path
       id="path400"
       style="fill:#c0b9b4;fill-opacity:1;fill-rule:nonzero;stroke:none;stroke-width:0.03527778"
       d="m 31.052103,19.876073 v -2.65e-4 l 0.26741,-0.69215 -0.26741,0.692505 m -0.53199,-3.073755 v 0 l 0.0836,-0.75847 0.27411,-0.10513 0.2099,0.505883 0.54822,0.336905 0.32244,-0.110067 v 0 l -0.32244,0.110067 -0.54822,-0.336905 -0.2099,-0.505883 -0.27411,0.10513 -0.0836,0.75847"
       inkscape:connector-curvature="0" />
    <path
       id="path402"
       style="fill:#7b2e19;fill-opacity:1;fill-rule:nonzero;stroke:none;stroke-width:0.03527778"
       d="m 31.052103,19.875718 c 0.0325,-0.305152 0.078,-0.818795 0.078,-0.818795 0,0 -0.44274,-1.17969 -0.4632,-1.264005 -0.0212,-0.08431 -0.67416,-1.20156 -0.67416,-1.20156 0,0 -0.29457,-1.158523 -0.27376,-1.264002 0.0212,-0.10513 0.40005,-0.905581 0.40005,-0.905581 l 0.9271,0.0635 0.50553,0.694973 -0.27375,0.61101 0.10513,0.54751 0.35842,0.25259 0.21696,0.08008 -0.32244,0.110067 -0.54822,-0.336905 -0.2099,-0.505883 -0.27411,0.10513 -0.0836,0.75847 0.48366,1.15923 0.31574,1.22202 -0.26741,0.69215"
       inkscape:connector-curvature="0" />
    <path
       id="path404"
       style="fill:#c0b9b4;fill-opacity:1;fill-rule:nonzero;stroke:none;stroke-width:0.03527778"
       d="m 29.530223,21.534833 -0.0653,-0.04692 v 0 l 0.0653,0.04657 v 2.65e-4 m -0.82268,-8.54569 0.30233,-0.09172 -2.6e-4,2.65e-4 -0.30198,0.09137"
       inkscape:connector-curvature="0" />
    <path
       id="path406"
       style="fill:#742c18;fill-opacity:1;fill-rule:nonzero;stroke:none;stroke-width:0.03527778"
       d="m 29.464953,21.487914 -0.0413,-0.02928 0.0413,0.02928 v 0"
       inkscape:connector-curvature="0" />
    <path
       id="path408"
       style="fill:#7b2e19;fill-opacity:1;fill-rule:nonzero;stroke:none;stroke-width:0.03527778"
       d="m 29.530223,21.534481 -0.0653,-0.04657 -0.0413,-0.02928 0.29527,-0.947915 0.14676,-1.222375 -0.48436,-1.095375 -0.92675,-1.306335 -0.52705,-0.65264 -0.23178,-0.969785 0.10584,-0.842433 0.90593,-1.432632 0.30198,-0.09137 -0.28117,0.281164 c 0,0 -0.48436,0.758471 -0.52634,0.842434 -0.0423,0.08396 -0.21096,0.969078 -0.21096,0.969078 l 0.33761,0.800807 0.86289,0.8001 0.94862,1.222727 0.31609,0.863248 c 0,0 -0.12629,1.285168 -0.14781,1.369835 -0.0205,0.08396 -0.35772,0.885121 -0.35772,0.885121 l -0.42051,0.602192"
       inkscape:connector-curvature="0" />
    <path
       id="path410"
       style="fill:#d14e1f;fill-opacity:1;fill-rule:nonzero;stroke:none;stroke-width:0.03527778"
       d="m 29.887583,12.631075 -0.50553,0.153106 0.58949,0.12065 0.96873,0.337254 0.65335,0.505531 0.54856,1.011415 0.042,0.589137 0.31573,0.506238 -0.12912,0.675569 0.12912,-0.04304 0.25294,-1.559629 -1.264,-1.791055 -1.60126,-0.505176"
       inkscape:connector-curvature="0" />
    <path
       id="path412"
       style="fill:#ea642f;fill-opacity:1;fill-rule:nonzero;stroke:none;stroke-width:0.03527778"
       d="m 24.135543,15.29631 0.13723,-0.273754 0.19967,-0.08432 0.31644,0.08432 -0.0314,0.23142 -0.15805,0.189797 -0.24271,0.0314 -0.18979,-0.116062 -0.0314,-0.0628"
       inkscape:connector-curvature="0" />
    <path
       id="path414"
       style="fill:#59494c;fill-opacity:1;fill-rule:nonzero;stroke:none;stroke-width:0.03527778"
       d="m 24.441053,14.995743 -0.13441,0.07126 -0.0709,0.126294 -0.0395,0.0949 0.0159,0.04763 0.18204,0.07867 0.17356,-0.01588 0.1263,-0.118181 0.0476,-0.118885 0.008,-0.09454 -0.18168,-0.07902 -0.12665,0.0078"
       inkscape:connector-curvature="0" />
    <path
       id="path416"
       style="fill:#2e2424;fill-opacity:1;fill-rule:nonzero;stroke:none;stroke-width:0.03527778"
       d="m 24.530653,15.017264 -0.10513,0.01588 -0.079,0.04692 -0.0321,0.06315 v 0.0949 l 0.048,0.10019 0.084,0.03175 0.12135,-0.01587 0.09,-0.07902 0.0155,-0.131937 -0.0423,-0.08926 -0.10019,-0.03669"
       inkscape:connector-curvature="0" />
    <path
       id="path418"
       style="fill:#59494c;fill-opacity:1;fill-rule:nonzero;stroke:none;stroke-width:0.03527778"
       d="m 24.451633,15.106164 -0.0106,0.0635 0.048,0.0053 0.0367,-0.06315 -0.0741,-0.0056"
       inkscape:connector-curvature="0" />
    <path
       id="path420"
       style="fill:#a63e1f;fill-opacity:1;fill-rule:nonzero;stroke:none;stroke-width:0.03527778"
       d="m 23.314273,16.149326 0.0938,0.182034 0.0854,-0.108654 -0.0102,-0.09455 0.12523,-0.03139 v -0.0949 l -0.0734,-0.01058 h -0.1337 l -0.0871,0.158043"
       inkscape:connector-curvature="0" />
    <path
       id="path422"
       style="fill:#a63e1f;fill-opacity:1;fill-rule:nonzero;stroke:none;stroke-width:0.03527778"
       d="m 23.629303,16.759281 0.001,0.0011 0.12876,0.04868 0.31327,-0.0067 0.26352,-0.0949 0.042,-0.06315 -0.0533,-0.0314 -0.18873,0.09455 -0.2847,0.07408 -0.22225,-0.02222"
       inkscape:connector-curvature="0" />
    <path
       id="path424"
       style="fill:#ea642f;fill-opacity:1;fill-rule:nonzero;stroke:none;stroke-width:0.03527778"
       d="m 25.689533,14.55336 0.33831,0.08678 -0.0169,-0.02858 -0.35807,-0.232127 -0.80116,-0.02082 -0.94756,0.526698 -0.20885,0.426508 0.38241,-0.394758 0.56868,-0.237067 0.58491,-0.189794 0.45826,0.06315"
       inkscape:connector-curvature="0" />
    <path
       id="path426"
       style="fill:#d14e1f;fill-opacity:1;fill-rule:nonzero;stroke:none;stroke-width:0.03527778"
       d="m 24.978683,14.473633 0.0998,0.128765 0.18626,0.0141 0.35737,-0.05715 0.11465,-0.286102 -0.0145,-0.457906 -0.0575,-0.343607 -0.2286,-0.0141 -0.42933,0.386292 0.0148,0.329141 -0.043,0.300567"
       inkscape:connector-curvature="0" />
    <path
       id="path428"
       style="fill:#ea642f;fill-opacity:1;fill-rule:nonzero;stroke:none;stroke-width:0.03527778"
       d="m 25.236213,13.743735 -0.12947,0.171804 v 0.429329 l -0.0646,0.209905 0.0363,0.04763 0.18626,0.0141 0.12665,-0.02045 0.0593,-0.351367 -0.0282,-0.243417 -0.18626,-0.257529"
       inkscape:connector-curvature="0" />
    <path
       id="path430"
       style="fill:#a63e1f;fill-opacity:1;fill-rule:nonzero;stroke:none;stroke-width:0.03527778"
       d="m 25.584753,14.565356 0.0374,-0.006 0.11465,-0.286102 -0.0145,-0.457906 -0.0575,-0.343607 -0.2286,-0.0141 -0.42933,0.386292 0.0148,0.329141 -0.043,0.300567 0.0998,0.128765 0.0173,0.0011 c 0.0406,-0.12065 0.0829,-0.273757 0.0829,-0.301625 0,-0.04304 0,-0.386292 0,-0.386292 l 0.18591,-0.286458 0.17216,-0.09983 0.0998,0.128762 0.0282,0.38594 -0.0141,0.243768 -0.066,0.277638"
       inkscape:connector-curvature="0" />
  </g>
</svg>
