<?xml version="1.0" encoding="UTF-8" standalone="no"?>
<!-- Created with Inkscape (http://www.inkscape.org/) -->

<svg
   xmlns:dc="http://purl.org/dc/elements/1.1/"
   xmlns:cc="http://creativecommons.org/ns#"
   xmlns:rdf="http://www.w3.org/1999/02/22-rdf-syntax-ns#"
   xmlns:svg="http://www.w3.org/2000/svg"
   xmlns="http://www.w3.org/2000/svg"
   xmlns:sodipodi="http://sodipodi.sourceforge.net/DTD/sodipodi-0.dtd"
   xmlns:inkscape="http://www.inkscape.org/namespaces/inkscape"
   width="55.030285mm"
   height="76.225357mm"
   viewBox="0 0 55.030285 76.225357"
   version="1.1"
   id="svg8"
   inkscape:version="0.92.4 (f8dce91, 2019-08-02)"
   sodipodi:docname="tolstoy.svg">
  <defs
     id="defs2" />
  <sodipodi:namedview
     id="base"
     pagecolor="#ffffff"
     bordercolor="#666666"
     borderopacity="1.0"
     inkscape:pageopacity="0.0"
     inkscape:pageshadow="2"
     inkscape:zoom="0.7"
     inkscape:cx="56.511108"
     inkscape:cy="76.236549"
     inkscape:document-units="mm"
     inkscape:current-layer="layer2"
     showgrid="false"
     showguides="true"
     inkscape:guide-bbox="true"
     fit-margin-top="0"
     fit-margin-left="0"
     fit-margin-right="0"
     fit-margin-bottom="0"
     inkscape:window-width="1366"
     inkscape:window-height="712"
     inkscape:window-x="0"
     inkscape:window-y="28"
     inkscape:window-maximized="1" />
  <metadata
     id="metadata5">
    <rdf:RDF>
      <cc:Work
         rdf:about="">
        <dc:format>image/svg+xml</dc:format>
        <dc:type
           rdf:resource="http://purl.org/dc/dcmitype/StillImage" />
        <dc:title></dc:title>
      </cc:Work>
    </rdf:RDF>
  </metadata>
  <g
     inkscape:groupmode="layer"
     id="layer2"
     inkscape:label="Layer 2"
     transform="translate(-0.45509012,-0.41451935)">
    <ellipse
       style="opacity:1;fill:#537260;fill-opacity:1;stroke:none;stroke-width:0.26499999;stroke-miterlimit:4;stroke-dasharray:none;stroke-opacity:1"
       id="path861"
       cx="27.686752"
       cy="57.646572"
       rx="16.158482"
       ry="18.993303" />
    <path
       id="path883"
       style="fill:#bebebe;fill-opacity:1;stroke:none;stroke-width:0.26458332px;stroke-linecap:butt;stroke-linejoin:miter;stroke-opacity:1"
       d="m 27.970232,5.391367 -2e-6,-3.449031 c 0,0 4.630205,-4.582962 13.13467,2.126115 8.504462,6.709079 2.173362,7.9375 6.80357,11.43378 4.630208,3.496279 7.843007,2.55134 7.559524,6.709077 -0.283482,4.157739 -2.55134,3.212798 -2.55134,3.212798 0,0 -0.615183,1.121442 -1.584034,0.687128 -0.167042,0.935445 -0.701582,4.844262 -5.378799,3.608139 -0.267269,2.405425 -2.104747,2.739515 -2.104747,2.739515 0,0 -1.937705,1.00226 -3.006783,-1.737255 C 39.773213,27.982122 29.954602,11.816964 29.954602,11.816964 Z m 0,0 2e-6,-3.449031 c 0,0 -4.630205,-4.582962 -13.13467,2.126115 -8.5044619,6.709079 -2.173362,7.9375 -6.8035699,11.43378 -4.630208,3.496279 -7.84300703,2.55134 -7.55952403,6.709077 0.283482,4.157739 2.55134003,3.212798 2.55134003,3.212798 0,0 0.615183,1.121442 1.584034,0.687128 0.167042,0.935445 0.701582,4.844262 5.378799,3.608139 0.2672689,2.405425 2.1047469,2.739515 2.1047469,2.739515 0,0 1.937705,1.00226 3.006783,-1.737255 1.069078,-2.739511 10.887689,-18.904669 10.887689,-18.904669 z"
       inkscape:connector-curvature="0" />
    <path
       id="path863"
       style="fill:#e9e9e9;fill-opacity:1;stroke:none;stroke-width:0.26458332px;stroke-linecap:butt;stroke-linejoin:miter;stroke-opacity:1"
       d="m 43.281133,27.81508 c 0,0 -0.734991,0.868627 0.567947,4.643808 1.302938,3.77518 7.049233,5.245163 7.583773,6.982414 0.534538,1.737252 -0.801809,1.870888 -0.400905,2.672697 0.400905,0.801806 3.207234,2.138156 2.80633,4.276312 -0.400905,2.138156 -2.405425,1.469983 -2.405425,2.138156 0,0.668174 3.741772,2.80633 3.340867,4.543581 -0.400902,1.737252 -3.340867,1.870887 -3.340867,1.870887 0,0 2.806329,3.474503 1.069078,5.211755 -1.737252,1.737254 -3.474503,0.935445 -3.474503,0.935445 0,0 1.202711,1.336347 -0.53454,2.939965 -1.737252,1.603616 -3.073599,1.069078 -3.073599,1.069078 0,0 1.069078,1.603616 0.267269,3.073599 -0.801809,1.469982 -4.543584,2.806329 -4.543584,2.806329 0,0 0.935445,3.741773 -1.737251,4.944483 -2.672694,1.20272 -5.211755,-1.33634 -5.612659,-2.271786 -0.400905,-0.935445 0.801809,-1.870888 0.801809,-1.870888 0,0 -2.271792,-0.935442 -2.939965,-2.53906 -0.668174,-1.603616 1.069078,-3.207234 1.069078,-3.207234 0,0 -2.674885,-0.639533 -2.958367,-2.76565 -0.28348,-2.126115 1.464659,-4.393973 1.464659,-4.393973 0,0 -3.260042,-1.653646 -3.260042,-3.307291 0,-1.653646 1.984372,-2.598587 1.606396,-4.015997 -0.377976,-1.41741 -1.606396,-1.322917 -1.606396,-1.322917 V 27.219492 Z m -30.621796,0 c 0,0 0.734991,0.868627 -0.567947,4.643808 -1.302938,3.77518 -7.0492329,5.245163 -7.5837729,6.982414 -0.534538,1.737252 0.801809,1.870888 0.400905,2.672697 -0.400905,0.801806 -3.207234,2.138156 -2.80633,4.276312 0.400905,2.138156 2.405425,1.469983 2.405425,2.138156 0,0.668174 -3.74177203,2.80633 -3.340867,4.543581 0.400902,1.737252 3.340867,1.870887 3.340867,1.870887 0,0 -2.806329,3.474503 -1.069078,5.211755 1.737252,1.737254 3.474503,0.935445 3.474503,0.935445 0,0 -1.202711,1.336347 0.53454,2.939965 1.737252,1.603616 3.0735989,1.069078 3.0735989,1.069078 0,0 -1.0690779,1.603616 -0.267269,3.073599 0.801809,1.469982 4.543584,2.806329 4.543584,2.806329 0,0 -0.935445,3.741773 1.737251,4.944483 2.672694,1.20272 5.211755,-1.33634 5.612659,-2.271786 0.400905,-0.935445 -0.801809,-1.870888 -0.801809,-1.870888 0,0 2.271792,-0.935442 2.939965,-2.53906 0.668174,-1.603616 -1.069078,-3.207234 -1.069078,-3.207234 0,0 2.674885,-0.639533 2.958367,-2.76565 0.28348,-2.126115 -1.464659,-4.393973 -1.464659,-4.393973 0,0 3.260042,-1.653646 3.260042,-3.307291 0,-1.653646 -1.984372,-2.598587 -1.606396,-4.015997 0.377976,-1.41741 1.606396,-1.322917 1.606396,-1.322917 V 27.219492 Z"
       inkscape:connector-curvature="0" />
    <path
       id="path880"
       style="fill:#fdc18b;fill-opacity:1;stroke:none;stroke-width:0.27280807px;stroke-linecap:butt;stroke-linejoin:miter;stroke-opacity:1"
       d="m 40.578443,23.501715 c 0,0 1.202309,-3.606292 4.522975,-2.321292 3.320661,1.285003 -0.05726,4.26952 0,4.559681 0.05726,0.290162 0.410092,5.338445 -1.82743,5.301402 -2.237522,-0.03704 -0.06191,-2.814304 -1.206971,-3.767692 -1.145057,-0.953387 -1.946596,-2.570002 -1.488574,-3.772099 z M 27.970232,5.391367 c 0,0 14.55208,-1.133927 14.55208,16.063989 0,17.197917 -14.55208,18.331844 -14.55208,18.331844 z M 15.362023,23.501715 c 0,0 -1.202309,-3.606292 -4.522975,-2.321292 -3.3206609,1.285003 0.05726,4.26952 0,4.559681 -0.05726,0.290162 -0.410092,5.338445 1.82743,5.301402 2.237522,-0.03704 0.06191,-2.814304 1.206971,-3.767692 1.145057,-0.953387 1.946596,-2.570002 1.488574,-3.772099 z M 27.970234,5.391367 c 0,0 -14.55208,-1.133927 -14.55208,16.063989 0,17.197917 14.55208,18.331844 14.55208,18.331844 z"
       inkscape:connector-curvature="0" />
    <circle
       style="opacity:1;fill:#000000;fill-opacity:1;stroke:none;stroke-width:0.09998222;stroke-miterlimit:4;stroke-dasharray:none;stroke-opacity:1"
       id="path831"
       cx="22.147408"
       cy="23.872852"
       r="0.84563923" />
    <path
       style="fill:#bebebe;fill-opacity:1;stroke:#bebebe;stroke-width:0.26458332px;stroke-linecap:butt;stroke-linejoin:miter;stroke-opacity:1"
       d="m 26.991668,21.033113 c 0,0 -1.737254,-0.267269 -2.706106,-1.570207 -0.968851,-1.30294 -2.472242,-1.469982 -3.207234,-0.868627 -1.169305,-0.868624 -3.173825,-1.269529 -3.240643,0.567949 -1.00226,-0.400904 -2.104747,0.534538 -1.637025,1.302938 0.46772,0.768401 0.701583,0.935443 3.474503,0.935443 2.772921,0 3.34087,0.400904 4.34313,0.400904 1.002261,0 2.973375,-0.7684 2.973375,-0.7684 z"
       id="path851"
       inkscape:connector-curvature="0" />
    <path
       id="path867"
       style="fill:#bebebe;fill-opacity:1;stroke:none;stroke-width:0.26458332px;stroke-linecap:butt;stroke-linejoin:miter;stroke-opacity:1"
       d="m 27.970236,32.085936 3.307289,0.188989 c 0,0 3.023809,0.803199 4.630208,3.023809 1.606399,2.220609 4.157739,1.74814 4.771948,1.086681 -0.472469,1.41741 -1.889879,2.69308 -4.582959,1.086681 0.803198,1.322917 -1.039437,1.984375 -2.740329,0.0945 0.377976,1.511903 -1.27567,1.842632 -2.409598,-0.472472 -0.09449,1.889882 -2.976559,0.519697 -2.976559,-1.086691 0,-1.606389 0,-3.921493 0,-3.921493 z m -2e-6,0 -3.307289,0.188989 c 0,0 -3.023809,0.803199 -4.630208,3.023809 -1.606399,2.220609 -4.157739,1.74814 -4.771948,1.086681 0.472469,1.41741 1.889879,2.69308 4.582959,1.086681 -0.803198,1.322917 1.039437,1.984375 2.740329,0.0945 -0.377976,1.511903 1.27567,1.842632 2.409598,-0.472472 0.09449,1.889882 2.976559,0.519697 2.976559,-1.086691 0,-1.606389 0,-3.921493 0,-3.921493 z"
       inkscape:connector-curvature="0" />
    <path
       inkscape:connector-curvature="0"
       id="path877"
       d="m 29.883786,21.033113 c 0,0 1.737254,-0.267269 2.706106,-1.570207 0.968851,-1.30294 2.472242,-1.469982 3.207234,-0.868627 1.169305,-0.868624 3.173825,-1.269529 3.240643,0.567949 1.00226,-0.400904 2.104747,0.534538 1.637025,1.302938 -0.46772,0.768401 -0.701583,0.935443 -3.474503,0.935443 -2.772921,0 -3.34087,0.400904 -4.34313,0.400904 -1.002261,0 -2.973375,-0.7684 -2.973375,-0.7684 z"
       style="fill:#bebebe;fill-opacity:1;stroke:#bebebe;stroke-width:0.26458332px;stroke-linecap:butt;stroke-linejoin:miter;stroke-opacity:1" />
    <path
       id="path870"
       style="opacity:1;fill:#c5713a;fill-opacity:1;stroke:none;stroke-width:0.79374999;stroke-miterlimit:4;stroke-dasharray:none;stroke-opacity:1"
       d="m 29.362399,19.596661 c 0.418796,0 0.75551,0.33723 0.75551,0.756028 v 9.450068 h 1.1529 c 0.749591,0 1.352889,0.603816 1.352889,1.353407 v 0.283702 c 0,0.749591 -0.603298,1.352889 -1.352889,1.352889 h -1.1529 v 0.01292 c 0,0.418799 -0.336714,0.75551 -0.75551,0.75551 h -0.116271 v 10e-4 H 27.970236 V 32.805674 32.688369 20.718558 20.352689 19.599762 h 0.725537 c 0.01033,-4.13e-4 0.02005,-0.0031 0.03049,-0.0031 z m -2.784325,0 c -0.418796,0 -0.75551,0.33723 -0.75551,0.756028 v 9.450068 h -1.152901 c -0.749591,0 -1.352888,0.603816 -1.352888,1.353407 v 0.283702 c 0,0.749591 0.603297,1.352889 1.352888,1.352889 h 1.152901 v 0.01292 c 0,0.418799 0.336714,0.75551 0.75551,0.75551 h 0.116271 v 10e-4 h 1.275892 V 32.805674 32.688369 20.718558 20.352689 19.599762 h -0.725538 c -0.01033,-4.13e-4 -0.02005,-0.0031 -0.03049,-0.0031 z"
       inkscape:connector-curvature="0" />
    <circle
       r="0.84563923"
       cy="23.872852"
       cx="33.392197"
       id="circle875"
       style="opacity:1;fill:#000000;fill-opacity:1;stroke:none;stroke-width:0.09998222;stroke-miterlimit:4;stroke-dasharray:none;stroke-opacity:1" />
  </g>
</svg>
